%TF.GenerationSoftware,KiCad,Pcbnew,5.1.9+dfsg1-1*%
%TF.CreationDate,2022-07-19T15:57:22+03:00*%
%TF.ProjectId,Meteostation,4d657465-6f73-4746-9174-696f6e2e6b69,rev?*%
%TF.SameCoordinates,Original*%
%TF.FileFunction,Soldermask,Bot*%
%TF.FilePolarity,Negative*%
%FSLAX46Y46*%
G04 Gerber Fmt 4.6, Leading zero omitted, Abs format (unit mm)*
G04 Created by KiCad (PCBNEW 5.1.9+dfsg1-1) date 2022-07-19 15:57:22*
%MOMM*%
%LPD*%
G01*
G04 APERTURE LIST*
%ADD10R,1.400000X2.100000*%
%ADD11C,1.524000*%
%ADD12R,0.400000X1.900000*%
%ADD13R,1.600000X0.550000*%
%ADD14R,0.550000X1.600000*%
%ADD15R,1.270000X1.550000*%
%ADD16C,0.100000*%
%ADD17R,3.100000X2.410000*%
%ADD18C,3.000000*%
G04 APERTURE END LIST*
%TO.C,C30*%
G36*
G01*
X34674999Y-84475000D02*
X36875001Y-84475000D01*
G75*
G02*
X37125000Y-84724999I0J-249999D01*
G01*
X37125000Y-85375001D01*
G75*
G02*
X36875001Y-85625000I-249999J0D01*
G01*
X34674999Y-85625000D01*
G75*
G02*
X34425000Y-85375001I0J249999D01*
G01*
X34425000Y-84724999D01*
G75*
G02*
X34674999Y-84475000I249999J0D01*
G01*
G37*
G36*
G01*
X34674999Y-81525000D02*
X36875001Y-81525000D01*
G75*
G02*
X37125000Y-81774999I0J-249999D01*
G01*
X37125000Y-82425001D01*
G75*
G02*
X36875001Y-82675000I-249999J0D01*
G01*
X34674999Y-82675000D01*
G75*
G02*
X34425000Y-82425001I0J249999D01*
G01*
X34425000Y-81774999D01*
G75*
G02*
X34674999Y-81525000I249999J0D01*
G01*
G37*
%TD*%
D10*
%TO.C,D16*%
X22044300Y-84404200D03*
X26444300Y-84404200D03*
%TD*%
D11*
%TO.C,J9*%
X52600000Y-75700000D03*
%TD*%
%TO.C,J8*%
X52650000Y-73600000D03*
%TD*%
%TO.C,R5*%
G36*
G01*
X42589000Y-87943100D02*
X42589000Y-87393100D01*
G75*
G02*
X42789000Y-87193100I200000J0D01*
G01*
X43189000Y-87193100D01*
G75*
G02*
X43389000Y-87393100I0J-200000D01*
G01*
X43389000Y-87943100D01*
G75*
G02*
X43189000Y-88143100I-200000J0D01*
G01*
X42789000Y-88143100D01*
G75*
G02*
X42589000Y-87943100I0J200000D01*
G01*
G37*
G36*
G01*
X40939000Y-87943100D02*
X40939000Y-87393100D01*
G75*
G02*
X41139000Y-87193100I200000J0D01*
G01*
X41539000Y-87193100D01*
G75*
G02*
X41739000Y-87393100I0J-200000D01*
G01*
X41739000Y-87943100D01*
G75*
G02*
X41539000Y-88143100I-200000J0D01*
G01*
X41139000Y-88143100D01*
G75*
G02*
X40939000Y-87943100I0J200000D01*
G01*
G37*
%TD*%
%TO.C,D1*%
G36*
G01*
X39796200Y-86946450D02*
X39796200Y-86433950D01*
G75*
G02*
X40014950Y-86215200I218750J0D01*
G01*
X40452450Y-86215200D01*
G75*
G02*
X40671200Y-86433950I0J-218750D01*
G01*
X40671200Y-86946450D01*
G75*
G02*
X40452450Y-87165200I-218750J0D01*
G01*
X40014950Y-87165200D01*
G75*
G02*
X39796200Y-86946450I0J218750D01*
G01*
G37*
G36*
G01*
X38221200Y-86946450D02*
X38221200Y-86433950D01*
G75*
G02*
X38439950Y-86215200I218750J0D01*
G01*
X38877450Y-86215200D01*
G75*
G02*
X39096200Y-86433950I0J-218750D01*
G01*
X39096200Y-86946450D01*
G75*
G02*
X38877450Y-87165200I-218750J0D01*
G01*
X38439950Y-87165200D01*
G75*
G02*
X38221200Y-86946450I0J218750D01*
G01*
G37*
%TD*%
D12*
%TO.C,Y1*%
X46475000Y-67775000D03*
X47675000Y-67775000D03*
X48875000Y-67775000D03*
%TD*%
D13*
%TO.C,U1*%
X40300000Y-71850000D03*
X40300000Y-72650000D03*
X40300000Y-73450000D03*
X40300000Y-74250000D03*
X40300000Y-75050000D03*
X40300000Y-75850000D03*
X40300000Y-76650000D03*
X40300000Y-77450000D03*
D14*
X41750000Y-78900000D03*
X42550000Y-78900000D03*
X43350000Y-78900000D03*
X44150000Y-78900000D03*
X44950000Y-78900000D03*
X45750000Y-78900000D03*
X46550000Y-78900000D03*
X47350000Y-78900000D03*
D13*
X48800000Y-77450000D03*
X48800000Y-76650000D03*
X48800000Y-75850000D03*
X48800000Y-75050000D03*
X48800000Y-74250000D03*
X48800000Y-73450000D03*
X48800000Y-72650000D03*
X48800000Y-71850000D03*
D14*
X47350000Y-70400000D03*
X46550000Y-70400000D03*
X45750000Y-70400000D03*
X44950000Y-70400000D03*
X44150000Y-70400000D03*
X43350000Y-70400000D03*
X42550000Y-70400000D03*
X41750000Y-70400000D03*
%TD*%
%TO.C,C5*%
G36*
G01*
X45250000Y-80950000D02*
X45250000Y-80450000D01*
G75*
G02*
X45475000Y-80225000I225000J0D01*
G01*
X45925000Y-80225000D01*
G75*
G02*
X46150000Y-80450000I0J-225000D01*
G01*
X46150000Y-80950000D01*
G75*
G02*
X45925000Y-81175000I-225000J0D01*
G01*
X45475000Y-81175000D01*
G75*
G02*
X45250000Y-80950000I0J225000D01*
G01*
G37*
G36*
G01*
X43700000Y-80950000D02*
X43700000Y-80450000D01*
G75*
G02*
X43925000Y-80225000I225000J0D01*
G01*
X44375000Y-80225000D01*
G75*
G02*
X44600000Y-80450000I0J-225000D01*
G01*
X44600000Y-80950000D01*
G75*
G02*
X44375000Y-81175000I-225000J0D01*
G01*
X43925000Y-81175000D01*
G75*
G02*
X43700000Y-80950000I0J225000D01*
G01*
G37*
%TD*%
D11*
%TO.C,J14*%
X40450000Y-65825000D03*
%TD*%
D15*
%TO.C,D14*%
X21950000Y-80945000D03*
X24450000Y-80945000D03*
X26950000Y-80945000D03*
X29450000Y-80945000D03*
X31950000Y-80945000D03*
X31950000Y-64405000D03*
X29450000Y-64405000D03*
X26950000Y-64405000D03*
X24450000Y-64405000D03*
X21950000Y-64405000D03*
%TD*%
%TO.C,C43*%
G36*
G01*
X50728332Y-97450000D02*
X50388332Y-97450000D01*
G75*
G02*
X50248332Y-97310000I0J140000D01*
G01*
X50248332Y-97030000D01*
G75*
G02*
X50388332Y-96890000I140000J0D01*
G01*
X50728332Y-96890000D01*
G75*
G02*
X50868332Y-97030000I0J-140000D01*
G01*
X50868332Y-97310000D01*
G75*
G02*
X50728332Y-97450000I-140000J0D01*
G01*
G37*
G36*
G01*
X50728332Y-98410000D02*
X50388332Y-98410000D01*
G75*
G02*
X50248332Y-98270000I0J140000D01*
G01*
X50248332Y-97990000D01*
G75*
G02*
X50388332Y-97850000I140000J0D01*
G01*
X50728332Y-97850000D01*
G75*
G02*
X50868332Y-97990000I0J-140000D01*
G01*
X50868332Y-98270000D01*
G75*
G02*
X50728332Y-98410000I-140000J0D01*
G01*
G37*
%TD*%
%TO.C,C38*%
G36*
G01*
X49586666Y-97450000D02*
X49246666Y-97450000D01*
G75*
G02*
X49106666Y-97310000I0J140000D01*
G01*
X49106666Y-97030000D01*
G75*
G02*
X49246666Y-96890000I140000J0D01*
G01*
X49586666Y-96890000D01*
G75*
G02*
X49726666Y-97030000I0J-140000D01*
G01*
X49726666Y-97310000D01*
G75*
G02*
X49586666Y-97450000I-140000J0D01*
G01*
G37*
G36*
G01*
X49586666Y-98410000D02*
X49246666Y-98410000D01*
G75*
G02*
X49106666Y-98270000I0J140000D01*
G01*
X49106666Y-97990000D01*
G75*
G02*
X49246666Y-97850000I140000J0D01*
G01*
X49586666Y-97850000D01*
G75*
G02*
X49726666Y-97990000I0J-140000D01*
G01*
X49726666Y-98270000D01*
G75*
G02*
X49586666Y-98410000I-140000J0D01*
G01*
G37*
%TD*%
%TO.C,C35*%
G36*
G01*
X51870000Y-97450000D02*
X51530000Y-97450000D01*
G75*
G02*
X51390000Y-97310000I0J140000D01*
G01*
X51390000Y-97030000D01*
G75*
G02*
X51530000Y-96890000I140000J0D01*
G01*
X51870000Y-96890000D01*
G75*
G02*
X52010000Y-97030000I0J-140000D01*
G01*
X52010000Y-97310000D01*
G75*
G02*
X51870000Y-97450000I-140000J0D01*
G01*
G37*
G36*
G01*
X51870000Y-98410000D02*
X51530000Y-98410000D01*
G75*
G02*
X51390000Y-98270000I0J140000D01*
G01*
X51390000Y-97990000D01*
G75*
G02*
X51530000Y-97850000I140000J0D01*
G01*
X51870000Y-97850000D01*
G75*
G02*
X52010000Y-97990000I0J-140000D01*
G01*
X52010000Y-98270000D01*
G75*
G02*
X51870000Y-98410000I-140000J0D01*
G01*
G37*
%TD*%
%TO.C,C31*%
G36*
G01*
X48445000Y-97450000D02*
X48105000Y-97450000D01*
G75*
G02*
X47965000Y-97310000I0J140000D01*
G01*
X47965000Y-97030000D01*
G75*
G02*
X48105000Y-96890000I140000J0D01*
G01*
X48445000Y-96890000D01*
G75*
G02*
X48585000Y-97030000I0J-140000D01*
G01*
X48585000Y-97310000D01*
G75*
G02*
X48445000Y-97450000I-140000J0D01*
G01*
G37*
G36*
G01*
X48445000Y-98410000D02*
X48105000Y-98410000D01*
G75*
G02*
X47965000Y-98270000I0J140000D01*
G01*
X47965000Y-97990000D01*
G75*
G02*
X48105000Y-97850000I140000J0D01*
G01*
X48445000Y-97850000D01*
G75*
G02*
X48585000Y-97990000I0J-140000D01*
G01*
X48585000Y-98270000D01*
G75*
G02*
X48445000Y-98410000I-140000J0D01*
G01*
G37*
%TD*%
%TO.C,C27*%
G36*
G01*
X48900000Y-96170000D02*
X48900000Y-95830000D01*
G75*
G02*
X49040000Y-95690000I140000J0D01*
G01*
X49320000Y-95690000D01*
G75*
G02*
X49460000Y-95830000I0J-140000D01*
G01*
X49460000Y-96170000D01*
G75*
G02*
X49320000Y-96310000I-140000J0D01*
G01*
X49040000Y-96310000D01*
G75*
G02*
X48900000Y-96170000I0J140000D01*
G01*
G37*
G36*
G01*
X47940000Y-96170000D02*
X47940000Y-95830000D01*
G75*
G02*
X48080000Y-95690000I140000J0D01*
G01*
X48360000Y-95690000D01*
G75*
G02*
X48500000Y-95830000I0J-140000D01*
G01*
X48500000Y-96170000D01*
G75*
G02*
X48360000Y-96310000I-140000J0D01*
G01*
X48080000Y-96310000D01*
G75*
G02*
X47940000Y-96170000I0J140000D01*
G01*
G37*
%TD*%
%TO.C,C39*%
G36*
G01*
X48900000Y-95120000D02*
X48900000Y-94780000D01*
G75*
G02*
X49040000Y-94640000I140000J0D01*
G01*
X49320000Y-94640000D01*
G75*
G02*
X49460000Y-94780000I0J-140000D01*
G01*
X49460000Y-95120000D01*
G75*
G02*
X49320000Y-95260000I-140000J0D01*
G01*
X49040000Y-95260000D01*
G75*
G02*
X48900000Y-95120000I0J140000D01*
G01*
G37*
G36*
G01*
X47940000Y-95120000D02*
X47940000Y-94780000D01*
G75*
G02*
X48080000Y-94640000I140000J0D01*
G01*
X48360000Y-94640000D01*
G75*
G02*
X48500000Y-94780000I0J-140000D01*
G01*
X48500000Y-95120000D01*
G75*
G02*
X48360000Y-95260000I-140000J0D01*
G01*
X48080000Y-95260000D01*
G75*
G02*
X47940000Y-95120000I0J140000D01*
G01*
G37*
%TD*%
D16*
%TO.C,L5*%
G36*
X58852500Y-80545000D02*
G01*
X59432500Y-79950000D01*
X59432500Y-78800000D01*
X58852500Y-78205000D01*
X58852500Y-77430000D01*
X59742500Y-77430000D01*
X60302500Y-77980000D01*
X60302500Y-80770000D01*
X59742500Y-81320000D01*
X58852500Y-81320000D01*
X58852500Y-80545000D01*
G37*
G36*
X55902500Y-80770000D02*
G01*
X55902500Y-77980000D01*
X56462500Y-77430000D01*
X57352500Y-77430000D01*
X57352500Y-78205000D01*
X56772500Y-78800000D01*
X56772500Y-79950000D01*
X57352500Y-80545000D01*
X57352500Y-81320000D01*
X56462500Y-81320000D01*
X55902500Y-80770000D01*
G37*
%TD*%
%TO.C,D4*%
G36*
G01*
X40681250Y-79500000D02*
X40168750Y-79500000D01*
G75*
G02*
X39950000Y-79281250I0J218750D01*
G01*
X39950000Y-78843750D01*
G75*
G02*
X40168750Y-78625000I218750J0D01*
G01*
X40681250Y-78625000D01*
G75*
G02*
X40900000Y-78843750I0J-218750D01*
G01*
X40900000Y-79281250D01*
G75*
G02*
X40681250Y-79500000I-218750J0D01*
G01*
G37*
G36*
G01*
X40681250Y-81075000D02*
X40168750Y-81075000D01*
G75*
G02*
X39950000Y-80856250I0J218750D01*
G01*
X39950000Y-80418750D01*
G75*
G02*
X40168750Y-80200000I218750J0D01*
G01*
X40681250Y-80200000D01*
G75*
G02*
X40900000Y-80418750I0J-218750D01*
G01*
X40900000Y-80856250D01*
G75*
G02*
X40681250Y-81075000I-218750J0D01*
G01*
G37*
%TD*%
%TO.C,R15*%
G36*
G01*
X53050000Y-62825000D02*
X52500000Y-62825000D01*
G75*
G02*
X52300000Y-62625000I0J200000D01*
G01*
X52300000Y-62225000D01*
G75*
G02*
X52500000Y-62025000I200000J0D01*
G01*
X53050000Y-62025000D01*
G75*
G02*
X53250000Y-62225000I0J-200000D01*
G01*
X53250000Y-62625000D01*
G75*
G02*
X53050000Y-62825000I-200000J0D01*
G01*
G37*
G36*
G01*
X53050000Y-64475000D02*
X52500000Y-64475000D01*
G75*
G02*
X52300000Y-64275000I0J200000D01*
G01*
X52300000Y-63875000D01*
G75*
G02*
X52500000Y-63675000I200000J0D01*
G01*
X53050000Y-63675000D01*
G75*
G02*
X53250000Y-63875000I0J-200000D01*
G01*
X53250000Y-64275000D01*
G75*
G02*
X53050000Y-64475000I-200000J0D01*
G01*
G37*
%TD*%
%TO.C,D5*%
G36*
G01*
X53031250Y-65925000D02*
X52518750Y-65925000D01*
G75*
G02*
X52300000Y-65706250I0J218750D01*
G01*
X52300000Y-65268750D01*
G75*
G02*
X52518750Y-65050000I218750J0D01*
G01*
X53031250Y-65050000D01*
G75*
G02*
X53250000Y-65268750I0J-218750D01*
G01*
X53250000Y-65706250D01*
G75*
G02*
X53031250Y-65925000I-218750J0D01*
G01*
G37*
G36*
G01*
X53031250Y-67500000D02*
X52518750Y-67500000D01*
G75*
G02*
X52300000Y-67281250I0J218750D01*
G01*
X52300000Y-66843750D01*
G75*
G02*
X52518750Y-66625000I218750J0D01*
G01*
X53031250Y-66625000D01*
G75*
G02*
X53250000Y-66843750I0J-218750D01*
G01*
X53250000Y-67281250D01*
G75*
G02*
X53031250Y-67500000I-218750J0D01*
G01*
G37*
%TD*%
%TO.C,C54*%
G36*
G01*
X57179640Y-82747939D02*
X57179640Y-84947941D01*
G75*
G02*
X56929641Y-85197940I-249999J0D01*
G01*
X56279639Y-85197940D01*
G75*
G02*
X56029640Y-84947941I0J249999D01*
G01*
X56029640Y-82747939D01*
G75*
G02*
X56279639Y-82497940I249999J0D01*
G01*
X56929641Y-82497940D01*
G75*
G02*
X57179640Y-82747939I0J-249999D01*
G01*
G37*
G36*
G01*
X60129640Y-82747939D02*
X60129640Y-84947941D01*
G75*
G02*
X59879641Y-85197940I-249999J0D01*
G01*
X59229639Y-85197940D01*
G75*
G02*
X58979640Y-84947941I0J249999D01*
G01*
X58979640Y-82747939D01*
G75*
G02*
X59229639Y-82497940I249999J0D01*
G01*
X59879641Y-82497940D01*
G75*
G02*
X60129640Y-82747939I0J-249999D01*
G01*
G37*
%TD*%
%TO.C,C58*%
G36*
G01*
X60475000Y-63950000D02*
X60475000Y-61900000D01*
G75*
G02*
X60725000Y-61650000I250000J0D01*
G01*
X62300000Y-61650000D01*
G75*
G02*
X62550000Y-61900000I0J-250000D01*
G01*
X62550000Y-63950000D01*
G75*
G02*
X62300000Y-64200000I-250000J0D01*
G01*
X60725000Y-64200000D01*
G75*
G02*
X60475000Y-63950000I0J250000D01*
G01*
G37*
G36*
G01*
X54250000Y-63950000D02*
X54250000Y-61900000D01*
G75*
G02*
X54500000Y-61650000I250000J0D01*
G01*
X56075000Y-61650000D01*
G75*
G02*
X56325000Y-61900000I0J-250000D01*
G01*
X56325000Y-63950000D01*
G75*
G02*
X56075000Y-64200000I-250000J0D01*
G01*
X54500000Y-64200000D01*
G75*
G02*
X54250000Y-63950000I0J250000D01*
G01*
G37*
%TD*%
%TO.C,R42*%
G36*
G01*
X57651200Y-66543600D02*
X57651200Y-65993600D01*
G75*
G02*
X57851200Y-65793600I200000J0D01*
G01*
X58251200Y-65793600D01*
G75*
G02*
X58451200Y-65993600I0J-200000D01*
G01*
X58451200Y-66543600D01*
G75*
G02*
X58251200Y-66743600I-200000J0D01*
G01*
X57851200Y-66743600D01*
G75*
G02*
X57651200Y-66543600I0J200000D01*
G01*
G37*
G36*
G01*
X56001200Y-66543600D02*
X56001200Y-65993600D01*
G75*
G02*
X56201200Y-65793600I200000J0D01*
G01*
X56601200Y-65793600D01*
G75*
G02*
X56801200Y-65993600I0J-200000D01*
G01*
X56801200Y-66543600D01*
G75*
G02*
X56601200Y-66743600I-200000J0D01*
G01*
X56201200Y-66743600D01*
G75*
G02*
X56001200Y-66543600I0J200000D01*
G01*
G37*
%TD*%
%TO.C,R41*%
G36*
G01*
X59609400Y-66529400D02*
X59059400Y-66529400D01*
G75*
G02*
X58859400Y-66329400I0J200000D01*
G01*
X58859400Y-65929400D01*
G75*
G02*
X59059400Y-65729400I200000J0D01*
G01*
X59609400Y-65729400D01*
G75*
G02*
X59809400Y-65929400I0J-200000D01*
G01*
X59809400Y-66329400D01*
G75*
G02*
X59609400Y-66529400I-200000J0D01*
G01*
G37*
G36*
G01*
X59609400Y-68179400D02*
X59059400Y-68179400D01*
G75*
G02*
X58859400Y-67979400I0J200000D01*
G01*
X58859400Y-67579400D01*
G75*
G02*
X59059400Y-67379400I200000J0D01*
G01*
X59609400Y-67379400D01*
G75*
G02*
X59809400Y-67579400I0J-200000D01*
G01*
X59809400Y-67979400D01*
G75*
G02*
X59609400Y-68179400I-200000J0D01*
G01*
G37*
%TD*%
D17*
%TO.C,D17*%
X60007500Y-72021700D03*
G36*
G01*
X57952500Y-73871700D02*
X58252500Y-73871700D01*
G75*
G02*
X58402500Y-74021700I0J-150000D01*
G01*
X58402500Y-75321700D01*
G75*
G02*
X58252500Y-75471700I-150000J0D01*
G01*
X57952500Y-75471700D01*
G75*
G02*
X57802500Y-75321700I0J150000D01*
G01*
X57802500Y-74021700D01*
G75*
G02*
X57952500Y-73871700I150000J0D01*
G01*
G37*
G36*
G01*
X59222500Y-73871700D02*
X59522500Y-73871700D01*
G75*
G02*
X59672500Y-74021700I0J-150000D01*
G01*
X59672500Y-75321700D01*
G75*
G02*
X59522500Y-75471700I-150000J0D01*
G01*
X59222500Y-75471700D01*
G75*
G02*
X59072500Y-75321700I0J150000D01*
G01*
X59072500Y-74021700D01*
G75*
G02*
X59222500Y-73871700I150000J0D01*
G01*
G37*
G36*
G01*
X60492500Y-73871700D02*
X60792500Y-73871700D01*
G75*
G02*
X60942500Y-74021700I0J-150000D01*
G01*
X60942500Y-75321700D01*
G75*
G02*
X60792500Y-75471700I-150000J0D01*
G01*
X60492500Y-75471700D01*
G75*
G02*
X60342500Y-75321700I0J150000D01*
G01*
X60342500Y-74021700D01*
G75*
G02*
X60492500Y-73871700I150000J0D01*
G01*
G37*
G36*
G01*
X61762500Y-73871700D02*
X62062500Y-73871700D01*
G75*
G02*
X62212500Y-74021700I0J-150000D01*
G01*
X62212500Y-75321700D01*
G75*
G02*
X62062500Y-75471700I-150000J0D01*
G01*
X61762500Y-75471700D01*
G75*
G02*
X61612500Y-75321700I0J150000D01*
G01*
X61612500Y-74021700D01*
G75*
G02*
X61762500Y-73871700I150000J0D01*
G01*
G37*
G36*
G01*
X61762500Y-68571700D02*
X62062500Y-68571700D01*
G75*
G02*
X62212500Y-68721700I0J-150000D01*
G01*
X62212500Y-70021700D01*
G75*
G02*
X62062500Y-70171700I-150000J0D01*
G01*
X61762500Y-70171700D01*
G75*
G02*
X61612500Y-70021700I0J150000D01*
G01*
X61612500Y-68721700D01*
G75*
G02*
X61762500Y-68571700I150000J0D01*
G01*
G37*
G36*
G01*
X60492500Y-68571700D02*
X60792500Y-68571700D01*
G75*
G02*
X60942500Y-68721700I0J-150000D01*
G01*
X60942500Y-70021700D01*
G75*
G02*
X60792500Y-70171700I-150000J0D01*
G01*
X60492500Y-70171700D01*
G75*
G02*
X60342500Y-70021700I0J150000D01*
G01*
X60342500Y-68721700D01*
G75*
G02*
X60492500Y-68571700I150000J0D01*
G01*
G37*
G36*
G01*
X59222500Y-68571700D02*
X59522500Y-68571700D01*
G75*
G02*
X59672500Y-68721700I0J-150000D01*
G01*
X59672500Y-70021700D01*
G75*
G02*
X59522500Y-70171700I-150000J0D01*
G01*
X59222500Y-70171700D01*
G75*
G02*
X59072500Y-70021700I0J150000D01*
G01*
X59072500Y-68721700D01*
G75*
G02*
X59222500Y-68571700I150000J0D01*
G01*
G37*
G36*
G01*
X57952500Y-68571700D02*
X58252500Y-68571700D01*
G75*
G02*
X58402500Y-68721700I0J-150000D01*
G01*
X58402500Y-70021700D01*
G75*
G02*
X58252500Y-70171700I-150000J0D01*
G01*
X57952500Y-70171700D01*
G75*
G02*
X57802500Y-70021700I0J150000D01*
G01*
X57802500Y-68721700D01*
G75*
G02*
X57952500Y-68571700I150000J0D01*
G01*
G37*
%TD*%
%TO.C,C57*%
G36*
G01*
X56901200Y-67441000D02*
X56901200Y-67941000D01*
G75*
G02*
X56676200Y-68166000I-225000J0D01*
G01*
X56226200Y-68166000D01*
G75*
G02*
X56001200Y-67941000I0J225000D01*
G01*
X56001200Y-67441000D01*
G75*
G02*
X56226200Y-67216000I225000J0D01*
G01*
X56676200Y-67216000D01*
G75*
G02*
X56901200Y-67441000I0J-225000D01*
G01*
G37*
G36*
G01*
X58451200Y-67441000D02*
X58451200Y-67941000D01*
G75*
G02*
X58226200Y-68166000I-225000J0D01*
G01*
X57776200Y-68166000D01*
G75*
G02*
X57551200Y-67941000I0J225000D01*
G01*
X57551200Y-67441000D01*
G75*
G02*
X57776200Y-67216000I225000J0D01*
G01*
X58226200Y-67216000D01*
G75*
G02*
X58451200Y-67441000I0J-225000D01*
G01*
G37*
%TD*%
%TO.C,C56*%
G36*
G01*
X52750000Y-96500000D02*
X53700000Y-96500000D01*
G75*
G02*
X53950000Y-96750000I0J-250000D01*
G01*
X53950000Y-97250000D01*
G75*
G02*
X53700000Y-97500000I-250000J0D01*
G01*
X52750000Y-97500000D01*
G75*
G02*
X52500000Y-97250000I0J250000D01*
G01*
X52500000Y-96750000D01*
G75*
G02*
X52750000Y-96500000I250000J0D01*
G01*
G37*
G36*
G01*
X52750000Y-94600000D02*
X53700000Y-94600000D01*
G75*
G02*
X53950000Y-94850000I0J-250000D01*
G01*
X53950000Y-95350000D01*
G75*
G02*
X53700000Y-95600000I-250000J0D01*
G01*
X52750000Y-95600000D01*
G75*
G02*
X52500000Y-95350000I0J250000D01*
G01*
X52500000Y-94850000D01*
G75*
G02*
X52750000Y-94600000I250000J0D01*
G01*
G37*
%TD*%
%TO.C,C53*%
G36*
G01*
X60307100Y-76615100D02*
X60307100Y-76115100D01*
G75*
G02*
X60532100Y-75890100I225000J0D01*
G01*
X60982100Y-75890100D01*
G75*
G02*
X61207100Y-76115100I0J-225000D01*
G01*
X61207100Y-76615100D01*
G75*
G02*
X60982100Y-76840100I-225000J0D01*
G01*
X60532100Y-76840100D01*
G75*
G02*
X60307100Y-76615100I0J225000D01*
G01*
G37*
G36*
G01*
X58757100Y-76615100D02*
X58757100Y-76115100D01*
G75*
G02*
X58982100Y-75890100I225000J0D01*
G01*
X59432100Y-75890100D01*
G75*
G02*
X59657100Y-76115100I0J-225000D01*
G01*
X59657100Y-76615100D01*
G75*
G02*
X59432100Y-76840100I-225000J0D01*
G01*
X58982100Y-76840100D01*
G75*
G02*
X58757100Y-76615100I0J225000D01*
G01*
G37*
%TD*%
%TO.C,C52*%
G36*
G01*
X61827600Y-67279400D02*
X62327600Y-67279400D01*
G75*
G02*
X62552600Y-67504400I0J-225000D01*
G01*
X62552600Y-67954400D01*
G75*
G02*
X62327600Y-68179400I-225000J0D01*
G01*
X61827600Y-68179400D01*
G75*
G02*
X61602600Y-67954400I0J225000D01*
G01*
X61602600Y-67504400D01*
G75*
G02*
X61827600Y-67279400I225000J0D01*
G01*
G37*
G36*
G01*
X61827600Y-65729400D02*
X62327600Y-65729400D01*
G75*
G02*
X62552600Y-65954400I0J-225000D01*
G01*
X62552600Y-66404400D01*
G75*
G02*
X62327600Y-66629400I-225000J0D01*
G01*
X61827600Y-66629400D01*
G75*
G02*
X61602600Y-66404400I0J225000D01*
G01*
X61602600Y-65954400D01*
G75*
G02*
X61827600Y-65729400I225000J0D01*
G01*
G37*
%TD*%
%TO.C,C32*%
G36*
G01*
X60456000Y-67279400D02*
X60956000Y-67279400D01*
G75*
G02*
X61181000Y-67504400I0J-225000D01*
G01*
X61181000Y-67954400D01*
G75*
G02*
X60956000Y-68179400I-225000J0D01*
G01*
X60456000Y-68179400D01*
G75*
G02*
X60231000Y-67954400I0J225000D01*
G01*
X60231000Y-67504400D01*
G75*
G02*
X60456000Y-67279400I225000J0D01*
G01*
G37*
G36*
G01*
X60456000Y-65729400D02*
X60956000Y-65729400D01*
G75*
G02*
X61181000Y-65954400I0J-225000D01*
G01*
X61181000Y-66404400D01*
G75*
G02*
X60956000Y-66629400I-225000J0D01*
G01*
X60456000Y-66629400D01*
G75*
G02*
X60231000Y-66404400I0J225000D01*
G01*
X60231000Y-65954400D01*
G75*
G02*
X60456000Y-65729400I225000J0D01*
G01*
G37*
%TD*%
%TO.C,C22*%
G36*
G01*
X55148500Y-66707600D02*
X54198500Y-66707600D01*
G75*
G02*
X53948500Y-66457600I0J250000D01*
G01*
X53948500Y-65957600D01*
G75*
G02*
X54198500Y-65707600I250000J0D01*
G01*
X55148500Y-65707600D01*
G75*
G02*
X55398500Y-65957600I0J-250000D01*
G01*
X55398500Y-66457600D01*
G75*
G02*
X55148500Y-66707600I-250000J0D01*
G01*
G37*
G36*
G01*
X55148500Y-68607600D02*
X54198500Y-68607600D01*
G75*
G02*
X53948500Y-68357600I0J250000D01*
G01*
X53948500Y-67857600D01*
G75*
G02*
X54198500Y-67607600I250000J0D01*
G01*
X55148500Y-67607600D01*
G75*
G02*
X55398500Y-67857600I0J-250000D01*
G01*
X55398500Y-68357600D01*
G75*
G02*
X55148500Y-68607600I-250000J0D01*
G01*
G37*
%TD*%
D11*
%TO.C,J7*%
X37800000Y-62550000D03*
%TD*%
%TO.C,R4*%
G36*
G01*
X38850000Y-78550000D02*
X38300000Y-78550000D01*
G75*
G02*
X38100000Y-78350000I0J200000D01*
G01*
X38100000Y-77950000D01*
G75*
G02*
X38300000Y-77750000I200000J0D01*
G01*
X38850000Y-77750000D01*
G75*
G02*
X39050000Y-77950000I0J-200000D01*
G01*
X39050000Y-78350000D01*
G75*
G02*
X38850000Y-78550000I-200000J0D01*
G01*
G37*
G36*
G01*
X38850000Y-80200000D02*
X38300000Y-80200000D01*
G75*
G02*
X38100000Y-80000000I0J200000D01*
G01*
X38100000Y-79600000D01*
G75*
G02*
X38300000Y-79400000I200000J0D01*
G01*
X38850000Y-79400000D01*
G75*
G02*
X39050000Y-79600000I0J-200000D01*
G01*
X39050000Y-80000000D01*
G75*
G02*
X38850000Y-80200000I-200000J0D01*
G01*
G37*
%TD*%
%TO.C,C3*%
G36*
G01*
X35925000Y-74000000D02*
X35925000Y-73500000D01*
G75*
G02*
X36150000Y-73275000I225000J0D01*
G01*
X36600000Y-73275000D01*
G75*
G02*
X36825000Y-73500000I0J-225000D01*
G01*
X36825000Y-74000000D01*
G75*
G02*
X36600000Y-74225000I-225000J0D01*
G01*
X36150000Y-74225000D01*
G75*
G02*
X35925000Y-74000000I0J225000D01*
G01*
G37*
G36*
G01*
X34375000Y-74000000D02*
X34375000Y-73500000D01*
G75*
G02*
X34600000Y-73275000I225000J0D01*
G01*
X35050000Y-73275000D01*
G75*
G02*
X35275000Y-73500000I0J-225000D01*
G01*
X35275000Y-74000000D01*
G75*
G02*
X35050000Y-74225000I-225000J0D01*
G01*
X34600000Y-74225000D01*
G75*
G02*
X34375000Y-74000000I0J225000D01*
G01*
G37*
%TD*%
%TO.C,J6*%
X42950000Y-65825000D03*
%TD*%
%TO.C,J4*%
X36200000Y-77900000D03*
%TD*%
%TO.C,J3*%
X36200000Y-75925000D03*
%TD*%
%TO.C,C50*%
G36*
G01*
X59975000Y-88775000D02*
X59975000Y-86725000D01*
G75*
G02*
X60225000Y-86475000I250000J0D01*
G01*
X61800000Y-86475000D01*
G75*
G02*
X62050000Y-86725000I0J-250000D01*
G01*
X62050000Y-88775000D01*
G75*
G02*
X61800000Y-89025000I-250000J0D01*
G01*
X60225000Y-89025000D01*
G75*
G02*
X59975000Y-88775000I0J250000D01*
G01*
G37*
G36*
G01*
X53750000Y-88775000D02*
X53750000Y-86725000D01*
G75*
G02*
X54000000Y-86475000I250000J0D01*
G01*
X55575000Y-86475000D01*
G75*
G02*
X55825000Y-86725000I0J-250000D01*
G01*
X55825000Y-88775000D01*
G75*
G02*
X55575000Y-89025000I-250000J0D01*
G01*
X54000000Y-89025000D01*
G75*
G02*
X53750000Y-88775000I0J250000D01*
G01*
G37*
%TD*%
%TO.C,J13*%
X49675000Y-70075000D03*
%TD*%
%TO.C,J12*%
X50900000Y-71900000D03*
%TD*%
%TO.C,L1*%
G36*
G01*
X48625000Y-93168750D02*
X48625000Y-93931250D01*
G75*
G02*
X48406250Y-94150000I-218750J0D01*
G01*
X47968750Y-94150000D01*
G75*
G02*
X47750000Y-93931250I0J218750D01*
G01*
X47750000Y-93168750D01*
G75*
G02*
X47968750Y-92950000I218750J0D01*
G01*
X48406250Y-92950000D01*
G75*
G02*
X48625000Y-93168750I0J-218750D01*
G01*
G37*
G36*
G01*
X50750000Y-93168750D02*
X50750000Y-93931250D01*
G75*
G02*
X50531250Y-94150000I-218750J0D01*
G01*
X50093750Y-94150000D01*
G75*
G02*
X49875000Y-93931250I0J218750D01*
G01*
X49875000Y-93168750D01*
G75*
G02*
X50093750Y-92950000I218750J0D01*
G01*
X50531250Y-92950000D01*
G75*
G02*
X50750000Y-93168750I0J-218750D01*
G01*
G37*
%TD*%
%TO.C,J2*%
X37125000Y-69350000D03*
%TD*%
%TO.C,J1*%
X39250000Y-69375000D03*
%TD*%
%TO.C,J5*%
X36400000Y-72425000D03*
%TD*%
D18*
%TO.C,T1*%
X31150000Y-88290000D03*
X31150000Y-103780000D03*
D11*
X24020000Y-91950000D03*
X24020000Y-89410000D03*
X24020000Y-100120000D03*
X24020000Y-102660000D03*
X34450000Y-100480000D03*
X34450000Y-97940000D03*
X34450000Y-95400000D03*
X34450000Y-92860000D03*
X34450000Y-90320000D03*
X36990000Y-101750000D03*
X36990000Y-99210000D03*
X36990000Y-96670000D03*
X36990000Y-94130000D03*
X36990000Y-91590000D03*
%TD*%
M02*
