M48
; DRILL file {KiCad 5.1.9+dfsg1-1} date Mon Sep  5 14:40:47 2022
; FORMAT={3:3/ absolute / metric / keep zeros}
; #@! TF.CreationDate,2022-09-05T14:40:47+03:00
; #@! TF.GenerationSoftware,Kicad,Pcbnew,5.1.9+dfsg1-1
FMAT,2
METRIC
T1C0.400
T2C0.762
T3C1.630
%
G90
G05
T1
X020400Y-100100
X022400Y-103400
X024950Y-102575
X026700Y-082000
X026875Y-091050
X027675Y-103400
X028600Y-092725
X029975Y-079950
X037538Y-080325
X038100Y-101625
X039250Y-092700
X043850Y-101700
X044700Y-077625
X044800Y-088050
X045200Y-071550
X046725Y-095075
X047900Y-099400
X048275Y-103175
X048600Y-085325
X049200Y-086550
X049500Y-087800
X051250Y-071225
X051425Y-080775
X051825Y-095550
X054475Y-089700
X055450Y-090800
X055750Y-087675
X055775Y-085475
X056950Y-082400
X057875Y-090525
X058725Y-086825
X058775Y-089300
X059650Y-095100
X060400Y-083375
X062375Y-091750
T2
X048395Y-063350
X048395Y-065890
X048395Y-074060
X048395Y-076600
X058825Y-064260
X058825Y-066800
X058825Y-069340
X058825Y-071880
X058825Y-074420
X061365Y-065530
X061365Y-068070
X061365Y-070610
X061365Y-073150
X061365Y-075690
T3
X055525Y-062230
X055525Y-077720
T0
M30
