M48
; DRILL file {KiCad 5.1.9+dfsg1-1} date Tue Jul 19 15:57:27 2022
; FORMAT={3:3/ absolute / metric / keep zeros}
; #@! TF.CreationDate,2022-07-19T15:57:27+03:00
; #@! TF.GenerationSoftware,Kicad,Pcbnew,5.1.9+dfsg1-1
FMAT,2
METRIC
T1C0.400
T2C0.762
T3C1.630
%
G90
G05
T1
X022170Y-075783
X024450Y-064405
X024930Y-076098
X029975Y-065175
X030525Y-095375
X031950Y-064405
X042975Y-065850
X044250Y-074750
X045275Y-100750
X046175Y-074450
X046250Y-090750
X048200Y-095475
X048275Y-098175
X049625Y-096775
X050115Y-093685
X050950Y-073475
X051050Y-098175
X052425Y-078125
X052425Y-079592
X052425Y-081058
X052425Y-082525
X053100Y-094475
X053175Y-097025
X054450Y-101550
X055250Y-063575
X056250Y-073775
X058575Y-098950
X060075Y-072125
X061513Y-063588
T2
X024020Y-089410
X024020Y-091950
X024020Y-100120
X024020Y-102660
X034450Y-090320
X034450Y-092860
X034450Y-095400
X034450Y-097940
X034450Y-100480
X036990Y-091590
X036990Y-094130
X036990Y-096670
X036990Y-099210
X036990Y-101750
T3
X031150Y-088290
X031150Y-103780
T0
M30
