%TF.GenerationSoftware,KiCad,Pcbnew,5.1.9+dfsg1-1*%
%TF.CreationDate,2022-09-05T14:40:43+03:00*%
%TF.ProjectId,Meteostation,4d657465-6f73-4746-9174-696f6e2e6b69,rev?*%
%TF.SameCoordinates,Original*%
%TF.FileFunction,Soldermask,Bot*%
%TF.FilePolarity,Negative*%
%FSLAX46Y46*%
G04 Gerber Fmt 4.6, Leading zero omitted, Abs format (unit mm)*
G04 Created by KiCad (PCBNEW 5.1.9+dfsg1-1) date 2022-09-05 14:40:43*
%MOMM*%
%LPD*%
G01*
G04 APERTURE LIST*
%ADD10C,3.000000*%
%ADD11C,1.524000*%
%ADD12C,0.100000*%
%ADD13R,3.100000X2.410000*%
%ADD14R,1.400000X2.100000*%
%ADD15R,1.400000X1.200000*%
%ADD16R,1.270000X1.550000*%
G04 APERTURE END LIST*
%TO.C,D3*%
G36*
G01*
X51225000Y-85150000D02*
X52550000Y-85150000D01*
G75*
G02*
X52625000Y-85225000I0J-75000D01*
G01*
X52625000Y-85375000D01*
G75*
G02*
X52550000Y-85450000I-75000J0D01*
G01*
X51225000Y-85450000D01*
G75*
G02*
X51150000Y-85375000I0J75000D01*
G01*
X51150000Y-85225000D01*
G75*
G02*
X51225000Y-85150000I75000J0D01*
G01*
G37*
G36*
G01*
X51225000Y-85650000D02*
X52550000Y-85650000D01*
G75*
G02*
X52625000Y-85725000I0J-75000D01*
G01*
X52625000Y-85875000D01*
G75*
G02*
X52550000Y-85950000I-75000J0D01*
G01*
X51225000Y-85950000D01*
G75*
G02*
X51150000Y-85875000I0J75000D01*
G01*
X51150000Y-85725000D01*
G75*
G02*
X51225000Y-85650000I75000J0D01*
G01*
G37*
G36*
G01*
X51225000Y-86150000D02*
X52550000Y-86150000D01*
G75*
G02*
X52625000Y-86225000I0J-75000D01*
G01*
X52625000Y-86375000D01*
G75*
G02*
X52550000Y-86450000I-75000J0D01*
G01*
X51225000Y-86450000D01*
G75*
G02*
X51150000Y-86375000I0J75000D01*
G01*
X51150000Y-86225000D01*
G75*
G02*
X51225000Y-86150000I75000J0D01*
G01*
G37*
G36*
G01*
X51225000Y-86650000D02*
X52550000Y-86650000D01*
G75*
G02*
X52625000Y-86725000I0J-75000D01*
G01*
X52625000Y-86875000D01*
G75*
G02*
X52550000Y-86950000I-75000J0D01*
G01*
X51225000Y-86950000D01*
G75*
G02*
X51150000Y-86875000I0J75000D01*
G01*
X51150000Y-86725000D01*
G75*
G02*
X51225000Y-86650000I75000J0D01*
G01*
G37*
G36*
G01*
X51225000Y-87150000D02*
X52550000Y-87150000D01*
G75*
G02*
X52625000Y-87225000I0J-75000D01*
G01*
X52625000Y-87375000D01*
G75*
G02*
X52550000Y-87450000I-75000J0D01*
G01*
X51225000Y-87450000D01*
G75*
G02*
X51150000Y-87375000I0J75000D01*
G01*
X51150000Y-87225000D01*
G75*
G02*
X51225000Y-87150000I75000J0D01*
G01*
G37*
G36*
G01*
X51225000Y-87650000D02*
X52550000Y-87650000D01*
G75*
G02*
X52625000Y-87725000I0J-75000D01*
G01*
X52625000Y-87875000D01*
G75*
G02*
X52550000Y-87950000I-75000J0D01*
G01*
X51225000Y-87950000D01*
G75*
G02*
X51150000Y-87875000I0J75000D01*
G01*
X51150000Y-87725000D01*
G75*
G02*
X51225000Y-87650000I75000J0D01*
G01*
G37*
G36*
G01*
X51225000Y-88150000D02*
X52550000Y-88150000D01*
G75*
G02*
X52625000Y-88225000I0J-75000D01*
G01*
X52625000Y-88375000D01*
G75*
G02*
X52550000Y-88450000I-75000J0D01*
G01*
X51225000Y-88450000D01*
G75*
G02*
X51150000Y-88375000I0J75000D01*
G01*
X51150000Y-88225000D01*
G75*
G02*
X51225000Y-88150000I75000J0D01*
G01*
G37*
G36*
G01*
X51225000Y-88650000D02*
X52550000Y-88650000D01*
G75*
G02*
X52625000Y-88725000I0J-75000D01*
G01*
X52625000Y-88875000D01*
G75*
G02*
X52550000Y-88950000I-75000J0D01*
G01*
X51225000Y-88950000D01*
G75*
G02*
X51150000Y-88875000I0J75000D01*
G01*
X51150000Y-88725000D01*
G75*
G02*
X51225000Y-88650000I75000J0D01*
G01*
G37*
G36*
G01*
X51225000Y-89150000D02*
X52550000Y-89150000D01*
G75*
G02*
X52625000Y-89225000I0J-75000D01*
G01*
X52625000Y-89375000D01*
G75*
G02*
X52550000Y-89450000I-75000J0D01*
G01*
X51225000Y-89450000D01*
G75*
G02*
X51150000Y-89375000I0J75000D01*
G01*
X51150000Y-89225000D01*
G75*
G02*
X51225000Y-89150000I75000J0D01*
G01*
G37*
G36*
G01*
X51225000Y-89650000D02*
X52550000Y-89650000D01*
G75*
G02*
X52625000Y-89725000I0J-75000D01*
G01*
X52625000Y-89875000D01*
G75*
G02*
X52550000Y-89950000I-75000J0D01*
G01*
X51225000Y-89950000D01*
G75*
G02*
X51150000Y-89875000I0J75000D01*
G01*
X51150000Y-89725000D01*
G75*
G02*
X51225000Y-89650000I75000J0D01*
G01*
G37*
G36*
G01*
X51225000Y-90150000D02*
X52550000Y-90150000D01*
G75*
G02*
X52625000Y-90225000I0J-75000D01*
G01*
X52625000Y-90375000D01*
G75*
G02*
X52550000Y-90450000I-75000J0D01*
G01*
X51225000Y-90450000D01*
G75*
G02*
X51150000Y-90375000I0J75000D01*
G01*
X51150000Y-90225000D01*
G75*
G02*
X51225000Y-90150000I75000J0D01*
G01*
G37*
G36*
G01*
X51225000Y-90650000D02*
X52550000Y-90650000D01*
G75*
G02*
X52625000Y-90725000I0J-75000D01*
G01*
X52625000Y-90875000D01*
G75*
G02*
X52550000Y-90950000I-75000J0D01*
G01*
X51225000Y-90950000D01*
G75*
G02*
X51150000Y-90875000I0J75000D01*
G01*
X51150000Y-90725000D01*
G75*
G02*
X51225000Y-90650000I75000J0D01*
G01*
G37*
G36*
G01*
X53225000Y-91475000D02*
X53375000Y-91475000D01*
G75*
G02*
X53450000Y-91550000I0J-75000D01*
G01*
X53450000Y-92875000D01*
G75*
G02*
X53375000Y-92950000I-75000J0D01*
G01*
X53225000Y-92950000D01*
G75*
G02*
X53150000Y-92875000I0J75000D01*
G01*
X53150000Y-91550000D01*
G75*
G02*
X53225000Y-91475000I75000J0D01*
G01*
G37*
G36*
G01*
X53725000Y-91475000D02*
X53875000Y-91475000D01*
G75*
G02*
X53950000Y-91550000I0J-75000D01*
G01*
X53950000Y-92875000D01*
G75*
G02*
X53875000Y-92950000I-75000J0D01*
G01*
X53725000Y-92950000D01*
G75*
G02*
X53650000Y-92875000I0J75000D01*
G01*
X53650000Y-91550000D01*
G75*
G02*
X53725000Y-91475000I75000J0D01*
G01*
G37*
G36*
G01*
X54225000Y-91475000D02*
X54375000Y-91475000D01*
G75*
G02*
X54450000Y-91550000I0J-75000D01*
G01*
X54450000Y-92875000D01*
G75*
G02*
X54375000Y-92950000I-75000J0D01*
G01*
X54225000Y-92950000D01*
G75*
G02*
X54150000Y-92875000I0J75000D01*
G01*
X54150000Y-91550000D01*
G75*
G02*
X54225000Y-91475000I75000J0D01*
G01*
G37*
G36*
G01*
X54725000Y-91475000D02*
X54875000Y-91475000D01*
G75*
G02*
X54950000Y-91550000I0J-75000D01*
G01*
X54950000Y-92875000D01*
G75*
G02*
X54875000Y-92950000I-75000J0D01*
G01*
X54725000Y-92950000D01*
G75*
G02*
X54650000Y-92875000I0J75000D01*
G01*
X54650000Y-91550000D01*
G75*
G02*
X54725000Y-91475000I75000J0D01*
G01*
G37*
G36*
G01*
X55225000Y-91475000D02*
X55375000Y-91475000D01*
G75*
G02*
X55450000Y-91550000I0J-75000D01*
G01*
X55450000Y-92875000D01*
G75*
G02*
X55375000Y-92950000I-75000J0D01*
G01*
X55225000Y-92950000D01*
G75*
G02*
X55150000Y-92875000I0J75000D01*
G01*
X55150000Y-91550000D01*
G75*
G02*
X55225000Y-91475000I75000J0D01*
G01*
G37*
G36*
G01*
X55725000Y-91475000D02*
X55875000Y-91475000D01*
G75*
G02*
X55950000Y-91550000I0J-75000D01*
G01*
X55950000Y-92875000D01*
G75*
G02*
X55875000Y-92950000I-75000J0D01*
G01*
X55725000Y-92950000D01*
G75*
G02*
X55650000Y-92875000I0J75000D01*
G01*
X55650000Y-91550000D01*
G75*
G02*
X55725000Y-91475000I75000J0D01*
G01*
G37*
G36*
G01*
X56225000Y-91475000D02*
X56375000Y-91475000D01*
G75*
G02*
X56450000Y-91550000I0J-75000D01*
G01*
X56450000Y-92875000D01*
G75*
G02*
X56375000Y-92950000I-75000J0D01*
G01*
X56225000Y-92950000D01*
G75*
G02*
X56150000Y-92875000I0J75000D01*
G01*
X56150000Y-91550000D01*
G75*
G02*
X56225000Y-91475000I75000J0D01*
G01*
G37*
G36*
G01*
X56725000Y-91475000D02*
X56875000Y-91475000D01*
G75*
G02*
X56950000Y-91550000I0J-75000D01*
G01*
X56950000Y-92875000D01*
G75*
G02*
X56875000Y-92950000I-75000J0D01*
G01*
X56725000Y-92950000D01*
G75*
G02*
X56650000Y-92875000I0J75000D01*
G01*
X56650000Y-91550000D01*
G75*
G02*
X56725000Y-91475000I75000J0D01*
G01*
G37*
G36*
G01*
X57225000Y-91475000D02*
X57375000Y-91475000D01*
G75*
G02*
X57450000Y-91550000I0J-75000D01*
G01*
X57450000Y-92875000D01*
G75*
G02*
X57375000Y-92950000I-75000J0D01*
G01*
X57225000Y-92950000D01*
G75*
G02*
X57150000Y-92875000I0J75000D01*
G01*
X57150000Y-91550000D01*
G75*
G02*
X57225000Y-91475000I75000J0D01*
G01*
G37*
G36*
G01*
X57725000Y-91475000D02*
X57875000Y-91475000D01*
G75*
G02*
X57950000Y-91550000I0J-75000D01*
G01*
X57950000Y-92875000D01*
G75*
G02*
X57875000Y-92950000I-75000J0D01*
G01*
X57725000Y-92950000D01*
G75*
G02*
X57650000Y-92875000I0J75000D01*
G01*
X57650000Y-91550000D01*
G75*
G02*
X57725000Y-91475000I75000J0D01*
G01*
G37*
G36*
G01*
X58225000Y-91475000D02*
X58375000Y-91475000D01*
G75*
G02*
X58450000Y-91550000I0J-75000D01*
G01*
X58450000Y-92875000D01*
G75*
G02*
X58375000Y-92950000I-75000J0D01*
G01*
X58225000Y-92950000D01*
G75*
G02*
X58150000Y-92875000I0J75000D01*
G01*
X58150000Y-91550000D01*
G75*
G02*
X58225000Y-91475000I75000J0D01*
G01*
G37*
G36*
G01*
X58725000Y-91475000D02*
X58875000Y-91475000D01*
G75*
G02*
X58950000Y-91550000I0J-75000D01*
G01*
X58950000Y-92875000D01*
G75*
G02*
X58875000Y-92950000I-75000J0D01*
G01*
X58725000Y-92950000D01*
G75*
G02*
X58650000Y-92875000I0J75000D01*
G01*
X58650000Y-91550000D01*
G75*
G02*
X58725000Y-91475000I75000J0D01*
G01*
G37*
G36*
G01*
X59550000Y-90650000D02*
X60875000Y-90650000D01*
G75*
G02*
X60950000Y-90725000I0J-75000D01*
G01*
X60950000Y-90875000D01*
G75*
G02*
X60875000Y-90950000I-75000J0D01*
G01*
X59550000Y-90950000D01*
G75*
G02*
X59475000Y-90875000I0J75000D01*
G01*
X59475000Y-90725000D01*
G75*
G02*
X59550000Y-90650000I75000J0D01*
G01*
G37*
G36*
G01*
X59550000Y-90150000D02*
X60875000Y-90150000D01*
G75*
G02*
X60950000Y-90225000I0J-75000D01*
G01*
X60950000Y-90375000D01*
G75*
G02*
X60875000Y-90450000I-75000J0D01*
G01*
X59550000Y-90450000D01*
G75*
G02*
X59475000Y-90375000I0J75000D01*
G01*
X59475000Y-90225000D01*
G75*
G02*
X59550000Y-90150000I75000J0D01*
G01*
G37*
G36*
G01*
X59550000Y-89650000D02*
X60875000Y-89650000D01*
G75*
G02*
X60950000Y-89725000I0J-75000D01*
G01*
X60950000Y-89875000D01*
G75*
G02*
X60875000Y-89950000I-75000J0D01*
G01*
X59550000Y-89950000D01*
G75*
G02*
X59475000Y-89875000I0J75000D01*
G01*
X59475000Y-89725000D01*
G75*
G02*
X59550000Y-89650000I75000J0D01*
G01*
G37*
G36*
G01*
X59550000Y-89150000D02*
X60875000Y-89150000D01*
G75*
G02*
X60950000Y-89225000I0J-75000D01*
G01*
X60950000Y-89375000D01*
G75*
G02*
X60875000Y-89450000I-75000J0D01*
G01*
X59550000Y-89450000D01*
G75*
G02*
X59475000Y-89375000I0J75000D01*
G01*
X59475000Y-89225000D01*
G75*
G02*
X59550000Y-89150000I75000J0D01*
G01*
G37*
G36*
G01*
X59550000Y-88650000D02*
X60875000Y-88650000D01*
G75*
G02*
X60950000Y-88725000I0J-75000D01*
G01*
X60950000Y-88875000D01*
G75*
G02*
X60875000Y-88950000I-75000J0D01*
G01*
X59550000Y-88950000D01*
G75*
G02*
X59475000Y-88875000I0J75000D01*
G01*
X59475000Y-88725000D01*
G75*
G02*
X59550000Y-88650000I75000J0D01*
G01*
G37*
G36*
G01*
X59550000Y-88150000D02*
X60875000Y-88150000D01*
G75*
G02*
X60950000Y-88225000I0J-75000D01*
G01*
X60950000Y-88375000D01*
G75*
G02*
X60875000Y-88450000I-75000J0D01*
G01*
X59550000Y-88450000D01*
G75*
G02*
X59475000Y-88375000I0J75000D01*
G01*
X59475000Y-88225000D01*
G75*
G02*
X59550000Y-88150000I75000J0D01*
G01*
G37*
G36*
G01*
X59550000Y-87650000D02*
X60875000Y-87650000D01*
G75*
G02*
X60950000Y-87725000I0J-75000D01*
G01*
X60950000Y-87875000D01*
G75*
G02*
X60875000Y-87950000I-75000J0D01*
G01*
X59550000Y-87950000D01*
G75*
G02*
X59475000Y-87875000I0J75000D01*
G01*
X59475000Y-87725000D01*
G75*
G02*
X59550000Y-87650000I75000J0D01*
G01*
G37*
G36*
G01*
X59550000Y-87150000D02*
X60875000Y-87150000D01*
G75*
G02*
X60950000Y-87225000I0J-75000D01*
G01*
X60950000Y-87375000D01*
G75*
G02*
X60875000Y-87450000I-75000J0D01*
G01*
X59550000Y-87450000D01*
G75*
G02*
X59475000Y-87375000I0J75000D01*
G01*
X59475000Y-87225000D01*
G75*
G02*
X59550000Y-87150000I75000J0D01*
G01*
G37*
G36*
G01*
X59550000Y-86650000D02*
X60875000Y-86650000D01*
G75*
G02*
X60950000Y-86725000I0J-75000D01*
G01*
X60950000Y-86875000D01*
G75*
G02*
X60875000Y-86950000I-75000J0D01*
G01*
X59550000Y-86950000D01*
G75*
G02*
X59475000Y-86875000I0J75000D01*
G01*
X59475000Y-86725000D01*
G75*
G02*
X59550000Y-86650000I75000J0D01*
G01*
G37*
G36*
G01*
X59550000Y-86150000D02*
X60875000Y-86150000D01*
G75*
G02*
X60950000Y-86225000I0J-75000D01*
G01*
X60950000Y-86375000D01*
G75*
G02*
X60875000Y-86450000I-75000J0D01*
G01*
X59550000Y-86450000D01*
G75*
G02*
X59475000Y-86375000I0J75000D01*
G01*
X59475000Y-86225000D01*
G75*
G02*
X59550000Y-86150000I75000J0D01*
G01*
G37*
G36*
G01*
X59550000Y-85650000D02*
X60875000Y-85650000D01*
G75*
G02*
X60950000Y-85725000I0J-75000D01*
G01*
X60950000Y-85875000D01*
G75*
G02*
X60875000Y-85950000I-75000J0D01*
G01*
X59550000Y-85950000D01*
G75*
G02*
X59475000Y-85875000I0J75000D01*
G01*
X59475000Y-85725000D01*
G75*
G02*
X59550000Y-85650000I75000J0D01*
G01*
G37*
G36*
G01*
X59550000Y-85150000D02*
X60875000Y-85150000D01*
G75*
G02*
X60950000Y-85225000I0J-75000D01*
G01*
X60950000Y-85375000D01*
G75*
G02*
X60875000Y-85450000I-75000J0D01*
G01*
X59550000Y-85450000D01*
G75*
G02*
X59475000Y-85375000I0J75000D01*
G01*
X59475000Y-85225000D01*
G75*
G02*
X59550000Y-85150000I75000J0D01*
G01*
G37*
G36*
G01*
X58725000Y-83150000D02*
X58875000Y-83150000D01*
G75*
G02*
X58950000Y-83225000I0J-75000D01*
G01*
X58950000Y-84550000D01*
G75*
G02*
X58875000Y-84625000I-75000J0D01*
G01*
X58725000Y-84625000D01*
G75*
G02*
X58650000Y-84550000I0J75000D01*
G01*
X58650000Y-83225000D01*
G75*
G02*
X58725000Y-83150000I75000J0D01*
G01*
G37*
G36*
G01*
X58225000Y-83150000D02*
X58375000Y-83150000D01*
G75*
G02*
X58450000Y-83225000I0J-75000D01*
G01*
X58450000Y-84550000D01*
G75*
G02*
X58375000Y-84625000I-75000J0D01*
G01*
X58225000Y-84625000D01*
G75*
G02*
X58150000Y-84550000I0J75000D01*
G01*
X58150000Y-83225000D01*
G75*
G02*
X58225000Y-83150000I75000J0D01*
G01*
G37*
G36*
G01*
X57725000Y-83150000D02*
X57875000Y-83150000D01*
G75*
G02*
X57950000Y-83225000I0J-75000D01*
G01*
X57950000Y-84550000D01*
G75*
G02*
X57875000Y-84625000I-75000J0D01*
G01*
X57725000Y-84625000D01*
G75*
G02*
X57650000Y-84550000I0J75000D01*
G01*
X57650000Y-83225000D01*
G75*
G02*
X57725000Y-83150000I75000J0D01*
G01*
G37*
G36*
G01*
X57225000Y-83150000D02*
X57375000Y-83150000D01*
G75*
G02*
X57450000Y-83225000I0J-75000D01*
G01*
X57450000Y-84550000D01*
G75*
G02*
X57375000Y-84625000I-75000J0D01*
G01*
X57225000Y-84625000D01*
G75*
G02*
X57150000Y-84550000I0J75000D01*
G01*
X57150000Y-83225000D01*
G75*
G02*
X57225000Y-83150000I75000J0D01*
G01*
G37*
G36*
G01*
X56725000Y-83150000D02*
X56875000Y-83150000D01*
G75*
G02*
X56950000Y-83225000I0J-75000D01*
G01*
X56950000Y-84550000D01*
G75*
G02*
X56875000Y-84625000I-75000J0D01*
G01*
X56725000Y-84625000D01*
G75*
G02*
X56650000Y-84550000I0J75000D01*
G01*
X56650000Y-83225000D01*
G75*
G02*
X56725000Y-83150000I75000J0D01*
G01*
G37*
G36*
G01*
X56225000Y-83150000D02*
X56375000Y-83150000D01*
G75*
G02*
X56450000Y-83225000I0J-75000D01*
G01*
X56450000Y-84550000D01*
G75*
G02*
X56375000Y-84625000I-75000J0D01*
G01*
X56225000Y-84625000D01*
G75*
G02*
X56150000Y-84550000I0J75000D01*
G01*
X56150000Y-83225000D01*
G75*
G02*
X56225000Y-83150000I75000J0D01*
G01*
G37*
G36*
G01*
X55725000Y-83150000D02*
X55875000Y-83150000D01*
G75*
G02*
X55950000Y-83225000I0J-75000D01*
G01*
X55950000Y-84550000D01*
G75*
G02*
X55875000Y-84625000I-75000J0D01*
G01*
X55725000Y-84625000D01*
G75*
G02*
X55650000Y-84550000I0J75000D01*
G01*
X55650000Y-83225000D01*
G75*
G02*
X55725000Y-83150000I75000J0D01*
G01*
G37*
G36*
G01*
X55225000Y-83150000D02*
X55375000Y-83150000D01*
G75*
G02*
X55450000Y-83225000I0J-75000D01*
G01*
X55450000Y-84550000D01*
G75*
G02*
X55375000Y-84625000I-75000J0D01*
G01*
X55225000Y-84625000D01*
G75*
G02*
X55150000Y-84550000I0J75000D01*
G01*
X55150000Y-83225000D01*
G75*
G02*
X55225000Y-83150000I75000J0D01*
G01*
G37*
G36*
G01*
X54725000Y-83150000D02*
X54875000Y-83150000D01*
G75*
G02*
X54950000Y-83225000I0J-75000D01*
G01*
X54950000Y-84550000D01*
G75*
G02*
X54875000Y-84625000I-75000J0D01*
G01*
X54725000Y-84625000D01*
G75*
G02*
X54650000Y-84550000I0J75000D01*
G01*
X54650000Y-83225000D01*
G75*
G02*
X54725000Y-83150000I75000J0D01*
G01*
G37*
G36*
G01*
X54225000Y-83150000D02*
X54375000Y-83150000D01*
G75*
G02*
X54450000Y-83225000I0J-75000D01*
G01*
X54450000Y-84550000D01*
G75*
G02*
X54375000Y-84625000I-75000J0D01*
G01*
X54225000Y-84625000D01*
G75*
G02*
X54150000Y-84550000I0J75000D01*
G01*
X54150000Y-83225000D01*
G75*
G02*
X54225000Y-83150000I75000J0D01*
G01*
G37*
G36*
G01*
X53725000Y-83150000D02*
X53875000Y-83150000D01*
G75*
G02*
X53950000Y-83225000I0J-75000D01*
G01*
X53950000Y-84550000D01*
G75*
G02*
X53875000Y-84625000I-75000J0D01*
G01*
X53725000Y-84625000D01*
G75*
G02*
X53650000Y-84550000I0J75000D01*
G01*
X53650000Y-83225000D01*
G75*
G02*
X53725000Y-83150000I75000J0D01*
G01*
G37*
G36*
G01*
X53225000Y-83150000D02*
X53375000Y-83150000D01*
G75*
G02*
X53450000Y-83225000I0J-75000D01*
G01*
X53450000Y-84550000D01*
G75*
G02*
X53375000Y-84625000I-75000J0D01*
G01*
X53225000Y-84625000D01*
G75*
G02*
X53150000Y-84550000I0J75000D01*
G01*
X53150000Y-83225000D01*
G75*
G02*
X53225000Y-83150000I75000J0D01*
G01*
G37*
%TD*%
D10*
%TO.C,T1*%
X55525000Y-62230000D03*
X55525000Y-77720000D03*
D11*
X48395000Y-65890000D03*
X48395000Y-63350000D03*
X48395000Y-74060000D03*
X48395000Y-76600000D03*
X58825000Y-74420000D03*
X58825000Y-71880000D03*
X58825000Y-69340000D03*
X58825000Y-66800000D03*
X58825000Y-64260000D03*
X61365000Y-75690000D03*
X61365000Y-73150000D03*
X61365000Y-70610000D03*
X61365000Y-68070000D03*
X61365000Y-65530000D03*
%TD*%
%TO.C,R11*%
G36*
G01*
X57765000Y-82485000D02*
X57765000Y-82115000D01*
G75*
G02*
X57900000Y-81980000I135000J0D01*
G01*
X58170000Y-81980000D01*
G75*
G02*
X58305000Y-82115000I0J-135000D01*
G01*
X58305000Y-82485000D01*
G75*
G02*
X58170000Y-82620000I-135000J0D01*
G01*
X57900000Y-82620000D01*
G75*
G02*
X57765000Y-82485000I0J135000D01*
G01*
G37*
G36*
G01*
X56745000Y-82485000D02*
X56745000Y-82115000D01*
G75*
G02*
X56880000Y-81980000I135000J0D01*
G01*
X57150000Y-81980000D01*
G75*
G02*
X57285000Y-82115000I0J-135000D01*
G01*
X57285000Y-82485000D01*
G75*
G02*
X57150000Y-82620000I-135000J0D01*
G01*
X56880000Y-82620000D01*
G75*
G02*
X56745000Y-82485000I0J135000D01*
G01*
G37*
%TD*%
%TO.C,R15*%
G36*
G01*
X45654240Y-102277400D02*
X46204240Y-102277400D01*
G75*
G02*
X46404240Y-102477400I0J-200000D01*
G01*
X46404240Y-102877400D01*
G75*
G02*
X46204240Y-103077400I-200000J0D01*
G01*
X45654240Y-103077400D01*
G75*
G02*
X45454240Y-102877400I0J200000D01*
G01*
X45454240Y-102477400D01*
G75*
G02*
X45654240Y-102277400I200000J0D01*
G01*
G37*
G36*
G01*
X45654240Y-100627400D02*
X46204240Y-100627400D01*
G75*
G02*
X46404240Y-100827400I0J-200000D01*
G01*
X46404240Y-101227400D01*
G75*
G02*
X46204240Y-101427400I-200000J0D01*
G01*
X45654240Y-101427400D01*
G75*
G02*
X45454240Y-101227400I0J200000D01*
G01*
X45454240Y-100827400D01*
G75*
G02*
X45654240Y-100627400I200000J0D01*
G01*
G37*
%TD*%
%TO.C,C57*%
G36*
G01*
X42098800Y-97759000D02*
X42098800Y-97259000D01*
G75*
G02*
X42323800Y-97034000I225000J0D01*
G01*
X42773800Y-97034000D01*
G75*
G02*
X42998800Y-97259000I0J-225000D01*
G01*
X42998800Y-97759000D01*
G75*
G02*
X42773800Y-97984000I-225000J0D01*
G01*
X42323800Y-97984000D01*
G75*
G02*
X42098800Y-97759000I0J225000D01*
G01*
G37*
G36*
G01*
X40548800Y-97759000D02*
X40548800Y-97259000D01*
G75*
G02*
X40773800Y-97034000I225000J0D01*
G01*
X41223800Y-97034000D01*
G75*
G02*
X41448800Y-97259000I0J-225000D01*
G01*
X41448800Y-97759000D01*
G75*
G02*
X41223800Y-97984000I-225000J0D01*
G01*
X40773800Y-97984000D01*
G75*
G02*
X40548800Y-97759000I0J225000D01*
G01*
G37*
%TD*%
%TO.C,C58*%
G36*
G01*
X38525000Y-101250000D02*
X38525000Y-103300000D01*
G75*
G02*
X38275000Y-103550000I-250000J0D01*
G01*
X36700000Y-103550000D01*
G75*
G02*
X36450000Y-103300000I0J250000D01*
G01*
X36450000Y-101250000D01*
G75*
G02*
X36700000Y-101000000I250000J0D01*
G01*
X38275000Y-101000000D01*
G75*
G02*
X38525000Y-101250000I0J-250000D01*
G01*
G37*
G36*
G01*
X44750000Y-101250000D02*
X44750000Y-103300000D01*
G75*
G02*
X44500000Y-103550000I-250000J0D01*
G01*
X42925000Y-103550000D01*
G75*
G02*
X42675000Y-103300000I0J250000D01*
G01*
X42675000Y-101250000D01*
G75*
G02*
X42925000Y-101000000I250000J0D01*
G01*
X44500000Y-101000000D01*
G75*
G02*
X44750000Y-101250000I0J-250000D01*
G01*
G37*
%TD*%
%TO.C,D5*%
G36*
G01*
X45672990Y-99398240D02*
X46185490Y-99398240D01*
G75*
G02*
X46404240Y-99616990I0J-218750D01*
G01*
X46404240Y-100054490D01*
G75*
G02*
X46185490Y-100273240I-218750J0D01*
G01*
X45672990Y-100273240D01*
G75*
G02*
X45454240Y-100054490I0J218750D01*
G01*
X45454240Y-99616990D01*
G75*
G02*
X45672990Y-99398240I218750J0D01*
G01*
G37*
G36*
G01*
X45672990Y-97823240D02*
X46185490Y-97823240D01*
G75*
G02*
X46404240Y-98041990I0J-218750D01*
G01*
X46404240Y-98479490D01*
G75*
G02*
X46185490Y-98698240I-218750J0D01*
G01*
X45672990Y-98698240D01*
G75*
G02*
X45454240Y-98479490I0J218750D01*
G01*
X45454240Y-98041990D01*
G75*
G02*
X45672990Y-97823240I218750J0D01*
G01*
G37*
%TD*%
%TO.C,C54*%
G36*
G01*
X43150000Y-87874999D02*
X43150000Y-90075001D01*
G75*
G02*
X42900001Y-90325000I-249999J0D01*
G01*
X42249999Y-90325000D01*
G75*
G02*
X42000000Y-90075001I0J249999D01*
G01*
X42000000Y-87874999D01*
G75*
G02*
X42249999Y-87625000I249999J0D01*
G01*
X42900001Y-87625000D01*
G75*
G02*
X43150000Y-87874999I0J-249999D01*
G01*
G37*
G36*
G01*
X46100000Y-87874999D02*
X46100000Y-90075001D01*
G75*
G02*
X45850001Y-90325000I-249999J0D01*
G01*
X45199999Y-90325000D01*
G75*
G02*
X44950000Y-90075001I0J249999D01*
G01*
X44950000Y-87874999D01*
G75*
G02*
X45199999Y-87625000I249999J0D01*
G01*
X45850001Y-87625000D01*
G75*
G02*
X46100000Y-87874999I0J-249999D01*
G01*
G37*
%TD*%
%TO.C,C52*%
G36*
G01*
X37172400Y-97920600D02*
X36672400Y-97920600D01*
G75*
G02*
X36447400Y-97695600I0J225000D01*
G01*
X36447400Y-97245600D01*
G75*
G02*
X36672400Y-97020600I225000J0D01*
G01*
X37172400Y-97020600D01*
G75*
G02*
X37397400Y-97245600I0J-225000D01*
G01*
X37397400Y-97695600D01*
G75*
G02*
X37172400Y-97920600I-225000J0D01*
G01*
G37*
G36*
G01*
X37172400Y-99470600D02*
X36672400Y-99470600D01*
G75*
G02*
X36447400Y-99245600I0J225000D01*
G01*
X36447400Y-98795600D01*
G75*
G02*
X36672400Y-98570600I225000J0D01*
G01*
X37172400Y-98570600D01*
G75*
G02*
X37397400Y-98795600I0J-225000D01*
G01*
X37397400Y-99245600D01*
G75*
G02*
X37172400Y-99470600I-225000J0D01*
G01*
G37*
%TD*%
D12*
%TO.C,L5*%
G36*
X40275000Y-83680000D02*
G01*
X39695000Y-84275000D01*
X39695000Y-85425000D01*
X40275000Y-86020000D01*
X40275000Y-86795000D01*
X39385000Y-86795000D01*
X38825000Y-86245000D01*
X38825000Y-83455000D01*
X39385000Y-82905000D01*
X40275000Y-82905000D01*
X40275000Y-83680000D01*
G37*
G36*
X43225000Y-83455000D02*
G01*
X43225000Y-86245000D01*
X42665000Y-86795000D01*
X41775000Y-86795000D01*
X41775000Y-86020000D01*
X42355000Y-85425000D01*
X42355000Y-84275000D01*
X41775000Y-83680000D01*
X41775000Y-82905000D01*
X42665000Y-82905000D01*
X43225000Y-83455000D01*
G37*
%TD*%
D13*
%TO.C,D17*%
X38992500Y-93178300D03*
G36*
G01*
X41047500Y-91328300D02*
X40747500Y-91328300D01*
G75*
G02*
X40597500Y-91178300I0J150000D01*
G01*
X40597500Y-89878300D01*
G75*
G02*
X40747500Y-89728300I150000J0D01*
G01*
X41047500Y-89728300D01*
G75*
G02*
X41197500Y-89878300I0J-150000D01*
G01*
X41197500Y-91178300D01*
G75*
G02*
X41047500Y-91328300I-150000J0D01*
G01*
G37*
G36*
G01*
X39777500Y-91328300D02*
X39477500Y-91328300D01*
G75*
G02*
X39327500Y-91178300I0J150000D01*
G01*
X39327500Y-89878300D01*
G75*
G02*
X39477500Y-89728300I150000J0D01*
G01*
X39777500Y-89728300D01*
G75*
G02*
X39927500Y-89878300I0J-150000D01*
G01*
X39927500Y-91178300D01*
G75*
G02*
X39777500Y-91328300I-150000J0D01*
G01*
G37*
G36*
G01*
X38507500Y-91328300D02*
X38207500Y-91328300D01*
G75*
G02*
X38057500Y-91178300I0J150000D01*
G01*
X38057500Y-89878300D01*
G75*
G02*
X38207500Y-89728300I150000J0D01*
G01*
X38507500Y-89728300D01*
G75*
G02*
X38657500Y-89878300I0J-150000D01*
G01*
X38657500Y-91178300D01*
G75*
G02*
X38507500Y-91328300I-150000J0D01*
G01*
G37*
G36*
G01*
X37237500Y-91328300D02*
X36937500Y-91328300D01*
G75*
G02*
X36787500Y-91178300I0J150000D01*
G01*
X36787500Y-89878300D01*
G75*
G02*
X36937500Y-89728300I150000J0D01*
G01*
X37237500Y-89728300D01*
G75*
G02*
X37387500Y-89878300I0J-150000D01*
G01*
X37387500Y-91178300D01*
G75*
G02*
X37237500Y-91328300I-150000J0D01*
G01*
G37*
G36*
G01*
X37237500Y-96628300D02*
X36937500Y-96628300D01*
G75*
G02*
X36787500Y-96478300I0J150000D01*
G01*
X36787500Y-95178300D01*
G75*
G02*
X36937500Y-95028300I150000J0D01*
G01*
X37237500Y-95028300D01*
G75*
G02*
X37387500Y-95178300I0J-150000D01*
G01*
X37387500Y-96478300D01*
G75*
G02*
X37237500Y-96628300I-150000J0D01*
G01*
G37*
G36*
G01*
X38507500Y-96628300D02*
X38207500Y-96628300D01*
G75*
G02*
X38057500Y-96478300I0J150000D01*
G01*
X38057500Y-95178300D01*
G75*
G02*
X38207500Y-95028300I150000J0D01*
G01*
X38507500Y-95028300D01*
G75*
G02*
X38657500Y-95178300I0J-150000D01*
G01*
X38657500Y-96478300D01*
G75*
G02*
X38507500Y-96628300I-150000J0D01*
G01*
G37*
G36*
G01*
X39777500Y-96628300D02*
X39477500Y-96628300D01*
G75*
G02*
X39327500Y-96478300I0J150000D01*
G01*
X39327500Y-95178300D01*
G75*
G02*
X39477500Y-95028300I150000J0D01*
G01*
X39777500Y-95028300D01*
G75*
G02*
X39927500Y-95178300I0J-150000D01*
G01*
X39927500Y-96478300D01*
G75*
G02*
X39777500Y-96628300I-150000J0D01*
G01*
G37*
G36*
G01*
X41047500Y-96628300D02*
X40747500Y-96628300D01*
G75*
G02*
X40597500Y-96478300I0J150000D01*
G01*
X40597500Y-95178300D01*
G75*
G02*
X40747500Y-95028300I150000J0D01*
G01*
X41047500Y-95028300D01*
G75*
G02*
X41197500Y-95178300I0J-150000D01*
G01*
X41197500Y-96478300D01*
G75*
G02*
X41047500Y-96628300I-150000J0D01*
G01*
G37*
%TD*%
%TO.C,C53*%
G36*
G01*
X38692900Y-88584900D02*
X38692900Y-89084900D01*
G75*
G02*
X38467900Y-89309900I-225000J0D01*
G01*
X38017900Y-89309900D01*
G75*
G02*
X37792900Y-89084900I0J225000D01*
G01*
X37792900Y-88584900D01*
G75*
G02*
X38017900Y-88359900I225000J0D01*
G01*
X38467900Y-88359900D01*
G75*
G02*
X38692900Y-88584900I0J-225000D01*
G01*
G37*
G36*
G01*
X40242900Y-88584900D02*
X40242900Y-89084900D01*
G75*
G02*
X40017900Y-89309900I-225000J0D01*
G01*
X39567900Y-89309900D01*
G75*
G02*
X39342900Y-89084900I0J225000D01*
G01*
X39342900Y-88584900D01*
G75*
G02*
X39567900Y-88359900I225000J0D01*
G01*
X40017900Y-88359900D01*
G75*
G02*
X40242900Y-88584900I0J-225000D01*
G01*
G37*
%TD*%
%TO.C,C32*%
G36*
G01*
X38544000Y-97920600D02*
X38044000Y-97920600D01*
G75*
G02*
X37819000Y-97695600I0J225000D01*
G01*
X37819000Y-97245600D01*
G75*
G02*
X38044000Y-97020600I225000J0D01*
G01*
X38544000Y-97020600D01*
G75*
G02*
X38769000Y-97245600I0J-225000D01*
G01*
X38769000Y-97695600D01*
G75*
G02*
X38544000Y-97920600I-225000J0D01*
G01*
G37*
G36*
G01*
X38544000Y-99470600D02*
X38044000Y-99470600D01*
G75*
G02*
X37819000Y-99245600I0J225000D01*
G01*
X37819000Y-98795600D01*
G75*
G02*
X38044000Y-98570600I225000J0D01*
G01*
X38544000Y-98570600D01*
G75*
G02*
X38769000Y-98795600I0J-225000D01*
G01*
X38769000Y-99245600D01*
G75*
G02*
X38544000Y-99470600I-225000J0D01*
G01*
G37*
%TD*%
%TO.C,C22*%
G36*
G01*
X43851500Y-98492400D02*
X44801500Y-98492400D01*
G75*
G02*
X45051500Y-98742400I0J-250000D01*
G01*
X45051500Y-99242400D01*
G75*
G02*
X44801500Y-99492400I-250000J0D01*
G01*
X43851500Y-99492400D01*
G75*
G02*
X43601500Y-99242400I0J250000D01*
G01*
X43601500Y-98742400D01*
G75*
G02*
X43851500Y-98492400I250000J0D01*
G01*
G37*
G36*
G01*
X43851500Y-96592400D02*
X44801500Y-96592400D01*
G75*
G02*
X45051500Y-96842400I0J-250000D01*
G01*
X45051500Y-97342400D01*
G75*
G02*
X44801500Y-97592400I-250000J0D01*
G01*
X43851500Y-97592400D01*
G75*
G02*
X43601500Y-97342400I0J250000D01*
G01*
X43601500Y-96842400D01*
G75*
G02*
X43851500Y-96592400I250000J0D01*
G01*
G37*
%TD*%
%TO.C,C30*%
G36*
G01*
X37050000Y-81550001D02*
X37050000Y-79349999D01*
G75*
G02*
X37299999Y-79100000I249999J0D01*
G01*
X37950001Y-79100000D01*
G75*
G02*
X38200000Y-79349999I0J-249999D01*
G01*
X38200000Y-81550001D01*
G75*
G02*
X37950001Y-81800000I-249999J0D01*
G01*
X37299999Y-81800000D01*
G75*
G02*
X37050000Y-81550001I0J249999D01*
G01*
G37*
G36*
G01*
X34100000Y-81550001D02*
X34100000Y-79349999D01*
G75*
G02*
X34349999Y-79100000I249999J0D01*
G01*
X35000001Y-79100000D01*
G75*
G02*
X35250000Y-79349999I0J-249999D01*
G01*
X35250000Y-81550001D01*
G75*
G02*
X35000001Y-81800000I-249999J0D01*
G01*
X34349999Y-81800000D01*
G75*
G02*
X34100000Y-81550001I0J249999D01*
G01*
G37*
%TD*%
%TO.C,R41*%
G36*
G01*
X39390600Y-98670600D02*
X39940600Y-98670600D01*
G75*
G02*
X40140600Y-98870600I0J-200000D01*
G01*
X40140600Y-99270600D01*
G75*
G02*
X39940600Y-99470600I-200000J0D01*
G01*
X39390600Y-99470600D01*
G75*
G02*
X39190600Y-99270600I0J200000D01*
G01*
X39190600Y-98870600D01*
G75*
G02*
X39390600Y-98670600I200000J0D01*
G01*
G37*
G36*
G01*
X39390600Y-97020600D02*
X39940600Y-97020600D01*
G75*
G02*
X40140600Y-97220600I0J-200000D01*
G01*
X40140600Y-97620600D01*
G75*
G02*
X39940600Y-97820600I-200000J0D01*
G01*
X39390600Y-97820600D01*
G75*
G02*
X39190600Y-97620600I0J200000D01*
G01*
X39190600Y-97220600D01*
G75*
G02*
X39390600Y-97020600I200000J0D01*
G01*
G37*
%TD*%
%TO.C,R42*%
G36*
G01*
X41348800Y-98656400D02*
X41348800Y-99206400D01*
G75*
G02*
X41148800Y-99406400I-200000J0D01*
G01*
X40748800Y-99406400D01*
G75*
G02*
X40548800Y-99206400I0J200000D01*
G01*
X40548800Y-98656400D01*
G75*
G02*
X40748800Y-98456400I200000J0D01*
G01*
X41148800Y-98456400D01*
G75*
G02*
X41348800Y-98656400I0J-200000D01*
G01*
G37*
G36*
G01*
X42998800Y-98656400D02*
X42998800Y-99206400D01*
G75*
G02*
X42798800Y-99406400I-200000J0D01*
G01*
X42398800Y-99406400D01*
G75*
G02*
X42198800Y-99206400I0J200000D01*
G01*
X42198800Y-98656400D01*
G75*
G02*
X42398800Y-98456400I200000J0D01*
G01*
X42798800Y-98456400D01*
G75*
G02*
X42998800Y-98656400I0J-200000D01*
G01*
G37*
%TD*%
D14*
%TO.C,D16*%
X32400000Y-84275000D03*
X36800000Y-84275000D03*
%TD*%
%TO.C,R14*%
G36*
G01*
X58975000Y-80225000D02*
X59525000Y-80225000D01*
G75*
G02*
X59725000Y-80425000I0J-200000D01*
G01*
X59725000Y-80825000D01*
G75*
G02*
X59525000Y-81025000I-200000J0D01*
G01*
X58975000Y-81025000D01*
G75*
G02*
X58775000Y-80825000I0J200000D01*
G01*
X58775000Y-80425000D01*
G75*
G02*
X58975000Y-80225000I200000J0D01*
G01*
G37*
G36*
G01*
X58975000Y-78575000D02*
X59525000Y-78575000D01*
G75*
G02*
X59725000Y-78775000I0J-200000D01*
G01*
X59725000Y-79175000D01*
G75*
G02*
X59525000Y-79375000I-200000J0D01*
G01*
X58975000Y-79375000D01*
G75*
G02*
X58775000Y-79175000I0J200000D01*
G01*
X58775000Y-78775000D01*
G75*
G02*
X58975000Y-78575000I200000J0D01*
G01*
G37*
%TD*%
%TO.C,R12*%
G36*
G01*
X60350000Y-80250000D02*
X60900000Y-80250000D01*
G75*
G02*
X61100000Y-80450000I0J-200000D01*
G01*
X61100000Y-80850000D01*
G75*
G02*
X60900000Y-81050000I-200000J0D01*
G01*
X60350000Y-81050000D01*
G75*
G02*
X60150000Y-80850000I0J200000D01*
G01*
X60150000Y-80450000D01*
G75*
G02*
X60350000Y-80250000I200000J0D01*
G01*
G37*
G36*
G01*
X60350000Y-78600000D02*
X60900000Y-78600000D01*
G75*
G02*
X61100000Y-78800000I0J-200000D01*
G01*
X61100000Y-79200000D01*
G75*
G02*
X60900000Y-79400000I-200000J0D01*
G01*
X60350000Y-79400000D01*
G75*
G02*
X60150000Y-79200000I0J200000D01*
G01*
X60150000Y-78800000D01*
G75*
G02*
X60350000Y-78600000I200000J0D01*
G01*
G37*
%TD*%
%TO.C,C26*%
G36*
G01*
X58125000Y-79475000D02*
X57625000Y-79475000D01*
G75*
G02*
X57400000Y-79250000I0J225000D01*
G01*
X57400000Y-78800000D01*
G75*
G02*
X57625000Y-78575000I225000J0D01*
G01*
X58125000Y-78575000D01*
G75*
G02*
X58350000Y-78800000I0J-225000D01*
G01*
X58350000Y-79250000D01*
G75*
G02*
X58125000Y-79475000I-225000J0D01*
G01*
G37*
G36*
G01*
X58125000Y-81025000D02*
X57625000Y-81025000D01*
G75*
G02*
X57400000Y-80800000I0J225000D01*
G01*
X57400000Y-80350000D01*
G75*
G02*
X57625000Y-80125000I225000J0D01*
G01*
X58125000Y-80125000D01*
G75*
G02*
X58350000Y-80350000I0J-225000D01*
G01*
X58350000Y-80800000D01*
G75*
G02*
X58125000Y-81025000I-225000J0D01*
G01*
G37*
%TD*%
%TO.C,C25*%
G36*
G01*
X62200000Y-79525000D02*
X61700000Y-79525000D01*
G75*
G02*
X61475000Y-79300000I0J225000D01*
G01*
X61475000Y-78850000D01*
G75*
G02*
X61700000Y-78625000I225000J0D01*
G01*
X62200000Y-78625000D01*
G75*
G02*
X62425000Y-78850000I0J-225000D01*
G01*
X62425000Y-79300000D01*
G75*
G02*
X62200000Y-79525000I-225000J0D01*
G01*
G37*
G36*
G01*
X62200000Y-81075000D02*
X61700000Y-81075000D01*
G75*
G02*
X61475000Y-80850000I0J225000D01*
G01*
X61475000Y-80400000D01*
G75*
G02*
X61700000Y-80175000I225000J0D01*
G01*
X62200000Y-80175000D01*
G75*
G02*
X62425000Y-80400000I0J-225000D01*
G01*
X62425000Y-80850000D01*
G75*
G02*
X62200000Y-81075000I-225000J0D01*
G01*
G37*
%TD*%
D15*
%TO.C,Y2*%
X54825000Y-97150000D03*
X57025000Y-97150000D03*
X57025000Y-95550000D03*
X54825000Y-95550000D03*
%TD*%
D16*
%TO.C,D14*%
X32400000Y-86905000D03*
X29900000Y-86905000D03*
X27400000Y-86905000D03*
X24900000Y-86905000D03*
X22400000Y-86905000D03*
X22400000Y-103445000D03*
X24900000Y-103445000D03*
X27400000Y-103445000D03*
X29900000Y-103445000D03*
X32400000Y-103445000D03*
%TD*%
%TO.C,R1*%
G36*
G01*
X55260000Y-93965000D02*
X55260000Y-94335000D01*
G75*
G02*
X55125000Y-94470000I-135000J0D01*
G01*
X54855000Y-94470000D01*
G75*
G02*
X54720000Y-94335000I0J135000D01*
G01*
X54720000Y-93965000D01*
G75*
G02*
X54855000Y-93830000I135000J0D01*
G01*
X55125000Y-93830000D01*
G75*
G02*
X55260000Y-93965000I0J-135000D01*
G01*
G37*
G36*
G01*
X56280000Y-93965000D02*
X56280000Y-94335000D01*
G75*
G02*
X56145000Y-94470000I-135000J0D01*
G01*
X55875000Y-94470000D01*
G75*
G02*
X55740000Y-94335000I0J135000D01*
G01*
X55740000Y-93965000D01*
G75*
G02*
X55875000Y-93830000I135000J0D01*
G01*
X56145000Y-93830000D01*
G75*
G02*
X56280000Y-93965000I0J-135000D01*
G01*
G37*
%TD*%
%TO.C,C7*%
G36*
G01*
X58645000Y-96125000D02*
X58305000Y-96125000D01*
G75*
G02*
X58165000Y-95985000I0J140000D01*
G01*
X58165000Y-95705000D01*
G75*
G02*
X58305000Y-95565000I140000J0D01*
G01*
X58645000Y-95565000D01*
G75*
G02*
X58785000Y-95705000I0J-140000D01*
G01*
X58785000Y-95985000D01*
G75*
G02*
X58645000Y-96125000I-140000J0D01*
G01*
G37*
G36*
G01*
X58645000Y-97085000D02*
X58305000Y-97085000D01*
G75*
G02*
X58165000Y-96945000I0J140000D01*
G01*
X58165000Y-96665000D01*
G75*
G02*
X58305000Y-96525000I140000J0D01*
G01*
X58645000Y-96525000D01*
G75*
G02*
X58785000Y-96665000I0J-140000D01*
G01*
X58785000Y-96945000D01*
G75*
G02*
X58645000Y-97085000I-140000J0D01*
G01*
G37*
%TD*%
%TO.C,C4*%
G36*
G01*
X53155000Y-96500000D02*
X53495000Y-96500000D01*
G75*
G02*
X53635000Y-96640000I0J-140000D01*
G01*
X53635000Y-96920000D01*
G75*
G02*
X53495000Y-97060000I-140000J0D01*
G01*
X53155000Y-97060000D01*
G75*
G02*
X53015000Y-96920000I0J140000D01*
G01*
X53015000Y-96640000D01*
G75*
G02*
X53155000Y-96500000I140000J0D01*
G01*
G37*
G36*
G01*
X53155000Y-95540000D02*
X53495000Y-95540000D01*
G75*
G02*
X53635000Y-95680000I0J-140000D01*
G01*
X53635000Y-95960000D01*
G75*
G02*
X53495000Y-96100000I-140000J0D01*
G01*
X53155000Y-96100000D01*
G75*
G02*
X53015000Y-95960000I0J140000D01*
G01*
X53015000Y-95680000D01*
G75*
G02*
X53155000Y-95540000I140000J0D01*
G01*
G37*
%TD*%
%TO.C,C14*%
G36*
G01*
X57900000Y-93930000D02*
X57900000Y-94270000D01*
G75*
G02*
X57760000Y-94410000I-140000J0D01*
G01*
X57480000Y-94410000D01*
G75*
G02*
X57340000Y-94270000I0J140000D01*
G01*
X57340000Y-93930000D01*
G75*
G02*
X57480000Y-93790000I140000J0D01*
G01*
X57760000Y-93790000D01*
G75*
G02*
X57900000Y-93930000I0J-140000D01*
G01*
G37*
G36*
G01*
X58860000Y-93930000D02*
X58860000Y-94270000D01*
G75*
G02*
X58720000Y-94410000I-140000J0D01*
G01*
X58440000Y-94410000D01*
G75*
G02*
X58300000Y-94270000I0J140000D01*
G01*
X58300000Y-93930000D01*
G75*
G02*
X58440000Y-93790000I140000J0D01*
G01*
X58720000Y-93790000D01*
G75*
G02*
X58860000Y-93930000I0J-140000D01*
G01*
G37*
%TD*%
%TO.C,R2*%
G36*
G01*
X48315000Y-79990000D02*
X48685000Y-79990000D01*
G75*
G02*
X48820000Y-80125000I0J-135000D01*
G01*
X48820000Y-80395000D01*
G75*
G02*
X48685000Y-80530000I-135000J0D01*
G01*
X48315000Y-80530000D01*
G75*
G02*
X48180000Y-80395000I0J135000D01*
G01*
X48180000Y-80125000D01*
G75*
G02*
X48315000Y-79990000I135000J0D01*
G01*
G37*
G36*
G01*
X48315000Y-78970000D02*
X48685000Y-78970000D01*
G75*
G02*
X48820000Y-79105000I0J-135000D01*
G01*
X48820000Y-79375000D01*
G75*
G02*
X48685000Y-79510000I-135000J0D01*
G01*
X48315000Y-79510000D01*
G75*
G02*
X48180000Y-79375000I0J135000D01*
G01*
X48180000Y-79105000D01*
G75*
G02*
X48315000Y-78970000I135000J0D01*
G01*
G37*
%TD*%
%TO.C,R3*%
G36*
G01*
X47240000Y-79965000D02*
X47610000Y-79965000D01*
G75*
G02*
X47745000Y-80100000I0J-135000D01*
G01*
X47745000Y-80370000D01*
G75*
G02*
X47610000Y-80505000I-135000J0D01*
G01*
X47240000Y-80505000D01*
G75*
G02*
X47105000Y-80370000I0J135000D01*
G01*
X47105000Y-80100000D01*
G75*
G02*
X47240000Y-79965000I135000J0D01*
G01*
G37*
G36*
G01*
X47240000Y-78945000D02*
X47610000Y-78945000D01*
G75*
G02*
X47745000Y-79080000I0J-135000D01*
G01*
X47745000Y-79350000D01*
G75*
G02*
X47610000Y-79485000I-135000J0D01*
G01*
X47240000Y-79485000D01*
G75*
G02*
X47105000Y-79350000I0J135000D01*
G01*
X47105000Y-79080000D01*
G75*
G02*
X47240000Y-78945000I135000J0D01*
G01*
G37*
%TD*%
%TO.C,C12*%
G36*
G01*
X62025000Y-88605000D02*
X62025000Y-88945000D01*
G75*
G02*
X61885000Y-89085000I-140000J0D01*
G01*
X61605000Y-89085000D01*
G75*
G02*
X61465000Y-88945000I0J140000D01*
G01*
X61465000Y-88605000D01*
G75*
G02*
X61605000Y-88465000I140000J0D01*
G01*
X61885000Y-88465000D01*
G75*
G02*
X62025000Y-88605000I0J-140000D01*
G01*
G37*
G36*
G01*
X62985000Y-88605000D02*
X62985000Y-88945000D01*
G75*
G02*
X62845000Y-89085000I-140000J0D01*
G01*
X62565000Y-89085000D01*
G75*
G02*
X62425000Y-88945000I0J140000D01*
G01*
X62425000Y-88605000D01*
G75*
G02*
X62565000Y-88465000I140000J0D01*
G01*
X62845000Y-88465000D01*
G75*
G02*
X62985000Y-88605000I0J-140000D01*
G01*
G37*
%TD*%
%TO.C,C10*%
G36*
G01*
X62025000Y-89630000D02*
X62025000Y-89970000D01*
G75*
G02*
X61885000Y-90110000I-140000J0D01*
G01*
X61605000Y-90110000D01*
G75*
G02*
X61465000Y-89970000I0J140000D01*
G01*
X61465000Y-89630000D01*
G75*
G02*
X61605000Y-89490000I140000J0D01*
G01*
X61885000Y-89490000D01*
G75*
G02*
X62025000Y-89630000I0J-140000D01*
G01*
G37*
G36*
G01*
X62985000Y-89630000D02*
X62985000Y-89970000D01*
G75*
G02*
X62845000Y-90110000I-140000J0D01*
G01*
X62565000Y-90110000D01*
G75*
G02*
X62425000Y-89970000I0J140000D01*
G01*
X62425000Y-89630000D01*
G75*
G02*
X62565000Y-89490000I140000J0D01*
G01*
X62845000Y-89490000D01*
G75*
G02*
X62985000Y-89630000I0J-140000D01*
G01*
G37*
%TD*%
%TO.C,C19*%
G36*
G01*
X24100000Y-81500000D02*
X24100000Y-82600000D01*
G75*
G02*
X23850000Y-82850000I-250000J0D01*
G01*
X20850000Y-82850000D01*
G75*
G02*
X20600000Y-82600000I0J250000D01*
G01*
X20600000Y-81500000D01*
G75*
G02*
X20850000Y-81250000I250000J0D01*
G01*
X23850000Y-81250000D01*
G75*
G02*
X24100000Y-81500000I0J-250000D01*
G01*
G37*
G36*
G01*
X29500000Y-81500000D02*
X29500000Y-82600000D01*
G75*
G02*
X29250000Y-82850000I-250000J0D01*
G01*
X26250000Y-82850000D01*
G75*
G02*
X26000000Y-82600000I0J250000D01*
G01*
X26000000Y-81500000D01*
G75*
G02*
X26250000Y-81250000I250000J0D01*
G01*
X29250000Y-81250000D01*
G75*
G02*
X29500000Y-81500000I0J-250000D01*
G01*
G37*
%TD*%
M02*
