%TF.GenerationSoftware,KiCad,Pcbnew,5.1.9+dfsg1-1+deb11u1*%
%TF.CreationDate,2022-12-05T14:20:48+03:00*%
%TF.ProjectId,Meteostation,4d657465-6f73-4746-9174-696f6e2e6b69,rev?*%
%TF.SameCoordinates,PX12b1280PY638dd70*%
%TF.FileFunction,Soldermask,Top*%
%TF.FilePolarity,Negative*%
%FSLAX46Y46*%
G04 Gerber Fmt 4.6, Leading zero omitted, Abs format (unit mm)*
G04 Created by KiCad (PCBNEW 5.1.9+dfsg1-1+deb11u1) date 2022-12-05 14:20:48*
%MOMM*%
%LPD*%
G01*
G04 APERTURE LIST*
%ADD10C,1.000000*%
%ADD11R,1.100000X1.100000*%
%ADD12R,1.800000X1.800000*%
%ADD13R,1.000000X1.700000*%
%ADD14R,1.700000X1.000000*%
%ADD15R,0.800000X0.900000*%
%ADD16C,3.000000*%
%ADD17C,1.524000*%
%ADD18R,0.600000X1.550000*%
%ADD19R,0.900000X1.200000*%
G04 APERTURE END LIST*
D10*
%TO.C,J14*%
X33380000Y15140000D03*
%TD*%
%TO.C,J9*%
X35650000Y14840000D03*
%TD*%
%TO.C,J8*%
X33800000Y13710000D03*
%TD*%
%TO.C,J5*%
X34610000Y15580000D03*
%TD*%
%TO.C,R4*%
G36*
G01*
X31895000Y13310000D02*
X32265000Y13310000D01*
G75*
G02*
X32400000Y13175000I0J-135000D01*
G01*
X32400000Y12905000D01*
G75*
G02*
X32265000Y12770000I-135000J0D01*
G01*
X31895000Y12770000D01*
G75*
G02*
X31760000Y12905000I0J135000D01*
G01*
X31760000Y13175000D01*
G75*
G02*
X31895000Y13310000I135000J0D01*
G01*
G37*
G36*
G01*
X31895000Y14330000D02*
X32265000Y14330000D01*
G75*
G02*
X32400000Y14195000I0J-135000D01*
G01*
X32400000Y13925000D01*
G75*
G02*
X32265000Y13790000I-135000J0D01*
G01*
X31895000Y13790000D01*
G75*
G02*
X31760000Y13925000I0J135000D01*
G01*
X31760000Y14195000D01*
G75*
G02*
X31895000Y14330000I135000J0D01*
G01*
G37*
%TD*%
%TO.C,R5*%
G36*
G01*
X24440000Y11384998D02*
X24440000Y12635002D01*
G75*
G02*
X24689998Y12885000I249998J0D01*
G01*
X25315002Y12885000D01*
G75*
G02*
X25565000Y12635002I0J-249998D01*
G01*
X25565000Y11384998D01*
G75*
G02*
X25315002Y11135000I-249998J0D01*
G01*
X24689998Y11135000D01*
G75*
G02*
X24440000Y11384998I0J249998D01*
G01*
G37*
G36*
G01*
X21515000Y11384998D02*
X21515000Y12635002D01*
G75*
G02*
X21764998Y12885000I249998J0D01*
G01*
X22390002Y12885000D01*
G75*
G02*
X22640000Y12635002I0J-249998D01*
G01*
X22640000Y11384998D01*
G75*
G02*
X22390002Y11135000I-249998J0D01*
G01*
X21764998Y11135000D01*
G75*
G02*
X21515000Y11384998I0J249998D01*
G01*
G37*
%TD*%
%TO.C,R29*%
G36*
G01*
X24452500Y8534998D02*
X24452500Y9785002D01*
G75*
G02*
X24702498Y10035000I249998J0D01*
G01*
X25327502Y10035000D01*
G75*
G02*
X25577500Y9785002I0J-249998D01*
G01*
X25577500Y8534998D01*
G75*
G02*
X25327502Y8285000I-249998J0D01*
G01*
X24702498Y8285000D01*
G75*
G02*
X24452500Y8534998I0J249998D01*
G01*
G37*
G36*
G01*
X21527500Y8534998D02*
X21527500Y9785002D01*
G75*
G02*
X21777498Y10035000I249998J0D01*
G01*
X22402502Y10035000D01*
G75*
G02*
X22652500Y9785002I0J-249998D01*
G01*
X22652500Y8534998D01*
G75*
G02*
X22402502Y8285000I-249998J0D01*
G01*
X21777498Y8285000D01*
G75*
G02*
X21527500Y8534998I0J249998D01*
G01*
G37*
%TD*%
%TO.C,J13*%
X27080000Y10510000D03*
%TD*%
%TO.C,J12*%
X30750000Y14215000D03*
%TD*%
%TO.C,J2*%
X26890000Y7110000D03*
%TD*%
%TO.C,J1*%
X26900000Y8500000D03*
%TD*%
%TO.C,R6*%
G36*
G01*
X20145000Y10345000D02*
X19595000Y10345000D01*
G75*
G02*
X19395000Y10545000I0J200000D01*
G01*
X19395000Y10945000D01*
G75*
G02*
X19595000Y11145000I200000J0D01*
G01*
X20145000Y11145000D01*
G75*
G02*
X20345000Y10945000I0J-200000D01*
G01*
X20345000Y10545000D01*
G75*
G02*
X20145000Y10345000I-200000J0D01*
G01*
G37*
G36*
G01*
X20145000Y8695000D02*
X19595000Y8695000D01*
G75*
G02*
X19395000Y8895000I0J200000D01*
G01*
X19395000Y9295000D01*
G75*
G02*
X19595000Y9495000I200000J0D01*
G01*
X20145000Y9495000D01*
G75*
G02*
X20345000Y9295000I0J-200000D01*
G01*
X20345000Y8895000D01*
G75*
G02*
X20145000Y8695000I-200000J0D01*
G01*
G37*
%TD*%
D11*
%TO.C,D13*%
X10150000Y15340000D03*
X10150000Y18140000D03*
%TD*%
%TO.C,D8*%
X5250000Y2840000D03*
X2450000Y2840000D03*
%TD*%
%TO.C,C32*%
G36*
G01*
X32220000Y23415000D02*
X31720000Y23415000D01*
G75*
G02*
X31495000Y23640000I0J225000D01*
G01*
X31495000Y24090000D01*
G75*
G02*
X31720000Y24315000I225000J0D01*
G01*
X32220000Y24315000D01*
G75*
G02*
X32445000Y24090000I0J-225000D01*
G01*
X32445000Y23640000D01*
G75*
G02*
X32220000Y23415000I-225000J0D01*
G01*
G37*
G36*
G01*
X32220000Y21865000D02*
X31720000Y21865000D01*
G75*
G02*
X31495000Y22090000I0J225000D01*
G01*
X31495000Y22540000D01*
G75*
G02*
X31720000Y22765000I225000J0D01*
G01*
X32220000Y22765000D01*
G75*
G02*
X32445000Y22540000I0J-225000D01*
G01*
X32445000Y22090000D01*
G75*
G02*
X32220000Y21865000I-225000J0D01*
G01*
G37*
%TD*%
%TO.C,C2*%
G36*
G01*
X17910000Y10285000D02*
X17910000Y11235000D01*
G75*
G02*
X18160000Y11485000I250000J0D01*
G01*
X18660000Y11485000D01*
G75*
G02*
X18910000Y11235000I0J-250000D01*
G01*
X18910000Y10285000D01*
G75*
G02*
X18660000Y10035000I-250000J0D01*
G01*
X18160000Y10035000D01*
G75*
G02*
X17910000Y10285000I0J250000D01*
G01*
G37*
G36*
G01*
X16010000Y10285000D02*
X16010000Y11235000D01*
G75*
G02*
X16260000Y11485000I250000J0D01*
G01*
X16760000Y11485000D01*
G75*
G02*
X17010000Y11235000I0J-250000D01*
G01*
X17010000Y10285000D01*
G75*
G02*
X16760000Y10035000I-250000J0D01*
G01*
X16260000Y10035000D01*
G75*
G02*
X16010000Y10285000I0J250000D01*
G01*
G37*
%TD*%
D12*
%TO.C,D15*%
X24770000Y22280000D03*
X24770000Y19780000D03*
X27270000Y19780000D03*
X27270000Y22280000D03*
D13*
X28520000Y25030000D03*
X27270000Y25030000D03*
X26020000Y25030000D03*
X24770000Y25030000D03*
X23520000Y25030000D03*
D14*
X22020000Y23530000D03*
X22020000Y22280000D03*
X22020000Y21030000D03*
X22020000Y19780000D03*
X22020000Y18530000D03*
D13*
X23520000Y17030000D03*
X24770000Y17030000D03*
X26020000Y17030000D03*
X27270000Y17030000D03*
X28520000Y17030000D03*
D14*
X30020000Y18530000D03*
X30020000Y19780000D03*
X30020000Y21030000D03*
X30020000Y22280000D03*
X30020000Y23530000D03*
%TD*%
%TO.C,C23*%
G36*
G01*
X36625000Y2090000D02*
X37575000Y2090000D01*
G75*
G02*
X37825000Y1840000I0J-250000D01*
G01*
X37825000Y1340000D01*
G75*
G02*
X37575000Y1090000I-250000J0D01*
G01*
X36625000Y1090000D01*
G75*
G02*
X36375000Y1340000I0J250000D01*
G01*
X36375000Y1840000D01*
G75*
G02*
X36625000Y2090000I250000J0D01*
G01*
G37*
G36*
G01*
X36625000Y3990000D02*
X37575000Y3990000D01*
G75*
G02*
X37825000Y3740000I0J-250000D01*
G01*
X37825000Y3240000D01*
G75*
G02*
X37575000Y2990000I-250000J0D01*
G01*
X36625000Y2990000D01*
G75*
G02*
X36375000Y3240000I0J250000D01*
G01*
X36375000Y3740000D01*
G75*
G02*
X36625000Y3990000I250000J0D01*
G01*
G37*
%TD*%
%TO.C,C11*%
G36*
G01*
X37975000Y11090000D02*
X37975000Y11590000D01*
G75*
G02*
X38200000Y11815000I225000J0D01*
G01*
X38650000Y11815000D01*
G75*
G02*
X38875000Y11590000I0J-225000D01*
G01*
X38875000Y11090000D01*
G75*
G02*
X38650000Y10865000I-225000J0D01*
G01*
X38200000Y10865000D01*
G75*
G02*
X37975000Y11090000I0J225000D01*
G01*
G37*
G36*
G01*
X36425000Y11090000D02*
X36425000Y11590000D01*
G75*
G02*
X36650000Y11815000I225000J0D01*
G01*
X37100000Y11815000D01*
G75*
G02*
X37325000Y11590000I0J-225000D01*
G01*
X37325000Y11090000D01*
G75*
G02*
X37100000Y10865000I-225000J0D01*
G01*
X36650000Y10865000D01*
G75*
G02*
X36425000Y11090000I0J225000D01*
G01*
G37*
%TD*%
%TO.C,U1*%
G36*
G01*
X29450000Y4515000D02*
X28125000Y4515000D01*
G75*
G02*
X28050000Y4590000I0J75000D01*
G01*
X28050000Y4740000D01*
G75*
G02*
X28125000Y4815000I75000J0D01*
G01*
X29450000Y4815000D01*
G75*
G02*
X29525000Y4740000I0J-75000D01*
G01*
X29525000Y4590000D01*
G75*
G02*
X29450000Y4515000I-75000J0D01*
G01*
G37*
G36*
G01*
X29450000Y5015000D02*
X28125000Y5015000D01*
G75*
G02*
X28050000Y5090000I0J75000D01*
G01*
X28050000Y5240000D01*
G75*
G02*
X28125000Y5315000I75000J0D01*
G01*
X29450000Y5315000D01*
G75*
G02*
X29525000Y5240000I0J-75000D01*
G01*
X29525000Y5090000D01*
G75*
G02*
X29450000Y5015000I-75000J0D01*
G01*
G37*
G36*
G01*
X29450000Y5515000D02*
X28125000Y5515000D01*
G75*
G02*
X28050000Y5590000I0J75000D01*
G01*
X28050000Y5740000D01*
G75*
G02*
X28125000Y5815000I75000J0D01*
G01*
X29450000Y5815000D01*
G75*
G02*
X29525000Y5740000I0J-75000D01*
G01*
X29525000Y5590000D01*
G75*
G02*
X29450000Y5515000I-75000J0D01*
G01*
G37*
G36*
G01*
X29450000Y6015000D02*
X28125000Y6015000D01*
G75*
G02*
X28050000Y6090000I0J75000D01*
G01*
X28050000Y6240000D01*
G75*
G02*
X28125000Y6315000I75000J0D01*
G01*
X29450000Y6315000D01*
G75*
G02*
X29525000Y6240000I0J-75000D01*
G01*
X29525000Y6090000D01*
G75*
G02*
X29450000Y6015000I-75000J0D01*
G01*
G37*
G36*
G01*
X29450000Y6515000D02*
X28125000Y6515000D01*
G75*
G02*
X28050000Y6590000I0J75000D01*
G01*
X28050000Y6740000D01*
G75*
G02*
X28125000Y6815000I75000J0D01*
G01*
X29450000Y6815000D01*
G75*
G02*
X29525000Y6740000I0J-75000D01*
G01*
X29525000Y6590000D01*
G75*
G02*
X29450000Y6515000I-75000J0D01*
G01*
G37*
G36*
G01*
X29450000Y7015000D02*
X28125000Y7015000D01*
G75*
G02*
X28050000Y7090000I0J75000D01*
G01*
X28050000Y7240000D01*
G75*
G02*
X28125000Y7315000I75000J0D01*
G01*
X29450000Y7315000D01*
G75*
G02*
X29525000Y7240000I0J-75000D01*
G01*
X29525000Y7090000D01*
G75*
G02*
X29450000Y7015000I-75000J0D01*
G01*
G37*
G36*
G01*
X29450000Y7515000D02*
X28125000Y7515000D01*
G75*
G02*
X28050000Y7590000I0J75000D01*
G01*
X28050000Y7740000D01*
G75*
G02*
X28125000Y7815000I75000J0D01*
G01*
X29450000Y7815000D01*
G75*
G02*
X29525000Y7740000I0J-75000D01*
G01*
X29525000Y7590000D01*
G75*
G02*
X29450000Y7515000I-75000J0D01*
G01*
G37*
G36*
G01*
X29450000Y8015000D02*
X28125000Y8015000D01*
G75*
G02*
X28050000Y8090000I0J75000D01*
G01*
X28050000Y8240000D01*
G75*
G02*
X28125000Y8315000I75000J0D01*
G01*
X29450000Y8315000D01*
G75*
G02*
X29525000Y8240000I0J-75000D01*
G01*
X29525000Y8090000D01*
G75*
G02*
X29450000Y8015000I-75000J0D01*
G01*
G37*
G36*
G01*
X29450000Y8515000D02*
X28125000Y8515000D01*
G75*
G02*
X28050000Y8590000I0J75000D01*
G01*
X28050000Y8740000D01*
G75*
G02*
X28125000Y8815000I75000J0D01*
G01*
X29450000Y8815000D01*
G75*
G02*
X29525000Y8740000I0J-75000D01*
G01*
X29525000Y8590000D01*
G75*
G02*
X29450000Y8515000I-75000J0D01*
G01*
G37*
G36*
G01*
X29450000Y9015000D02*
X28125000Y9015000D01*
G75*
G02*
X28050000Y9090000I0J75000D01*
G01*
X28050000Y9240000D01*
G75*
G02*
X28125000Y9315000I75000J0D01*
G01*
X29450000Y9315000D01*
G75*
G02*
X29525000Y9240000I0J-75000D01*
G01*
X29525000Y9090000D01*
G75*
G02*
X29450000Y9015000I-75000J0D01*
G01*
G37*
G36*
G01*
X29450000Y9515000D02*
X28125000Y9515000D01*
G75*
G02*
X28050000Y9590000I0J75000D01*
G01*
X28050000Y9740000D01*
G75*
G02*
X28125000Y9815000I75000J0D01*
G01*
X29450000Y9815000D01*
G75*
G02*
X29525000Y9740000I0J-75000D01*
G01*
X29525000Y9590000D01*
G75*
G02*
X29450000Y9515000I-75000J0D01*
G01*
G37*
G36*
G01*
X29450000Y10015000D02*
X28125000Y10015000D01*
G75*
G02*
X28050000Y10090000I0J75000D01*
G01*
X28050000Y10240000D01*
G75*
G02*
X28125000Y10315000I75000J0D01*
G01*
X29450000Y10315000D01*
G75*
G02*
X29525000Y10240000I0J-75000D01*
G01*
X29525000Y10090000D01*
G75*
G02*
X29450000Y10015000I-75000J0D01*
G01*
G37*
G36*
G01*
X30275000Y10840000D02*
X30125000Y10840000D01*
G75*
G02*
X30050000Y10915000I0J75000D01*
G01*
X30050000Y12240000D01*
G75*
G02*
X30125000Y12315000I75000J0D01*
G01*
X30275000Y12315000D01*
G75*
G02*
X30350000Y12240000I0J-75000D01*
G01*
X30350000Y10915000D01*
G75*
G02*
X30275000Y10840000I-75000J0D01*
G01*
G37*
G36*
G01*
X30775000Y10840000D02*
X30625000Y10840000D01*
G75*
G02*
X30550000Y10915000I0J75000D01*
G01*
X30550000Y12240000D01*
G75*
G02*
X30625000Y12315000I75000J0D01*
G01*
X30775000Y12315000D01*
G75*
G02*
X30850000Y12240000I0J-75000D01*
G01*
X30850000Y10915000D01*
G75*
G02*
X30775000Y10840000I-75000J0D01*
G01*
G37*
G36*
G01*
X31275000Y10840000D02*
X31125000Y10840000D01*
G75*
G02*
X31050000Y10915000I0J75000D01*
G01*
X31050000Y12240000D01*
G75*
G02*
X31125000Y12315000I75000J0D01*
G01*
X31275000Y12315000D01*
G75*
G02*
X31350000Y12240000I0J-75000D01*
G01*
X31350000Y10915000D01*
G75*
G02*
X31275000Y10840000I-75000J0D01*
G01*
G37*
G36*
G01*
X31775000Y10840000D02*
X31625000Y10840000D01*
G75*
G02*
X31550000Y10915000I0J75000D01*
G01*
X31550000Y12240000D01*
G75*
G02*
X31625000Y12315000I75000J0D01*
G01*
X31775000Y12315000D01*
G75*
G02*
X31850000Y12240000I0J-75000D01*
G01*
X31850000Y10915000D01*
G75*
G02*
X31775000Y10840000I-75000J0D01*
G01*
G37*
G36*
G01*
X32275000Y10840000D02*
X32125000Y10840000D01*
G75*
G02*
X32050000Y10915000I0J75000D01*
G01*
X32050000Y12240000D01*
G75*
G02*
X32125000Y12315000I75000J0D01*
G01*
X32275000Y12315000D01*
G75*
G02*
X32350000Y12240000I0J-75000D01*
G01*
X32350000Y10915000D01*
G75*
G02*
X32275000Y10840000I-75000J0D01*
G01*
G37*
G36*
G01*
X32775000Y10840000D02*
X32625000Y10840000D01*
G75*
G02*
X32550000Y10915000I0J75000D01*
G01*
X32550000Y12240000D01*
G75*
G02*
X32625000Y12315000I75000J0D01*
G01*
X32775000Y12315000D01*
G75*
G02*
X32850000Y12240000I0J-75000D01*
G01*
X32850000Y10915000D01*
G75*
G02*
X32775000Y10840000I-75000J0D01*
G01*
G37*
G36*
G01*
X33275000Y10840000D02*
X33125000Y10840000D01*
G75*
G02*
X33050000Y10915000I0J75000D01*
G01*
X33050000Y12240000D01*
G75*
G02*
X33125000Y12315000I75000J0D01*
G01*
X33275000Y12315000D01*
G75*
G02*
X33350000Y12240000I0J-75000D01*
G01*
X33350000Y10915000D01*
G75*
G02*
X33275000Y10840000I-75000J0D01*
G01*
G37*
G36*
G01*
X33775000Y10840000D02*
X33625000Y10840000D01*
G75*
G02*
X33550000Y10915000I0J75000D01*
G01*
X33550000Y12240000D01*
G75*
G02*
X33625000Y12315000I75000J0D01*
G01*
X33775000Y12315000D01*
G75*
G02*
X33850000Y12240000I0J-75000D01*
G01*
X33850000Y10915000D01*
G75*
G02*
X33775000Y10840000I-75000J0D01*
G01*
G37*
G36*
G01*
X34275000Y10840000D02*
X34125000Y10840000D01*
G75*
G02*
X34050000Y10915000I0J75000D01*
G01*
X34050000Y12240000D01*
G75*
G02*
X34125000Y12315000I75000J0D01*
G01*
X34275000Y12315000D01*
G75*
G02*
X34350000Y12240000I0J-75000D01*
G01*
X34350000Y10915000D01*
G75*
G02*
X34275000Y10840000I-75000J0D01*
G01*
G37*
G36*
G01*
X34775000Y10840000D02*
X34625000Y10840000D01*
G75*
G02*
X34550000Y10915000I0J75000D01*
G01*
X34550000Y12240000D01*
G75*
G02*
X34625000Y12315000I75000J0D01*
G01*
X34775000Y12315000D01*
G75*
G02*
X34850000Y12240000I0J-75000D01*
G01*
X34850000Y10915000D01*
G75*
G02*
X34775000Y10840000I-75000J0D01*
G01*
G37*
G36*
G01*
X35275000Y10840000D02*
X35125000Y10840000D01*
G75*
G02*
X35050000Y10915000I0J75000D01*
G01*
X35050000Y12240000D01*
G75*
G02*
X35125000Y12315000I75000J0D01*
G01*
X35275000Y12315000D01*
G75*
G02*
X35350000Y12240000I0J-75000D01*
G01*
X35350000Y10915000D01*
G75*
G02*
X35275000Y10840000I-75000J0D01*
G01*
G37*
G36*
G01*
X35775000Y10840000D02*
X35625000Y10840000D01*
G75*
G02*
X35550000Y10915000I0J75000D01*
G01*
X35550000Y12240000D01*
G75*
G02*
X35625000Y12315000I75000J0D01*
G01*
X35775000Y12315000D01*
G75*
G02*
X35850000Y12240000I0J-75000D01*
G01*
X35850000Y10915000D01*
G75*
G02*
X35775000Y10840000I-75000J0D01*
G01*
G37*
G36*
G01*
X37775000Y10015000D02*
X36450000Y10015000D01*
G75*
G02*
X36375000Y10090000I0J75000D01*
G01*
X36375000Y10240000D01*
G75*
G02*
X36450000Y10315000I75000J0D01*
G01*
X37775000Y10315000D01*
G75*
G02*
X37850000Y10240000I0J-75000D01*
G01*
X37850000Y10090000D01*
G75*
G02*
X37775000Y10015000I-75000J0D01*
G01*
G37*
G36*
G01*
X37775000Y9515000D02*
X36450000Y9515000D01*
G75*
G02*
X36375000Y9590000I0J75000D01*
G01*
X36375000Y9740000D01*
G75*
G02*
X36450000Y9815000I75000J0D01*
G01*
X37775000Y9815000D01*
G75*
G02*
X37850000Y9740000I0J-75000D01*
G01*
X37850000Y9590000D01*
G75*
G02*
X37775000Y9515000I-75000J0D01*
G01*
G37*
G36*
G01*
X37775000Y9015000D02*
X36450000Y9015000D01*
G75*
G02*
X36375000Y9090000I0J75000D01*
G01*
X36375000Y9240000D01*
G75*
G02*
X36450000Y9315000I75000J0D01*
G01*
X37775000Y9315000D01*
G75*
G02*
X37850000Y9240000I0J-75000D01*
G01*
X37850000Y9090000D01*
G75*
G02*
X37775000Y9015000I-75000J0D01*
G01*
G37*
G36*
G01*
X37775000Y8515000D02*
X36450000Y8515000D01*
G75*
G02*
X36375000Y8590000I0J75000D01*
G01*
X36375000Y8740000D01*
G75*
G02*
X36450000Y8815000I75000J0D01*
G01*
X37775000Y8815000D01*
G75*
G02*
X37850000Y8740000I0J-75000D01*
G01*
X37850000Y8590000D01*
G75*
G02*
X37775000Y8515000I-75000J0D01*
G01*
G37*
G36*
G01*
X37775000Y8015000D02*
X36450000Y8015000D01*
G75*
G02*
X36375000Y8090000I0J75000D01*
G01*
X36375000Y8240000D01*
G75*
G02*
X36450000Y8315000I75000J0D01*
G01*
X37775000Y8315000D01*
G75*
G02*
X37850000Y8240000I0J-75000D01*
G01*
X37850000Y8090000D01*
G75*
G02*
X37775000Y8015000I-75000J0D01*
G01*
G37*
G36*
G01*
X37775000Y7515000D02*
X36450000Y7515000D01*
G75*
G02*
X36375000Y7590000I0J75000D01*
G01*
X36375000Y7740000D01*
G75*
G02*
X36450000Y7815000I75000J0D01*
G01*
X37775000Y7815000D01*
G75*
G02*
X37850000Y7740000I0J-75000D01*
G01*
X37850000Y7590000D01*
G75*
G02*
X37775000Y7515000I-75000J0D01*
G01*
G37*
G36*
G01*
X37775000Y7015000D02*
X36450000Y7015000D01*
G75*
G02*
X36375000Y7090000I0J75000D01*
G01*
X36375000Y7240000D01*
G75*
G02*
X36450000Y7315000I75000J0D01*
G01*
X37775000Y7315000D01*
G75*
G02*
X37850000Y7240000I0J-75000D01*
G01*
X37850000Y7090000D01*
G75*
G02*
X37775000Y7015000I-75000J0D01*
G01*
G37*
G36*
G01*
X37775000Y6515000D02*
X36450000Y6515000D01*
G75*
G02*
X36375000Y6590000I0J75000D01*
G01*
X36375000Y6740000D01*
G75*
G02*
X36450000Y6815000I75000J0D01*
G01*
X37775000Y6815000D01*
G75*
G02*
X37850000Y6740000I0J-75000D01*
G01*
X37850000Y6590000D01*
G75*
G02*
X37775000Y6515000I-75000J0D01*
G01*
G37*
G36*
G01*
X37775000Y6015000D02*
X36450000Y6015000D01*
G75*
G02*
X36375000Y6090000I0J75000D01*
G01*
X36375000Y6240000D01*
G75*
G02*
X36450000Y6315000I75000J0D01*
G01*
X37775000Y6315000D01*
G75*
G02*
X37850000Y6240000I0J-75000D01*
G01*
X37850000Y6090000D01*
G75*
G02*
X37775000Y6015000I-75000J0D01*
G01*
G37*
G36*
G01*
X37775000Y5515000D02*
X36450000Y5515000D01*
G75*
G02*
X36375000Y5590000I0J75000D01*
G01*
X36375000Y5740000D01*
G75*
G02*
X36450000Y5815000I75000J0D01*
G01*
X37775000Y5815000D01*
G75*
G02*
X37850000Y5740000I0J-75000D01*
G01*
X37850000Y5590000D01*
G75*
G02*
X37775000Y5515000I-75000J0D01*
G01*
G37*
G36*
G01*
X37775000Y5015000D02*
X36450000Y5015000D01*
G75*
G02*
X36375000Y5090000I0J75000D01*
G01*
X36375000Y5240000D01*
G75*
G02*
X36450000Y5315000I75000J0D01*
G01*
X37775000Y5315000D01*
G75*
G02*
X37850000Y5240000I0J-75000D01*
G01*
X37850000Y5090000D01*
G75*
G02*
X37775000Y5015000I-75000J0D01*
G01*
G37*
G36*
G01*
X37775000Y4515000D02*
X36450000Y4515000D01*
G75*
G02*
X36375000Y4590000I0J75000D01*
G01*
X36375000Y4740000D01*
G75*
G02*
X36450000Y4815000I75000J0D01*
G01*
X37775000Y4815000D01*
G75*
G02*
X37850000Y4740000I0J-75000D01*
G01*
X37850000Y4590000D01*
G75*
G02*
X37775000Y4515000I-75000J0D01*
G01*
G37*
G36*
G01*
X35775000Y2515000D02*
X35625000Y2515000D01*
G75*
G02*
X35550000Y2590000I0J75000D01*
G01*
X35550000Y3915000D01*
G75*
G02*
X35625000Y3990000I75000J0D01*
G01*
X35775000Y3990000D01*
G75*
G02*
X35850000Y3915000I0J-75000D01*
G01*
X35850000Y2590000D01*
G75*
G02*
X35775000Y2515000I-75000J0D01*
G01*
G37*
G36*
G01*
X35275000Y2515000D02*
X35125000Y2515000D01*
G75*
G02*
X35050000Y2590000I0J75000D01*
G01*
X35050000Y3915000D01*
G75*
G02*
X35125000Y3990000I75000J0D01*
G01*
X35275000Y3990000D01*
G75*
G02*
X35350000Y3915000I0J-75000D01*
G01*
X35350000Y2590000D01*
G75*
G02*
X35275000Y2515000I-75000J0D01*
G01*
G37*
G36*
G01*
X34775000Y2515000D02*
X34625000Y2515000D01*
G75*
G02*
X34550000Y2590000I0J75000D01*
G01*
X34550000Y3915000D01*
G75*
G02*
X34625000Y3990000I75000J0D01*
G01*
X34775000Y3990000D01*
G75*
G02*
X34850000Y3915000I0J-75000D01*
G01*
X34850000Y2590000D01*
G75*
G02*
X34775000Y2515000I-75000J0D01*
G01*
G37*
G36*
G01*
X34275000Y2515000D02*
X34125000Y2515000D01*
G75*
G02*
X34050000Y2590000I0J75000D01*
G01*
X34050000Y3915000D01*
G75*
G02*
X34125000Y3990000I75000J0D01*
G01*
X34275000Y3990000D01*
G75*
G02*
X34350000Y3915000I0J-75000D01*
G01*
X34350000Y2590000D01*
G75*
G02*
X34275000Y2515000I-75000J0D01*
G01*
G37*
G36*
G01*
X33775000Y2515000D02*
X33625000Y2515000D01*
G75*
G02*
X33550000Y2590000I0J75000D01*
G01*
X33550000Y3915000D01*
G75*
G02*
X33625000Y3990000I75000J0D01*
G01*
X33775000Y3990000D01*
G75*
G02*
X33850000Y3915000I0J-75000D01*
G01*
X33850000Y2590000D01*
G75*
G02*
X33775000Y2515000I-75000J0D01*
G01*
G37*
G36*
G01*
X33275000Y2515000D02*
X33125000Y2515000D01*
G75*
G02*
X33050000Y2590000I0J75000D01*
G01*
X33050000Y3915000D01*
G75*
G02*
X33125000Y3990000I75000J0D01*
G01*
X33275000Y3990000D01*
G75*
G02*
X33350000Y3915000I0J-75000D01*
G01*
X33350000Y2590000D01*
G75*
G02*
X33275000Y2515000I-75000J0D01*
G01*
G37*
G36*
G01*
X32775000Y2515000D02*
X32625000Y2515000D01*
G75*
G02*
X32550000Y2590000I0J75000D01*
G01*
X32550000Y3915000D01*
G75*
G02*
X32625000Y3990000I75000J0D01*
G01*
X32775000Y3990000D01*
G75*
G02*
X32850000Y3915000I0J-75000D01*
G01*
X32850000Y2590000D01*
G75*
G02*
X32775000Y2515000I-75000J0D01*
G01*
G37*
G36*
G01*
X32275000Y2515000D02*
X32125000Y2515000D01*
G75*
G02*
X32050000Y2590000I0J75000D01*
G01*
X32050000Y3915000D01*
G75*
G02*
X32125000Y3990000I75000J0D01*
G01*
X32275000Y3990000D01*
G75*
G02*
X32350000Y3915000I0J-75000D01*
G01*
X32350000Y2590000D01*
G75*
G02*
X32275000Y2515000I-75000J0D01*
G01*
G37*
G36*
G01*
X31775000Y2515000D02*
X31625000Y2515000D01*
G75*
G02*
X31550000Y2590000I0J75000D01*
G01*
X31550000Y3915000D01*
G75*
G02*
X31625000Y3990000I75000J0D01*
G01*
X31775000Y3990000D01*
G75*
G02*
X31850000Y3915000I0J-75000D01*
G01*
X31850000Y2590000D01*
G75*
G02*
X31775000Y2515000I-75000J0D01*
G01*
G37*
G36*
G01*
X31275000Y2515000D02*
X31125000Y2515000D01*
G75*
G02*
X31050000Y2590000I0J75000D01*
G01*
X31050000Y3915000D01*
G75*
G02*
X31125000Y3990000I75000J0D01*
G01*
X31275000Y3990000D01*
G75*
G02*
X31350000Y3915000I0J-75000D01*
G01*
X31350000Y2590000D01*
G75*
G02*
X31275000Y2515000I-75000J0D01*
G01*
G37*
G36*
G01*
X30775000Y2515000D02*
X30625000Y2515000D01*
G75*
G02*
X30550000Y2590000I0J75000D01*
G01*
X30550000Y3915000D01*
G75*
G02*
X30625000Y3990000I75000J0D01*
G01*
X30775000Y3990000D01*
G75*
G02*
X30850000Y3915000I0J-75000D01*
G01*
X30850000Y2590000D01*
G75*
G02*
X30775000Y2515000I-75000J0D01*
G01*
G37*
G36*
G01*
X30275000Y2515000D02*
X30125000Y2515000D01*
G75*
G02*
X30050000Y2590000I0J75000D01*
G01*
X30050000Y3915000D01*
G75*
G02*
X30125000Y3990000I75000J0D01*
G01*
X30275000Y3990000D01*
G75*
G02*
X30350000Y3915000I0J-75000D01*
G01*
X30350000Y2590000D01*
G75*
G02*
X30275000Y2515000I-75000J0D01*
G01*
G37*
%TD*%
D15*
%TO.C,Q2*%
X17600000Y7090000D03*
X16650000Y9090000D03*
X18550000Y9090000D03*
%TD*%
%TO.C,C18*%
G36*
G01*
X16545000Y18175000D02*
X18595000Y18175000D01*
G75*
G02*
X18845000Y17925000I0J-250000D01*
G01*
X18845000Y16350000D01*
G75*
G02*
X18595000Y16100000I-250000J0D01*
G01*
X16545000Y16100000D01*
G75*
G02*
X16295000Y16350000I0J250000D01*
G01*
X16295000Y17925000D01*
G75*
G02*
X16545000Y18175000I250000J0D01*
G01*
G37*
G36*
G01*
X16545000Y24400000D02*
X18595000Y24400000D01*
G75*
G02*
X18845000Y24150000I0J-250000D01*
G01*
X18845000Y22575000D01*
G75*
G02*
X18595000Y22325000I-250000J0D01*
G01*
X16545000Y22325000D01*
G75*
G02*
X16295000Y22575000I0J250000D01*
G01*
X16295000Y24150000D01*
G75*
G02*
X16545000Y24400000I250000J0D01*
G01*
G37*
%TD*%
%TO.C,C13*%
G36*
G01*
X27825000Y3465000D02*
X27825000Y2965000D01*
G75*
G02*
X27600000Y2740000I-225000J0D01*
G01*
X27150000Y2740000D01*
G75*
G02*
X26925000Y2965000I0J225000D01*
G01*
X26925000Y3465000D01*
G75*
G02*
X27150000Y3690000I225000J0D01*
G01*
X27600000Y3690000D01*
G75*
G02*
X27825000Y3465000I0J-225000D01*
G01*
G37*
G36*
G01*
X29375000Y3465000D02*
X29375000Y2965000D01*
G75*
G02*
X29150000Y2740000I-225000J0D01*
G01*
X28700000Y2740000D01*
G75*
G02*
X28475000Y2965000I0J225000D01*
G01*
X28475000Y3465000D01*
G75*
G02*
X28700000Y3690000I225000J0D01*
G01*
X29150000Y3690000D01*
G75*
G02*
X29375000Y3465000I0J-225000D01*
G01*
G37*
%TD*%
%TO.C,C9*%
G36*
G01*
X29330000Y12355000D02*
X28830000Y12355000D01*
G75*
G02*
X28605000Y12580000I0J225000D01*
G01*
X28605000Y13030000D01*
G75*
G02*
X28830000Y13255000I225000J0D01*
G01*
X29330000Y13255000D01*
G75*
G02*
X29555000Y13030000I0J-225000D01*
G01*
X29555000Y12580000D01*
G75*
G02*
X29330000Y12355000I-225000J0D01*
G01*
G37*
G36*
G01*
X29330000Y10805000D02*
X28830000Y10805000D01*
G75*
G02*
X28605000Y11030000I0J225000D01*
G01*
X28605000Y11480000D01*
G75*
G02*
X28830000Y11705000I225000J0D01*
G01*
X29330000Y11705000D01*
G75*
G02*
X29555000Y11480000I0J-225000D01*
G01*
X29555000Y11030000D01*
G75*
G02*
X29330000Y10805000I-225000J0D01*
G01*
G37*
%TD*%
D16*
%TO.C,T1*%
X35575000Y42235000D03*
X35575000Y26745000D03*
D17*
X28445000Y38575000D03*
X28445000Y41115000D03*
X28445000Y30405000D03*
X28445000Y27865000D03*
X38875000Y30045000D03*
X38875000Y32585000D03*
X38875000Y35125000D03*
X38875000Y37665000D03*
X38875000Y40205000D03*
X41415000Y28775000D03*
X41415000Y31315000D03*
X41415000Y33855000D03*
X41415000Y36395000D03*
X41415000Y38935000D03*
%TD*%
%TO.C,R15*%
G36*
G01*
X25895000Y36465000D02*
X25345000Y36465000D01*
G75*
G02*
X25145000Y36665000I0J200000D01*
G01*
X25145000Y37065000D01*
G75*
G02*
X25345000Y37265000I200000J0D01*
G01*
X25895000Y37265000D01*
G75*
G02*
X26095000Y37065000I0J-200000D01*
G01*
X26095000Y36665000D01*
G75*
G02*
X25895000Y36465000I-200000J0D01*
G01*
G37*
G36*
G01*
X25895000Y34815000D02*
X25345000Y34815000D01*
G75*
G02*
X25145000Y35015000I0J200000D01*
G01*
X25145000Y35415000D01*
G75*
G02*
X25345000Y35615000I200000J0D01*
G01*
X25895000Y35615000D01*
G75*
G02*
X26095000Y35415000I0J-200000D01*
G01*
X26095000Y35015000D01*
G75*
G02*
X25895000Y34815000I-200000J0D01*
G01*
G37*
%TD*%
%TO.C,D5*%
G36*
G01*
X25876250Y33420000D02*
X25363750Y33420000D01*
G75*
G02*
X25145000Y33638750I0J218750D01*
G01*
X25145000Y34076250D01*
G75*
G02*
X25363750Y34295000I218750J0D01*
G01*
X25876250Y34295000D01*
G75*
G02*
X26095000Y34076250I0J-218750D01*
G01*
X26095000Y33638750D01*
G75*
G02*
X25876250Y33420000I-218750J0D01*
G01*
G37*
G36*
G01*
X25876250Y31845000D02*
X25363750Y31845000D01*
G75*
G02*
X25145000Y32063750I0J218750D01*
G01*
X25145000Y32501250D01*
G75*
G02*
X25363750Y32720000I218750J0D01*
G01*
X25876250Y32720000D01*
G75*
G02*
X26095000Y32501250I0J-218750D01*
G01*
X26095000Y32063750D01*
G75*
G02*
X25876250Y31845000I-218750J0D01*
G01*
G37*
%TD*%
%TO.C,R24*%
G36*
G01*
X2385000Y12795000D02*
X2385000Y12245000D01*
G75*
G02*
X2185000Y12045000I-200000J0D01*
G01*
X1785000Y12045000D01*
G75*
G02*
X1585000Y12245000I0J200000D01*
G01*
X1585000Y12795000D01*
G75*
G02*
X1785000Y12995000I200000J0D01*
G01*
X2185000Y12995000D01*
G75*
G02*
X2385000Y12795000I0J-200000D01*
G01*
G37*
G36*
G01*
X4035000Y12795000D02*
X4035000Y12245000D01*
G75*
G02*
X3835000Y12045000I-200000J0D01*
G01*
X3435000Y12045000D01*
G75*
G02*
X3235000Y12245000I0J200000D01*
G01*
X3235000Y12795000D01*
G75*
G02*
X3435000Y12995000I200000J0D01*
G01*
X3835000Y12995000D01*
G75*
G02*
X4035000Y12795000I0J-200000D01*
G01*
G37*
%TD*%
D18*
%TO.C,D11*%
X7695000Y13515000D03*
X10235000Y13515000D03*
X11505000Y13515000D03*
X11505000Y8115000D03*
X10235000Y8115000D03*
X8965000Y8115000D03*
X7695000Y8115000D03*
%TD*%
%TO.C,C5*%
G36*
G01*
X33250000Y1935000D02*
X33250000Y1595000D01*
G75*
G02*
X33110000Y1455000I-140000J0D01*
G01*
X32830000Y1455000D01*
G75*
G02*
X32690000Y1595000I0J140000D01*
G01*
X32690000Y1935000D01*
G75*
G02*
X32830000Y2075000I140000J0D01*
G01*
X33110000Y2075000D01*
G75*
G02*
X33250000Y1935000I0J-140000D01*
G01*
G37*
G36*
G01*
X34210000Y1935000D02*
X34210000Y1595000D01*
G75*
G02*
X34070000Y1455000I-140000J0D01*
G01*
X33790000Y1455000D01*
G75*
G02*
X33650000Y1595000I0J140000D01*
G01*
X33650000Y1935000D01*
G75*
G02*
X33790000Y2075000I140000J0D01*
G01*
X34070000Y2075000D01*
G75*
G02*
X34210000Y1935000I0J-140000D01*
G01*
G37*
%TD*%
%TO.C,C33*%
G36*
G01*
X5863300Y4907600D02*
X6363300Y4907600D01*
G75*
G02*
X6588300Y4682600I0J-225000D01*
G01*
X6588300Y4232600D01*
G75*
G02*
X6363300Y4007600I-225000J0D01*
G01*
X5863300Y4007600D01*
G75*
G02*
X5638300Y4232600I0J225000D01*
G01*
X5638300Y4682600D01*
G75*
G02*
X5863300Y4907600I225000J0D01*
G01*
G37*
G36*
G01*
X5863300Y6457600D02*
X6363300Y6457600D01*
G75*
G02*
X6588300Y6232600I0J-225000D01*
G01*
X6588300Y5782600D01*
G75*
G02*
X6363300Y5557600I-225000J0D01*
G01*
X5863300Y5557600D01*
G75*
G02*
X5638300Y5782600I0J225000D01*
G01*
X5638300Y6232600D01*
G75*
G02*
X5863300Y6457600I225000J0D01*
G01*
G37*
%TD*%
%TO.C,R18*%
G36*
G01*
X34500000Y32615000D02*
X34500000Y32065000D01*
G75*
G02*
X34300000Y31865000I-200000J0D01*
G01*
X33900000Y31865000D01*
G75*
G02*
X33700000Y32065000I0J200000D01*
G01*
X33700000Y32615000D01*
G75*
G02*
X33900000Y32815000I200000J0D01*
G01*
X34300000Y32815000D01*
G75*
G02*
X34500000Y32615000I0J-200000D01*
G01*
G37*
G36*
G01*
X36150000Y32615000D02*
X36150000Y32065000D01*
G75*
G02*
X35950000Y31865000I-200000J0D01*
G01*
X35550000Y31865000D01*
G75*
G02*
X35350000Y32065000I0J200000D01*
G01*
X35350000Y32615000D01*
G75*
G02*
X35550000Y32815000I200000J0D01*
G01*
X35950000Y32815000D01*
G75*
G02*
X36150000Y32615000I0J-200000D01*
G01*
G37*
%TD*%
%TO.C,R10*%
G36*
G01*
X34475000Y34090000D02*
X34475000Y33540000D01*
G75*
G02*
X34275000Y33340000I-200000J0D01*
G01*
X33875000Y33340000D01*
G75*
G02*
X33675000Y33540000I0J200000D01*
G01*
X33675000Y34090000D01*
G75*
G02*
X33875000Y34290000I200000J0D01*
G01*
X34275000Y34290000D01*
G75*
G02*
X34475000Y34090000I0J-200000D01*
G01*
G37*
G36*
G01*
X36125000Y34090000D02*
X36125000Y33540000D01*
G75*
G02*
X35925000Y33340000I-200000J0D01*
G01*
X35525000Y33340000D01*
G75*
G02*
X35325000Y33540000I0J200000D01*
G01*
X35325000Y34090000D01*
G75*
G02*
X35525000Y34290000I200000J0D01*
G01*
X35925000Y34290000D01*
G75*
G02*
X36125000Y34090000I0J-200000D01*
G01*
G37*
%TD*%
%TO.C,R9*%
G36*
G01*
X34500000Y35490000D02*
X34500000Y34940000D01*
G75*
G02*
X34300000Y34740000I-200000J0D01*
G01*
X33900000Y34740000D01*
G75*
G02*
X33700000Y34940000I0J200000D01*
G01*
X33700000Y35490000D01*
G75*
G02*
X33900000Y35690000I200000J0D01*
G01*
X34300000Y35690000D01*
G75*
G02*
X34500000Y35490000I0J-200000D01*
G01*
G37*
G36*
G01*
X36150000Y35490000D02*
X36150000Y34940000D01*
G75*
G02*
X35950000Y34740000I-200000J0D01*
G01*
X35550000Y34740000D01*
G75*
G02*
X35350000Y34940000I0J200000D01*
G01*
X35350000Y35490000D01*
G75*
G02*
X35550000Y35690000I200000J0D01*
G01*
X35950000Y35690000D01*
G75*
G02*
X36150000Y35490000I0J-200000D01*
G01*
G37*
%TD*%
%TO.C,C20*%
G36*
G01*
X34600000Y31190000D02*
X34600000Y30690000D01*
G75*
G02*
X34375000Y30465000I-225000J0D01*
G01*
X33925000Y30465000D01*
G75*
G02*
X33700000Y30690000I0J225000D01*
G01*
X33700000Y31190000D01*
G75*
G02*
X33925000Y31415000I225000J0D01*
G01*
X34375000Y31415000D01*
G75*
G02*
X34600000Y31190000I0J-225000D01*
G01*
G37*
G36*
G01*
X36150000Y31190000D02*
X36150000Y30690000D01*
G75*
G02*
X35925000Y30465000I-225000J0D01*
G01*
X35475000Y30465000D01*
G75*
G02*
X35250000Y30690000I0J225000D01*
G01*
X35250000Y31190000D01*
G75*
G02*
X35475000Y31415000I225000J0D01*
G01*
X35925000Y31415000D01*
G75*
G02*
X36150000Y31190000I0J-225000D01*
G01*
G37*
%TD*%
%TO.C,C16*%
G36*
G01*
X35250000Y29215000D02*
X35250000Y29715000D01*
G75*
G02*
X35475000Y29940000I225000J0D01*
G01*
X35925000Y29940000D01*
G75*
G02*
X36150000Y29715000I0J-225000D01*
G01*
X36150000Y29215000D01*
G75*
G02*
X35925000Y28990000I-225000J0D01*
G01*
X35475000Y28990000D01*
G75*
G02*
X35250000Y29215000I0J225000D01*
G01*
G37*
G36*
G01*
X33700000Y29215000D02*
X33700000Y29715000D01*
G75*
G02*
X33925000Y29940000I225000J0D01*
G01*
X34375000Y29940000D01*
G75*
G02*
X34600000Y29715000I0J-225000D01*
G01*
X34600000Y29215000D01*
G75*
G02*
X34375000Y28990000I-225000J0D01*
G01*
X33925000Y28990000D01*
G75*
G02*
X33700000Y29215000I0J225000D01*
G01*
G37*
%TD*%
%TO.C,C43*%
G36*
G01*
X38350000Y17185000D02*
X38350000Y16845000D01*
G75*
G02*
X38210000Y16705000I-140000J0D01*
G01*
X37930000Y16705000D01*
G75*
G02*
X37790000Y16845000I0J140000D01*
G01*
X37790000Y17185000D01*
G75*
G02*
X37930000Y17325000I140000J0D01*
G01*
X38210000Y17325000D01*
G75*
G02*
X38350000Y17185000I0J-140000D01*
G01*
G37*
G36*
G01*
X39310000Y17185000D02*
X39310000Y16845000D01*
G75*
G02*
X39170000Y16705000I-140000J0D01*
G01*
X38890000Y16705000D01*
G75*
G02*
X38750000Y16845000I0J140000D01*
G01*
X38750000Y17185000D01*
G75*
G02*
X38890000Y17325000I140000J0D01*
G01*
X39170000Y17325000D01*
G75*
G02*
X39310000Y17185000I0J-140000D01*
G01*
G37*
%TD*%
%TO.C,C15*%
G36*
G01*
X35975000Y17115000D02*
X35975000Y16615000D01*
G75*
G02*
X35750000Y16390000I-225000J0D01*
G01*
X35300000Y16390000D01*
G75*
G02*
X35075000Y16615000I0J225000D01*
G01*
X35075000Y17115000D01*
G75*
G02*
X35300000Y17340000I225000J0D01*
G01*
X35750000Y17340000D01*
G75*
G02*
X35975000Y17115000I0J-225000D01*
G01*
G37*
G36*
G01*
X37525000Y17115000D02*
X37525000Y16615000D01*
G75*
G02*
X37300000Y16390000I-225000J0D01*
G01*
X36850000Y16390000D01*
G75*
G02*
X36625000Y16615000I0J225000D01*
G01*
X36625000Y17115000D01*
G75*
G02*
X36850000Y17340000I225000J0D01*
G01*
X37300000Y17340000D01*
G75*
G02*
X37525000Y17115000I0J-225000D01*
G01*
G37*
%TD*%
%TO.C,C38*%
G36*
G01*
X36905000Y18290000D02*
X37245000Y18290000D01*
G75*
G02*
X37385000Y18150000I0J-140000D01*
G01*
X37385000Y17870000D01*
G75*
G02*
X37245000Y17730000I-140000J0D01*
G01*
X36905000Y17730000D01*
G75*
G02*
X36765000Y17870000I0J140000D01*
G01*
X36765000Y18150000D01*
G75*
G02*
X36905000Y18290000I140000J0D01*
G01*
G37*
G36*
G01*
X36905000Y19250000D02*
X37245000Y19250000D01*
G75*
G02*
X37385000Y19110000I0J-140000D01*
G01*
X37385000Y18830000D01*
G75*
G02*
X37245000Y18690000I-140000J0D01*
G01*
X36905000Y18690000D01*
G75*
G02*
X36765000Y18830000I0J140000D01*
G01*
X36765000Y19110000D01*
G75*
G02*
X36905000Y19250000I140000J0D01*
G01*
G37*
%TD*%
%TO.C,C35*%
G36*
G01*
X38325000Y16160000D02*
X38325000Y15820000D01*
G75*
G02*
X38185000Y15680000I-140000J0D01*
G01*
X37905000Y15680000D01*
G75*
G02*
X37765000Y15820000I0J140000D01*
G01*
X37765000Y16160000D01*
G75*
G02*
X37905000Y16300000I140000J0D01*
G01*
X38185000Y16300000D01*
G75*
G02*
X38325000Y16160000I0J-140000D01*
G01*
G37*
G36*
G01*
X39285000Y16160000D02*
X39285000Y15820000D01*
G75*
G02*
X39145000Y15680000I-140000J0D01*
G01*
X38865000Y15680000D01*
G75*
G02*
X38725000Y15820000I0J140000D01*
G01*
X38725000Y16160000D01*
G75*
G02*
X38865000Y16300000I140000J0D01*
G01*
X39145000Y16300000D01*
G75*
G02*
X39285000Y16160000I0J-140000D01*
G01*
G37*
%TD*%
%TO.C,C31*%
G36*
G01*
X38325000Y15135000D02*
X38325000Y14795000D01*
G75*
G02*
X38185000Y14655000I-140000J0D01*
G01*
X37905000Y14655000D01*
G75*
G02*
X37765000Y14795000I0J140000D01*
G01*
X37765000Y15135000D01*
G75*
G02*
X37905000Y15275000I140000J0D01*
G01*
X38185000Y15275000D01*
G75*
G02*
X38325000Y15135000I0J-140000D01*
G01*
G37*
G36*
G01*
X39285000Y15135000D02*
X39285000Y14795000D01*
G75*
G02*
X39145000Y14655000I-140000J0D01*
G01*
X38865000Y14655000D01*
G75*
G02*
X38725000Y14795000I0J140000D01*
G01*
X38725000Y15135000D01*
G75*
G02*
X38865000Y15275000I140000J0D01*
G01*
X39145000Y15275000D01*
G75*
G02*
X39285000Y15135000I0J-140000D01*
G01*
G37*
%TD*%
%TO.C,C28*%
G36*
G01*
X38350000Y18210000D02*
X38350000Y17870000D01*
G75*
G02*
X38210000Y17730000I-140000J0D01*
G01*
X37930000Y17730000D01*
G75*
G02*
X37790000Y17870000I0J140000D01*
G01*
X37790000Y18210000D01*
G75*
G02*
X37930000Y18350000I140000J0D01*
G01*
X38210000Y18350000D01*
G75*
G02*
X38350000Y18210000I0J-140000D01*
G01*
G37*
G36*
G01*
X39310000Y18210000D02*
X39310000Y17870000D01*
G75*
G02*
X39170000Y17730000I-140000J0D01*
G01*
X38890000Y17730000D01*
G75*
G02*
X38750000Y17870000I0J140000D01*
G01*
X38750000Y18210000D01*
G75*
G02*
X38890000Y18350000I140000J0D01*
G01*
X39170000Y18350000D01*
G75*
G02*
X39310000Y18210000I0J-140000D01*
G01*
G37*
%TD*%
%TO.C,C27*%
G36*
G01*
X35830000Y18290000D02*
X36170000Y18290000D01*
G75*
G02*
X36310000Y18150000I0J-140000D01*
G01*
X36310000Y17870000D01*
G75*
G02*
X36170000Y17730000I-140000J0D01*
G01*
X35830000Y17730000D01*
G75*
G02*
X35690000Y17870000I0J140000D01*
G01*
X35690000Y18150000D01*
G75*
G02*
X35830000Y18290000I140000J0D01*
G01*
G37*
G36*
G01*
X35830000Y19250000D02*
X36170000Y19250000D01*
G75*
G02*
X36310000Y19110000I0J-140000D01*
G01*
X36310000Y18830000D01*
G75*
G02*
X36170000Y18690000I-140000J0D01*
G01*
X35830000Y18690000D01*
G75*
G02*
X35690000Y18830000I0J140000D01*
G01*
X35690000Y19110000D01*
G75*
G02*
X35830000Y19250000I140000J0D01*
G01*
G37*
%TD*%
%TO.C,R2*%
G36*
G01*
X28615000Y32930000D02*
X28245000Y32930000D01*
G75*
G02*
X28110000Y33065000I0J135000D01*
G01*
X28110000Y33335000D01*
G75*
G02*
X28245000Y33470000I135000J0D01*
G01*
X28615000Y33470000D01*
G75*
G02*
X28750000Y33335000I0J-135000D01*
G01*
X28750000Y33065000D01*
G75*
G02*
X28615000Y32930000I-135000J0D01*
G01*
G37*
G36*
G01*
X28615000Y31910000D02*
X28245000Y31910000D01*
G75*
G02*
X28110000Y32045000I0J135000D01*
G01*
X28110000Y32315000D01*
G75*
G02*
X28245000Y32450000I135000J0D01*
G01*
X28615000Y32450000D01*
G75*
G02*
X28750000Y32315000I0J-135000D01*
G01*
X28750000Y32045000D01*
G75*
G02*
X28615000Y31910000I-135000J0D01*
G01*
G37*
%TD*%
%TO.C,C39*%
G36*
G01*
X32770000Y33065000D02*
X32430000Y33065000D01*
G75*
G02*
X32290000Y33205000I0J140000D01*
G01*
X32290000Y33485000D01*
G75*
G02*
X32430000Y33625000I140000J0D01*
G01*
X32770000Y33625000D01*
G75*
G02*
X32910000Y33485000I0J-140000D01*
G01*
X32910000Y33205000D01*
G75*
G02*
X32770000Y33065000I-140000J0D01*
G01*
G37*
G36*
G01*
X32770000Y32105000D02*
X32430000Y32105000D01*
G75*
G02*
X32290000Y32245000I0J140000D01*
G01*
X32290000Y32525000D01*
G75*
G02*
X32430000Y32665000I140000J0D01*
G01*
X32770000Y32665000D01*
G75*
G02*
X32910000Y32525000I0J-140000D01*
G01*
X32910000Y32245000D01*
G75*
G02*
X32770000Y32105000I-140000J0D01*
G01*
G37*
%TD*%
%TO.C,R3*%
G36*
G01*
X30695000Y39740000D02*
X31065000Y39740000D01*
G75*
G02*
X31200000Y39605000I0J-135000D01*
G01*
X31200000Y39335000D01*
G75*
G02*
X31065000Y39200000I-135000J0D01*
G01*
X30695000Y39200000D01*
G75*
G02*
X30560000Y39335000I0J135000D01*
G01*
X30560000Y39605000D01*
G75*
G02*
X30695000Y39740000I135000J0D01*
G01*
G37*
G36*
G01*
X30695000Y40760000D02*
X31065000Y40760000D01*
G75*
G02*
X31200000Y40625000I0J-135000D01*
G01*
X31200000Y40355000D01*
G75*
G02*
X31065000Y40220000I-135000J0D01*
G01*
X30695000Y40220000D01*
G75*
G02*
X30560000Y40355000I0J135000D01*
G01*
X30560000Y40625000D01*
G75*
G02*
X30695000Y40760000I135000J0D01*
G01*
G37*
%TD*%
%TO.C,D4*%
G36*
G01*
X31803750Y15630000D02*
X32316250Y15630000D01*
G75*
G02*
X32535000Y15411250I0J-218750D01*
G01*
X32535000Y14973750D01*
G75*
G02*
X32316250Y14755000I-218750J0D01*
G01*
X31803750Y14755000D01*
G75*
G02*
X31585000Y14973750I0J218750D01*
G01*
X31585000Y15411250D01*
G75*
G02*
X31803750Y15630000I218750J0D01*
G01*
G37*
G36*
G01*
X31803750Y17205000D02*
X32316250Y17205000D01*
G75*
G02*
X32535000Y16986250I0J-218750D01*
G01*
X32535000Y16548750D01*
G75*
G02*
X32316250Y16330000I-218750J0D01*
G01*
X31803750Y16330000D01*
G75*
G02*
X31585000Y16548750I0J218750D01*
G01*
X31585000Y16986250D01*
G75*
G02*
X31803750Y17205000I218750J0D01*
G01*
G37*
%TD*%
D17*
%TO.C,J7*%
X22810000Y1980000D03*
%TD*%
%TO.C,J6*%
X27030000Y12200000D03*
%TD*%
%TO.C,J4*%
X25660000Y3840000D03*
%TD*%
%TO.C,J3*%
X25660000Y5780000D03*
%TD*%
%TO.C,C50*%
G36*
G01*
X7350000Y25540000D02*
X7350000Y23490000D01*
G75*
G02*
X7100000Y23240000I-250000J0D01*
G01*
X5525000Y23240000D01*
G75*
G02*
X5275000Y23490000I0J250000D01*
G01*
X5275000Y25540000D01*
G75*
G02*
X5525000Y25790000I250000J0D01*
G01*
X7100000Y25790000D01*
G75*
G02*
X7350000Y25540000I0J-250000D01*
G01*
G37*
G36*
G01*
X13575000Y25540000D02*
X13575000Y23490000D01*
G75*
G02*
X13325000Y23240000I-250000J0D01*
G01*
X11750000Y23240000D01*
G75*
G02*
X11500000Y23490000I0J250000D01*
G01*
X11500000Y25540000D01*
G75*
G02*
X11750000Y25790000I250000J0D01*
G01*
X13325000Y25790000D01*
G75*
G02*
X13575000Y25540000I0J-250000D01*
G01*
G37*
%TD*%
%TO.C,R21*%
G36*
G01*
X7724168Y5610900D02*
X7174168Y5610900D01*
G75*
G02*
X6974168Y5810900I0J200000D01*
G01*
X6974168Y6210900D01*
G75*
G02*
X7174168Y6410900I200000J0D01*
G01*
X7724168Y6410900D01*
G75*
G02*
X7924168Y6210900I0J-200000D01*
G01*
X7924168Y5810900D01*
G75*
G02*
X7724168Y5610900I-200000J0D01*
G01*
G37*
G36*
G01*
X7724168Y3960900D02*
X7174168Y3960900D01*
G75*
G02*
X6974168Y4160900I0J200000D01*
G01*
X6974168Y4560900D01*
G75*
G02*
X7174168Y4760900I200000J0D01*
G01*
X7724168Y4760900D01*
G75*
G02*
X7924168Y4560900I0J-200000D01*
G01*
X7924168Y4160900D01*
G75*
G02*
X7724168Y3960900I-200000J0D01*
G01*
G37*
%TD*%
%TO.C,R28*%
G36*
G01*
X11190994Y4760900D02*
X11740994Y4760900D01*
G75*
G02*
X11940994Y4560900I0J-200000D01*
G01*
X11940994Y4160900D01*
G75*
G02*
X11740994Y3960900I-200000J0D01*
G01*
X11190994Y3960900D01*
G75*
G02*
X10990994Y4160900I0J200000D01*
G01*
X10990994Y4560900D01*
G75*
G02*
X11190994Y4760900I200000J0D01*
G01*
G37*
G36*
G01*
X11190994Y6410900D02*
X11740994Y6410900D01*
G75*
G02*
X11940994Y6210900I0J-200000D01*
G01*
X11940994Y5810900D01*
G75*
G02*
X11740994Y5610900I-200000J0D01*
G01*
X11190994Y5610900D01*
G75*
G02*
X10990994Y5810900I0J200000D01*
G01*
X10990994Y6210900D01*
G75*
G02*
X11190994Y6410900I200000J0D01*
G01*
G37*
%TD*%
%TO.C,R22*%
G36*
G01*
X8513110Y4760900D02*
X9063110Y4760900D01*
G75*
G02*
X9263110Y4560900I0J-200000D01*
G01*
X9263110Y4160900D01*
G75*
G02*
X9063110Y3960900I-200000J0D01*
G01*
X8513110Y3960900D01*
G75*
G02*
X8313110Y4160900I0J200000D01*
G01*
X8313110Y4560900D01*
G75*
G02*
X8513110Y4760900I200000J0D01*
G01*
G37*
G36*
G01*
X8513110Y6410900D02*
X9063110Y6410900D01*
G75*
G02*
X9263110Y6210900I0J-200000D01*
G01*
X9263110Y5810900D01*
G75*
G02*
X9063110Y5610900I-200000J0D01*
G01*
X8513110Y5610900D01*
G75*
G02*
X8313110Y5810900I0J200000D01*
G01*
X8313110Y6210900D01*
G75*
G02*
X8513110Y6410900I200000J0D01*
G01*
G37*
%TD*%
%TO.C,R30*%
G36*
G01*
X2368400Y5610900D02*
X1818400Y5610900D01*
G75*
G02*
X1618400Y5810900I0J200000D01*
G01*
X1618400Y6210900D01*
G75*
G02*
X1818400Y6410900I200000J0D01*
G01*
X2368400Y6410900D01*
G75*
G02*
X2568400Y6210900I0J-200000D01*
G01*
X2568400Y5810900D01*
G75*
G02*
X2368400Y5610900I-200000J0D01*
G01*
G37*
G36*
G01*
X2368400Y3960900D02*
X1818400Y3960900D01*
G75*
G02*
X1618400Y4160900I0J200000D01*
G01*
X1618400Y4560900D01*
G75*
G02*
X1818400Y4760900I200000J0D01*
G01*
X2368400Y4760900D01*
G75*
G02*
X2568400Y4560900I0J-200000D01*
G01*
X2568400Y4160900D01*
G75*
G02*
X2368400Y3960900I-200000J0D01*
G01*
G37*
%TD*%
%TO.C,R23*%
G36*
G01*
X2365000Y16795000D02*
X2365000Y16245000D01*
G75*
G02*
X2165000Y16045000I-200000J0D01*
G01*
X1765000Y16045000D01*
G75*
G02*
X1565000Y16245000I0J200000D01*
G01*
X1565000Y16795000D01*
G75*
G02*
X1765000Y16995000I200000J0D01*
G01*
X2165000Y16995000D01*
G75*
G02*
X2365000Y16795000I0J-200000D01*
G01*
G37*
G36*
G01*
X4015000Y16795000D02*
X4015000Y16245000D01*
G75*
G02*
X3815000Y16045000I-200000J0D01*
G01*
X3415000Y16045000D01*
G75*
G02*
X3215000Y16245000I0J200000D01*
G01*
X3215000Y16795000D01*
G75*
G02*
X3415000Y16995000I200000J0D01*
G01*
X3815000Y16995000D01*
G75*
G02*
X4015000Y16795000I0J-200000D01*
G01*
G37*
%TD*%
D15*
%TO.C,Q1*%
X3160000Y8900000D03*
X2210000Y10900000D03*
X4110000Y10900000D03*
%TD*%
D19*
%TO.C,D9*%
X1670000Y14180000D03*
X4970000Y14180000D03*
%TD*%
%TO.C,D6*%
X1970000Y18950000D03*
X5270000Y18950000D03*
%TD*%
%TO.C,C29*%
G36*
G01*
X9877052Y4860900D02*
X10377052Y4860900D01*
G75*
G02*
X10602052Y4635900I0J-225000D01*
G01*
X10602052Y4185900D01*
G75*
G02*
X10377052Y3960900I-225000J0D01*
G01*
X9877052Y3960900D01*
G75*
G02*
X9652052Y4185900I0J225000D01*
G01*
X9652052Y4635900D01*
G75*
G02*
X9877052Y4860900I225000J0D01*
G01*
G37*
G36*
G01*
X9877052Y6410900D02*
X10377052Y6410900D01*
G75*
G02*
X10602052Y6185900I0J-225000D01*
G01*
X10602052Y5735900D01*
G75*
G02*
X10377052Y5510900I-225000J0D01*
G01*
X9877052Y5510900D01*
G75*
G02*
X9652052Y5735900I0J225000D01*
G01*
X9652052Y6185900D01*
G75*
G02*
X9877052Y6410900I225000J0D01*
G01*
G37*
%TD*%
%TO.C,R34*%
G36*
G01*
X8525000Y16615000D02*
X7975000Y16615000D01*
G75*
G02*
X7775000Y16815000I0J200000D01*
G01*
X7775000Y17215000D01*
G75*
G02*
X7975000Y17415000I200000J0D01*
G01*
X8525000Y17415000D01*
G75*
G02*
X8725000Y17215000I0J-200000D01*
G01*
X8725000Y16815000D01*
G75*
G02*
X8525000Y16615000I-200000J0D01*
G01*
G37*
G36*
G01*
X8525000Y14965000D02*
X7975000Y14965000D01*
G75*
G02*
X7775000Y15165000I0J200000D01*
G01*
X7775000Y15565000D01*
G75*
G02*
X7975000Y15765000I200000J0D01*
G01*
X8525000Y15765000D01*
G75*
G02*
X8725000Y15565000I0J-200000D01*
G01*
X8725000Y15165000D01*
G75*
G02*
X8525000Y14965000I-200000J0D01*
G01*
G37*
%TD*%
%TO.C,R27*%
G36*
G01*
X7025000Y3365000D02*
X7025000Y2815000D01*
G75*
G02*
X6825000Y2615000I-200000J0D01*
G01*
X6425000Y2615000D01*
G75*
G02*
X6225000Y2815000I0J200000D01*
G01*
X6225000Y3365000D01*
G75*
G02*
X6425000Y3565000I200000J0D01*
G01*
X6825000Y3565000D01*
G75*
G02*
X7025000Y3365000I0J-200000D01*
G01*
G37*
G36*
G01*
X8675000Y3365000D02*
X8675000Y2815000D01*
G75*
G02*
X8475000Y2615000I-200000J0D01*
G01*
X8075000Y2615000D01*
G75*
G02*
X7875000Y2815000I0J200000D01*
G01*
X7875000Y3365000D01*
G75*
G02*
X8075000Y3565000I200000J0D01*
G01*
X8475000Y3565000D01*
G75*
G02*
X8675000Y3365000I0J-200000D01*
G01*
G37*
%TD*%
%TO.C,R26*%
G36*
G01*
X5046284Y5610900D02*
X4496284Y5610900D01*
G75*
G02*
X4296284Y5810900I0J200000D01*
G01*
X4296284Y6210900D01*
G75*
G02*
X4496284Y6410900I200000J0D01*
G01*
X5046284Y6410900D01*
G75*
G02*
X5246284Y6210900I0J-200000D01*
G01*
X5246284Y5810900D01*
G75*
G02*
X5046284Y5610900I-200000J0D01*
G01*
G37*
G36*
G01*
X5046284Y3960900D02*
X4496284Y3960900D01*
G75*
G02*
X4296284Y4160900I0J200000D01*
G01*
X4296284Y4560900D01*
G75*
G02*
X4496284Y4760900I200000J0D01*
G01*
X5046284Y4760900D01*
G75*
G02*
X5246284Y4560900I0J-200000D01*
G01*
X5246284Y4160900D01*
G75*
G02*
X5046284Y3960900I-200000J0D01*
G01*
G37*
%TD*%
%TO.C,R19*%
G36*
G01*
X3707342Y5610900D02*
X3157342Y5610900D01*
G75*
G02*
X2957342Y5810900I0J200000D01*
G01*
X2957342Y6210900D01*
G75*
G02*
X3157342Y6410900I200000J0D01*
G01*
X3707342Y6410900D01*
G75*
G02*
X3907342Y6210900I0J-200000D01*
G01*
X3907342Y5810900D01*
G75*
G02*
X3707342Y5610900I-200000J0D01*
G01*
G37*
G36*
G01*
X3707342Y3960900D02*
X3157342Y3960900D01*
G75*
G02*
X2957342Y4160900I0J200000D01*
G01*
X2957342Y4560900D01*
G75*
G02*
X3157342Y4760900I200000J0D01*
G01*
X3707342Y4760900D01*
G75*
G02*
X3907342Y4560900I0J-200000D01*
G01*
X3907342Y4160900D01*
G75*
G02*
X3707342Y3960900I-200000J0D01*
G01*
G37*
%TD*%
%TO.C,C44*%
G36*
G01*
X7150000Y16515000D02*
X6650000Y16515000D01*
G75*
G02*
X6425000Y16740000I0J225000D01*
G01*
X6425000Y17190000D01*
G75*
G02*
X6650000Y17415000I225000J0D01*
G01*
X7150000Y17415000D01*
G75*
G02*
X7375000Y17190000I0J-225000D01*
G01*
X7375000Y16740000D01*
G75*
G02*
X7150000Y16515000I-225000J0D01*
G01*
G37*
G36*
G01*
X7150000Y14965000D02*
X6650000Y14965000D01*
G75*
G02*
X6425000Y15190000I0J225000D01*
G01*
X6425000Y15640000D01*
G75*
G02*
X6650000Y15865000I225000J0D01*
G01*
X7150000Y15865000D01*
G75*
G02*
X7375000Y15640000I0J-225000D01*
G01*
X7375000Y15190000D01*
G75*
G02*
X7150000Y14965000I-225000J0D01*
G01*
G37*
%TD*%
%TO.C,L1*%
G36*
G01*
X39075000Y13358750D02*
X39075000Y14121250D01*
G75*
G02*
X39293750Y14340000I218750J0D01*
G01*
X39731250Y14340000D01*
G75*
G02*
X39950000Y14121250I0J-218750D01*
G01*
X39950000Y13358750D01*
G75*
G02*
X39731250Y13140000I-218750J0D01*
G01*
X39293750Y13140000D01*
G75*
G02*
X39075000Y13358750I0J218750D01*
G01*
G37*
G36*
G01*
X36950000Y13358750D02*
X36950000Y14121250D01*
G75*
G02*
X37168750Y14340000I218750J0D01*
G01*
X37606250Y14340000D01*
G75*
G02*
X37825000Y14121250I0J-218750D01*
G01*
X37825000Y13358750D01*
G75*
G02*
X37606250Y13140000I-218750J0D01*
G01*
X37168750Y13140000D01*
G75*
G02*
X36950000Y13358750I0J218750D01*
G01*
G37*
%TD*%
%TO.C,C24*%
G36*
G01*
X6475000Y9240000D02*
X5525000Y9240000D01*
G75*
G02*
X5275000Y9490000I0J250000D01*
G01*
X5275000Y9990000D01*
G75*
G02*
X5525000Y10240000I250000J0D01*
G01*
X6475000Y10240000D01*
G75*
G02*
X6725000Y9990000I0J-250000D01*
G01*
X6725000Y9490000D01*
G75*
G02*
X6475000Y9240000I-250000J0D01*
G01*
G37*
G36*
G01*
X6475000Y7340000D02*
X5525000Y7340000D01*
G75*
G02*
X5275000Y7590000I0J250000D01*
G01*
X5275000Y8090000D01*
G75*
G02*
X5525000Y8340000I250000J0D01*
G01*
X6475000Y8340000D01*
G75*
G02*
X6725000Y8090000I0J-250000D01*
G01*
X6725000Y7590000D01*
G75*
G02*
X6475000Y7340000I-250000J0D01*
G01*
G37*
%TD*%
M02*
