%TF.GenerationSoftware,KiCad,Pcbnew,5.1.9+dfsg1-1*%
%TF.CreationDate,2022-09-13T11:04:29+03:00*%
%TF.ProjectId,Meteostation,4d657465-6f73-4746-9174-696f6e2e6b69,rev?*%
%TF.SameCoordinates,Original*%
%TF.FileFunction,Soldermask,Top*%
%TF.FilePolarity,Negative*%
%FSLAX46Y46*%
G04 Gerber Fmt 4.6, Leading zero omitted, Abs format (unit mm)*
G04 Created by KiCad (PCBNEW 5.1.9+dfsg1-1) date 2022-09-13 11:04:29*
%MOMM*%
%LPD*%
G01*
G04 APERTURE LIST*
%ADD10R,2.500000X1.800000*%
%ADD11R,0.650000X1.060000*%
%ADD12C,3.000000*%
%ADD13C,1.524000*%
%ADD14R,0.600000X1.550000*%
%ADD15R,0.900000X0.800000*%
%ADD16R,1.200000X0.900000*%
%ADD17R,0.900000X1.200000*%
G04 APERTURE END LIST*
%TO.C,C30*%
G36*
G01*
X45350000Y-89625000D02*
X45850000Y-89625000D01*
G75*
G02*
X46075000Y-89850000I0J-225000D01*
G01*
X46075000Y-90300000D01*
G75*
G02*
X45850000Y-90525000I-225000J0D01*
G01*
X45350000Y-90525000D01*
G75*
G02*
X45125000Y-90300000I0J225000D01*
G01*
X45125000Y-89850000D01*
G75*
G02*
X45350000Y-89625000I225000J0D01*
G01*
G37*
G36*
G01*
X45350000Y-88075000D02*
X45850000Y-88075000D01*
G75*
G02*
X46075000Y-88300000I0J-225000D01*
G01*
X46075000Y-88750000D01*
G75*
G02*
X45850000Y-88975000I-225000J0D01*
G01*
X45350000Y-88975000D01*
G75*
G02*
X45125000Y-88750000I0J225000D01*
G01*
X45125000Y-88300000D01*
G75*
G02*
X45350000Y-88075000I225000J0D01*
G01*
G37*
%TD*%
D10*
%TO.C,D13*%
X31300000Y-84900000D03*
X27300000Y-84900000D03*
%TD*%
%TO.C,D10*%
X41300000Y-90250000D03*
X37300000Y-90250000D03*
%TD*%
%TO.C,C23*%
G36*
G01*
X56225000Y-102300000D02*
X57175000Y-102300000D01*
G75*
G02*
X57425000Y-102550000I0J-250000D01*
G01*
X57425000Y-103050000D01*
G75*
G02*
X57175000Y-103300000I-250000J0D01*
G01*
X56225000Y-103300000D01*
G75*
G02*
X55975000Y-103050000I0J250000D01*
G01*
X55975000Y-102550000D01*
G75*
G02*
X56225000Y-102300000I250000J0D01*
G01*
G37*
G36*
G01*
X56225000Y-100400000D02*
X57175000Y-100400000D01*
G75*
G02*
X57425000Y-100650000I0J-250000D01*
G01*
X57425000Y-101150000D01*
G75*
G02*
X57175000Y-101400000I-250000J0D01*
G01*
X56225000Y-101400000D01*
G75*
G02*
X55975000Y-101150000I0J250000D01*
G01*
X55975000Y-100650000D01*
G75*
G02*
X56225000Y-100400000I250000J0D01*
G01*
G37*
%TD*%
%TO.C,C11*%
G36*
G01*
X57575000Y-93300000D02*
X57575000Y-92800000D01*
G75*
G02*
X57800000Y-92575000I225000J0D01*
G01*
X58250000Y-92575000D01*
G75*
G02*
X58475000Y-92800000I0J-225000D01*
G01*
X58475000Y-93300000D01*
G75*
G02*
X58250000Y-93525000I-225000J0D01*
G01*
X57800000Y-93525000D01*
G75*
G02*
X57575000Y-93300000I0J225000D01*
G01*
G37*
G36*
G01*
X56025000Y-93300000D02*
X56025000Y-92800000D01*
G75*
G02*
X56250000Y-92575000I225000J0D01*
G01*
X56700000Y-92575000D01*
G75*
G02*
X56925000Y-92800000I0J-225000D01*
G01*
X56925000Y-93300000D01*
G75*
G02*
X56700000Y-93525000I-225000J0D01*
G01*
X56250000Y-93525000D01*
G75*
G02*
X56025000Y-93300000I0J225000D01*
G01*
G37*
%TD*%
%TO.C,L2*%
G36*
G01*
X41700000Y-83065000D02*
X41700000Y-80135000D01*
G75*
G02*
X41935000Y-79900000I235000J0D01*
G01*
X43815000Y-79900000D01*
G75*
G02*
X44050000Y-80135000I0J-235000D01*
G01*
X44050000Y-83065000D01*
G75*
G02*
X43815000Y-83300000I-235000J0D01*
G01*
X41935000Y-83300000D01*
G75*
G02*
X41700000Y-83065000I0J235000D01*
G01*
G37*
G36*
G01*
X35650000Y-83065000D02*
X35650000Y-80135000D01*
G75*
G02*
X35885000Y-79900000I235000J0D01*
G01*
X37765000Y-79900000D01*
G75*
G02*
X38000000Y-80135000I0J-235000D01*
G01*
X38000000Y-83065000D01*
G75*
G02*
X37765000Y-83300000I-235000J0D01*
G01*
X35885000Y-83300000D01*
G75*
G02*
X35650000Y-83065000I0J235000D01*
G01*
G37*
%TD*%
%TO.C,U1*%
G36*
G01*
X49050000Y-99875000D02*
X47725000Y-99875000D01*
G75*
G02*
X47650000Y-99800000I0J75000D01*
G01*
X47650000Y-99650000D01*
G75*
G02*
X47725000Y-99575000I75000J0D01*
G01*
X49050000Y-99575000D01*
G75*
G02*
X49125000Y-99650000I0J-75000D01*
G01*
X49125000Y-99800000D01*
G75*
G02*
X49050000Y-99875000I-75000J0D01*
G01*
G37*
G36*
G01*
X49050000Y-99375000D02*
X47725000Y-99375000D01*
G75*
G02*
X47650000Y-99300000I0J75000D01*
G01*
X47650000Y-99150000D01*
G75*
G02*
X47725000Y-99075000I75000J0D01*
G01*
X49050000Y-99075000D01*
G75*
G02*
X49125000Y-99150000I0J-75000D01*
G01*
X49125000Y-99300000D01*
G75*
G02*
X49050000Y-99375000I-75000J0D01*
G01*
G37*
G36*
G01*
X49050000Y-98875000D02*
X47725000Y-98875000D01*
G75*
G02*
X47650000Y-98800000I0J75000D01*
G01*
X47650000Y-98650000D01*
G75*
G02*
X47725000Y-98575000I75000J0D01*
G01*
X49050000Y-98575000D01*
G75*
G02*
X49125000Y-98650000I0J-75000D01*
G01*
X49125000Y-98800000D01*
G75*
G02*
X49050000Y-98875000I-75000J0D01*
G01*
G37*
G36*
G01*
X49050000Y-98375000D02*
X47725000Y-98375000D01*
G75*
G02*
X47650000Y-98300000I0J75000D01*
G01*
X47650000Y-98150000D01*
G75*
G02*
X47725000Y-98075000I75000J0D01*
G01*
X49050000Y-98075000D01*
G75*
G02*
X49125000Y-98150000I0J-75000D01*
G01*
X49125000Y-98300000D01*
G75*
G02*
X49050000Y-98375000I-75000J0D01*
G01*
G37*
G36*
G01*
X49050000Y-97875000D02*
X47725000Y-97875000D01*
G75*
G02*
X47650000Y-97800000I0J75000D01*
G01*
X47650000Y-97650000D01*
G75*
G02*
X47725000Y-97575000I75000J0D01*
G01*
X49050000Y-97575000D01*
G75*
G02*
X49125000Y-97650000I0J-75000D01*
G01*
X49125000Y-97800000D01*
G75*
G02*
X49050000Y-97875000I-75000J0D01*
G01*
G37*
G36*
G01*
X49050000Y-97375000D02*
X47725000Y-97375000D01*
G75*
G02*
X47650000Y-97300000I0J75000D01*
G01*
X47650000Y-97150000D01*
G75*
G02*
X47725000Y-97075000I75000J0D01*
G01*
X49050000Y-97075000D01*
G75*
G02*
X49125000Y-97150000I0J-75000D01*
G01*
X49125000Y-97300000D01*
G75*
G02*
X49050000Y-97375000I-75000J0D01*
G01*
G37*
G36*
G01*
X49050000Y-96875000D02*
X47725000Y-96875000D01*
G75*
G02*
X47650000Y-96800000I0J75000D01*
G01*
X47650000Y-96650000D01*
G75*
G02*
X47725000Y-96575000I75000J0D01*
G01*
X49050000Y-96575000D01*
G75*
G02*
X49125000Y-96650000I0J-75000D01*
G01*
X49125000Y-96800000D01*
G75*
G02*
X49050000Y-96875000I-75000J0D01*
G01*
G37*
G36*
G01*
X49050000Y-96375000D02*
X47725000Y-96375000D01*
G75*
G02*
X47650000Y-96300000I0J75000D01*
G01*
X47650000Y-96150000D01*
G75*
G02*
X47725000Y-96075000I75000J0D01*
G01*
X49050000Y-96075000D01*
G75*
G02*
X49125000Y-96150000I0J-75000D01*
G01*
X49125000Y-96300000D01*
G75*
G02*
X49050000Y-96375000I-75000J0D01*
G01*
G37*
G36*
G01*
X49050000Y-95875000D02*
X47725000Y-95875000D01*
G75*
G02*
X47650000Y-95800000I0J75000D01*
G01*
X47650000Y-95650000D01*
G75*
G02*
X47725000Y-95575000I75000J0D01*
G01*
X49050000Y-95575000D01*
G75*
G02*
X49125000Y-95650000I0J-75000D01*
G01*
X49125000Y-95800000D01*
G75*
G02*
X49050000Y-95875000I-75000J0D01*
G01*
G37*
G36*
G01*
X49050000Y-95375000D02*
X47725000Y-95375000D01*
G75*
G02*
X47650000Y-95300000I0J75000D01*
G01*
X47650000Y-95150000D01*
G75*
G02*
X47725000Y-95075000I75000J0D01*
G01*
X49050000Y-95075000D01*
G75*
G02*
X49125000Y-95150000I0J-75000D01*
G01*
X49125000Y-95300000D01*
G75*
G02*
X49050000Y-95375000I-75000J0D01*
G01*
G37*
G36*
G01*
X49050000Y-94875000D02*
X47725000Y-94875000D01*
G75*
G02*
X47650000Y-94800000I0J75000D01*
G01*
X47650000Y-94650000D01*
G75*
G02*
X47725000Y-94575000I75000J0D01*
G01*
X49050000Y-94575000D01*
G75*
G02*
X49125000Y-94650000I0J-75000D01*
G01*
X49125000Y-94800000D01*
G75*
G02*
X49050000Y-94875000I-75000J0D01*
G01*
G37*
G36*
G01*
X49050000Y-94375000D02*
X47725000Y-94375000D01*
G75*
G02*
X47650000Y-94300000I0J75000D01*
G01*
X47650000Y-94150000D01*
G75*
G02*
X47725000Y-94075000I75000J0D01*
G01*
X49050000Y-94075000D01*
G75*
G02*
X49125000Y-94150000I0J-75000D01*
G01*
X49125000Y-94300000D01*
G75*
G02*
X49050000Y-94375000I-75000J0D01*
G01*
G37*
G36*
G01*
X49875000Y-93550000D02*
X49725000Y-93550000D01*
G75*
G02*
X49650000Y-93475000I0J75000D01*
G01*
X49650000Y-92150000D01*
G75*
G02*
X49725000Y-92075000I75000J0D01*
G01*
X49875000Y-92075000D01*
G75*
G02*
X49950000Y-92150000I0J-75000D01*
G01*
X49950000Y-93475000D01*
G75*
G02*
X49875000Y-93550000I-75000J0D01*
G01*
G37*
G36*
G01*
X50375000Y-93550000D02*
X50225000Y-93550000D01*
G75*
G02*
X50150000Y-93475000I0J75000D01*
G01*
X50150000Y-92150000D01*
G75*
G02*
X50225000Y-92075000I75000J0D01*
G01*
X50375000Y-92075000D01*
G75*
G02*
X50450000Y-92150000I0J-75000D01*
G01*
X50450000Y-93475000D01*
G75*
G02*
X50375000Y-93550000I-75000J0D01*
G01*
G37*
G36*
G01*
X50875000Y-93550000D02*
X50725000Y-93550000D01*
G75*
G02*
X50650000Y-93475000I0J75000D01*
G01*
X50650000Y-92150000D01*
G75*
G02*
X50725000Y-92075000I75000J0D01*
G01*
X50875000Y-92075000D01*
G75*
G02*
X50950000Y-92150000I0J-75000D01*
G01*
X50950000Y-93475000D01*
G75*
G02*
X50875000Y-93550000I-75000J0D01*
G01*
G37*
G36*
G01*
X51375000Y-93550000D02*
X51225000Y-93550000D01*
G75*
G02*
X51150000Y-93475000I0J75000D01*
G01*
X51150000Y-92150000D01*
G75*
G02*
X51225000Y-92075000I75000J0D01*
G01*
X51375000Y-92075000D01*
G75*
G02*
X51450000Y-92150000I0J-75000D01*
G01*
X51450000Y-93475000D01*
G75*
G02*
X51375000Y-93550000I-75000J0D01*
G01*
G37*
G36*
G01*
X51875000Y-93550000D02*
X51725000Y-93550000D01*
G75*
G02*
X51650000Y-93475000I0J75000D01*
G01*
X51650000Y-92150000D01*
G75*
G02*
X51725000Y-92075000I75000J0D01*
G01*
X51875000Y-92075000D01*
G75*
G02*
X51950000Y-92150000I0J-75000D01*
G01*
X51950000Y-93475000D01*
G75*
G02*
X51875000Y-93550000I-75000J0D01*
G01*
G37*
G36*
G01*
X52375000Y-93550000D02*
X52225000Y-93550000D01*
G75*
G02*
X52150000Y-93475000I0J75000D01*
G01*
X52150000Y-92150000D01*
G75*
G02*
X52225000Y-92075000I75000J0D01*
G01*
X52375000Y-92075000D01*
G75*
G02*
X52450000Y-92150000I0J-75000D01*
G01*
X52450000Y-93475000D01*
G75*
G02*
X52375000Y-93550000I-75000J0D01*
G01*
G37*
G36*
G01*
X52875000Y-93550000D02*
X52725000Y-93550000D01*
G75*
G02*
X52650000Y-93475000I0J75000D01*
G01*
X52650000Y-92150000D01*
G75*
G02*
X52725000Y-92075000I75000J0D01*
G01*
X52875000Y-92075000D01*
G75*
G02*
X52950000Y-92150000I0J-75000D01*
G01*
X52950000Y-93475000D01*
G75*
G02*
X52875000Y-93550000I-75000J0D01*
G01*
G37*
G36*
G01*
X53375000Y-93550000D02*
X53225000Y-93550000D01*
G75*
G02*
X53150000Y-93475000I0J75000D01*
G01*
X53150000Y-92150000D01*
G75*
G02*
X53225000Y-92075000I75000J0D01*
G01*
X53375000Y-92075000D01*
G75*
G02*
X53450000Y-92150000I0J-75000D01*
G01*
X53450000Y-93475000D01*
G75*
G02*
X53375000Y-93550000I-75000J0D01*
G01*
G37*
G36*
G01*
X53875000Y-93550000D02*
X53725000Y-93550000D01*
G75*
G02*
X53650000Y-93475000I0J75000D01*
G01*
X53650000Y-92150000D01*
G75*
G02*
X53725000Y-92075000I75000J0D01*
G01*
X53875000Y-92075000D01*
G75*
G02*
X53950000Y-92150000I0J-75000D01*
G01*
X53950000Y-93475000D01*
G75*
G02*
X53875000Y-93550000I-75000J0D01*
G01*
G37*
G36*
G01*
X54375000Y-93550000D02*
X54225000Y-93550000D01*
G75*
G02*
X54150000Y-93475000I0J75000D01*
G01*
X54150000Y-92150000D01*
G75*
G02*
X54225000Y-92075000I75000J0D01*
G01*
X54375000Y-92075000D01*
G75*
G02*
X54450000Y-92150000I0J-75000D01*
G01*
X54450000Y-93475000D01*
G75*
G02*
X54375000Y-93550000I-75000J0D01*
G01*
G37*
G36*
G01*
X54875000Y-93550000D02*
X54725000Y-93550000D01*
G75*
G02*
X54650000Y-93475000I0J75000D01*
G01*
X54650000Y-92150000D01*
G75*
G02*
X54725000Y-92075000I75000J0D01*
G01*
X54875000Y-92075000D01*
G75*
G02*
X54950000Y-92150000I0J-75000D01*
G01*
X54950000Y-93475000D01*
G75*
G02*
X54875000Y-93550000I-75000J0D01*
G01*
G37*
G36*
G01*
X55375000Y-93550000D02*
X55225000Y-93550000D01*
G75*
G02*
X55150000Y-93475000I0J75000D01*
G01*
X55150000Y-92150000D01*
G75*
G02*
X55225000Y-92075000I75000J0D01*
G01*
X55375000Y-92075000D01*
G75*
G02*
X55450000Y-92150000I0J-75000D01*
G01*
X55450000Y-93475000D01*
G75*
G02*
X55375000Y-93550000I-75000J0D01*
G01*
G37*
G36*
G01*
X57375000Y-94375000D02*
X56050000Y-94375000D01*
G75*
G02*
X55975000Y-94300000I0J75000D01*
G01*
X55975000Y-94150000D01*
G75*
G02*
X56050000Y-94075000I75000J0D01*
G01*
X57375000Y-94075000D01*
G75*
G02*
X57450000Y-94150000I0J-75000D01*
G01*
X57450000Y-94300000D01*
G75*
G02*
X57375000Y-94375000I-75000J0D01*
G01*
G37*
G36*
G01*
X57375000Y-94875000D02*
X56050000Y-94875000D01*
G75*
G02*
X55975000Y-94800000I0J75000D01*
G01*
X55975000Y-94650000D01*
G75*
G02*
X56050000Y-94575000I75000J0D01*
G01*
X57375000Y-94575000D01*
G75*
G02*
X57450000Y-94650000I0J-75000D01*
G01*
X57450000Y-94800000D01*
G75*
G02*
X57375000Y-94875000I-75000J0D01*
G01*
G37*
G36*
G01*
X57375000Y-95375000D02*
X56050000Y-95375000D01*
G75*
G02*
X55975000Y-95300000I0J75000D01*
G01*
X55975000Y-95150000D01*
G75*
G02*
X56050000Y-95075000I75000J0D01*
G01*
X57375000Y-95075000D01*
G75*
G02*
X57450000Y-95150000I0J-75000D01*
G01*
X57450000Y-95300000D01*
G75*
G02*
X57375000Y-95375000I-75000J0D01*
G01*
G37*
G36*
G01*
X57375000Y-95875000D02*
X56050000Y-95875000D01*
G75*
G02*
X55975000Y-95800000I0J75000D01*
G01*
X55975000Y-95650000D01*
G75*
G02*
X56050000Y-95575000I75000J0D01*
G01*
X57375000Y-95575000D01*
G75*
G02*
X57450000Y-95650000I0J-75000D01*
G01*
X57450000Y-95800000D01*
G75*
G02*
X57375000Y-95875000I-75000J0D01*
G01*
G37*
G36*
G01*
X57375000Y-96375000D02*
X56050000Y-96375000D01*
G75*
G02*
X55975000Y-96300000I0J75000D01*
G01*
X55975000Y-96150000D01*
G75*
G02*
X56050000Y-96075000I75000J0D01*
G01*
X57375000Y-96075000D01*
G75*
G02*
X57450000Y-96150000I0J-75000D01*
G01*
X57450000Y-96300000D01*
G75*
G02*
X57375000Y-96375000I-75000J0D01*
G01*
G37*
G36*
G01*
X57375000Y-96875000D02*
X56050000Y-96875000D01*
G75*
G02*
X55975000Y-96800000I0J75000D01*
G01*
X55975000Y-96650000D01*
G75*
G02*
X56050000Y-96575000I75000J0D01*
G01*
X57375000Y-96575000D01*
G75*
G02*
X57450000Y-96650000I0J-75000D01*
G01*
X57450000Y-96800000D01*
G75*
G02*
X57375000Y-96875000I-75000J0D01*
G01*
G37*
G36*
G01*
X57375000Y-97375000D02*
X56050000Y-97375000D01*
G75*
G02*
X55975000Y-97300000I0J75000D01*
G01*
X55975000Y-97150000D01*
G75*
G02*
X56050000Y-97075000I75000J0D01*
G01*
X57375000Y-97075000D01*
G75*
G02*
X57450000Y-97150000I0J-75000D01*
G01*
X57450000Y-97300000D01*
G75*
G02*
X57375000Y-97375000I-75000J0D01*
G01*
G37*
G36*
G01*
X57375000Y-97875000D02*
X56050000Y-97875000D01*
G75*
G02*
X55975000Y-97800000I0J75000D01*
G01*
X55975000Y-97650000D01*
G75*
G02*
X56050000Y-97575000I75000J0D01*
G01*
X57375000Y-97575000D01*
G75*
G02*
X57450000Y-97650000I0J-75000D01*
G01*
X57450000Y-97800000D01*
G75*
G02*
X57375000Y-97875000I-75000J0D01*
G01*
G37*
G36*
G01*
X57375000Y-98375000D02*
X56050000Y-98375000D01*
G75*
G02*
X55975000Y-98300000I0J75000D01*
G01*
X55975000Y-98150000D01*
G75*
G02*
X56050000Y-98075000I75000J0D01*
G01*
X57375000Y-98075000D01*
G75*
G02*
X57450000Y-98150000I0J-75000D01*
G01*
X57450000Y-98300000D01*
G75*
G02*
X57375000Y-98375000I-75000J0D01*
G01*
G37*
G36*
G01*
X57375000Y-98875000D02*
X56050000Y-98875000D01*
G75*
G02*
X55975000Y-98800000I0J75000D01*
G01*
X55975000Y-98650000D01*
G75*
G02*
X56050000Y-98575000I75000J0D01*
G01*
X57375000Y-98575000D01*
G75*
G02*
X57450000Y-98650000I0J-75000D01*
G01*
X57450000Y-98800000D01*
G75*
G02*
X57375000Y-98875000I-75000J0D01*
G01*
G37*
G36*
G01*
X57375000Y-99375000D02*
X56050000Y-99375000D01*
G75*
G02*
X55975000Y-99300000I0J75000D01*
G01*
X55975000Y-99150000D01*
G75*
G02*
X56050000Y-99075000I75000J0D01*
G01*
X57375000Y-99075000D01*
G75*
G02*
X57450000Y-99150000I0J-75000D01*
G01*
X57450000Y-99300000D01*
G75*
G02*
X57375000Y-99375000I-75000J0D01*
G01*
G37*
G36*
G01*
X57375000Y-99875000D02*
X56050000Y-99875000D01*
G75*
G02*
X55975000Y-99800000I0J75000D01*
G01*
X55975000Y-99650000D01*
G75*
G02*
X56050000Y-99575000I75000J0D01*
G01*
X57375000Y-99575000D01*
G75*
G02*
X57450000Y-99650000I0J-75000D01*
G01*
X57450000Y-99800000D01*
G75*
G02*
X57375000Y-99875000I-75000J0D01*
G01*
G37*
G36*
G01*
X55375000Y-101875000D02*
X55225000Y-101875000D01*
G75*
G02*
X55150000Y-101800000I0J75000D01*
G01*
X55150000Y-100475000D01*
G75*
G02*
X55225000Y-100400000I75000J0D01*
G01*
X55375000Y-100400000D01*
G75*
G02*
X55450000Y-100475000I0J-75000D01*
G01*
X55450000Y-101800000D01*
G75*
G02*
X55375000Y-101875000I-75000J0D01*
G01*
G37*
G36*
G01*
X54875000Y-101875000D02*
X54725000Y-101875000D01*
G75*
G02*
X54650000Y-101800000I0J75000D01*
G01*
X54650000Y-100475000D01*
G75*
G02*
X54725000Y-100400000I75000J0D01*
G01*
X54875000Y-100400000D01*
G75*
G02*
X54950000Y-100475000I0J-75000D01*
G01*
X54950000Y-101800000D01*
G75*
G02*
X54875000Y-101875000I-75000J0D01*
G01*
G37*
G36*
G01*
X54375000Y-101875000D02*
X54225000Y-101875000D01*
G75*
G02*
X54150000Y-101800000I0J75000D01*
G01*
X54150000Y-100475000D01*
G75*
G02*
X54225000Y-100400000I75000J0D01*
G01*
X54375000Y-100400000D01*
G75*
G02*
X54450000Y-100475000I0J-75000D01*
G01*
X54450000Y-101800000D01*
G75*
G02*
X54375000Y-101875000I-75000J0D01*
G01*
G37*
G36*
G01*
X53875000Y-101875000D02*
X53725000Y-101875000D01*
G75*
G02*
X53650000Y-101800000I0J75000D01*
G01*
X53650000Y-100475000D01*
G75*
G02*
X53725000Y-100400000I75000J0D01*
G01*
X53875000Y-100400000D01*
G75*
G02*
X53950000Y-100475000I0J-75000D01*
G01*
X53950000Y-101800000D01*
G75*
G02*
X53875000Y-101875000I-75000J0D01*
G01*
G37*
G36*
G01*
X53375000Y-101875000D02*
X53225000Y-101875000D01*
G75*
G02*
X53150000Y-101800000I0J75000D01*
G01*
X53150000Y-100475000D01*
G75*
G02*
X53225000Y-100400000I75000J0D01*
G01*
X53375000Y-100400000D01*
G75*
G02*
X53450000Y-100475000I0J-75000D01*
G01*
X53450000Y-101800000D01*
G75*
G02*
X53375000Y-101875000I-75000J0D01*
G01*
G37*
G36*
G01*
X52875000Y-101875000D02*
X52725000Y-101875000D01*
G75*
G02*
X52650000Y-101800000I0J75000D01*
G01*
X52650000Y-100475000D01*
G75*
G02*
X52725000Y-100400000I75000J0D01*
G01*
X52875000Y-100400000D01*
G75*
G02*
X52950000Y-100475000I0J-75000D01*
G01*
X52950000Y-101800000D01*
G75*
G02*
X52875000Y-101875000I-75000J0D01*
G01*
G37*
G36*
G01*
X52375000Y-101875000D02*
X52225000Y-101875000D01*
G75*
G02*
X52150000Y-101800000I0J75000D01*
G01*
X52150000Y-100475000D01*
G75*
G02*
X52225000Y-100400000I75000J0D01*
G01*
X52375000Y-100400000D01*
G75*
G02*
X52450000Y-100475000I0J-75000D01*
G01*
X52450000Y-101800000D01*
G75*
G02*
X52375000Y-101875000I-75000J0D01*
G01*
G37*
G36*
G01*
X51875000Y-101875000D02*
X51725000Y-101875000D01*
G75*
G02*
X51650000Y-101800000I0J75000D01*
G01*
X51650000Y-100475000D01*
G75*
G02*
X51725000Y-100400000I75000J0D01*
G01*
X51875000Y-100400000D01*
G75*
G02*
X51950000Y-100475000I0J-75000D01*
G01*
X51950000Y-101800000D01*
G75*
G02*
X51875000Y-101875000I-75000J0D01*
G01*
G37*
G36*
G01*
X51375000Y-101875000D02*
X51225000Y-101875000D01*
G75*
G02*
X51150000Y-101800000I0J75000D01*
G01*
X51150000Y-100475000D01*
G75*
G02*
X51225000Y-100400000I75000J0D01*
G01*
X51375000Y-100400000D01*
G75*
G02*
X51450000Y-100475000I0J-75000D01*
G01*
X51450000Y-101800000D01*
G75*
G02*
X51375000Y-101875000I-75000J0D01*
G01*
G37*
G36*
G01*
X50875000Y-101875000D02*
X50725000Y-101875000D01*
G75*
G02*
X50650000Y-101800000I0J75000D01*
G01*
X50650000Y-100475000D01*
G75*
G02*
X50725000Y-100400000I75000J0D01*
G01*
X50875000Y-100400000D01*
G75*
G02*
X50950000Y-100475000I0J-75000D01*
G01*
X50950000Y-101800000D01*
G75*
G02*
X50875000Y-101875000I-75000J0D01*
G01*
G37*
G36*
G01*
X50375000Y-101875000D02*
X50225000Y-101875000D01*
G75*
G02*
X50150000Y-101800000I0J75000D01*
G01*
X50150000Y-100475000D01*
G75*
G02*
X50225000Y-100400000I75000J0D01*
G01*
X50375000Y-100400000D01*
G75*
G02*
X50450000Y-100475000I0J-75000D01*
G01*
X50450000Y-101800000D01*
G75*
G02*
X50375000Y-101875000I-75000J0D01*
G01*
G37*
G36*
G01*
X49875000Y-101875000D02*
X49725000Y-101875000D01*
G75*
G02*
X49650000Y-101800000I0J75000D01*
G01*
X49650000Y-100475000D01*
G75*
G02*
X49725000Y-100400000I75000J0D01*
G01*
X49875000Y-100400000D01*
G75*
G02*
X49950000Y-100475000I0J-75000D01*
G01*
X49950000Y-101800000D01*
G75*
G02*
X49875000Y-101875000I-75000J0D01*
G01*
G37*
%TD*%
D11*
%TO.C,U2*%
X39600000Y-85750000D03*
X38650000Y-85750000D03*
X40550000Y-85750000D03*
X40550000Y-87950000D03*
X39600000Y-87950000D03*
X38650000Y-87950000D03*
%TD*%
%TO.C,R8*%
G36*
G01*
X43600000Y-90175000D02*
X44150000Y-90175000D01*
G75*
G02*
X44350000Y-90375000I0J-200000D01*
G01*
X44350000Y-90775000D01*
G75*
G02*
X44150000Y-90975000I-200000J0D01*
G01*
X43600000Y-90975000D01*
G75*
G02*
X43400000Y-90775000I0J200000D01*
G01*
X43400000Y-90375000D01*
G75*
G02*
X43600000Y-90175000I200000J0D01*
G01*
G37*
G36*
G01*
X43600000Y-88525000D02*
X44150000Y-88525000D01*
G75*
G02*
X44350000Y-88725000I0J-200000D01*
G01*
X44350000Y-89125000D01*
G75*
G02*
X44150000Y-89325000I-200000J0D01*
G01*
X43600000Y-89325000D01*
G75*
G02*
X43400000Y-89125000I0J200000D01*
G01*
X43400000Y-88725000D01*
G75*
G02*
X43600000Y-88525000I200000J0D01*
G01*
G37*
%TD*%
%TO.C,R7*%
G36*
G01*
X43600000Y-87275000D02*
X44150000Y-87275000D01*
G75*
G02*
X44350000Y-87475000I0J-200000D01*
G01*
X44350000Y-87875000D01*
G75*
G02*
X44150000Y-88075000I-200000J0D01*
G01*
X43600000Y-88075000D01*
G75*
G02*
X43400000Y-87875000I0J200000D01*
G01*
X43400000Y-87475000D01*
G75*
G02*
X43600000Y-87275000I200000J0D01*
G01*
G37*
G36*
G01*
X43600000Y-85625000D02*
X44150000Y-85625000D01*
G75*
G02*
X44350000Y-85825000I0J-200000D01*
G01*
X44350000Y-86225000D01*
G75*
G02*
X44150000Y-86425000I-200000J0D01*
G01*
X43600000Y-86425000D01*
G75*
G02*
X43400000Y-86225000I0J200000D01*
G01*
X43400000Y-85825000D01*
G75*
G02*
X43600000Y-85625000I200000J0D01*
G01*
G37*
%TD*%
%TO.C,C18*%
G36*
G01*
X46175000Y-84800000D02*
X48225000Y-84800000D01*
G75*
G02*
X48475000Y-85050000I0J-250000D01*
G01*
X48475000Y-86625000D01*
G75*
G02*
X48225000Y-86875000I-250000J0D01*
G01*
X46175000Y-86875000D01*
G75*
G02*
X45925000Y-86625000I0J250000D01*
G01*
X45925000Y-85050000D01*
G75*
G02*
X46175000Y-84800000I250000J0D01*
G01*
G37*
G36*
G01*
X46175000Y-78575000D02*
X48225000Y-78575000D01*
G75*
G02*
X48475000Y-78825000I0J-250000D01*
G01*
X48475000Y-80400000D01*
G75*
G02*
X48225000Y-80650000I-250000J0D01*
G01*
X46175000Y-80650000D01*
G75*
G02*
X45925000Y-80400000I0J250000D01*
G01*
X45925000Y-78825000D01*
G75*
G02*
X46175000Y-78575000I250000J0D01*
G01*
G37*
%TD*%
%TO.C,C8*%
G36*
G01*
X37550000Y-86325000D02*
X37050000Y-86325000D01*
G75*
G02*
X36825000Y-86100000I0J225000D01*
G01*
X36825000Y-85650000D01*
G75*
G02*
X37050000Y-85425000I225000J0D01*
G01*
X37550000Y-85425000D01*
G75*
G02*
X37775000Y-85650000I0J-225000D01*
G01*
X37775000Y-86100000D01*
G75*
G02*
X37550000Y-86325000I-225000J0D01*
G01*
G37*
G36*
G01*
X37550000Y-87875000D02*
X37050000Y-87875000D01*
G75*
G02*
X36825000Y-87650000I0J225000D01*
G01*
X36825000Y-87200000D01*
G75*
G02*
X37050000Y-86975000I225000J0D01*
G01*
X37550000Y-86975000D01*
G75*
G02*
X37775000Y-87200000I0J-225000D01*
G01*
X37775000Y-87650000D01*
G75*
G02*
X37550000Y-87875000I-225000J0D01*
G01*
G37*
%TD*%
%TO.C,C13*%
G36*
G01*
X47425000Y-100925000D02*
X47425000Y-101425000D01*
G75*
G02*
X47200000Y-101650000I-225000J0D01*
G01*
X46750000Y-101650000D01*
G75*
G02*
X46525000Y-101425000I0J225000D01*
G01*
X46525000Y-100925000D01*
G75*
G02*
X46750000Y-100700000I225000J0D01*
G01*
X47200000Y-100700000D01*
G75*
G02*
X47425000Y-100925000I0J-225000D01*
G01*
G37*
G36*
G01*
X48975000Y-100925000D02*
X48975000Y-101425000D01*
G75*
G02*
X48750000Y-101650000I-225000J0D01*
G01*
X48300000Y-101650000D01*
G75*
G02*
X48075000Y-101425000I0J225000D01*
G01*
X48075000Y-100925000D01*
G75*
G02*
X48300000Y-100700000I225000J0D01*
G01*
X48750000Y-100700000D01*
G75*
G02*
X48975000Y-100925000I0J-225000D01*
G01*
G37*
%TD*%
%TO.C,C9*%
G36*
G01*
X48650000Y-91800000D02*
X48150000Y-91800000D01*
G75*
G02*
X47925000Y-91575000I0J225000D01*
G01*
X47925000Y-91125000D01*
G75*
G02*
X48150000Y-90900000I225000J0D01*
G01*
X48650000Y-90900000D01*
G75*
G02*
X48875000Y-91125000I0J-225000D01*
G01*
X48875000Y-91575000D01*
G75*
G02*
X48650000Y-91800000I-225000J0D01*
G01*
G37*
G36*
G01*
X48650000Y-93350000D02*
X48150000Y-93350000D01*
G75*
G02*
X47925000Y-93125000I0J225000D01*
G01*
X47925000Y-92675000D01*
G75*
G02*
X48150000Y-92450000I225000J0D01*
G01*
X48650000Y-92450000D01*
G75*
G02*
X48875000Y-92675000I0J-225000D01*
G01*
X48875000Y-93125000D01*
G75*
G02*
X48650000Y-93350000I-225000J0D01*
G01*
G37*
%TD*%
%TO.C,C1*%
G36*
G01*
X41675000Y-87375000D02*
X42625000Y-87375000D01*
G75*
G02*
X42875000Y-87625000I0J-250000D01*
G01*
X42875000Y-88125000D01*
G75*
G02*
X42625000Y-88375000I-250000J0D01*
G01*
X41675000Y-88375000D01*
G75*
G02*
X41425000Y-88125000I0J250000D01*
G01*
X41425000Y-87625000D01*
G75*
G02*
X41675000Y-87375000I250000J0D01*
G01*
G37*
G36*
G01*
X41675000Y-85475000D02*
X42625000Y-85475000D01*
G75*
G02*
X42875000Y-85725000I0J-250000D01*
G01*
X42875000Y-86225000D01*
G75*
G02*
X42625000Y-86475000I-250000J0D01*
G01*
X41675000Y-86475000D01*
G75*
G02*
X41425000Y-86225000I0J250000D01*
G01*
X41425000Y-85725000D01*
G75*
G02*
X41675000Y-85475000I250000J0D01*
G01*
G37*
%TD*%
D12*
%TO.C,T1*%
X55525000Y-62230000D03*
X55525000Y-77720000D03*
D13*
X48395000Y-65890000D03*
X48395000Y-63350000D03*
X48395000Y-74060000D03*
X48395000Y-76600000D03*
X58825000Y-74420000D03*
X58825000Y-71880000D03*
X58825000Y-69340000D03*
X58825000Y-66800000D03*
X58825000Y-64260000D03*
X61365000Y-75690000D03*
X61365000Y-73150000D03*
X61365000Y-70610000D03*
X61365000Y-68070000D03*
X61365000Y-65530000D03*
%TD*%
%TO.C,R15*%
G36*
G01*
X50600000Y-81250000D02*
X50050000Y-81250000D01*
G75*
G02*
X49850000Y-81050000I0J200000D01*
G01*
X49850000Y-80650000D01*
G75*
G02*
X50050000Y-80450000I200000J0D01*
G01*
X50600000Y-80450000D01*
G75*
G02*
X50800000Y-80650000I0J-200000D01*
G01*
X50800000Y-81050000D01*
G75*
G02*
X50600000Y-81250000I-200000J0D01*
G01*
G37*
G36*
G01*
X50600000Y-82900000D02*
X50050000Y-82900000D01*
G75*
G02*
X49850000Y-82700000I0J200000D01*
G01*
X49850000Y-82300000D01*
G75*
G02*
X50050000Y-82100000I200000J0D01*
G01*
X50600000Y-82100000D01*
G75*
G02*
X50800000Y-82300000I0J-200000D01*
G01*
X50800000Y-82700000D01*
G75*
G02*
X50600000Y-82900000I-200000J0D01*
G01*
G37*
%TD*%
%TO.C,D5*%
G36*
G01*
X50556250Y-84175000D02*
X50043750Y-84175000D01*
G75*
G02*
X49825000Y-83956250I0J218750D01*
G01*
X49825000Y-83518750D01*
G75*
G02*
X50043750Y-83300000I218750J0D01*
G01*
X50556250Y-83300000D01*
G75*
G02*
X50775000Y-83518750I0J-218750D01*
G01*
X50775000Y-83956250D01*
G75*
G02*
X50556250Y-84175000I-218750J0D01*
G01*
G37*
G36*
G01*
X50556250Y-85750000D02*
X50043750Y-85750000D01*
G75*
G02*
X49825000Y-85531250I0J218750D01*
G01*
X49825000Y-85093750D01*
G75*
G02*
X50043750Y-84875000I218750J0D01*
G01*
X50556250Y-84875000D01*
G75*
G02*
X50775000Y-85093750I0J-218750D01*
G01*
X50775000Y-85531250D01*
G75*
G02*
X50556250Y-85750000I-218750J0D01*
G01*
G37*
%TD*%
%TO.C,R24*%
G36*
G01*
X22150000Y-91475000D02*
X22700000Y-91475000D01*
G75*
G02*
X22900000Y-91675000I0J-200000D01*
G01*
X22900000Y-92075000D01*
G75*
G02*
X22700000Y-92275000I-200000J0D01*
G01*
X22150000Y-92275000D01*
G75*
G02*
X21950000Y-92075000I0J200000D01*
G01*
X21950000Y-91675000D01*
G75*
G02*
X22150000Y-91475000I200000J0D01*
G01*
G37*
G36*
G01*
X22150000Y-89825000D02*
X22700000Y-89825000D01*
G75*
G02*
X22900000Y-90025000I0J-200000D01*
G01*
X22900000Y-90425000D01*
G75*
G02*
X22700000Y-90625000I-200000J0D01*
G01*
X22150000Y-90625000D01*
G75*
G02*
X21950000Y-90425000I0J200000D01*
G01*
X21950000Y-90025000D01*
G75*
G02*
X22150000Y-89825000I200000J0D01*
G01*
G37*
%TD*%
D14*
%TO.C,D11*%
X27295000Y-90875000D03*
X29835000Y-90875000D03*
X31105000Y-90875000D03*
X31105000Y-96275000D03*
X29835000Y-96275000D03*
X28565000Y-96275000D03*
X27295000Y-96275000D03*
%TD*%
%TO.C,C5*%
G36*
G01*
X52975000Y-102555000D02*
X52975000Y-102895000D01*
G75*
G02*
X52835000Y-103035000I-140000J0D01*
G01*
X52555000Y-103035000D01*
G75*
G02*
X52415000Y-102895000I0J140000D01*
G01*
X52415000Y-102555000D01*
G75*
G02*
X52555000Y-102415000I140000J0D01*
G01*
X52835000Y-102415000D01*
G75*
G02*
X52975000Y-102555000I0J-140000D01*
G01*
G37*
G36*
G01*
X53935000Y-102555000D02*
X53935000Y-102895000D01*
G75*
G02*
X53795000Y-103035000I-140000J0D01*
G01*
X53515000Y-103035000D01*
G75*
G02*
X53375000Y-102895000I0J140000D01*
G01*
X53375000Y-102555000D01*
G75*
G02*
X53515000Y-102415000I140000J0D01*
G01*
X53795000Y-102415000D01*
G75*
G02*
X53935000Y-102555000I0J-140000D01*
G01*
G37*
%TD*%
%TO.C,C33*%
G36*
G01*
X25463300Y-99482400D02*
X25963300Y-99482400D01*
G75*
G02*
X26188300Y-99707400I0J-225000D01*
G01*
X26188300Y-100157400D01*
G75*
G02*
X25963300Y-100382400I-225000J0D01*
G01*
X25463300Y-100382400D01*
G75*
G02*
X25238300Y-100157400I0J225000D01*
G01*
X25238300Y-99707400D01*
G75*
G02*
X25463300Y-99482400I225000J0D01*
G01*
G37*
G36*
G01*
X25463300Y-97932400D02*
X25963300Y-97932400D01*
G75*
G02*
X26188300Y-98157400I0J-225000D01*
G01*
X26188300Y-98607400D01*
G75*
G02*
X25963300Y-98832400I-225000J0D01*
G01*
X25463300Y-98832400D01*
G75*
G02*
X25238300Y-98607400I0J225000D01*
G01*
X25238300Y-98157400D01*
G75*
G02*
X25463300Y-97932400I225000J0D01*
G01*
G37*
%TD*%
%TO.C,R18*%
G36*
G01*
X55300000Y-71850000D02*
X55300000Y-72400000D01*
G75*
G02*
X55100000Y-72600000I-200000J0D01*
G01*
X54700000Y-72600000D01*
G75*
G02*
X54500000Y-72400000I0J200000D01*
G01*
X54500000Y-71850000D01*
G75*
G02*
X54700000Y-71650000I200000J0D01*
G01*
X55100000Y-71650000D01*
G75*
G02*
X55300000Y-71850000I0J-200000D01*
G01*
G37*
G36*
G01*
X56950000Y-71850000D02*
X56950000Y-72400000D01*
G75*
G02*
X56750000Y-72600000I-200000J0D01*
G01*
X56350000Y-72600000D01*
G75*
G02*
X56150000Y-72400000I0J200000D01*
G01*
X56150000Y-71850000D01*
G75*
G02*
X56350000Y-71650000I200000J0D01*
G01*
X56750000Y-71650000D01*
G75*
G02*
X56950000Y-71850000I0J-200000D01*
G01*
G37*
%TD*%
%TO.C,R10*%
G36*
G01*
X55275000Y-70375000D02*
X55275000Y-70925000D01*
G75*
G02*
X55075000Y-71125000I-200000J0D01*
G01*
X54675000Y-71125000D01*
G75*
G02*
X54475000Y-70925000I0J200000D01*
G01*
X54475000Y-70375000D01*
G75*
G02*
X54675000Y-70175000I200000J0D01*
G01*
X55075000Y-70175000D01*
G75*
G02*
X55275000Y-70375000I0J-200000D01*
G01*
G37*
G36*
G01*
X56925000Y-70375000D02*
X56925000Y-70925000D01*
G75*
G02*
X56725000Y-71125000I-200000J0D01*
G01*
X56325000Y-71125000D01*
G75*
G02*
X56125000Y-70925000I0J200000D01*
G01*
X56125000Y-70375000D01*
G75*
G02*
X56325000Y-70175000I200000J0D01*
G01*
X56725000Y-70175000D01*
G75*
G02*
X56925000Y-70375000I0J-200000D01*
G01*
G37*
%TD*%
%TO.C,R9*%
G36*
G01*
X55300000Y-68975000D02*
X55300000Y-69525000D01*
G75*
G02*
X55100000Y-69725000I-200000J0D01*
G01*
X54700000Y-69725000D01*
G75*
G02*
X54500000Y-69525000I0J200000D01*
G01*
X54500000Y-68975000D01*
G75*
G02*
X54700000Y-68775000I200000J0D01*
G01*
X55100000Y-68775000D01*
G75*
G02*
X55300000Y-68975000I0J-200000D01*
G01*
G37*
G36*
G01*
X56950000Y-68975000D02*
X56950000Y-69525000D01*
G75*
G02*
X56750000Y-69725000I-200000J0D01*
G01*
X56350000Y-69725000D01*
G75*
G02*
X56150000Y-69525000I0J200000D01*
G01*
X56150000Y-68975000D01*
G75*
G02*
X56350000Y-68775000I200000J0D01*
G01*
X56750000Y-68775000D01*
G75*
G02*
X56950000Y-68975000I0J-200000D01*
G01*
G37*
%TD*%
%TO.C,C20*%
G36*
G01*
X55400000Y-73275000D02*
X55400000Y-73775000D01*
G75*
G02*
X55175000Y-74000000I-225000J0D01*
G01*
X54725000Y-74000000D01*
G75*
G02*
X54500000Y-73775000I0J225000D01*
G01*
X54500000Y-73275000D01*
G75*
G02*
X54725000Y-73050000I225000J0D01*
G01*
X55175000Y-73050000D01*
G75*
G02*
X55400000Y-73275000I0J-225000D01*
G01*
G37*
G36*
G01*
X56950000Y-73275000D02*
X56950000Y-73775000D01*
G75*
G02*
X56725000Y-74000000I-225000J0D01*
G01*
X56275000Y-74000000D01*
G75*
G02*
X56050000Y-73775000I0J225000D01*
G01*
X56050000Y-73275000D01*
G75*
G02*
X56275000Y-73050000I225000J0D01*
G01*
X56725000Y-73050000D01*
G75*
G02*
X56950000Y-73275000I0J-225000D01*
G01*
G37*
%TD*%
%TO.C,C16*%
G36*
G01*
X56050000Y-75250000D02*
X56050000Y-74750000D01*
G75*
G02*
X56275000Y-74525000I225000J0D01*
G01*
X56725000Y-74525000D01*
G75*
G02*
X56950000Y-74750000I0J-225000D01*
G01*
X56950000Y-75250000D01*
G75*
G02*
X56725000Y-75475000I-225000J0D01*
G01*
X56275000Y-75475000D01*
G75*
G02*
X56050000Y-75250000I0J225000D01*
G01*
G37*
G36*
G01*
X54500000Y-75250000D02*
X54500000Y-74750000D01*
G75*
G02*
X54725000Y-74525000I225000J0D01*
G01*
X55175000Y-74525000D01*
G75*
G02*
X55400000Y-74750000I0J-225000D01*
G01*
X55400000Y-75250000D01*
G75*
G02*
X55175000Y-75475000I-225000J0D01*
G01*
X54725000Y-75475000D01*
G75*
G02*
X54500000Y-75250000I0J225000D01*
G01*
G37*
%TD*%
%TO.C,C43*%
G36*
G01*
X57950000Y-87205000D02*
X57950000Y-87545000D01*
G75*
G02*
X57810000Y-87685000I-140000J0D01*
G01*
X57530000Y-87685000D01*
G75*
G02*
X57390000Y-87545000I0J140000D01*
G01*
X57390000Y-87205000D01*
G75*
G02*
X57530000Y-87065000I140000J0D01*
G01*
X57810000Y-87065000D01*
G75*
G02*
X57950000Y-87205000I0J-140000D01*
G01*
G37*
G36*
G01*
X58910000Y-87205000D02*
X58910000Y-87545000D01*
G75*
G02*
X58770000Y-87685000I-140000J0D01*
G01*
X58490000Y-87685000D01*
G75*
G02*
X58350000Y-87545000I0J140000D01*
G01*
X58350000Y-87205000D01*
G75*
G02*
X58490000Y-87065000I140000J0D01*
G01*
X58770000Y-87065000D01*
G75*
G02*
X58910000Y-87205000I0J-140000D01*
G01*
G37*
%TD*%
%TO.C,C15*%
G36*
G01*
X55575000Y-87275000D02*
X55575000Y-87775000D01*
G75*
G02*
X55350000Y-88000000I-225000J0D01*
G01*
X54900000Y-88000000D01*
G75*
G02*
X54675000Y-87775000I0J225000D01*
G01*
X54675000Y-87275000D01*
G75*
G02*
X54900000Y-87050000I225000J0D01*
G01*
X55350000Y-87050000D01*
G75*
G02*
X55575000Y-87275000I0J-225000D01*
G01*
G37*
G36*
G01*
X57125000Y-87275000D02*
X57125000Y-87775000D01*
G75*
G02*
X56900000Y-88000000I-225000J0D01*
G01*
X56450000Y-88000000D01*
G75*
G02*
X56225000Y-87775000I0J225000D01*
G01*
X56225000Y-87275000D01*
G75*
G02*
X56450000Y-87050000I225000J0D01*
G01*
X56900000Y-87050000D01*
G75*
G02*
X57125000Y-87275000I0J-225000D01*
G01*
G37*
%TD*%
%TO.C,C38*%
G36*
G01*
X56505000Y-86100000D02*
X56845000Y-86100000D01*
G75*
G02*
X56985000Y-86240000I0J-140000D01*
G01*
X56985000Y-86520000D01*
G75*
G02*
X56845000Y-86660000I-140000J0D01*
G01*
X56505000Y-86660000D01*
G75*
G02*
X56365000Y-86520000I0J140000D01*
G01*
X56365000Y-86240000D01*
G75*
G02*
X56505000Y-86100000I140000J0D01*
G01*
G37*
G36*
G01*
X56505000Y-85140000D02*
X56845000Y-85140000D01*
G75*
G02*
X56985000Y-85280000I0J-140000D01*
G01*
X56985000Y-85560000D01*
G75*
G02*
X56845000Y-85700000I-140000J0D01*
G01*
X56505000Y-85700000D01*
G75*
G02*
X56365000Y-85560000I0J140000D01*
G01*
X56365000Y-85280000D01*
G75*
G02*
X56505000Y-85140000I140000J0D01*
G01*
G37*
%TD*%
%TO.C,C35*%
G36*
G01*
X57925000Y-88230000D02*
X57925000Y-88570000D01*
G75*
G02*
X57785000Y-88710000I-140000J0D01*
G01*
X57505000Y-88710000D01*
G75*
G02*
X57365000Y-88570000I0J140000D01*
G01*
X57365000Y-88230000D01*
G75*
G02*
X57505000Y-88090000I140000J0D01*
G01*
X57785000Y-88090000D01*
G75*
G02*
X57925000Y-88230000I0J-140000D01*
G01*
G37*
G36*
G01*
X58885000Y-88230000D02*
X58885000Y-88570000D01*
G75*
G02*
X58745000Y-88710000I-140000J0D01*
G01*
X58465000Y-88710000D01*
G75*
G02*
X58325000Y-88570000I0J140000D01*
G01*
X58325000Y-88230000D01*
G75*
G02*
X58465000Y-88090000I140000J0D01*
G01*
X58745000Y-88090000D01*
G75*
G02*
X58885000Y-88230000I0J-140000D01*
G01*
G37*
%TD*%
%TO.C,C31*%
G36*
G01*
X57925000Y-89255000D02*
X57925000Y-89595000D01*
G75*
G02*
X57785000Y-89735000I-140000J0D01*
G01*
X57505000Y-89735000D01*
G75*
G02*
X57365000Y-89595000I0J140000D01*
G01*
X57365000Y-89255000D01*
G75*
G02*
X57505000Y-89115000I140000J0D01*
G01*
X57785000Y-89115000D01*
G75*
G02*
X57925000Y-89255000I0J-140000D01*
G01*
G37*
G36*
G01*
X58885000Y-89255000D02*
X58885000Y-89595000D01*
G75*
G02*
X58745000Y-89735000I-140000J0D01*
G01*
X58465000Y-89735000D01*
G75*
G02*
X58325000Y-89595000I0J140000D01*
G01*
X58325000Y-89255000D01*
G75*
G02*
X58465000Y-89115000I140000J0D01*
G01*
X58745000Y-89115000D01*
G75*
G02*
X58885000Y-89255000I0J-140000D01*
G01*
G37*
%TD*%
%TO.C,C28*%
G36*
G01*
X57950000Y-86180000D02*
X57950000Y-86520000D01*
G75*
G02*
X57810000Y-86660000I-140000J0D01*
G01*
X57530000Y-86660000D01*
G75*
G02*
X57390000Y-86520000I0J140000D01*
G01*
X57390000Y-86180000D01*
G75*
G02*
X57530000Y-86040000I140000J0D01*
G01*
X57810000Y-86040000D01*
G75*
G02*
X57950000Y-86180000I0J-140000D01*
G01*
G37*
G36*
G01*
X58910000Y-86180000D02*
X58910000Y-86520000D01*
G75*
G02*
X58770000Y-86660000I-140000J0D01*
G01*
X58490000Y-86660000D01*
G75*
G02*
X58350000Y-86520000I0J140000D01*
G01*
X58350000Y-86180000D01*
G75*
G02*
X58490000Y-86040000I140000J0D01*
G01*
X58770000Y-86040000D01*
G75*
G02*
X58910000Y-86180000I0J-140000D01*
G01*
G37*
%TD*%
%TO.C,C27*%
G36*
G01*
X55430000Y-86100000D02*
X55770000Y-86100000D01*
G75*
G02*
X55910000Y-86240000I0J-140000D01*
G01*
X55910000Y-86520000D01*
G75*
G02*
X55770000Y-86660000I-140000J0D01*
G01*
X55430000Y-86660000D01*
G75*
G02*
X55290000Y-86520000I0J140000D01*
G01*
X55290000Y-86240000D01*
G75*
G02*
X55430000Y-86100000I140000J0D01*
G01*
G37*
G36*
G01*
X55430000Y-85140000D02*
X55770000Y-85140000D01*
G75*
G02*
X55910000Y-85280000I0J-140000D01*
G01*
X55910000Y-85560000D01*
G75*
G02*
X55770000Y-85700000I-140000J0D01*
G01*
X55430000Y-85700000D01*
G75*
G02*
X55290000Y-85560000I0J140000D01*
G01*
X55290000Y-85280000D01*
G75*
G02*
X55430000Y-85140000I140000J0D01*
G01*
G37*
%TD*%
%TO.C,R2*%
G36*
G01*
X48535000Y-71410000D02*
X48165000Y-71410000D01*
G75*
G02*
X48030000Y-71275000I0J135000D01*
G01*
X48030000Y-71005000D01*
G75*
G02*
X48165000Y-70870000I135000J0D01*
G01*
X48535000Y-70870000D01*
G75*
G02*
X48670000Y-71005000I0J-135000D01*
G01*
X48670000Y-71275000D01*
G75*
G02*
X48535000Y-71410000I-135000J0D01*
G01*
G37*
G36*
G01*
X48535000Y-72430000D02*
X48165000Y-72430000D01*
G75*
G02*
X48030000Y-72295000I0J135000D01*
G01*
X48030000Y-72025000D01*
G75*
G02*
X48165000Y-71890000I135000J0D01*
G01*
X48535000Y-71890000D01*
G75*
G02*
X48670000Y-72025000I0J-135000D01*
G01*
X48670000Y-72295000D01*
G75*
G02*
X48535000Y-72430000I-135000J0D01*
G01*
G37*
%TD*%
%TO.C,C39*%
G36*
G01*
X53570000Y-71400000D02*
X53230000Y-71400000D01*
G75*
G02*
X53090000Y-71260000I0J140000D01*
G01*
X53090000Y-70980000D01*
G75*
G02*
X53230000Y-70840000I140000J0D01*
G01*
X53570000Y-70840000D01*
G75*
G02*
X53710000Y-70980000I0J-140000D01*
G01*
X53710000Y-71260000D01*
G75*
G02*
X53570000Y-71400000I-140000J0D01*
G01*
G37*
G36*
G01*
X53570000Y-72360000D02*
X53230000Y-72360000D01*
G75*
G02*
X53090000Y-72220000I0J140000D01*
G01*
X53090000Y-71940000D01*
G75*
G02*
X53230000Y-71800000I140000J0D01*
G01*
X53570000Y-71800000D01*
G75*
G02*
X53710000Y-71940000I0J-140000D01*
G01*
X53710000Y-72220000D01*
G75*
G02*
X53570000Y-72360000I-140000J0D01*
G01*
G37*
%TD*%
%TO.C,R3*%
G36*
G01*
X50840000Y-63210000D02*
X50840000Y-62840000D01*
G75*
G02*
X50975000Y-62705000I135000J0D01*
G01*
X51245000Y-62705000D01*
G75*
G02*
X51380000Y-62840000I0J-135000D01*
G01*
X51380000Y-63210000D01*
G75*
G02*
X51245000Y-63345000I-135000J0D01*
G01*
X50975000Y-63345000D01*
G75*
G02*
X50840000Y-63210000I0J135000D01*
G01*
G37*
G36*
G01*
X49820000Y-63210000D02*
X49820000Y-62840000D01*
G75*
G02*
X49955000Y-62705000I135000J0D01*
G01*
X50225000Y-62705000D01*
G75*
G02*
X50360000Y-62840000I0J-135000D01*
G01*
X50360000Y-63210000D01*
G75*
G02*
X50225000Y-63345000I-135000J0D01*
G01*
X49955000Y-63345000D01*
G75*
G02*
X49820000Y-63210000I0J135000D01*
G01*
G37*
%TD*%
%TO.C,D4*%
G36*
G01*
X51718750Y-87650000D02*
X52231250Y-87650000D01*
G75*
G02*
X52450000Y-87868750I0J-218750D01*
G01*
X52450000Y-88306250D01*
G75*
G02*
X52231250Y-88525000I-218750J0D01*
G01*
X51718750Y-88525000D01*
G75*
G02*
X51500000Y-88306250I0J218750D01*
G01*
X51500000Y-87868750D01*
G75*
G02*
X51718750Y-87650000I218750J0D01*
G01*
G37*
G36*
G01*
X51718750Y-86075000D02*
X52231250Y-86075000D01*
G75*
G02*
X52450000Y-86293750I0J-218750D01*
G01*
X52450000Y-86731250D01*
G75*
G02*
X52231250Y-86950000I-218750J0D01*
G01*
X51718750Y-86950000D01*
G75*
G02*
X51500000Y-86731250I0J218750D01*
G01*
X51500000Y-86293750D01*
G75*
G02*
X51718750Y-86075000I218750J0D01*
G01*
G37*
%TD*%
D13*
%TO.C,J7*%
X42500000Y-103125000D03*
%TD*%
%TO.C,R4*%
G36*
G01*
X51700000Y-90700000D02*
X52250000Y-90700000D01*
G75*
G02*
X52450000Y-90900000I0J-200000D01*
G01*
X52450000Y-91300000D01*
G75*
G02*
X52250000Y-91500000I-200000J0D01*
G01*
X51700000Y-91500000D01*
G75*
G02*
X51500000Y-91300000I0J200000D01*
G01*
X51500000Y-90900000D01*
G75*
G02*
X51700000Y-90700000I200000J0D01*
G01*
G37*
G36*
G01*
X51700000Y-89050000D02*
X52250000Y-89050000D01*
G75*
G02*
X52450000Y-89250000I0J-200000D01*
G01*
X52450000Y-89650000D01*
G75*
G02*
X52250000Y-89850000I-200000J0D01*
G01*
X51700000Y-89850000D01*
G75*
G02*
X51500000Y-89650000I0J200000D01*
G01*
X51500000Y-89250000D01*
G75*
G02*
X51700000Y-89050000I200000J0D01*
G01*
G37*
%TD*%
%TO.C,J6*%
X52025000Y-81775000D03*
%TD*%
%TO.C,J4*%
X43375000Y-99825000D03*
%TD*%
%TO.C,J3*%
X45050000Y-98550000D03*
%TD*%
%TO.C,C50*%
G36*
G01*
X26950000Y-78850000D02*
X26950000Y-80900000D01*
G75*
G02*
X26700000Y-81150000I-250000J0D01*
G01*
X25125000Y-81150000D01*
G75*
G02*
X24875000Y-80900000I0J250000D01*
G01*
X24875000Y-78850000D01*
G75*
G02*
X25125000Y-78600000I250000J0D01*
G01*
X26700000Y-78600000D01*
G75*
G02*
X26950000Y-78850000I0J-250000D01*
G01*
G37*
G36*
G01*
X33175000Y-78850000D02*
X33175000Y-80900000D01*
G75*
G02*
X32925000Y-81150000I-250000J0D01*
G01*
X31350000Y-81150000D01*
G75*
G02*
X31100000Y-80900000I0J250000D01*
G01*
X31100000Y-78850000D01*
G75*
G02*
X31350000Y-78600000I250000J0D01*
G01*
X32925000Y-78600000D01*
G75*
G02*
X33175000Y-78850000I0J-250000D01*
G01*
G37*
%TD*%
%TO.C,R21*%
G36*
G01*
X27324168Y-98779100D02*
X26774168Y-98779100D01*
G75*
G02*
X26574168Y-98579100I0J200000D01*
G01*
X26574168Y-98179100D01*
G75*
G02*
X26774168Y-97979100I200000J0D01*
G01*
X27324168Y-97979100D01*
G75*
G02*
X27524168Y-98179100I0J-200000D01*
G01*
X27524168Y-98579100D01*
G75*
G02*
X27324168Y-98779100I-200000J0D01*
G01*
G37*
G36*
G01*
X27324168Y-100429100D02*
X26774168Y-100429100D01*
G75*
G02*
X26574168Y-100229100I0J200000D01*
G01*
X26574168Y-99829100D01*
G75*
G02*
X26774168Y-99629100I200000J0D01*
G01*
X27324168Y-99629100D01*
G75*
G02*
X27524168Y-99829100I0J-200000D01*
G01*
X27524168Y-100229100D01*
G75*
G02*
X27324168Y-100429100I-200000J0D01*
G01*
G37*
%TD*%
%TO.C,R28*%
G36*
G01*
X30790994Y-99629100D02*
X31340994Y-99629100D01*
G75*
G02*
X31540994Y-99829100I0J-200000D01*
G01*
X31540994Y-100229100D01*
G75*
G02*
X31340994Y-100429100I-200000J0D01*
G01*
X30790994Y-100429100D01*
G75*
G02*
X30590994Y-100229100I0J200000D01*
G01*
X30590994Y-99829100D01*
G75*
G02*
X30790994Y-99629100I200000J0D01*
G01*
G37*
G36*
G01*
X30790994Y-97979100D02*
X31340994Y-97979100D01*
G75*
G02*
X31540994Y-98179100I0J-200000D01*
G01*
X31540994Y-98579100D01*
G75*
G02*
X31340994Y-98779100I-200000J0D01*
G01*
X30790994Y-98779100D01*
G75*
G02*
X30590994Y-98579100I0J200000D01*
G01*
X30590994Y-98179100D01*
G75*
G02*
X30790994Y-97979100I200000J0D01*
G01*
G37*
%TD*%
%TO.C,R22*%
G36*
G01*
X28113110Y-99629100D02*
X28663110Y-99629100D01*
G75*
G02*
X28863110Y-99829100I0J-200000D01*
G01*
X28863110Y-100229100D01*
G75*
G02*
X28663110Y-100429100I-200000J0D01*
G01*
X28113110Y-100429100D01*
G75*
G02*
X27913110Y-100229100I0J200000D01*
G01*
X27913110Y-99829100D01*
G75*
G02*
X28113110Y-99629100I200000J0D01*
G01*
G37*
G36*
G01*
X28113110Y-97979100D02*
X28663110Y-97979100D01*
G75*
G02*
X28863110Y-98179100I0J-200000D01*
G01*
X28863110Y-98579100D01*
G75*
G02*
X28663110Y-98779100I-200000J0D01*
G01*
X28113110Y-98779100D01*
G75*
G02*
X27913110Y-98579100I0J200000D01*
G01*
X27913110Y-98179100D01*
G75*
G02*
X28113110Y-97979100I200000J0D01*
G01*
G37*
%TD*%
%TO.C,R30*%
G36*
G01*
X21968400Y-98779100D02*
X21418400Y-98779100D01*
G75*
G02*
X21218400Y-98579100I0J200000D01*
G01*
X21218400Y-98179100D01*
G75*
G02*
X21418400Y-97979100I200000J0D01*
G01*
X21968400Y-97979100D01*
G75*
G02*
X22168400Y-98179100I0J-200000D01*
G01*
X22168400Y-98579100D01*
G75*
G02*
X21968400Y-98779100I-200000J0D01*
G01*
G37*
G36*
G01*
X21968400Y-100429100D02*
X21418400Y-100429100D01*
G75*
G02*
X21218400Y-100229100I0J200000D01*
G01*
X21218400Y-99829100D01*
G75*
G02*
X21418400Y-99629100I200000J0D01*
G01*
X21968400Y-99629100D01*
G75*
G02*
X22168400Y-99829100I0J-200000D01*
G01*
X22168400Y-100229100D01*
G75*
G02*
X21968400Y-100429100I-200000J0D01*
G01*
G37*
%TD*%
%TO.C,R23*%
G36*
G01*
X22725000Y-88500000D02*
X22725000Y-89050000D01*
G75*
G02*
X22525000Y-89250000I-200000J0D01*
G01*
X22125000Y-89250000D01*
G75*
G02*
X21925000Y-89050000I0J200000D01*
G01*
X21925000Y-88500000D01*
G75*
G02*
X22125000Y-88300000I200000J0D01*
G01*
X22525000Y-88300000D01*
G75*
G02*
X22725000Y-88500000I0J-200000D01*
G01*
G37*
G36*
G01*
X24375000Y-88500000D02*
X24375000Y-89050000D01*
G75*
G02*
X24175000Y-89250000I-200000J0D01*
G01*
X23775000Y-89250000D01*
G75*
G02*
X23575000Y-89050000I0J200000D01*
G01*
X23575000Y-88500000D01*
G75*
G02*
X23775000Y-88300000I200000J0D01*
G01*
X24175000Y-88300000D01*
G75*
G02*
X24375000Y-88500000I0J-200000D01*
G01*
G37*
%TD*%
D15*
%TO.C,Q1*%
X25900000Y-91050000D03*
X23900000Y-92000000D03*
X23900000Y-90100000D03*
%TD*%
D16*
%TO.C,D9*%
X21700000Y-96800000D03*
X21700000Y-93500000D03*
%TD*%
D17*
%TO.C,D6*%
X22000000Y-87050000D03*
X25300000Y-87050000D03*
%TD*%
%TO.C,C29*%
G36*
G01*
X29477052Y-99529100D02*
X29977052Y-99529100D01*
G75*
G02*
X30202052Y-99754100I0J-225000D01*
G01*
X30202052Y-100204100D01*
G75*
G02*
X29977052Y-100429100I-225000J0D01*
G01*
X29477052Y-100429100D01*
G75*
G02*
X29252052Y-100204100I0J225000D01*
G01*
X29252052Y-99754100D01*
G75*
G02*
X29477052Y-99529100I225000J0D01*
G01*
G37*
G36*
G01*
X29477052Y-97979100D02*
X29977052Y-97979100D01*
G75*
G02*
X30202052Y-98204100I0J-225000D01*
G01*
X30202052Y-98654100D01*
G75*
G02*
X29977052Y-98879100I-225000J0D01*
G01*
X29477052Y-98879100D01*
G75*
G02*
X29252052Y-98654100I0J225000D01*
G01*
X29252052Y-98204100D01*
G75*
G02*
X29477052Y-97979100I225000J0D01*
G01*
G37*
%TD*%
D13*
%TO.C,J13*%
X46275000Y-93325000D03*
%TD*%
%TO.C,J12*%
X50200000Y-89725000D03*
%TD*%
%TO.C,R34*%
G36*
G01*
X29325000Y-87750000D02*
X28775000Y-87750000D01*
G75*
G02*
X28575000Y-87550000I0J200000D01*
G01*
X28575000Y-87150000D01*
G75*
G02*
X28775000Y-86950000I200000J0D01*
G01*
X29325000Y-86950000D01*
G75*
G02*
X29525000Y-87150000I0J-200000D01*
G01*
X29525000Y-87550000D01*
G75*
G02*
X29325000Y-87750000I-200000J0D01*
G01*
G37*
G36*
G01*
X29325000Y-89400000D02*
X28775000Y-89400000D01*
G75*
G02*
X28575000Y-89200000I0J200000D01*
G01*
X28575000Y-88800000D01*
G75*
G02*
X28775000Y-88600000I200000J0D01*
G01*
X29325000Y-88600000D01*
G75*
G02*
X29525000Y-88800000I0J-200000D01*
G01*
X29525000Y-89200000D01*
G75*
G02*
X29325000Y-89400000I-200000J0D01*
G01*
G37*
%TD*%
%TO.C,R27*%
G36*
G01*
X26625000Y-101025000D02*
X26625000Y-101575000D01*
G75*
G02*
X26425000Y-101775000I-200000J0D01*
G01*
X26025000Y-101775000D01*
G75*
G02*
X25825000Y-101575000I0J200000D01*
G01*
X25825000Y-101025000D01*
G75*
G02*
X26025000Y-100825000I200000J0D01*
G01*
X26425000Y-100825000D01*
G75*
G02*
X26625000Y-101025000I0J-200000D01*
G01*
G37*
G36*
G01*
X28275000Y-101025000D02*
X28275000Y-101575000D01*
G75*
G02*
X28075000Y-101775000I-200000J0D01*
G01*
X27675000Y-101775000D01*
G75*
G02*
X27475000Y-101575000I0J200000D01*
G01*
X27475000Y-101025000D01*
G75*
G02*
X27675000Y-100825000I200000J0D01*
G01*
X28075000Y-100825000D01*
G75*
G02*
X28275000Y-101025000I0J-200000D01*
G01*
G37*
%TD*%
%TO.C,R26*%
G36*
G01*
X24646284Y-98779100D02*
X24096284Y-98779100D01*
G75*
G02*
X23896284Y-98579100I0J200000D01*
G01*
X23896284Y-98179100D01*
G75*
G02*
X24096284Y-97979100I200000J0D01*
G01*
X24646284Y-97979100D01*
G75*
G02*
X24846284Y-98179100I0J-200000D01*
G01*
X24846284Y-98579100D01*
G75*
G02*
X24646284Y-98779100I-200000J0D01*
G01*
G37*
G36*
G01*
X24646284Y-100429100D02*
X24096284Y-100429100D01*
G75*
G02*
X23896284Y-100229100I0J200000D01*
G01*
X23896284Y-99829100D01*
G75*
G02*
X24096284Y-99629100I200000J0D01*
G01*
X24646284Y-99629100D01*
G75*
G02*
X24846284Y-99829100I0J-200000D01*
G01*
X24846284Y-100229100D01*
G75*
G02*
X24646284Y-100429100I-200000J0D01*
G01*
G37*
%TD*%
%TO.C,R19*%
G36*
G01*
X23307342Y-98779100D02*
X22757342Y-98779100D01*
G75*
G02*
X22557342Y-98579100I0J200000D01*
G01*
X22557342Y-98179100D01*
G75*
G02*
X22757342Y-97979100I200000J0D01*
G01*
X23307342Y-97979100D01*
G75*
G02*
X23507342Y-98179100I0J-200000D01*
G01*
X23507342Y-98579100D01*
G75*
G02*
X23307342Y-98779100I-200000J0D01*
G01*
G37*
G36*
G01*
X23307342Y-100429100D02*
X22757342Y-100429100D01*
G75*
G02*
X22557342Y-100229100I0J200000D01*
G01*
X22557342Y-99829100D01*
G75*
G02*
X22757342Y-99629100I200000J0D01*
G01*
X23307342Y-99629100D01*
G75*
G02*
X23507342Y-99829100I0J-200000D01*
G01*
X23507342Y-100229100D01*
G75*
G02*
X23307342Y-100429100I-200000J0D01*
G01*
G37*
%TD*%
%TO.C,C44*%
G36*
G01*
X27925000Y-87850000D02*
X27425000Y-87850000D01*
G75*
G02*
X27200000Y-87625000I0J225000D01*
G01*
X27200000Y-87175000D01*
G75*
G02*
X27425000Y-86950000I225000J0D01*
G01*
X27925000Y-86950000D01*
G75*
G02*
X28150000Y-87175000I0J-225000D01*
G01*
X28150000Y-87625000D01*
G75*
G02*
X27925000Y-87850000I-225000J0D01*
G01*
G37*
G36*
G01*
X27925000Y-89400000D02*
X27425000Y-89400000D01*
G75*
G02*
X27200000Y-89175000I0J225000D01*
G01*
X27200000Y-88725000D01*
G75*
G02*
X27425000Y-88500000I225000J0D01*
G01*
X27925000Y-88500000D01*
G75*
G02*
X28150000Y-88725000I0J-225000D01*
G01*
X28150000Y-89175000D01*
G75*
G02*
X27925000Y-89400000I-225000J0D01*
G01*
G37*
%TD*%
%TO.C,L1*%
G36*
G01*
X58825000Y-91131250D02*
X58825000Y-90368750D01*
G75*
G02*
X59043750Y-90150000I218750J0D01*
G01*
X59481250Y-90150000D01*
G75*
G02*
X59700000Y-90368750I0J-218750D01*
G01*
X59700000Y-91131250D01*
G75*
G02*
X59481250Y-91350000I-218750J0D01*
G01*
X59043750Y-91350000D01*
G75*
G02*
X58825000Y-91131250I0J218750D01*
G01*
G37*
G36*
G01*
X56700000Y-91131250D02*
X56700000Y-90368750D01*
G75*
G02*
X56918750Y-90150000I218750J0D01*
G01*
X57356250Y-90150000D01*
G75*
G02*
X57575000Y-90368750I0J-218750D01*
G01*
X57575000Y-91131250D01*
G75*
G02*
X57356250Y-91350000I-218750J0D01*
G01*
X56918750Y-91350000D01*
G75*
G02*
X56700000Y-91131250I0J218750D01*
G01*
G37*
%TD*%
D17*
%TO.C,D8*%
X24937600Y-101450000D03*
X21637600Y-101450000D03*
%TD*%
%TO.C,C24*%
G36*
G01*
X25975000Y-94875000D02*
X25025000Y-94875000D01*
G75*
G02*
X24775000Y-94625000I0J250000D01*
G01*
X24775000Y-94125000D01*
G75*
G02*
X25025000Y-93875000I250000J0D01*
G01*
X25975000Y-93875000D01*
G75*
G02*
X26225000Y-94125000I0J-250000D01*
G01*
X26225000Y-94625000D01*
G75*
G02*
X25975000Y-94875000I-250000J0D01*
G01*
G37*
G36*
G01*
X25975000Y-96775000D02*
X25025000Y-96775000D01*
G75*
G02*
X24775000Y-96525000I0J250000D01*
G01*
X24775000Y-96025000D01*
G75*
G02*
X25025000Y-95775000I250000J0D01*
G01*
X25975000Y-95775000D01*
G75*
G02*
X26225000Y-96025000I0J-250000D01*
G01*
X26225000Y-96525000D01*
G75*
G02*
X25975000Y-96775000I-250000J0D01*
G01*
G37*
%TD*%
D13*
%TO.C,J2*%
X43000000Y-95975000D03*
%TD*%
%TO.C,J1*%
X45525000Y-95950000D03*
%TD*%
%TO.C,J5*%
X51525000Y-103025000D03*
%TD*%
M02*
