%TF.GenerationSoftware,KiCad,Pcbnew,5.1.9+dfsg1-1+deb11u1*%
%TF.CreationDate,2023-06-07T13:46:30+03:00*%
%TF.ProjectId,Meteostation,4d657465-6f73-4746-9174-696f6e2e6b69,rev?*%
%TF.SameCoordinates,PX12b1280PY638dd70*%
%TF.FileFunction,Soldermask,Bot*%
%TF.FilePolarity,Negative*%
%FSLAX46Y46*%
G04 Gerber Fmt 4.6, Leading zero omitted, Abs format (unit mm)*
G04 Created by KiCad (PCBNEW 5.1.9+dfsg1-1+deb11u1) date 2023-06-07 13:46:30*
%MOMM*%
%LPD*%
G01*
G04 APERTURE LIST*
%ADD10R,3.000000X2.000000*%
%ADD11R,2.500000X1.800000*%
%ADD12R,0.900000X0.800000*%
%ADD13R,1.220000X0.650000*%
%ADD14R,1.060000X0.650000*%
%ADD15C,1.524000*%
%ADD16R,1.200000X0.900000*%
%ADD17R,1.100000X1.200000*%
%ADD18C,3.000000*%
%ADD19R,1.400000X1.200000*%
%ADD20R,1.270000X1.550000*%
G04 APERTURE END LIST*
%TO.C,R16*%
G36*
G01*
X32155000Y4560000D02*
X31785000Y4560000D01*
G75*
G02*
X31650000Y4695000I0J135000D01*
G01*
X31650000Y4965000D01*
G75*
G02*
X31785000Y5100000I135000J0D01*
G01*
X32155000Y5100000D01*
G75*
G02*
X32290000Y4965000I0J-135000D01*
G01*
X32290000Y4695000D01*
G75*
G02*
X32155000Y4560000I-135000J0D01*
G01*
G37*
G36*
G01*
X32155000Y3540000D02*
X31785000Y3540000D01*
G75*
G02*
X31650000Y3675000I0J135000D01*
G01*
X31650000Y3945000D01*
G75*
G02*
X31785000Y4080000I135000J0D01*
G01*
X32155000Y4080000D01*
G75*
G02*
X32290000Y3945000I0J-135000D01*
G01*
X32290000Y3675000D01*
G75*
G02*
X32155000Y3540000I-135000J0D01*
G01*
G37*
%TD*%
%TO.C,C22*%
G36*
G01*
X32880000Y4090000D02*
X33220000Y4090000D01*
G75*
G02*
X33360000Y3950000I0J-140000D01*
G01*
X33360000Y3670000D01*
G75*
G02*
X33220000Y3530000I-140000J0D01*
G01*
X32880000Y3530000D01*
G75*
G02*
X32740000Y3670000I0J140000D01*
G01*
X32740000Y3950000D01*
G75*
G02*
X32880000Y4090000I140000J0D01*
G01*
G37*
G36*
G01*
X32880000Y5050000D02*
X33220000Y5050000D01*
G75*
G02*
X33360000Y4910000I0J-140000D01*
G01*
X33360000Y4630000D01*
G75*
G02*
X33220000Y4490000I-140000J0D01*
G01*
X32880000Y4490000D01*
G75*
G02*
X32740000Y4630000I0J140000D01*
G01*
X32740000Y4910000D01*
G75*
G02*
X32880000Y5050000I140000J0D01*
G01*
G37*
%TD*%
D10*
%TO.C,C19*%
X2320000Y23640000D03*
X2320000Y27640000D03*
%TD*%
%TO.C,R13*%
G36*
G01*
X30160000Y2704998D02*
X30160000Y3955002D01*
G75*
G02*
X30409998Y4205000I249998J0D01*
G01*
X31035002Y4205000D01*
G75*
G02*
X31285000Y3955002I0J-249998D01*
G01*
X31285000Y2704998D01*
G75*
G02*
X31035002Y2455000I-249998J0D01*
G01*
X30409998Y2455000D01*
G75*
G02*
X30160000Y2704998I0J249998D01*
G01*
G37*
G36*
G01*
X27235000Y2704998D02*
X27235000Y3955002D01*
G75*
G02*
X27484998Y4205000I249998J0D01*
G01*
X28110002Y4205000D01*
G75*
G02*
X28360000Y3955002I0J-249998D01*
G01*
X28360000Y2704998D01*
G75*
G02*
X28110002Y2455000I-249998J0D01*
G01*
X27484998Y2455000D01*
G75*
G02*
X27235000Y2704998I0J249998D01*
G01*
G37*
%TD*%
%TO.C,C17*%
G36*
G01*
X24449999Y1740000D02*
X25750001Y1740000D01*
G75*
G02*
X26000000Y1490001I0J-249999D01*
G01*
X26000000Y839999D01*
G75*
G02*
X25750001Y590000I-249999J0D01*
G01*
X24449999Y590000D01*
G75*
G02*
X24200000Y839999I0J249999D01*
G01*
X24200000Y1490001D01*
G75*
G02*
X24449999Y1740000I249999J0D01*
G01*
G37*
G36*
G01*
X24449999Y4690000D02*
X25750001Y4690000D01*
G75*
G02*
X26000000Y4440001I0J-249999D01*
G01*
X26000000Y3789999D01*
G75*
G02*
X25750001Y3540000I-249999J0D01*
G01*
X24449999Y3540000D01*
G75*
G02*
X24200000Y3789999I0J249999D01*
G01*
X24200000Y4440001D01*
G75*
G02*
X24449999Y4690000I249999J0D01*
G01*
G37*
%TD*%
%TO.C,C6*%
G36*
G01*
X21099999Y1760000D02*
X22400001Y1760000D01*
G75*
G02*
X22650000Y1510001I0J-249999D01*
G01*
X22650000Y859999D01*
G75*
G02*
X22400001Y610000I-249999J0D01*
G01*
X21099999Y610000D01*
G75*
G02*
X20850000Y859999I0J249999D01*
G01*
X20850000Y1510001D01*
G75*
G02*
X21099999Y1760000I249999J0D01*
G01*
G37*
G36*
G01*
X21099999Y4710000D02*
X22400001Y4710000D01*
G75*
G02*
X22650000Y4460001I0J-249999D01*
G01*
X22650000Y3809999D01*
G75*
G02*
X22400001Y3560000I-249999J0D01*
G01*
X21099999Y3560000D01*
G75*
G02*
X20850000Y3809999I0J249999D01*
G01*
X20850000Y4460001D01*
G75*
G02*
X21099999Y4710000I249999J0D01*
G01*
G37*
%TD*%
%TO.C,C3*%
G36*
G01*
X21970000Y11490001D02*
X21970000Y10189999D01*
G75*
G02*
X21720001Y9940000I-249999J0D01*
G01*
X21069999Y9940000D01*
G75*
G02*
X20820000Y10189999I0J249999D01*
G01*
X20820000Y11490001D01*
G75*
G02*
X21069999Y11740000I249999J0D01*
G01*
X21720001Y11740000D01*
G75*
G02*
X21970000Y11490001I0J-249999D01*
G01*
G37*
G36*
G01*
X24920000Y11490001D02*
X24920000Y10189999D01*
G75*
G02*
X24670001Y9940000I-249999J0D01*
G01*
X24019999Y9940000D01*
G75*
G02*
X23770000Y10189999I0J249999D01*
G01*
X23770000Y11490001D01*
G75*
G02*
X24019999Y11740000I249999J0D01*
G01*
X24670001Y11740000D01*
G75*
G02*
X24920000Y11490001I0J-249999D01*
G01*
G37*
%TD*%
D11*
%TO.C,D16*%
X12540000Y20180000D03*
X8540000Y20180000D03*
%TD*%
%TO.C,C30*%
G36*
G01*
X19365000Y23950000D02*
X19365000Y23450000D01*
G75*
G02*
X19140000Y23225000I-225000J0D01*
G01*
X18690000Y23225000D01*
G75*
G02*
X18465000Y23450000I0J225000D01*
G01*
X18465000Y23950000D01*
G75*
G02*
X18690000Y24175000I225000J0D01*
G01*
X19140000Y24175000D01*
G75*
G02*
X19365000Y23950000I0J-225000D01*
G01*
G37*
G36*
G01*
X20915000Y23950000D02*
X20915000Y23450000D01*
G75*
G02*
X20690000Y23225000I-225000J0D01*
G01*
X20240000Y23225000D01*
G75*
G02*
X20015000Y23450000I0J225000D01*
G01*
X20015000Y23950000D01*
G75*
G02*
X20240000Y24175000I225000J0D01*
G01*
X20690000Y24175000D01*
G75*
G02*
X20915000Y23950000I0J-225000D01*
G01*
G37*
%TD*%
%TO.C,R25*%
G36*
G01*
X40685000Y8000000D02*
X40685000Y7630000D01*
G75*
G02*
X40550000Y7495000I-135000J0D01*
G01*
X40280000Y7495000D01*
G75*
G02*
X40145000Y7630000I0J135000D01*
G01*
X40145000Y8000000D01*
G75*
G02*
X40280000Y8135000I135000J0D01*
G01*
X40550000Y8135000D01*
G75*
G02*
X40685000Y8000000I0J-135000D01*
G01*
G37*
G36*
G01*
X41705000Y8000000D02*
X41705000Y7630000D01*
G75*
G02*
X41570000Y7495000I-135000J0D01*
G01*
X41300000Y7495000D01*
G75*
G02*
X41165000Y7630000I0J135000D01*
G01*
X41165000Y8000000D01*
G75*
G02*
X41300000Y8135000I135000J0D01*
G01*
X41570000Y8135000D01*
G75*
G02*
X41705000Y8000000I0J-135000D01*
G01*
G37*
%TD*%
%TO.C,C21*%
G36*
G01*
X41125000Y8670000D02*
X41125000Y9010000D01*
G75*
G02*
X41265000Y9150000I140000J0D01*
G01*
X41545000Y9150000D01*
G75*
G02*
X41685000Y9010000I0J-140000D01*
G01*
X41685000Y8670000D01*
G75*
G02*
X41545000Y8530000I-140000J0D01*
G01*
X41265000Y8530000D01*
G75*
G02*
X41125000Y8670000I0J140000D01*
G01*
G37*
G36*
G01*
X40165000Y8670000D02*
X40165000Y9010000D01*
G75*
G02*
X40305000Y9150000I140000J0D01*
G01*
X40585000Y9150000D01*
G75*
G02*
X40725000Y9010000I0J-140000D01*
G01*
X40725000Y8670000D01*
G75*
G02*
X40585000Y8530000I-140000J0D01*
G01*
X40305000Y8530000D01*
G75*
G02*
X40165000Y8670000I0J140000D01*
G01*
G37*
%TD*%
%TO.C,R14*%
G36*
G01*
X39440000Y24325000D02*
X39810000Y24325000D01*
G75*
G02*
X39945000Y24190000I0J-135000D01*
G01*
X39945000Y23920000D01*
G75*
G02*
X39810000Y23785000I-135000J0D01*
G01*
X39440000Y23785000D01*
G75*
G02*
X39305000Y23920000I0J135000D01*
G01*
X39305000Y24190000D01*
G75*
G02*
X39440000Y24325000I135000J0D01*
G01*
G37*
G36*
G01*
X39440000Y25345000D02*
X39810000Y25345000D01*
G75*
G02*
X39945000Y25210000I0J-135000D01*
G01*
X39945000Y24940000D01*
G75*
G02*
X39810000Y24805000I-135000J0D01*
G01*
X39440000Y24805000D01*
G75*
G02*
X39305000Y24940000I0J135000D01*
G01*
X39305000Y25210000D01*
G75*
G02*
X39440000Y25345000I135000J0D01*
G01*
G37*
%TD*%
%TO.C,R12*%
G36*
G01*
X40490000Y24325000D02*
X40860000Y24325000D01*
G75*
G02*
X40995000Y24190000I0J-135000D01*
G01*
X40995000Y23920000D01*
G75*
G02*
X40860000Y23785000I-135000J0D01*
G01*
X40490000Y23785000D01*
G75*
G02*
X40355000Y23920000I0J135000D01*
G01*
X40355000Y24190000D01*
G75*
G02*
X40490000Y24325000I135000J0D01*
G01*
G37*
G36*
G01*
X40490000Y25345000D02*
X40860000Y25345000D01*
G75*
G02*
X40995000Y25210000I0J-135000D01*
G01*
X40995000Y24940000D01*
G75*
G02*
X40860000Y24805000I-135000J0D01*
G01*
X40490000Y24805000D01*
G75*
G02*
X40355000Y24940000I0J135000D01*
G01*
X40355000Y25210000D01*
G75*
G02*
X40490000Y25345000I135000J0D01*
G01*
G37*
%TD*%
%TO.C,C26*%
G36*
G01*
X38745000Y24740000D02*
X38405000Y24740000D01*
G75*
G02*
X38265000Y24880000I0J140000D01*
G01*
X38265000Y25160000D01*
G75*
G02*
X38405000Y25300000I140000J0D01*
G01*
X38745000Y25300000D01*
G75*
G02*
X38885000Y25160000I0J-140000D01*
G01*
X38885000Y24880000D01*
G75*
G02*
X38745000Y24740000I-140000J0D01*
G01*
G37*
G36*
G01*
X38745000Y23780000D02*
X38405000Y23780000D01*
G75*
G02*
X38265000Y23920000I0J140000D01*
G01*
X38265000Y24200000D01*
G75*
G02*
X38405000Y24340000I140000J0D01*
G01*
X38745000Y24340000D01*
G75*
G02*
X38885000Y24200000I0J-140000D01*
G01*
X38885000Y23920000D01*
G75*
G02*
X38745000Y23780000I-140000J0D01*
G01*
G37*
%TD*%
%TO.C,C25*%
G36*
G01*
X41895000Y24765000D02*
X41555000Y24765000D01*
G75*
G02*
X41415000Y24905000I0J140000D01*
G01*
X41415000Y25185000D01*
G75*
G02*
X41555000Y25325000I140000J0D01*
G01*
X41895000Y25325000D01*
G75*
G02*
X42035000Y25185000I0J-140000D01*
G01*
X42035000Y24905000D01*
G75*
G02*
X41895000Y24765000I-140000J0D01*
G01*
G37*
G36*
G01*
X41895000Y23805000D02*
X41555000Y23805000D01*
G75*
G02*
X41415000Y23945000I0J140000D01*
G01*
X41415000Y24225000D01*
G75*
G02*
X41555000Y24365000I140000J0D01*
G01*
X41895000Y24365000D01*
G75*
G02*
X42035000Y24225000I0J-140000D01*
G01*
X42035000Y23945000D01*
G75*
G02*
X41895000Y23805000I-140000J0D01*
G01*
G37*
%TD*%
D12*
%TO.C,Q3*%
X39680000Y5580000D03*
X41680000Y4630000D03*
X41680000Y6530000D03*
%TD*%
%TO.C,L2*%
G36*
G01*
X27435000Y21470000D02*
X24505000Y21470000D01*
G75*
G02*
X24270000Y21705000I0J235000D01*
G01*
X24270000Y23585000D01*
G75*
G02*
X24505000Y23820000I235000J0D01*
G01*
X27435000Y23820000D01*
G75*
G02*
X27670000Y23585000I0J-235000D01*
G01*
X27670000Y21705000D01*
G75*
G02*
X27435000Y21470000I-235000J0D01*
G01*
G37*
G36*
G01*
X27435000Y15420000D02*
X24505000Y15420000D01*
G75*
G02*
X24270000Y15655000I0J235000D01*
G01*
X24270000Y17535000D01*
G75*
G02*
X24505000Y17770000I235000J0D01*
G01*
X27435000Y17770000D01*
G75*
G02*
X27670000Y17535000I0J-235000D01*
G01*
X27670000Y15655000D01*
G75*
G02*
X27435000Y15420000I-235000J0D01*
G01*
G37*
%TD*%
D13*
%TO.C,U3*%
X37070000Y1910000D03*
X37070000Y3810000D03*
X34450000Y3810000D03*
X34450000Y2860000D03*
X34450000Y1910000D03*
%TD*%
D14*
%TO.C,U2*%
X20790000Y17950000D03*
X20790000Y17000000D03*
X20790000Y18900000D03*
X18590000Y18900000D03*
X18590000Y17950000D03*
X18590000Y17000000D03*
%TD*%
%TO.C,R20*%
G36*
G01*
X27275000Y8265000D02*
X27825000Y8265000D01*
G75*
G02*
X28025000Y8065000I0J-200000D01*
G01*
X28025000Y7665000D01*
G75*
G02*
X27825000Y7465000I-200000J0D01*
G01*
X27275000Y7465000D01*
G75*
G02*
X27075000Y7665000I0J200000D01*
G01*
X27075000Y8065000D01*
G75*
G02*
X27275000Y8265000I200000J0D01*
G01*
G37*
G36*
G01*
X27275000Y9915000D02*
X27825000Y9915000D01*
G75*
G02*
X28025000Y9715000I0J-200000D01*
G01*
X28025000Y9315000D01*
G75*
G02*
X27825000Y9115000I-200000J0D01*
G01*
X27275000Y9115000D01*
G75*
G02*
X27075000Y9315000I0J200000D01*
G01*
X27075000Y9715000D01*
G75*
G02*
X27275000Y9915000I200000J0D01*
G01*
G37*
%TD*%
%TO.C,R17*%
G36*
G01*
X27265000Y5395000D02*
X27815000Y5395000D01*
G75*
G02*
X28015000Y5195000I0J-200000D01*
G01*
X28015000Y4795000D01*
G75*
G02*
X27815000Y4595000I-200000J0D01*
G01*
X27265000Y4595000D01*
G75*
G02*
X27065000Y4795000I0J200000D01*
G01*
X27065000Y5195000D01*
G75*
G02*
X27265000Y5395000I200000J0D01*
G01*
G37*
G36*
G01*
X27265000Y7045000D02*
X27815000Y7045000D01*
G75*
G02*
X28015000Y6845000I0J-200000D01*
G01*
X28015000Y6445000D01*
G75*
G02*
X27815000Y6245000I-200000J0D01*
G01*
X27265000Y6245000D01*
G75*
G02*
X27065000Y6445000I0J200000D01*
G01*
X27065000Y6845000D01*
G75*
G02*
X27265000Y7045000I200000J0D01*
G01*
G37*
%TD*%
%TO.C,R8*%
G36*
G01*
X16795000Y21045000D02*
X17345000Y21045000D01*
G75*
G02*
X17545000Y20845000I0J-200000D01*
G01*
X17545000Y20445000D01*
G75*
G02*
X17345000Y20245000I-200000J0D01*
G01*
X16795000Y20245000D01*
G75*
G02*
X16595000Y20445000I0J200000D01*
G01*
X16595000Y20845000D01*
G75*
G02*
X16795000Y21045000I200000J0D01*
G01*
G37*
G36*
G01*
X16795000Y22695000D02*
X17345000Y22695000D01*
G75*
G02*
X17545000Y22495000I0J-200000D01*
G01*
X17545000Y22095000D01*
G75*
G02*
X17345000Y21895000I-200000J0D01*
G01*
X16795000Y21895000D01*
G75*
G02*
X16595000Y22095000I0J200000D01*
G01*
X16595000Y22495000D01*
G75*
G02*
X16795000Y22695000I200000J0D01*
G01*
G37*
%TD*%
%TO.C,R7*%
G36*
G01*
X19295000Y22495000D02*
X19295000Y21945000D01*
G75*
G02*
X19095000Y21745000I-200000J0D01*
G01*
X18695000Y21745000D01*
G75*
G02*
X18495000Y21945000I0J200000D01*
G01*
X18495000Y22495000D01*
G75*
G02*
X18695000Y22695000I200000J0D01*
G01*
X19095000Y22695000D01*
G75*
G02*
X19295000Y22495000I0J-200000D01*
G01*
G37*
G36*
G01*
X20945000Y22495000D02*
X20945000Y21945000D01*
G75*
G02*
X20745000Y21745000I-200000J0D01*
G01*
X20345000Y21745000D01*
G75*
G02*
X20145000Y21945000I0J200000D01*
G01*
X20145000Y22495000D01*
G75*
G02*
X20345000Y22695000I200000J0D01*
G01*
X20745000Y22695000D01*
G75*
G02*
X20945000Y22495000I0J-200000D01*
G01*
G37*
%TD*%
D15*
%TO.C,J11*%
X41200000Y10340000D03*
%TD*%
%TO.C,J10*%
X26840000Y11040000D03*
%TD*%
D16*
%TO.C,D12*%
X25590000Y9010000D03*
X25590000Y5710000D03*
%TD*%
%TO.C,D7*%
X23435000Y5710000D03*
X23435000Y9010000D03*
%TD*%
%TO.C,D2*%
X21280000Y9010000D03*
X21280000Y5710000D03*
%TD*%
D17*
%TO.C,D1*%
X18835000Y10460000D03*
X18835000Y6860000D03*
X16485000Y10460000D03*
X16485000Y6860000D03*
%TD*%
%TO.C,C8*%
G36*
G01*
X19685000Y15440000D02*
X19685000Y15940000D01*
G75*
G02*
X19910000Y16165000I225000J0D01*
G01*
X20360000Y16165000D01*
G75*
G02*
X20585000Y15940000I0J-225000D01*
G01*
X20585000Y15440000D01*
G75*
G02*
X20360000Y15215000I-225000J0D01*
G01*
X19910000Y15215000D01*
G75*
G02*
X19685000Y15440000I0J225000D01*
G01*
G37*
G36*
G01*
X18135000Y15440000D02*
X18135000Y15940000D01*
G75*
G02*
X18360000Y16165000I225000J0D01*
G01*
X18810000Y16165000D01*
G75*
G02*
X19035000Y15940000I0J-225000D01*
G01*
X19035000Y15440000D01*
G75*
G02*
X18810000Y15215000I-225000J0D01*
G01*
X18360000Y15215000D01*
G75*
G02*
X18135000Y15440000I0J225000D01*
G01*
G37*
%TD*%
%TO.C,D3*%
G36*
G01*
X31625000Y19240000D02*
X32950000Y19240000D01*
G75*
G02*
X33025000Y19165000I0J-75000D01*
G01*
X33025000Y19015000D01*
G75*
G02*
X32950000Y18940000I-75000J0D01*
G01*
X31625000Y18940000D01*
G75*
G02*
X31550000Y19015000I0J75000D01*
G01*
X31550000Y19165000D01*
G75*
G02*
X31625000Y19240000I75000J0D01*
G01*
G37*
G36*
G01*
X31625000Y18740000D02*
X32950000Y18740000D01*
G75*
G02*
X33025000Y18665000I0J-75000D01*
G01*
X33025000Y18515000D01*
G75*
G02*
X32950000Y18440000I-75000J0D01*
G01*
X31625000Y18440000D01*
G75*
G02*
X31550000Y18515000I0J75000D01*
G01*
X31550000Y18665000D01*
G75*
G02*
X31625000Y18740000I75000J0D01*
G01*
G37*
G36*
G01*
X31625000Y18240000D02*
X32950000Y18240000D01*
G75*
G02*
X33025000Y18165000I0J-75000D01*
G01*
X33025000Y18015000D01*
G75*
G02*
X32950000Y17940000I-75000J0D01*
G01*
X31625000Y17940000D01*
G75*
G02*
X31550000Y18015000I0J75000D01*
G01*
X31550000Y18165000D01*
G75*
G02*
X31625000Y18240000I75000J0D01*
G01*
G37*
G36*
G01*
X31625000Y17740000D02*
X32950000Y17740000D01*
G75*
G02*
X33025000Y17665000I0J-75000D01*
G01*
X33025000Y17515000D01*
G75*
G02*
X32950000Y17440000I-75000J0D01*
G01*
X31625000Y17440000D01*
G75*
G02*
X31550000Y17515000I0J75000D01*
G01*
X31550000Y17665000D01*
G75*
G02*
X31625000Y17740000I75000J0D01*
G01*
G37*
G36*
G01*
X31625000Y17240000D02*
X32950000Y17240000D01*
G75*
G02*
X33025000Y17165000I0J-75000D01*
G01*
X33025000Y17015000D01*
G75*
G02*
X32950000Y16940000I-75000J0D01*
G01*
X31625000Y16940000D01*
G75*
G02*
X31550000Y17015000I0J75000D01*
G01*
X31550000Y17165000D01*
G75*
G02*
X31625000Y17240000I75000J0D01*
G01*
G37*
G36*
G01*
X31625000Y16740000D02*
X32950000Y16740000D01*
G75*
G02*
X33025000Y16665000I0J-75000D01*
G01*
X33025000Y16515000D01*
G75*
G02*
X32950000Y16440000I-75000J0D01*
G01*
X31625000Y16440000D01*
G75*
G02*
X31550000Y16515000I0J75000D01*
G01*
X31550000Y16665000D01*
G75*
G02*
X31625000Y16740000I75000J0D01*
G01*
G37*
G36*
G01*
X31625000Y16240000D02*
X32950000Y16240000D01*
G75*
G02*
X33025000Y16165000I0J-75000D01*
G01*
X33025000Y16015000D01*
G75*
G02*
X32950000Y15940000I-75000J0D01*
G01*
X31625000Y15940000D01*
G75*
G02*
X31550000Y16015000I0J75000D01*
G01*
X31550000Y16165000D01*
G75*
G02*
X31625000Y16240000I75000J0D01*
G01*
G37*
G36*
G01*
X31625000Y15740000D02*
X32950000Y15740000D01*
G75*
G02*
X33025000Y15665000I0J-75000D01*
G01*
X33025000Y15515000D01*
G75*
G02*
X32950000Y15440000I-75000J0D01*
G01*
X31625000Y15440000D01*
G75*
G02*
X31550000Y15515000I0J75000D01*
G01*
X31550000Y15665000D01*
G75*
G02*
X31625000Y15740000I75000J0D01*
G01*
G37*
G36*
G01*
X31625000Y15240000D02*
X32950000Y15240000D01*
G75*
G02*
X33025000Y15165000I0J-75000D01*
G01*
X33025000Y15015000D01*
G75*
G02*
X32950000Y14940000I-75000J0D01*
G01*
X31625000Y14940000D01*
G75*
G02*
X31550000Y15015000I0J75000D01*
G01*
X31550000Y15165000D01*
G75*
G02*
X31625000Y15240000I75000J0D01*
G01*
G37*
G36*
G01*
X31625000Y14740000D02*
X32950000Y14740000D01*
G75*
G02*
X33025000Y14665000I0J-75000D01*
G01*
X33025000Y14515000D01*
G75*
G02*
X32950000Y14440000I-75000J0D01*
G01*
X31625000Y14440000D01*
G75*
G02*
X31550000Y14515000I0J75000D01*
G01*
X31550000Y14665000D01*
G75*
G02*
X31625000Y14740000I75000J0D01*
G01*
G37*
G36*
G01*
X31625000Y14240000D02*
X32950000Y14240000D01*
G75*
G02*
X33025000Y14165000I0J-75000D01*
G01*
X33025000Y14015000D01*
G75*
G02*
X32950000Y13940000I-75000J0D01*
G01*
X31625000Y13940000D01*
G75*
G02*
X31550000Y14015000I0J75000D01*
G01*
X31550000Y14165000D01*
G75*
G02*
X31625000Y14240000I75000J0D01*
G01*
G37*
G36*
G01*
X31625000Y13740000D02*
X32950000Y13740000D01*
G75*
G02*
X33025000Y13665000I0J-75000D01*
G01*
X33025000Y13515000D01*
G75*
G02*
X32950000Y13440000I-75000J0D01*
G01*
X31625000Y13440000D01*
G75*
G02*
X31550000Y13515000I0J75000D01*
G01*
X31550000Y13665000D01*
G75*
G02*
X31625000Y13740000I75000J0D01*
G01*
G37*
G36*
G01*
X33625000Y12915000D02*
X33775000Y12915000D01*
G75*
G02*
X33850000Y12840000I0J-75000D01*
G01*
X33850000Y11515000D01*
G75*
G02*
X33775000Y11440000I-75000J0D01*
G01*
X33625000Y11440000D01*
G75*
G02*
X33550000Y11515000I0J75000D01*
G01*
X33550000Y12840000D01*
G75*
G02*
X33625000Y12915000I75000J0D01*
G01*
G37*
G36*
G01*
X34125000Y12915000D02*
X34275000Y12915000D01*
G75*
G02*
X34350000Y12840000I0J-75000D01*
G01*
X34350000Y11515000D01*
G75*
G02*
X34275000Y11440000I-75000J0D01*
G01*
X34125000Y11440000D01*
G75*
G02*
X34050000Y11515000I0J75000D01*
G01*
X34050000Y12840000D01*
G75*
G02*
X34125000Y12915000I75000J0D01*
G01*
G37*
G36*
G01*
X34625000Y12915000D02*
X34775000Y12915000D01*
G75*
G02*
X34850000Y12840000I0J-75000D01*
G01*
X34850000Y11515000D01*
G75*
G02*
X34775000Y11440000I-75000J0D01*
G01*
X34625000Y11440000D01*
G75*
G02*
X34550000Y11515000I0J75000D01*
G01*
X34550000Y12840000D01*
G75*
G02*
X34625000Y12915000I75000J0D01*
G01*
G37*
G36*
G01*
X35125000Y12915000D02*
X35275000Y12915000D01*
G75*
G02*
X35350000Y12840000I0J-75000D01*
G01*
X35350000Y11515000D01*
G75*
G02*
X35275000Y11440000I-75000J0D01*
G01*
X35125000Y11440000D01*
G75*
G02*
X35050000Y11515000I0J75000D01*
G01*
X35050000Y12840000D01*
G75*
G02*
X35125000Y12915000I75000J0D01*
G01*
G37*
G36*
G01*
X35625000Y12915000D02*
X35775000Y12915000D01*
G75*
G02*
X35850000Y12840000I0J-75000D01*
G01*
X35850000Y11515000D01*
G75*
G02*
X35775000Y11440000I-75000J0D01*
G01*
X35625000Y11440000D01*
G75*
G02*
X35550000Y11515000I0J75000D01*
G01*
X35550000Y12840000D01*
G75*
G02*
X35625000Y12915000I75000J0D01*
G01*
G37*
G36*
G01*
X36125000Y12915000D02*
X36275000Y12915000D01*
G75*
G02*
X36350000Y12840000I0J-75000D01*
G01*
X36350000Y11515000D01*
G75*
G02*
X36275000Y11440000I-75000J0D01*
G01*
X36125000Y11440000D01*
G75*
G02*
X36050000Y11515000I0J75000D01*
G01*
X36050000Y12840000D01*
G75*
G02*
X36125000Y12915000I75000J0D01*
G01*
G37*
G36*
G01*
X36625000Y12915000D02*
X36775000Y12915000D01*
G75*
G02*
X36850000Y12840000I0J-75000D01*
G01*
X36850000Y11515000D01*
G75*
G02*
X36775000Y11440000I-75000J0D01*
G01*
X36625000Y11440000D01*
G75*
G02*
X36550000Y11515000I0J75000D01*
G01*
X36550000Y12840000D01*
G75*
G02*
X36625000Y12915000I75000J0D01*
G01*
G37*
G36*
G01*
X37125000Y12915000D02*
X37275000Y12915000D01*
G75*
G02*
X37350000Y12840000I0J-75000D01*
G01*
X37350000Y11515000D01*
G75*
G02*
X37275000Y11440000I-75000J0D01*
G01*
X37125000Y11440000D01*
G75*
G02*
X37050000Y11515000I0J75000D01*
G01*
X37050000Y12840000D01*
G75*
G02*
X37125000Y12915000I75000J0D01*
G01*
G37*
G36*
G01*
X37625000Y12915000D02*
X37775000Y12915000D01*
G75*
G02*
X37850000Y12840000I0J-75000D01*
G01*
X37850000Y11515000D01*
G75*
G02*
X37775000Y11440000I-75000J0D01*
G01*
X37625000Y11440000D01*
G75*
G02*
X37550000Y11515000I0J75000D01*
G01*
X37550000Y12840000D01*
G75*
G02*
X37625000Y12915000I75000J0D01*
G01*
G37*
G36*
G01*
X38125000Y12915000D02*
X38275000Y12915000D01*
G75*
G02*
X38350000Y12840000I0J-75000D01*
G01*
X38350000Y11515000D01*
G75*
G02*
X38275000Y11440000I-75000J0D01*
G01*
X38125000Y11440000D01*
G75*
G02*
X38050000Y11515000I0J75000D01*
G01*
X38050000Y12840000D01*
G75*
G02*
X38125000Y12915000I75000J0D01*
G01*
G37*
G36*
G01*
X38625000Y12915000D02*
X38775000Y12915000D01*
G75*
G02*
X38850000Y12840000I0J-75000D01*
G01*
X38850000Y11515000D01*
G75*
G02*
X38775000Y11440000I-75000J0D01*
G01*
X38625000Y11440000D01*
G75*
G02*
X38550000Y11515000I0J75000D01*
G01*
X38550000Y12840000D01*
G75*
G02*
X38625000Y12915000I75000J0D01*
G01*
G37*
G36*
G01*
X39125000Y12915000D02*
X39275000Y12915000D01*
G75*
G02*
X39350000Y12840000I0J-75000D01*
G01*
X39350000Y11515000D01*
G75*
G02*
X39275000Y11440000I-75000J0D01*
G01*
X39125000Y11440000D01*
G75*
G02*
X39050000Y11515000I0J75000D01*
G01*
X39050000Y12840000D01*
G75*
G02*
X39125000Y12915000I75000J0D01*
G01*
G37*
G36*
G01*
X39950000Y13740000D02*
X41275000Y13740000D01*
G75*
G02*
X41350000Y13665000I0J-75000D01*
G01*
X41350000Y13515000D01*
G75*
G02*
X41275000Y13440000I-75000J0D01*
G01*
X39950000Y13440000D01*
G75*
G02*
X39875000Y13515000I0J75000D01*
G01*
X39875000Y13665000D01*
G75*
G02*
X39950000Y13740000I75000J0D01*
G01*
G37*
G36*
G01*
X39950000Y14240000D02*
X41275000Y14240000D01*
G75*
G02*
X41350000Y14165000I0J-75000D01*
G01*
X41350000Y14015000D01*
G75*
G02*
X41275000Y13940000I-75000J0D01*
G01*
X39950000Y13940000D01*
G75*
G02*
X39875000Y14015000I0J75000D01*
G01*
X39875000Y14165000D01*
G75*
G02*
X39950000Y14240000I75000J0D01*
G01*
G37*
G36*
G01*
X39950000Y14740000D02*
X41275000Y14740000D01*
G75*
G02*
X41350000Y14665000I0J-75000D01*
G01*
X41350000Y14515000D01*
G75*
G02*
X41275000Y14440000I-75000J0D01*
G01*
X39950000Y14440000D01*
G75*
G02*
X39875000Y14515000I0J75000D01*
G01*
X39875000Y14665000D01*
G75*
G02*
X39950000Y14740000I75000J0D01*
G01*
G37*
G36*
G01*
X39950000Y15240000D02*
X41275000Y15240000D01*
G75*
G02*
X41350000Y15165000I0J-75000D01*
G01*
X41350000Y15015000D01*
G75*
G02*
X41275000Y14940000I-75000J0D01*
G01*
X39950000Y14940000D01*
G75*
G02*
X39875000Y15015000I0J75000D01*
G01*
X39875000Y15165000D01*
G75*
G02*
X39950000Y15240000I75000J0D01*
G01*
G37*
G36*
G01*
X39950000Y15740000D02*
X41275000Y15740000D01*
G75*
G02*
X41350000Y15665000I0J-75000D01*
G01*
X41350000Y15515000D01*
G75*
G02*
X41275000Y15440000I-75000J0D01*
G01*
X39950000Y15440000D01*
G75*
G02*
X39875000Y15515000I0J75000D01*
G01*
X39875000Y15665000D01*
G75*
G02*
X39950000Y15740000I75000J0D01*
G01*
G37*
G36*
G01*
X39950000Y16240000D02*
X41275000Y16240000D01*
G75*
G02*
X41350000Y16165000I0J-75000D01*
G01*
X41350000Y16015000D01*
G75*
G02*
X41275000Y15940000I-75000J0D01*
G01*
X39950000Y15940000D01*
G75*
G02*
X39875000Y16015000I0J75000D01*
G01*
X39875000Y16165000D01*
G75*
G02*
X39950000Y16240000I75000J0D01*
G01*
G37*
G36*
G01*
X39950000Y16740000D02*
X41275000Y16740000D01*
G75*
G02*
X41350000Y16665000I0J-75000D01*
G01*
X41350000Y16515000D01*
G75*
G02*
X41275000Y16440000I-75000J0D01*
G01*
X39950000Y16440000D01*
G75*
G02*
X39875000Y16515000I0J75000D01*
G01*
X39875000Y16665000D01*
G75*
G02*
X39950000Y16740000I75000J0D01*
G01*
G37*
G36*
G01*
X39950000Y17240000D02*
X41275000Y17240000D01*
G75*
G02*
X41350000Y17165000I0J-75000D01*
G01*
X41350000Y17015000D01*
G75*
G02*
X41275000Y16940000I-75000J0D01*
G01*
X39950000Y16940000D01*
G75*
G02*
X39875000Y17015000I0J75000D01*
G01*
X39875000Y17165000D01*
G75*
G02*
X39950000Y17240000I75000J0D01*
G01*
G37*
G36*
G01*
X39950000Y17740000D02*
X41275000Y17740000D01*
G75*
G02*
X41350000Y17665000I0J-75000D01*
G01*
X41350000Y17515000D01*
G75*
G02*
X41275000Y17440000I-75000J0D01*
G01*
X39950000Y17440000D01*
G75*
G02*
X39875000Y17515000I0J75000D01*
G01*
X39875000Y17665000D01*
G75*
G02*
X39950000Y17740000I75000J0D01*
G01*
G37*
G36*
G01*
X39950000Y18240000D02*
X41275000Y18240000D01*
G75*
G02*
X41350000Y18165000I0J-75000D01*
G01*
X41350000Y18015000D01*
G75*
G02*
X41275000Y17940000I-75000J0D01*
G01*
X39950000Y17940000D01*
G75*
G02*
X39875000Y18015000I0J75000D01*
G01*
X39875000Y18165000D01*
G75*
G02*
X39950000Y18240000I75000J0D01*
G01*
G37*
G36*
G01*
X39950000Y18740000D02*
X41275000Y18740000D01*
G75*
G02*
X41350000Y18665000I0J-75000D01*
G01*
X41350000Y18515000D01*
G75*
G02*
X41275000Y18440000I-75000J0D01*
G01*
X39950000Y18440000D01*
G75*
G02*
X39875000Y18515000I0J75000D01*
G01*
X39875000Y18665000D01*
G75*
G02*
X39950000Y18740000I75000J0D01*
G01*
G37*
G36*
G01*
X39950000Y19240000D02*
X41275000Y19240000D01*
G75*
G02*
X41350000Y19165000I0J-75000D01*
G01*
X41350000Y19015000D01*
G75*
G02*
X41275000Y18940000I-75000J0D01*
G01*
X39950000Y18940000D01*
G75*
G02*
X39875000Y19015000I0J75000D01*
G01*
X39875000Y19165000D01*
G75*
G02*
X39950000Y19240000I75000J0D01*
G01*
G37*
G36*
G01*
X39125000Y21240000D02*
X39275000Y21240000D01*
G75*
G02*
X39350000Y21165000I0J-75000D01*
G01*
X39350000Y19840000D01*
G75*
G02*
X39275000Y19765000I-75000J0D01*
G01*
X39125000Y19765000D01*
G75*
G02*
X39050000Y19840000I0J75000D01*
G01*
X39050000Y21165000D01*
G75*
G02*
X39125000Y21240000I75000J0D01*
G01*
G37*
G36*
G01*
X38625000Y21240000D02*
X38775000Y21240000D01*
G75*
G02*
X38850000Y21165000I0J-75000D01*
G01*
X38850000Y19840000D01*
G75*
G02*
X38775000Y19765000I-75000J0D01*
G01*
X38625000Y19765000D01*
G75*
G02*
X38550000Y19840000I0J75000D01*
G01*
X38550000Y21165000D01*
G75*
G02*
X38625000Y21240000I75000J0D01*
G01*
G37*
G36*
G01*
X38125000Y21240000D02*
X38275000Y21240000D01*
G75*
G02*
X38350000Y21165000I0J-75000D01*
G01*
X38350000Y19840000D01*
G75*
G02*
X38275000Y19765000I-75000J0D01*
G01*
X38125000Y19765000D01*
G75*
G02*
X38050000Y19840000I0J75000D01*
G01*
X38050000Y21165000D01*
G75*
G02*
X38125000Y21240000I75000J0D01*
G01*
G37*
G36*
G01*
X37625000Y21240000D02*
X37775000Y21240000D01*
G75*
G02*
X37850000Y21165000I0J-75000D01*
G01*
X37850000Y19840000D01*
G75*
G02*
X37775000Y19765000I-75000J0D01*
G01*
X37625000Y19765000D01*
G75*
G02*
X37550000Y19840000I0J75000D01*
G01*
X37550000Y21165000D01*
G75*
G02*
X37625000Y21240000I75000J0D01*
G01*
G37*
G36*
G01*
X37125000Y21240000D02*
X37275000Y21240000D01*
G75*
G02*
X37350000Y21165000I0J-75000D01*
G01*
X37350000Y19840000D01*
G75*
G02*
X37275000Y19765000I-75000J0D01*
G01*
X37125000Y19765000D01*
G75*
G02*
X37050000Y19840000I0J75000D01*
G01*
X37050000Y21165000D01*
G75*
G02*
X37125000Y21240000I75000J0D01*
G01*
G37*
G36*
G01*
X36625000Y21240000D02*
X36775000Y21240000D01*
G75*
G02*
X36850000Y21165000I0J-75000D01*
G01*
X36850000Y19840000D01*
G75*
G02*
X36775000Y19765000I-75000J0D01*
G01*
X36625000Y19765000D01*
G75*
G02*
X36550000Y19840000I0J75000D01*
G01*
X36550000Y21165000D01*
G75*
G02*
X36625000Y21240000I75000J0D01*
G01*
G37*
G36*
G01*
X36125000Y21240000D02*
X36275000Y21240000D01*
G75*
G02*
X36350000Y21165000I0J-75000D01*
G01*
X36350000Y19840000D01*
G75*
G02*
X36275000Y19765000I-75000J0D01*
G01*
X36125000Y19765000D01*
G75*
G02*
X36050000Y19840000I0J75000D01*
G01*
X36050000Y21165000D01*
G75*
G02*
X36125000Y21240000I75000J0D01*
G01*
G37*
G36*
G01*
X35625000Y21240000D02*
X35775000Y21240000D01*
G75*
G02*
X35850000Y21165000I0J-75000D01*
G01*
X35850000Y19840000D01*
G75*
G02*
X35775000Y19765000I-75000J0D01*
G01*
X35625000Y19765000D01*
G75*
G02*
X35550000Y19840000I0J75000D01*
G01*
X35550000Y21165000D01*
G75*
G02*
X35625000Y21240000I75000J0D01*
G01*
G37*
G36*
G01*
X35125000Y21240000D02*
X35275000Y21240000D01*
G75*
G02*
X35350000Y21165000I0J-75000D01*
G01*
X35350000Y19840000D01*
G75*
G02*
X35275000Y19765000I-75000J0D01*
G01*
X35125000Y19765000D01*
G75*
G02*
X35050000Y19840000I0J75000D01*
G01*
X35050000Y21165000D01*
G75*
G02*
X35125000Y21240000I75000J0D01*
G01*
G37*
G36*
G01*
X34625000Y21240000D02*
X34775000Y21240000D01*
G75*
G02*
X34850000Y21165000I0J-75000D01*
G01*
X34850000Y19840000D01*
G75*
G02*
X34775000Y19765000I-75000J0D01*
G01*
X34625000Y19765000D01*
G75*
G02*
X34550000Y19840000I0J75000D01*
G01*
X34550000Y21165000D01*
G75*
G02*
X34625000Y21240000I75000J0D01*
G01*
G37*
G36*
G01*
X34125000Y21240000D02*
X34275000Y21240000D01*
G75*
G02*
X34350000Y21165000I0J-75000D01*
G01*
X34350000Y19840000D01*
G75*
G02*
X34275000Y19765000I-75000J0D01*
G01*
X34125000Y19765000D01*
G75*
G02*
X34050000Y19840000I0J75000D01*
G01*
X34050000Y21165000D01*
G75*
G02*
X34125000Y21240000I75000J0D01*
G01*
G37*
G36*
G01*
X33625000Y21240000D02*
X33775000Y21240000D01*
G75*
G02*
X33850000Y21165000I0J-75000D01*
G01*
X33850000Y19840000D01*
G75*
G02*
X33775000Y19765000I-75000J0D01*
G01*
X33625000Y19765000D01*
G75*
G02*
X33550000Y19840000I0J75000D01*
G01*
X33550000Y21165000D01*
G75*
G02*
X33625000Y21240000I75000J0D01*
G01*
G37*
%TD*%
%TO.C,C1*%
G36*
G01*
X19020000Y20875000D02*
X19020000Y19925000D01*
G75*
G02*
X18770000Y19675000I-250000J0D01*
G01*
X18270000Y19675000D01*
G75*
G02*
X18020000Y19925000I0J250000D01*
G01*
X18020000Y20875000D01*
G75*
G02*
X18270000Y21125000I250000J0D01*
G01*
X18770000Y21125000D01*
G75*
G02*
X19020000Y20875000I0J-250000D01*
G01*
G37*
G36*
G01*
X20920000Y20875000D02*
X20920000Y19925000D01*
G75*
G02*
X20670000Y19675000I-250000J0D01*
G01*
X20170000Y19675000D01*
G75*
G02*
X19920000Y19925000I0J250000D01*
G01*
X19920000Y20875000D01*
G75*
G02*
X20170000Y21125000I250000J0D01*
G01*
X20670000Y21125000D01*
G75*
G02*
X20920000Y20875000I0J-250000D01*
G01*
G37*
%TD*%
D18*
%TO.C,T1*%
X35575000Y42235000D03*
X35575000Y26745000D03*
D15*
X28445000Y38575000D03*
X28445000Y41115000D03*
X28445000Y30405000D03*
X28445000Y27865000D03*
X38875000Y30045000D03*
X38875000Y32585000D03*
X38875000Y35125000D03*
X38875000Y37665000D03*
X38875000Y40205000D03*
X41415000Y28775000D03*
X41415000Y31315000D03*
X41415000Y33855000D03*
X41415000Y36395000D03*
X41415000Y38935000D03*
%TD*%
%TO.C,R11*%
G36*
G01*
X38440000Y21805000D02*
X38440000Y22175000D01*
G75*
G02*
X38575000Y22310000I135000J0D01*
G01*
X38845000Y22310000D01*
G75*
G02*
X38980000Y22175000I0J-135000D01*
G01*
X38980000Y21805000D01*
G75*
G02*
X38845000Y21670000I-135000J0D01*
G01*
X38575000Y21670000D01*
G75*
G02*
X38440000Y21805000I0J135000D01*
G01*
G37*
G36*
G01*
X37420000Y21805000D02*
X37420000Y22175000D01*
G75*
G02*
X37555000Y22310000I135000J0D01*
G01*
X37825000Y22310000D01*
G75*
G02*
X37960000Y22175000I0J-135000D01*
G01*
X37960000Y21805000D01*
G75*
G02*
X37825000Y21670000I-135000J0D01*
G01*
X37555000Y21670000D01*
G75*
G02*
X37420000Y21805000I0J135000D01*
G01*
G37*
%TD*%
D19*
%TO.C,Y2*%
X35225000Y7240000D03*
X37425000Y7240000D03*
X37425000Y8840000D03*
X35225000Y8840000D03*
%TD*%
D20*
%TO.C,D14*%
X12800000Y17485000D03*
X10300000Y17485000D03*
X7800000Y17485000D03*
X5300000Y17485000D03*
X2800000Y17485000D03*
X2800000Y945000D03*
X5300000Y945000D03*
X7800000Y945000D03*
X10300000Y945000D03*
X12800000Y945000D03*
%TD*%
%TO.C,R1*%
G36*
G01*
X35660000Y10425000D02*
X35660000Y10055000D01*
G75*
G02*
X35525000Y9920000I-135000J0D01*
G01*
X35255000Y9920000D01*
G75*
G02*
X35120000Y10055000I0J135000D01*
G01*
X35120000Y10425000D01*
G75*
G02*
X35255000Y10560000I135000J0D01*
G01*
X35525000Y10560000D01*
G75*
G02*
X35660000Y10425000I0J-135000D01*
G01*
G37*
G36*
G01*
X36680000Y10425000D02*
X36680000Y10055000D01*
G75*
G02*
X36545000Y9920000I-135000J0D01*
G01*
X36275000Y9920000D01*
G75*
G02*
X36140000Y10055000I0J135000D01*
G01*
X36140000Y10425000D01*
G75*
G02*
X36275000Y10560000I135000J0D01*
G01*
X36545000Y10560000D01*
G75*
G02*
X36680000Y10425000I0J-135000D01*
G01*
G37*
%TD*%
%TO.C,C7*%
G36*
G01*
X39045000Y8265000D02*
X38705000Y8265000D01*
G75*
G02*
X38565000Y8405000I0J140000D01*
G01*
X38565000Y8685000D01*
G75*
G02*
X38705000Y8825000I140000J0D01*
G01*
X39045000Y8825000D01*
G75*
G02*
X39185000Y8685000I0J-140000D01*
G01*
X39185000Y8405000D01*
G75*
G02*
X39045000Y8265000I-140000J0D01*
G01*
G37*
G36*
G01*
X39045000Y7305000D02*
X38705000Y7305000D01*
G75*
G02*
X38565000Y7445000I0J140000D01*
G01*
X38565000Y7725000D01*
G75*
G02*
X38705000Y7865000I140000J0D01*
G01*
X39045000Y7865000D01*
G75*
G02*
X39185000Y7725000I0J-140000D01*
G01*
X39185000Y7445000D01*
G75*
G02*
X39045000Y7305000I-140000J0D01*
G01*
G37*
%TD*%
%TO.C,C4*%
G36*
G01*
X33630000Y7890000D02*
X33970000Y7890000D01*
G75*
G02*
X34110000Y7750000I0J-140000D01*
G01*
X34110000Y7470000D01*
G75*
G02*
X33970000Y7330000I-140000J0D01*
G01*
X33630000Y7330000D01*
G75*
G02*
X33490000Y7470000I0J140000D01*
G01*
X33490000Y7750000D01*
G75*
G02*
X33630000Y7890000I140000J0D01*
G01*
G37*
G36*
G01*
X33630000Y8850000D02*
X33970000Y8850000D01*
G75*
G02*
X34110000Y8710000I0J-140000D01*
G01*
X34110000Y8430000D01*
G75*
G02*
X33970000Y8290000I-140000J0D01*
G01*
X33630000Y8290000D01*
G75*
G02*
X33490000Y8430000I0J140000D01*
G01*
X33490000Y8710000D01*
G75*
G02*
X33630000Y8850000I140000J0D01*
G01*
G37*
%TD*%
%TO.C,C14*%
G36*
G01*
X38300000Y10460000D02*
X38300000Y10120000D01*
G75*
G02*
X38160000Y9980000I-140000J0D01*
G01*
X37880000Y9980000D01*
G75*
G02*
X37740000Y10120000I0J140000D01*
G01*
X37740000Y10460000D01*
G75*
G02*
X37880000Y10600000I140000J0D01*
G01*
X38160000Y10600000D01*
G75*
G02*
X38300000Y10460000I0J-140000D01*
G01*
G37*
G36*
G01*
X39260000Y10460000D02*
X39260000Y10120000D01*
G75*
G02*
X39120000Y9980000I-140000J0D01*
G01*
X38840000Y9980000D01*
G75*
G02*
X38700000Y10120000I0J140000D01*
G01*
X38700000Y10460000D01*
G75*
G02*
X38840000Y10600000I140000J0D01*
G01*
X39120000Y10600000D01*
G75*
G02*
X39260000Y10460000I0J-140000D01*
G01*
G37*
%TD*%
%TO.C,C12*%
G36*
G01*
X42350000Y15735000D02*
X42350000Y15395000D01*
G75*
G02*
X42210000Y15255000I-140000J0D01*
G01*
X41930000Y15255000D01*
G75*
G02*
X41790000Y15395000I0J140000D01*
G01*
X41790000Y15735000D01*
G75*
G02*
X41930000Y15875000I140000J0D01*
G01*
X42210000Y15875000D01*
G75*
G02*
X42350000Y15735000I0J-140000D01*
G01*
G37*
G36*
G01*
X43310000Y15735000D02*
X43310000Y15395000D01*
G75*
G02*
X43170000Y15255000I-140000J0D01*
G01*
X42890000Y15255000D01*
G75*
G02*
X42750000Y15395000I0J140000D01*
G01*
X42750000Y15735000D01*
G75*
G02*
X42890000Y15875000I140000J0D01*
G01*
X43170000Y15875000D01*
G75*
G02*
X43310000Y15735000I0J-140000D01*
G01*
G37*
%TD*%
%TO.C,C10*%
G36*
G01*
X42325000Y14710000D02*
X42325000Y14370000D01*
G75*
G02*
X42185000Y14230000I-140000J0D01*
G01*
X41905000Y14230000D01*
G75*
G02*
X41765000Y14370000I0J140000D01*
G01*
X41765000Y14710000D01*
G75*
G02*
X41905000Y14850000I140000J0D01*
G01*
X42185000Y14850000D01*
G75*
G02*
X42325000Y14710000I0J-140000D01*
G01*
G37*
G36*
G01*
X43285000Y14710000D02*
X43285000Y14370000D01*
G75*
G02*
X43145000Y14230000I-140000J0D01*
G01*
X42865000Y14230000D01*
G75*
G02*
X42725000Y14370000I0J140000D01*
G01*
X42725000Y14710000D01*
G75*
G02*
X42865000Y14850000I140000J0D01*
G01*
X43145000Y14850000D01*
G75*
G02*
X43285000Y14710000I0J-140000D01*
G01*
G37*
%TD*%
M02*
