%TF.GenerationSoftware,KiCad,Pcbnew,5.1.9+dfsg1-1*%
%TF.CreationDate,2022-09-13T11:04:29+03:00*%
%TF.ProjectId,Meteostation,4d657465-6f73-4746-9174-696f6e2e6b69,rev?*%
%TF.SameCoordinates,Original*%
%TF.FileFunction,Soldermask,Bot*%
%TF.FilePolarity,Negative*%
%FSLAX46Y46*%
G04 Gerber Fmt 4.6, Leading zero omitted, Abs format (unit mm)*
G04 Created by KiCad (PCBNEW 5.1.9+dfsg1-1) date 2022-09-13 11:04:29*
%MOMM*%
%LPD*%
G01*
G04 APERTURE LIST*
%ADD10R,1.800000X1.800000*%
%ADD11R,1.700000X1.000000*%
%ADD12R,1.000000X1.700000*%
%ADD13R,0.800000X0.900000*%
%ADD14R,1.220000X0.650000*%
%ADD15R,0.900000X0.800000*%
%ADD16C,1.524000*%
%ADD17R,1.200000X0.900000*%
%ADD18R,1.100000X1.200000*%
%ADD19C,3.000000*%
%ADD20R,2.100000X1.400000*%
%ADD21R,1.400000X1.200000*%
%ADD22R,1.270000X1.550000*%
G04 APERTURE END LIST*
%TO.C,C32*%
G36*
G01*
X42525000Y-77500000D02*
X42525000Y-77000000D01*
G75*
G02*
X42750000Y-76775000I225000J0D01*
G01*
X43200000Y-76775000D01*
G75*
G02*
X43425000Y-77000000I0J-225000D01*
G01*
X43425000Y-77500000D01*
G75*
G02*
X43200000Y-77725000I-225000J0D01*
G01*
X42750000Y-77725000D01*
G75*
G02*
X42525000Y-77500000I0J225000D01*
G01*
G37*
G36*
G01*
X40975000Y-77500000D02*
X40975000Y-77000000D01*
G75*
G02*
X41200000Y-76775000I225000J0D01*
G01*
X41650000Y-76775000D01*
G75*
G02*
X41875000Y-77000000I0J-225000D01*
G01*
X41875000Y-77500000D01*
G75*
G02*
X41650000Y-77725000I-225000J0D01*
G01*
X41200000Y-77725000D01*
G75*
G02*
X40975000Y-77500000I0J225000D01*
G01*
G37*
%TD*%
%TO.C,C2*%
G36*
G01*
X34575000Y-100675000D02*
X35525000Y-100675000D01*
G75*
G02*
X35775000Y-100925000I0J-250000D01*
G01*
X35775000Y-101425000D01*
G75*
G02*
X35525000Y-101675000I-250000J0D01*
G01*
X34575000Y-101675000D01*
G75*
G02*
X34325000Y-101425000I0J250000D01*
G01*
X34325000Y-100925000D01*
G75*
G02*
X34575000Y-100675000I250000J0D01*
G01*
G37*
G36*
G01*
X34575000Y-98775000D02*
X35525000Y-98775000D01*
G75*
G02*
X35775000Y-99025000I0J-250000D01*
G01*
X35775000Y-99525000D01*
G75*
G02*
X35525000Y-99775000I-250000J0D01*
G01*
X34575000Y-99775000D01*
G75*
G02*
X34325000Y-99525000I0J250000D01*
G01*
X34325000Y-99025000D01*
G75*
G02*
X34575000Y-98775000I250000J0D01*
G01*
G37*
%TD*%
%TO.C,R25*%
G36*
G01*
X61740000Y-97010000D02*
X61740000Y-96640000D01*
G75*
G02*
X61875000Y-96505000I135000J0D01*
G01*
X62145000Y-96505000D01*
G75*
G02*
X62280000Y-96640000I0J-135000D01*
G01*
X62280000Y-97010000D01*
G75*
G02*
X62145000Y-97145000I-135000J0D01*
G01*
X61875000Y-97145000D01*
G75*
G02*
X61740000Y-97010000I0J135000D01*
G01*
G37*
G36*
G01*
X60720000Y-97010000D02*
X60720000Y-96640000D01*
G75*
G02*
X60855000Y-96505000I135000J0D01*
G01*
X61125000Y-96505000D01*
G75*
G02*
X61260000Y-96640000I0J-135000D01*
G01*
X61260000Y-97010000D01*
G75*
G02*
X61125000Y-97145000I-135000J0D01*
G01*
X60855000Y-97145000D01*
G75*
G02*
X60720000Y-97010000I0J135000D01*
G01*
G37*
%TD*%
%TO.C,C21*%
G36*
G01*
X61325000Y-95605000D02*
X61325000Y-95945000D01*
G75*
G02*
X61185000Y-96085000I-140000J0D01*
G01*
X60905000Y-96085000D01*
G75*
G02*
X60765000Y-95945000I0J140000D01*
G01*
X60765000Y-95605000D01*
G75*
G02*
X60905000Y-95465000I140000J0D01*
G01*
X61185000Y-95465000D01*
G75*
G02*
X61325000Y-95605000I0J-140000D01*
G01*
G37*
G36*
G01*
X62285000Y-95605000D02*
X62285000Y-95945000D01*
G75*
G02*
X62145000Y-96085000I-140000J0D01*
G01*
X61865000Y-96085000D01*
G75*
G02*
X61725000Y-95945000I0J140000D01*
G01*
X61725000Y-95605000D01*
G75*
G02*
X61865000Y-95465000I140000J0D01*
G01*
X62145000Y-95465000D01*
G75*
G02*
X62285000Y-95605000I0J-140000D01*
G01*
G37*
%TD*%
%TO.C,R13*%
G36*
G01*
X52400000Y-101625001D02*
X52400000Y-99474999D01*
G75*
G02*
X52649999Y-99225000I249999J0D01*
G01*
X53275001Y-99225000D01*
G75*
G02*
X53525000Y-99474999I0J-249999D01*
G01*
X53525000Y-101625001D01*
G75*
G02*
X53275001Y-101875000I-249999J0D01*
G01*
X52649999Y-101875000D01*
G75*
G02*
X52400000Y-101625001I0J249999D01*
G01*
G37*
G36*
G01*
X49475000Y-101625001D02*
X49475000Y-99474999D01*
G75*
G02*
X49724999Y-99225000I249999J0D01*
G01*
X50350001Y-99225000D01*
G75*
G02*
X50600000Y-99474999I0J-249999D01*
G01*
X50600000Y-101625001D01*
G75*
G02*
X50350001Y-101875000I-249999J0D01*
G01*
X49724999Y-101875000D01*
G75*
G02*
X49475000Y-101625001I0J249999D01*
G01*
G37*
%TD*%
%TO.C,R14*%
G36*
G01*
X58565000Y-79940000D02*
X58935000Y-79940000D01*
G75*
G02*
X59070000Y-80075000I0J-135000D01*
G01*
X59070000Y-80345000D01*
G75*
G02*
X58935000Y-80480000I-135000J0D01*
G01*
X58565000Y-80480000D01*
G75*
G02*
X58430000Y-80345000I0J135000D01*
G01*
X58430000Y-80075000D01*
G75*
G02*
X58565000Y-79940000I135000J0D01*
G01*
G37*
G36*
G01*
X58565000Y-78920000D02*
X58935000Y-78920000D01*
G75*
G02*
X59070000Y-79055000I0J-135000D01*
G01*
X59070000Y-79325000D01*
G75*
G02*
X58935000Y-79460000I-135000J0D01*
G01*
X58565000Y-79460000D01*
G75*
G02*
X58430000Y-79325000I0J135000D01*
G01*
X58430000Y-79055000D01*
G75*
G02*
X58565000Y-78920000I135000J0D01*
G01*
G37*
%TD*%
%TO.C,R12*%
G36*
G01*
X59665000Y-79940000D02*
X60035000Y-79940000D01*
G75*
G02*
X60170000Y-80075000I0J-135000D01*
G01*
X60170000Y-80345000D01*
G75*
G02*
X60035000Y-80480000I-135000J0D01*
G01*
X59665000Y-80480000D01*
G75*
G02*
X59530000Y-80345000I0J135000D01*
G01*
X59530000Y-80075000D01*
G75*
G02*
X59665000Y-79940000I135000J0D01*
G01*
G37*
G36*
G01*
X59665000Y-78920000D02*
X60035000Y-78920000D01*
G75*
G02*
X60170000Y-79055000I0J-135000D01*
G01*
X60170000Y-79325000D01*
G75*
G02*
X60035000Y-79460000I-135000J0D01*
G01*
X59665000Y-79460000D01*
G75*
G02*
X59530000Y-79325000I0J135000D01*
G01*
X59530000Y-79055000D01*
G75*
G02*
X59665000Y-78920000I135000J0D01*
G01*
G37*
%TD*%
%TO.C,C26*%
G36*
G01*
X57870000Y-79525000D02*
X57530000Y-79525000D01*
G75*
G02*
X57390000Y-79385000I0J140000D01*
G01*
X57390000Y-79105000D01*
G75*
G02*
X57530000Y-78965000I140000J0D01*
G01*
X57870000Y-78965000D01*
G75*
G02*
X58010000Y-79105000I0J-140000D01*
G01*
X58010000Y-79385000D01*
G75*
G02*
X57870000Y-79525000I-140000J0D01*
G01*
G37*
G36*
G01*
X57870000Y-80485000D02*
X57530000Y-80485000D01*
G75*
G02*
X57390000Y-80345000I0J140000D01*
G01*
X57390000Y-80065000D01*
G75*
G02*
X57530000Y-79925000I140000J0D01*
G01*
X57870000Y-79925000D01*
G75*
G02*
X58010000Y-80065000I0J-140000D01*
G01*
X58010000Y-80345000D01*
G75*
G02*
X57870000Y-80485000I-140000J0D01*
G01*
G37*
%TD*%
%TO.C,C25*%
G36*
G01*
X61070000Y-79500000D02*
X60730000Y-79500000D01*
G75*
G02*
X60590000Y-79360000I0J140000D01*
G01*
X60590000Y-79080000D01*
G75*
G02*
X60730000Y-78940000I140000J0D01*
G01*
X61070000Y-78940000D01*
G75*
G02*
X61210000Y-79080000I0J-140000D01*
G01*
X61210000Y-79360000D01*
G75*
G02*
X61070000Y-79500000I-140000J0D01*
G01*
G37*
G36*
G01*
X61070000Y-80460000D02*
X60730000Y-80460000D01*
G75*
G02*
X60590000Y-80320000I0J140000D01*
G01*
X60590000Y-80040000D01*
G75*
G02*
X60730000Y-79900000I140000J0D01*
G01*
X61070000Y-79900000D01*
G75*
G02*
X61210000Y-80040000I0J-140000D01*
G01*
X61210000Y-80320000D01*
G75*
G02*
X61070000Y-80460000I-140000J0D01*
G01*
G37*
%TD*%
D10*
%TO.C,D15*%
X41450000Y-84600000D03*
X38950000Y-84600000D03*
X38950000Y-82100000D03*
X41450000Y-82100000D03*
D11*
X44200000Y-80850000D03*
X44200000Y-82100000D03*
X44200000Y-83350000D03*
X44200000Y-84600000D03*
X44200000Y-85850000D03*
D12*
X42700000Y-87350000D03*
X41450000Y-87350000D03*
X40200000Y-87350000D03*
X38950000Y-87350000D03*
X37700000Y-87350000D03*
D11*
X36200000Y-85850000D03*
X36200000Y-84600000D03*
X36200000Y-83350000D03*
X36200000Y-82100000D03*
X36200000Y-80850000D03*
D12*
X37700000Y-79350000D03*
X38950000Y-79350000D03*
X40200000Y-79350000D03*
X41450000Y-79350000D03*
X42700000Y-79350000D03*
%TD*%
D13*
%TO.C,Q3*%
X61950000Y-100100000D03*
X62900000Y-98100000D03*
X61000000Y-98100000D03*
%TD*%
%TO.C,C22*%
G36*
G01*
X57075000Y-101000000D02*
X57575000Y-101000000D01*
G75*
G02*
X57800000Y-101225000I0J-225000D01*
G01*
X57800000Y-101675000D01*
G75*
G02*
X57575000Y-101900000I-225000J0D01*
G01*
X57075000Y-101900000D01*
G75*
G02*
X56850000Y-101675000I0J225000D01*
G01*
X56850000Y-101225000D01*
G75*
G02*
X57075000Y-101000000I225000J0D01*
G01*
G37*
G36*
G01*
X57075000Y-99450000D02*
X57575000Y-99450000D01*
G75*
G02*
X57800000Y-99675000I0J-225000D01*
G01*
X57800000Y-100125000D01*
G75*
G02*
X57575000Y-100350000I-225000J0D01*
G01*
X57075000Y-100350000D01*
G75*
G02*
X56850000Y-100125000I0J225000D01*
G01*
X56850000Y-99675000D01*
G75*
G02*
X57075000Y-99450000I225000J0D01*
G01*
G37*
%TD*%
%TO.C,C3*%
G36*
G01*
X41950000Y-89824999D02*
X41950000Y-92725001D01*
G75*
G02*
X41700001Y-92975000I-249999J0D01*
G01*
X40799999Y-92975000D01*
G75*
G02*
X40550000Y-92725001I0J249999D01*
G01*
X40550000Y-89824999D01*
G75*
G02*
X40799999Y-89575000I249999J0D01*
G01*
X41700001Y-89575000D01*
G75*
G02*
X41950000Y-89824999I0J-249999D01*
G01*
G37*
G36*
G01*
X46050000Y-89824999D02*
X46050000Y-92725001D01*
G75*
G02*
X45800001Y-92975000I-249999J0D01*
G01*
X44899999Y-92975000D01*
G75*
G02*
X44650000Y-92725001I0J249999D01*
G01*
X44650000Y-89824999D01*
G75*
G02*
X44899999Y-89575000I249999J0D01*
G01*
X45800001Y-89575000D01*
G75*
G02*
X46050000Y-89824999I0J-249999D01*
G01*
G37*
%TD*%
D14*
%TO.C,U3*%
X61535000Y-103475000D03*
X61535000Y-101575000D03*
X58915000Y-101575000D03*
X58915000Y-102525000D03*
X58915000Y-103475000D03*
%TD*%
%TO.C,R20*%
G36*
G01*
X48825000Y-95450000D02*
X48825000Y-96000000D01*
G75*
G02*
X48625000Y-96200000I-200000J0D01*
G01*
X48225000Y-96200000D01*
G75*
G02*
X48025000Y-96000000I0J200000D01*
G01*
X48025000Y-95450000D01*
G75*
G02*
X48225000Y-95250000I200000J0D01*
G01*
X48625000Y-95250000D01*
G75*
G02*
X48825000Y-95450000I0J-200000D01*
G01*
G37*
G36*
G01*
X50475000Y-95450000D02*
X50475000Y-96000000D01*
G75*
G02*
X50275000Y-96200000I-200000J0D01*
G01*
X49875000Y-96200000D01*
G75*
G02*
X49675000Y-96000000I0J200000D01*
G01*
X49675000Y-95450000D01*
G75*
G02*
X49875000Y-95250000I200000J0D01*
G01*
X50275000Y-95250000D01*
G75*
G02*
X50475000Y-95450000I0J-200000D01*
G01*
G37*
%TD*%
%TO.C,R17*%
G36*
G01*
X49675000Y-97350000D02*
X49675000Y-96800000D01*
G75*
G02*
X49875000Y-96600000I200000J0D01*
G01*
X50275000Y-96600000D01*
G75*
G02*
X50475000Y-96800000I0J-200000D01*
G01*
X50475000Y-97350000D01*
G75*
G02*
X50275000Y-97550000I-200000J0D01*
G01*
X49875000Y-97550000D01*
G75*
G02*
X49675000Y-97350000I0J200000D01*
G01*
G37*
G36*
G01*
X48025000Y-97350000D02*
X48025000Y-96800000D01*
G75*
G02*
X48225000Y-96600000I200000J0D01*
G01*
X48625000Y-96600000D01*
G75*
G02*
X48825000Y-96800000I0J-200000D01*
G01*
X48825000Y-97350000D01*
G75*
G02*
X48625000Y-97550000I-200000J0D01*
G01*
X48225000Y-97550000D01*
G75*
G02*
X48025000Y-97350000I0J200000D01*
G01*
G37*
%TD*%
%TO.C,R16*%
G36*
G01*
X56150000Y-100300000D02*
X55600000Y-100300000D01*
G75*
G02*
X55400000Y-100100000I0J200000D01*
G01*
X55400000Y-99700000D01*
G75*
G02*
X55600000Y-99500000I200000J0D01*
G01*
X56150000Y-99500000D01*
G75*
G02*
X56350000Y-99700000I0J-200000D01*
G01*
X56350000Y-100100000D01*
G75*
G02*
X56150000Y-100300000I-200000J0D01*
G01*
G37*
G36*
G01*
X56150000Y-101950000D02*
X55600000Y-101950000D01*
G75*
G02*
X55400000Y-101750000I0J200000D01*
G01*
X55400000Y-101350000D01*
G75*
G02*
X55600000Y-101150000I200000J0D01*
G01*
X56150000Y-101150000D01*
G75*
G02*
X56350000Y-101350000I0J-200000D01*
G01*
X56350000Y-101750000D01*
G75*
G02*
X56150000Y-101950000I-200000J0D01*
G01*
G37*
%TD*%
%TO.C,R5*%
G36*
G01*
X47800000Y-89025000D02*
X47250000Y-89025000D01*
G75*
G02*
X47050000Y-88825000I0J200000D01*
G01*
X47050000Y-88425000D01*
G75*
G02*
X47250000Y-88225000I200000J0D01*
G01*
X47800000Y-88225000D01*
G75*
G02*
X48000000Y-88425000I0J-200000D01*
G01*
X48000000Y-88825000D01*
G75*
G02*
X47800000Y-89025000I-200000J0D01*
G01*
G37*
G36*
G01*
X47800000Y-90675000D02*
X47250000Y-90675000D01*
G75*
G02*
X47050000Y-90475000I0J200000D01*
G01*
X47050000Y-90075000D01*
G75*
G02*
X47250000Y-89875000I200000J0D01*
G01*
X47800000Y-89875000D01*
G75*
G02*
X48000000Y-90075000I0J-200000D01*
G01*
X48000000Y-90475000D01*
G75*
G02*
X47800000Y-90675000I-200000J0D01*
G01*
G37*
%TD*%
D15*
%TO.C,Q2*%
X37000000Y-100525000D03*
X39000000Y-101475000D03*
X39000000Y-99575000D03*
%TD*%
D16*
%TO.C,J11*%
X60800000Y-94325000D03*
%TD*%
%TO.C,J10*%
X49200000Y-94100000D03*
%TD*%
D17*
%TO.C,D12*%
X45750000Y-93850000D03*
X45750000Y-97150000D03*
%TD*%
%TO.C,D7*%
X43487500Y-97150000D03*
X43487500Y-93850000D03*
%TD*%
%TO.C,D2*%
X41225000Y-93850000D03*
X41225000Y-97150000D03*
%TD*%
D18*
%TO.C,D1*%
X38250000Y-93750000D03*
X38250000Y-97350000D03*
X35900000Y-93750000D03*
X35900000Y-97350000D03*
%TD*%
%TO.C,C17*%
G36*
G01*
X44499999Y-102200000D02*
X47400001Y-102200000D01*
G75*
G02*
X47650000Y-102449999I0J-249999D01*
G01*
X47650000Y-103350001D01*
G75*
G02*
X47400001Y-103600000I-249999J0D01*
G01*
X44499999Y-103600000D01*
G75*
G02*
X44250000Y-103350001I0J249999D01*
G01*
X44250000Y-102449999D01*
G75*
G02*
X44499999Y-102200000I249999J0D01*
G01*
G37*
G36*
G01*
X44499999Y-98100000D02*
X47400001Y-98100000D01*
G75*
G02*
X47650000Y-98349999I0J-249999D01*
G01*
X47650000Y-99250001D01*
G75*
G02*
X47400001Y-99500000I-249999J0D01*
G01*
X44499999Y-99500000D01*
G75*
G02*
X44250000Y-99250001I0J249999D01*
G01*
X44250000Y-98349999D01*
G75*
G02*
X44499999Y-98100000I249999J0D01*
G01*
G37*
%TD*%
%TO.C,C6*%
G36*
G01*
X40674999Y-102200000D02*
X43575001Y-102200000D01*
G75*
G02*
X43825000Y-102449999I0J-249999D01*
G01*
X43825000Y-103350001D01*
G75*
G02*
X43575001Y-103600000I-249999J0D01*
G01*
X40674999Y-103600000D01*
G75*
G02*
X40425000Y-103350001I0J249999D01*
G01*
X40425000Y-102449999D01*
G75*
G02*
X40674999Y-102200000I249999J0D01*
G01*
G37*
G36*
G01*
X40674999Y-98100000D02*
X43575001Y-98100000D01*
G75*
G02*
X43825000Y-98349999I0J-249999D01*
G01*
X43825000Y-99250001D01*
G75*
G02*
X43575001Y-99500000I-249999J0D01*
G01*
X40674999Y-99500000D01*
G75*
G02*
X40425000Y-99250001I0J249999D01*
G01*
X40425000Y-98349999D01*
G75*
G02*
X40674999Y-98100000I249999J0D01*
G01*
G37*
%TD*%
%TO.C,D3*%
G36*
G01*
X51225000Y-85150000D02*
X52550000Y-85150000D01*
G75*
G02*
X52625000Y-85225000I0J-75000D01*
G01*
X52625000Y-85375000D01*
G75*
G02*
X52550000Y-85450000I-75000J0D01*
G01*
X51225000Y-85450000D01*
G75*
G02*
X51150000Y-85375000I0J75000D01*
G01*
X51150000Y-85225000D01*
G75*
G02*
X51225000Y-85150000I75000J0D01*
G01*
G37*
G36*
G01*
X51225000Y-85650000D02*
X52550000Y-85650000D01*
G75*
G02*
X52625000Y-85725000I0J-75000D01*
G01*
X52625000Y-85875000D01*
G75*
G02*
X52550000Y-85950000I-75000J0D01*
G01*
X51225000Y-85950000D01*
G75*
G02*
X51150000Y-85875000I0J75000D01*
G01*
X51150000Y-85725000D01*
G75*
G02*
X51225000Y-85650000I75000J0D01*
G01*
G37*
G36*
G01*
X51225000Y-86150000D02*
X52550000Y-86150000D01*
G75*
G02*
X52625000Y-86225000I0J-75000D01*
G01*
X52625000Y-86375000D01*
G75*
G02*
X52550000Y-86450000I-75000J0D01*
G01*
X51225000Y-86450000D01*
G75*
G02*
X51150000Y-86375000I0J75000D01*
G01*
X51150000Y-86225000D01*
G75*
G02*
X51225000Y-86150000I75000J0D01*
G01*
G37*
G36*
G01*
X51225000Y-86650000D02*
X52550000Y-86650000D01*
G75*
G02*
X52625000Y-86725000I0J-75000D01*
G01*
X52625000Y-86875000D01*
G75*
G02*
X52550000Y-86950000I-75000J0D01*
G01*
X51225000Y-86950000D01*
G75*
G02*
X51150000Y-86875000I0J75000D01*
G01*
X51150000Y-86725000D01*
G75*
G02*
X51225000Y-86650000I75000J0D01*
G01*
G37*
G36*
G01*
X51225000Y-87150000D02*
X52550000Y-87150000D01*
G75*
G02*
X52625000Y-87225000I0J-75000D01*
G01*
X52625000Y-87375000D01*
G75*
G02*
X52550000Y-87450000I-75000J0D01*
G01*
X51225000Y-87450000D01*
G75*
G02*
X51150000Y-87375000I0J75000D01*
G01*
X51150000Y-87225000D01*
G75*
G02*
X51225000Y-87150000I75000J0D01*
G01*
G37*
G36*
G01*
X51225000Y-87650000D02*
X52550000Y-87650000D01*
G75*
G02*
X52625000Y-87725000I0J-75000D01*
G01*
X52625000Y-87875000D01*
G75*
G02*
X52550000Y-87950000I-75000J0D01*
G01*
X51225000Y-87950000D01*
G75*
G02*
X51150000Y-87875000I0J75000D01*
G01*
X51150000Y-87725000D01*
G75*
G02*
X51225000Y-87650000I75000J0D01*
G01*
G37*
G36*
G01*
X51225000Y-88150000D02*
X52550000Y-88150000D01*
G75*
G02*
X52625000Y-88225000I0J-75000D01*
G01*
X52625000Y-88375000D01*
G75*
G02*
X52550000Y-88450000I-75000J0D01*
G01*
X51225000Y-88450000D01*
G75*
G02*
X51150000Y-88375000I0J75000D01*
G01*
X51150000Y-88225000D01*
G75*
G02*
X51225000Y-88150000I75000J0D01*
G01*
G37*
G36*
G01*
X51225000Y-88650000D02*
X52550000Y-88650000D01*
G75*
G02*
X52625000Y-88725000I0J-75000D01*
G01*
X52625000Y-88875000D01*
G75*
G02*
X52550000Y-88950000I-75000J0D01*
G01*
X51225000Y-88950000D01*
G75*
G02*
X51150000Y-88875000I0J75000D01*
G01*
X51150000Y-88725000D01*
G75*
G02*
X51225000Y-88650000I75000J0D01*
G01*
G37*
G36*
G01*
X51225000Y-89150000D02*
X52550000Y-89150000D01*
G75*
G02*
X52625000Y-89225000I0J-75000D01*
G01*
X52625000Y-89375000D01*
G75*
G02*
X52550000Y-89450000I-75000J0D01*
G01*
X51225000Y-89450000D01*
G75*
G02*
X51150000Y-89375000I0J75000D01*
G01*
X51150000Y-89225000D01*
G75*
G02*
X51225000Y-89150000I75000J0D01*
G01*
G37*
G36*
G01*
X51225000Y-89650000D02*
X52550000Y-89650000D01*
G75*
G02*
X52625000Y-89725000I0J-75000D01*
G01*
X52625000Y-89875000D01*
G75*
G02*
X52550000Y-89950000I-75000J0D01*
G01*
X51225000Y-89950000D01*
G75*
G02*
X51150000Y-89875000I0J75000D01*
G01*
X51150000Y-89725000D01*
G75*
G02*
X51225000Y-89650000I75000J0D01*
G01*
G37*
G36*
G01*
X51225000Y-90150000D02*
X52550000Y-90150000D01*
G75*
G02*
X52625000Y-90225000I0J-75000D01*
G01*
X52625000Y-90375000D01*
G75*
G02*
X52550000Y-90450000I-75000J0D01*
G01*
X51225000Y-90450000D01*
G75*
G02*
X51150000Y-90375000I0J75000D01*
G01*
X51150000Y-90225000D01*
G75*
G02*
X51225000Y-90150000I75000J0D01*
G01*
G37*
G36*
G01*
X51225000Y-90650000D02*
X52550000Y-90650000D01*
G75*
G02*
X52625000Y-90725000I0J-75000D01*
G01*
X52625000Y-90875000D01*
G75*
G02*
X52550000Y-90950000I-75000J0D01*
G01*
X51225000Y-90950000D01*
G75*
G02*
X51150000Y-90875000I0J75000D01*
G01*
X51150000Y-90725000D01*
G75*
G02*
X51225000Y-90650000I75000J0D01*
G01*
G37*
G36*
G01*
X53225000Y-91475000D02*
X53375000Y-91475000D01*
G75*
G02*
X53450000Y-91550000I0J-75000D01*
G01*
X53450000Y-92875000D01*
G75*
G02*
X53375000Y-92950000I-75000J0D01*
G01*
X53225000Y-92950000D01*
G75*
G02*
X53150000Y-92875000I0J75000D01*
G01*
X53150000Y-91550000D01*
G75*
G02*
X53225000Y-91475000I75000J0D01*
G01*
G37*
G36*
G01*
X53725000Y-91475000D02*
X53875000Y-91475000D01*
G75*
G02*
X53950000Y-91550000I0J-75000D01*
G01*
X53950000Y-92875000D01*
G75*
G02*
X53875000Y-92950000I-75000J0D01*
G01*
X53725000Y-92950000D01*
G75*
G02*
X53650000Y-92875000I0J75000D01*
G01*
X53650000Y-91550000D01*
G75*
G02*
X53725000Y-91475000I75000J0D01*
G01*
G37*
G36*
G01*
X54225000Y-91475000D02*
X54375000Y-91475000D01*
G75*
G02*
X54450000Y-91550000I0J-75000D01*
G01*
X54450000Y-92875000D01*
G75*
G02*
X54375000Y-92950000I-75000J0D01*
G01*
X54225000Y-92950000D01*
G75*
G02*
X54150000Y-92875000I0J75000D01*
G01*
X54150000Y-91550000D01*
G75*
G02*
X54225000Y-91475000I75000J0D01*
G01*
G37*
G36*
G01*
X54725000Y-91475000D02*
X54875000Y-91475000D01*
G75*
G02*
X54950000Y-91550000I0J-75000D01*
G01*
X54950000Y-92875000D01*
G75*
G02*
X54875000Y-92950000I-75000J0D01*
G01*
X54725000Y-92950000D01*
G75*
G02*
X54650000Y-92875000I0J75000D01*
G01*
X54650000Y-91550000D01*
G75*
G02*
X54725000Y-91475000I75000J0D01*
G01*
G37*
G36*
G01*
X55225000Y-91475000D02*
X55375000Y-91475000D01*
G75*
G02*
X55450000Y-91550000I0J-75000D01*
G01*
X55450000Y-92875000D01*
G75*
G02*
X55375000Y-92950000I-75000J0D01*
G01*
X55225000Y-92950000D01*
G75*
G02*
X55150000Y-92875000I0J75000D01*
G01*
X55150000Y-91550000D01*
G75*
G02*
X55225000Y-91475000I75000J0D01*
G01*
G37*
G36*
G01*
X55725000Y-91475000D02*
X55875000Y-91475000D01*
G75*
G02*
X55950000Y-91550000I0J-75000D01*
G01*
X55950000Y-92875000D01*
G75*
G02*
X55875000Y-92950000I-75000J0D01*
G01*
X55725000Y-92950000D01*
G75*
G02*
X55650000Y-92875000I0J75000D01*
G01*
X55650000Y-91550000D01*
G75*
G02*
X55725000Y-91475000I75000J0D01*
G01*
G37*
G36*
G01*
X56225000Y-91475000D02*
X56375000Y-91475000D01*
G75*
G02*
X56450000Y-91550000I0J-75000D01*
G01*
X56450000Y-92875000D01*
G75*
G02*
X56375000Y-92950000I-75000J0D01*
G01*
X56225000Y-92950000D01*
G75*
G02*
X56150000Y-92875000I0J75000D01*
G01*
X56150000Y-91550000D01*
G75*
G02*
X56225000Y-91475000I75000J0D01*
G01*
G37*
G36*
G01*
X56725000Y-91475000D02*
X56875000Y-91475000D01*
G75*
G02*
X56950000Y-91550000I0J-75000D01*
G01*
X56950000Y-92875000D01*
G75*
G02*
X56875000Y-92950000I-75000J0D01*
G01*
X56725000Y-92950000D01*
G75*
G02*
X56650000Y-92875000I0J75000D01*
G01*
X56650000Y-91550000D01*
G75*
G02*
X56725000Y-91475000I75000J0D01*
G01*
G37*
G36*
G01*
X57225000Y-91475000D02*
X57375000Y-91475000D01*
G75*
G02*
X57450000Y-91550000I0J-75000D01*
G01*
X57450000Y-92875000D01*
G75*
G02*
X57375000Y-92950000I-75000J0D01*
G01*
X57225000Y-92950000D01*
G75*
G02*
X57150000Y-92875000I0J75000D01*
G01*
X57150000Y-91550000D01*
G75*
G02*
X57225000Y-91475000I75000J0D01*
G01*
G37*
G36*
G01*
X57725000Y-91475000D02*
X57875000Y-91475000D01*
G75*
G02*
X57950000Y-91550000I0J-75000D01*
G01*
X57950000Y-92875000D01*
G75*
G02*
X57875000Y-92950000I-75000J0D01*
G01*
X57725000Y-92950000D01*
G75*
G02*
X57650000Y-92875000I0J75000D01*
G01*
X57650000Y-91550000D01*
G75*
G02*
X57725000Y-91475000I75000J0D01*
G01*
G37*
G36*
G01*
X58225000Y-91475000D02*
X58375000Y-91475000D01*
G75*
G02*
X58450000Y-91550000I0J-75000D01*
G01*
X58450000Y-92875000D01*
G75*
G02*
X58375000Y-92950000I-75000J0D01*
G01*
X58225000Y-92950000D01*
G75*
G02*
X58150000Y-92875000I0J75000D01*
G01*
X58150000Y-91550000D01*
G75*
G02*
X58225000Y-91475000I75000J0D01*
G01*
G37*
G36*
G01*
X58725000Y-91475000D02*
X58875000Y-91475000D01*
G75*
G02*
X58950000Y-91550000I0J-75000D01*
G01*
X58950000Y-92875000D01*
G75*
G02*
X58875000Y-92950000I-75000J0D01*
G01*
X58725000Y-92950000D01*
G75*
G02*
X58650000Y-92875000I0J75000D01*
G01*
X58650000Y-91550000D01*
G75*
G02*
X58725000Y-91475000I75000J0D01*
G01*
G37*
G36*
G01*
X59550000Y-90650000D02*
X60875000Y-90650000D01*
G75*
G02*
X60950000Y-90725000I0J-75000D01*
G01*
X60950000Y-90875000D01*
G75*
G02*
X60875000Y-90950000I-75000J0D01*
G01*
X59550000Y-90950000D01*
G75*
G02*
X59475000Y-90875000I0J75000D01*
G01*
X59475000Y-90725000D01*
G75*
G02*
X59550000Y-90650000I75000J0D01*
G01*
G37*
G36*
G01*
X59550000Y-90150000D02*
X60875000Y-90150000D01*
G75*
G02*
X60950000Y-90225000I0J-75000D01*
G01*
X60950000Y-90375000D01*
G75*
G02*
X60875000Y-90450000I-75000J0D01*
G01*
X59550000Y-90450000D01*
G75*
G02*
X59475000Y-90375000I0J75000D01*
G01*
X59475000Y-90225000D01*
G75*
G02*
X59550000Y-90150000I75000J0D01*
G01*
G37*
G36*
G01*
X59550000Y-89650000D02*
X60875000Y-89650000D01*
G75*
G02*
X60950000Y-89725000I0J-75000D01*
G01*
X60950000Y-89875000D01*
G75*
G02*
X60875000Y-89950000I-75000J0D01*
G01*
X59550000Y-89950000D01*
G75*
G02*
X59475000Y-89875000I0J75000D01*
G01*
X59475000Y-89725000D01*
G75*
G02*
X59550000Y-89650000I75000J0D01*
G01*
G37*
G36*
G01*
X59550000Y-89150000D02*
X60875000Y-89150000D01*
G75*
G02*
X60950000Y-89225000I0J-75000D01*
G01*
X60950000Y-89375000D01*
G75*
G02*
X60875000Y-89450000I-75000J0D01*
G01*
X59550000Y-89450000D01*
G75*
G02*
X59475000Y-89375000I0J75000D01*
G01*
X59475000Y-89225000D01*
G75*
G02*
X59550000Y-89150000I75000J0D01*
G01*
G37*
G36*
G01*
X59550000Y-88650000D02*
X60875000Y-88650000D01*
G75*
G02*
X60950000Y-88725000I0J-75000D01*
G01*
X60950000Y-88875000D01*
G75*
G02*
X60875000Y-88950000I-75000J0D01*
G01*
X59550000Y-88950000D01*
G75*
G02*
X59475000Y-88875000I0J75000D01*
G01*
X59475000Y-88725000D01*
G75*
G02*
X59550000Y-88650000I75000J0D01*
G01*
G37*
G36*
G01*
X59550000Y-88150000D02*
X60875000Y-88150000D01*
G75*
G02*
X60950000Y-88225000I0J-75000D01*
G01*
X60950000Y-88375000D01*
G75*
G02*
X60875000Y-88450000I-75000J0D01*
G01*
X59550000Y-88450000D01*
G75*
G02*
X59475000Y-88375000I0J75000D01*
G01*
X59475000Y-88225000D01*
G75*
G02*
X59550000Y-88150000I75000J0D01*
G01*
G37*
G36*
G01*
X59550000Y-87650000D02*
X60875000Y-87650000D01*
G75*
G02*
X60950000Y-87725000I0J-75000D01*
G01*
X60950000Y-87875000D01*
G75*
G02*
X60875000Y-87950000I-75000J0D01*
G01*
X59550000Y-87950000D01*
G75*
G02*
X59475000Y-87875000I0J75000D01*
G01*
X59475000Y-87725000D01*
G75*
G02*
X59550000Y-87650000I75000J0D01*
G01*
G37*
G36*
G01*
X59550000Y-87150000D02*
X60875000Y-87150000D01*
G75*
G02*
X60950000Y-87225000I0J-75000D01*
G01*
X60950000Y-87375000D01*
G75*
G02*
X60875000Y-87450000I-75000J0D01*
G01*
X59550000Y-87450000D01*
G75*
G02*
X59475000Y-87375000I0J75000D01*
G01*
X59475000Y-87225000D01*
G75*
G02*
X59550000Y-87150000I75000J0D01*
G01*
G37*
G36*
G01*
X59550000Y-86650000D02*
X60875000Y-86650000D01*
G75*
G02*
X60950000Y-86725000I0J-75000D01*
G01*
X60950000Y-86875000D01*
G75*
G02*
X60875000Y-86950000I-75000J0D01*
G01*
X59550000Y-86950000D01*
G75*
G02*
X59475000Y-86875000I0J75000D01*
G01*
X59475000Y-86725000D01*
G75*
G02*
X59550000Y-86650000I75000J0D01*
G01*
G37*
G36*
G01*
X59550000Y-86150000D02*
X60875000Y-86150000D01*
G75*
G02*
X60950000Y-86225000I0J-75000D01*
G01*
X60950000Y-86375000D01*
G75*
G02*
X60875000Y-86450000I-75000J0D01*
G01*
X59550000Y-86450000D01*
G75*
G02*
X59475000Y-86375000I0J75000D01*
G01*
X59475000Y-86225000D01*
G75*
G02*
X59550000Y-86150000I75000J0D01*
G01*
G37*
G36*
G01*
X59550000Y-85650000D02*
X60875000Y-85650000D01*
G75*
G02*
X60950000Y-85725000I0J-75000D01*
G01*
X60950000Y-85875000D01*
G75*
G02*
X60875000Y-85950000I-75000J0D01*
G01*
X59550000Y-85950000D01*
G75*
G02*
X59475000Y-85875000I0J75000D01*
G01*
X59475000Y-85725000D01*
G75*
G02*
X59550000Y-85650000I75000J0D01*
G01*
G37*
G36*
G01*
X59550000Y-85150000D02*
X60875000Y-85150000D01*
G75*
G02*
X60950000Y-85225000I0J-75000D01*
G01*
X60950000Y-85375000D01*
G75*
G02*
X60875000Y-85450000I-75000J0D01*
G01*
X59550000Y-85450000D01*
G75*
G02*
X59475000Y-85375000I0J75000D01*
G01*
X59475000Y-85225000D01*
G75*
G02*
X59550000Y-85150000I75000J0D01*
G01*
G37*
G36*
G01*
X58725000Y-83150000D02*
X58875000Y-83150000D01*
G75*
G02*
X58950000Y-83225000I0J-75000D01*
G01*
X58950000Y-84550000D01*
G75*
G02*
X58875000Y-84625000I-75000J0D01*
G01*
X58725000Y-84625000D01*
G75*
G02*
X58650000Y-84550000I0J75000D01*
G01*
X58650000Y-83225000D01*
G75*
G02*
X58725000Y-83150000I75000J0D01*
G01*
G37*
G36*
G01*
X58225000Y-83150000D02*
X58375000Y-83150000D01*
G75*
G02*
X58450000Y-83225000I0J-75000D01*
G01*
X58450000Y-84550000D01*
G75*
G02*
X58375000Y-84625000I-75000J0D01*
G01*
X58225000Y-84625000D01*
G75*
G02*
X58150000Y-84550000I0J75000D01*
G01*
X58150000Y-83225000D01*
G75*
G02*
X58225000Y-83150000I75000J0D01*
G01*
G37*
G36*
G01*
X57725000Y-83150000D02*
X57875000Y-83150000D01*
G75*
G02*
X57950000Y-83225000I0J-75000D01*
G01*
X57950000Y-84550000D01*
G75*
G02*
X57875000Y-84625000I-75000J0D01*
G01*
X57725000Y-84625000D01*
G75*
G02*
X57650000Y-84550000I0J75000D01*
G01*
X57650000Y-83225000D01*
G75*
G02*
X57725000Y-83150000I75000J0D01*
G01*
G37*
G36*
G01*
X57225000Y-83150000D02*
X57375000Y-83150000D01*
G75*
G02*
X57450000Y-83225000I0J-75000D01*
G01*
X57450000Y-84550000D01*
G75*
G02*
X57375000Y-84625000I-75000J0D01*
G01*
X57225000Y-84625000D01*
G75*
G02*
X57150000Y-84550000I0J75000D01*
G01*
X57150000Y-83225000D01*
G75*
G02*
X57225000Y-83150000I75000J0D01*
G01*
G37*
G36*
G01*
X56725000Y-83150000D02*
X56875000Y-83150000D01*
G75*
G02*
X56950000Y-83225000I0J-75000D01*
G01*
X56950000Y-84550000D01*
G75*
G02*
X56875000Y-84625000I-75000J0D01*
G01*
X56725000Y-84625000D01*
G75*
G02*
X56650000Y-84550000I0J75000D01*
G01*
X56650000Y-83225000D01*
G75*
G02*
X56725000Y-83150000I75000J0D01*
G01*
G37*
G36*
G01*
X56225000Y-83150000D02*
X56375000Y-83150000D01*
G75*
G02*
X56450000Y-83225000I0J-75000D01*
G01*
X56450000Y-84550000D01*
G75*
G02*
X56375000Y-84625000I-75000J0D01*
G01*
X56225000Y-84625000D01*
G75*
G02*
X56150000Y-84550000I0J75000D01*
G01*
X56150000Y-83225000D01*
G75*
G02*
X56225000Y-83150000I75000J0D01*
G01*
G37*
G36*
G01*
X55725000Y-83150000D02*
X55875000Y-83150000D01*
G75*
G02*
X55950000Y-83225000I0J-75000D01*
G01*
X55950000Y-84550000D01*
G75*
G02*
X55875000Y-84625000I-75000J0D01*
G01*
X55725000Y-84625000D01*
G75*
G02*
X55650000Y-84550000I0J75000D01*
G01*
X55650000Y-83225000D01*
G75*
G02*
X55725000Y-83150000I75000J0D01*
G01*
G37*
G36*
G01*
X55225000Y-83150000D02*
X55375000Y-83150000D01*
G75*
G02*
X55450000Y-83225000I0J-75000D01*
G01*
X55450000Y-84550000D01*
G75*
G02*
X55375000Y-84625000I-75000J0D01*
G01*
X55225000Y-84625000D01*
G75*
G02*
X55150000Y-84550000I0J75000D01*
G01*
X55150000Y-83225000D01*
G75*
G02*
X55225000Y-83150000I75000J0D01*
G01*
G37*
G36*
G01*
X54725000Y-83150000D02*
X54875000Y-83150000D01*
G75*
G02*
X54950000Y-83225000I0J-75000D01*
G01*
X54950000Y-84550000D01*
G75*
G02*
X54875000Y-84625000I-75000J0D01*
G01*
X54725000Y-84625000D01*
G75*
G02*
X54650000Y-84550000I0J75000D01*
G01*
X54650000Y-83225000D01*
G75*
G02*
X54725000Y-83150000I75000J0D01*
G01*
G37*
G36*
G01*
X54225000Y-83150000D02*
X54375000Y-83150000D01*
G75*
G02*
X54450000Y-83225000I0J-75000D01*
G01*
X54450000Y-84550000D01*
G75*
G02*
X54375000Y-84625000I-75000J0D01*
G01*
X54225000Y-84625000D01*
G75*
G02*
X54150000Y-84550000I0J75000D01*
G01*
X54150000Y-83225000D01*
G75*
G02*
X54225000Y-83150000I75000J0D01*
G01*
G37*
G36*
G01*
X53725000Y-83150000D02*
X53875000Y-83150000D01*
G75*
G02*
X53950000Y-83225000I0J-75000D01*
G01*
X53950000Y-84550000D01*
G75*
G02*
X53875000Y-84625000I-75000J0D01*
G01*
X53725000Y-84625000D01*
G75*
G02*
X53650000Y-84550000I0J75000D01*
G01*
X53650000Y-83225000D01*
G75*
G02*
X53725000Y-83150000I75000J0D01*
G01*
G37*
G36*
G01*
X53225000Y-83150000D02*
X53375000Y-83150000D01*
G75*
G02*
X53450000Y-83225000I0J-75000D01*
G01*
X53450000Y-84550000D01*
G75*
G02*
X53375000Y-84625000I-75000J0D01*
G01*
X53225000Y-84625000D01*
G75*
G02*
X53150000Y-84550000I0J75000D01*
G01*
X53150000Y-83225000D01*
G75*
G02*
X53225000Y-83150000I75000J0D01*
G01*
G37*
%TD*%
D19*
%TO.C,T1*%
X55525000Y-62230000D03*
X55525000Y-77720000D03*
D16*
X48395000Y-65890000D03*
X48395000Y-63350000D03*
X48395000Y-74060000D03*
X48395000Y-76600000D03*
X58825000Y-74420000D03*
X58825000Y-71880000D03*
X58825000Y-69340000D03*
X58825000Y-66800000D03*
X58825000Y-64260000D03*
X61365000Y-75690000D03*
X61365000Y-73150000D03*
X61365000Y-70610000D03*
X61365000Y-68070000D03*
X61365000Y-65530000D03*
%TD*%
%TO.C,R11*%
G36*
G01*
X57765000Y-82485000D02*
X57765000Y-82115000D01*
G75*
G02*
X57900000Y-81980000I135000J0D01*
G01*
X58170000Y-81980000D01*
G75*
G02*
X58305000Y-82115000I0J-135000D01*
G01*
X58305000Y-82485000D01*
G75*
G02*
X58170000Y-82620000I-135000J0D01*
G01*
X57900000Y-82620000D01*
G75*
G02*
X57765000Y-82485000I0J135000D01*
G01*
G37*
G36*
G01*
X56745000Y-82485000D02*
X56745000Y-82115000D01*
G75*
G02*
X56880000Y-81980000I135000J0D01*
G01*
X57150000Y-81980000D01*
G75*
G02*
X57285000Y-82115000I0J-135000D01*
G01*
X57285000Y-82485000D01*
G75*
G02*
X57150000Y-82620000I-135000J0D01*
G01*
X56880000Y-82620000D01*
G75*
G02*
X56745000Y-82485000I0J135000D01*
G01*
G37*
%TD*%
D20*
%TO.C,D16*%
X32350000Y-84625000D03*
X32350000Y-80225000D03*
%TD*%
D21*
%TO.C,Y2*%
X54825000Y-97150000D03*
X57025000Y-97150000D03*
X57025000Y-95550000D03*
X54825000Y-95550000D03*
%TD*%
D22*
%TO.C,D14*%
X32400000Y-86905000D03*
X29900000Y-86905000D03*
X27400000Y-86905000D03*
X24900000Y-86905000D03*
X22400000Y-86905000D03*
X22400000Y-103445000D03*
X24900000Y-103445000D03*
X27400000Y-103445000D03*
X29900000Y-103445000D03*
X32400000Y-103445000D03*
%TD*%
%TO.C,R1*%
G36*
G01*
X55260000Y-93965000D02*
X55260000Y-94335000D01*
G75*
G02*
X55125000Y-94470000I-135000J0D01*
G01*
X54855000Y-94470000D01*
G75*
G02*
X54720000Y-94335000I0J135000D01*
G01*
X54720000Y-93965000D01*
G75*
G02*
X54855000Y-93830000I135000J0D01*
G01*
X55125000Y-93830000D01*
G75*
G02*
X55260000Y-93965000I0J-135000D01*
G01*
G37*
G36*
G01*
X56280000Y-93965000D02*
X56280000Y-94335000D01*
G75*
G02*
X56145000Y-94470000I-135000J0D01*
G01*
X55875000Y-94470000D01*
G75*
G02*
X55740000Y-94335000I0J135000D01*
G01*
X55740000Y-93965000D01*
G75*
G02*
X55875000Y-93830000I135000J0D01*
G01*
X56145000Y-93830000D01*
G75*
G02*
X56280000Y-93965000I0J-135000D01*
G01*
G37*
%TD*%
%TO.C,C7*%
G36*
G01*
X58645000Y-96125000D02*
X58305000Y-96125000D01*
G75*
G02*
X58165000Y-95985000I0J140000D01*
G01*
X58165000Y-95705000D01*
G75*
G02*
X58305000Y-95565000I140000J0D01*
G01*
X58645000Y-95565000D01*
G75*
G02*
X58785000Y-95705000I0J-140000D01*
G01*
X58785000Y-95985000D01*
G75*
G02*
X58645000Y-96125000I-140000J0D01*
G01*
G37*
G36*
G01*
X58645000Y-97085000D02*
X58305000Y-97085000D01*
G75*
G02*
X58165000Y-96945000I0J140000D01*
G01*
X58165000Y-96665000D01*
G75*
G02*
X58305000Y-96525000I140000J0D01*
G01*
X58645000Y-96525000D01*
G75*
G02*
X58785000Y-96665000I0J-140000D01*
G01*
X58785000Y-96945000D01*
G75*
G02*
X58645000Y-97085000I-140000J0D01*
G01*
G37*
%TD*%
%TO.C,C4*%
G36*
G01*
X53230000Y-96500000D02*
X53570000Y-96500000D01*
G75*
G02*
X53710000Y-96640000I0J-140000D01*
G01*
X53710000Y-96920000D01*
G75*
G02*
X53570000Y-97060000I-140000J0D01*
G01*
X53230000Y-97060000D01*
G75*
G02*
X53090000Y-96920000I0J140000D01*
G01*
X53090000Y-96640000D01*
G75*
G02*
X53230000Y-96500000I140000J0D01*
G01*
G37*
G36*
G01*
X53230000Y-95540000D02*
X53570000Y-95540000D01*
G75*
G02*
X53710000Y-95680000I0J-140000D01*
G01*
X53710000Y-95960000D01*
G75*
G02*
X53570000Y-96100000I-140000J0D01*
G01*
X53230000Y-96100000D01*
G75*
G02*
X53090000Y-95960000I0J140000D01*
G01*
X53090000Y-95680000D01*
G75*
G02*
X53230000Y-95540000I140000J0D01*
G01*
G37*
%TD*%
%TO.C,C14*%
G36*
G01*
X57900000Y-93930000D02*
X57900000Y-94270000D01*
G75*
G02*
X57760000Y-94410000I-140000J0D01*
G01*
X57480000Y-94410000D01*
G75*
G02*
X57340000Y-94270000I0J140000D01*
G01*
X57340000Y-93930000D01*
G75*
G02*
X57480000Y-93790000I140000J0D01*
G01*
X57760000Y-93790000D01*
G75*
G02*
X57900000Y-93930000I0J-140000D01*
G01*
G37*
G36*
G01*
X58860000Y-93930000D02*
X58860000Y-94270000D01*
G75*
G02*
X58720000Y-94410000I-140000J0D01*
G01*
X58440000Y-94410000D01*
G75*
G02*
X58300000Y-94270000I0J140000D01*
G01*
X58300000Y-93930000D01*
G75*
G02*
X58440000Y-93790000I140000J0D01*
G01*
X58720000Y-93790000D01*
G75*
G02*
X58860000Y-93930000I0J-140000D01*
G01*
G37*
%TD*%
%TO.C,C12*%
G36*
G01*
X61950000Y-88705000D02*
X61950000Y-89045000D01*
G75*
G02*
X61810000Y-89185000I-140000J0D01*
G01*
X61530000Y-89185000D01*
G75*
G02*
X61390000Y-89045000I0J140000D01*
G01*
X61390000Y-88705000D01*
G75*
G02*
X61530000Y-88565000I140000J0D01*
G01*
X61810000Y-88565000D01*
G75*
G02*
X61950000Y-88705000I0J-140000D01*
G01*
G37*
G36*
G01*
X62910000Y-88705000D02*
X62910000Y-89045000D01*
G75*
G02*
X62770000Y-89185000I-140000J0D01*
G01*
X62490000Y-89185000D01*
G75*
G02*
X62350000Y-89045000I0J140000D01*
G01*
X62350000Y-88705000D01*
G75*
G02*
X62490000Y-88565000I140000J0D01*
G01*
X62770000Y-88565000D01*
G75*
G02*
X62910000Y-88705000I0J-140000D01*
G01*
G37*
%TD*%
%TO.C,C10*%
G36*
G01*
X61925000Y-89730000D02*
X61925000Y-90070000D01*
G75*
G02*
X61785000Y-90210000I-140000J0D01*
G01*
X61505000Y-90210000D01*
G75*
G02*
X61365000Y-90070000I0J140000D01*
G01*
X61365000Y-89730000D01*
G75*
G02*
X61505000Y-89590000I140000J0D01*
G01*
X61785000Y-89590000D01*
G75*
G02*
X61925000Y-89730000I0J-140000D01*
G01*
G37*
G36*
G01*
X62885000Y-89730000D02*
X62885000Y-90070000D01*
G75*
G02*
X62745000Y-90210000I-140000J0D01*
G01*
X62465000Y-90210000D01*
G75*
G02*
X62325000Y-90070000I0J140000D01*
G01*
X62325000Y-89730000D01*
G75*
G02*
X62465000Y-89590000I140000J0D01*
G01*
X62745000Y-89590000D01*
G75*
G02*
X62885000Y-89730000I0J-140000D01*
G01*
G37*
%TD*%
%TO.C,C19*%
G36*
G01*
X23725000Y-80375000D02*
X23725000Y-81475000D01*
G75*
G02*
X23475000Y-81725000I-250000J0D01*
G01*
X20475000Y-81725000D01*
G75*
G02*
X20225000Y-81475000I0J250000D01*
G01*
X20225000Y-80375000D01*
G75*
G02*
X20475000Y-80125000I250000J0D01*
G01*
X23475000Y-80125000D01*
G75*
G02*
X23725000Y-80375000I0J-250000D01*
G01*
G37*
G36*
G01*
X29125000Y-80375000D02*
X29125000Y-81475000D01*
G75*
G02*
X28875000Y-81725000I-250000J0D01*
G01*
X25875000Y-81725000D01*
G75*
G02*
X25625000Y-81475000I0J250000D01*
G01*
X25625000Y-80375000D01*
G75*
G02*
X25875000Y-80125000I250000J0D01*
G01*
X28875000Y-80125000D01*
G75*
G02*
X29125000Y-80375000I0J-250000D01*
G01*
G37*
%TD*%
M02*
