%TF.GenerationSoftware,KiCad,Pcbnew,5.1.9+dfsg1-1*%
%TF.CreationDate,2022-09-05T14:40:43+03:00*%
%TF.ProjectId,Meteostation,4d657465-6f73-4746-9174-696f6e2e6b69,rev?*%
%TF.SameCoordinates,Original*%
%TF.FileFunction,Soldermask,Top*%
%TF.FilePolarity,Negative*%
%FSLAX46Y46*%
G04 Gerber Fmt 4.6, Leading zero omitted, Abs format (unit mm)*
G04 Created by KiCad (PCBNEW 5.1.9+dfsg1-1) date 2022-09-05 14:40:43*
%MOMM*%
%LPD*%
G01*
G04 APERTURE LIST*
%ADD10R,2.000000X1.500000*%
%ADD11R,2.000000X3.800000*%
%ADD12C,3.000000*%
%ADD13C,1.524000*%
%ADD14R,0.600000X1.550000*%
%ADD15R,0.400000X1.900000*%
%ADD16R,1.600000X0.550000*%
%ADD17R,0.550000X1.600000*%
%ADD18R,0.900000X0.800000*%
%ADD19R,1.200000X0.900000*%
%ADD20R,0.900000X1.200000*%
G04 APERTURE END LIST*
%TO.C,C13*%
G36*
G01*
X39525000Y-93250000D02*
X39025000Y-93250000D01*
G75*
G02*
X38800000Y-93025000I0J225000D01*
G01*
X38800000Y-92575000D01*
G75*
G02*
X39025000Y-92350000I225000J0D01*
G01*
X39525000Y-92350000D01*
G75*
G02*
X39750000Y-92575000I0J-225000D01*
G01*
X39750000Y-93025000D01*
G75*
G02*
X39525000Y-93250000I-225000J0D01*
G01*
G37*
G36*
G01*
X39525000Y-94800000D02*
X39025000Y-94800000D01*
G75*
G02*
X38800000Y-94575000I0J225000D01*
G01*
X38800000Y-94125000D01*
G75*
G02*
X39025000Y-93900000I225000J0D01*
G01*
X39525000Y-93900000D01*
G75*
G02*
X39750000Y-94125000I0J-225000D01*
G01*
X39750000Y-94575000D01*
G75*
G02*
X39525000Y-94800000I-225000J0D01*
G01*
G37*
%TD*%
%TO.C,C9*%
G36*
G01*
X46150000Y-93275000D02*
X46150000Y-92775000D01*
G75*
G02*
X46375000Y-92550000I225000J0D01*
G01*
X46825000Y-92550000D01*
G75*
G02*
X47050000Y-92775000I0J-225000D01*
G01*
X47050000Y-93275000D01*
G75*
G02*
X46825000Y-93500000I-225000J0D01*
G01*
X46375000Y-93500000D01*
G75*
G02*
X46150000Y-93275000I0J225000D01*
G01*
G37*
G36*
G01*
X44600000Y-93275000D02*
X44600000Y-92775000D01*
G75*
G02*
X44825000Y-92550000I225000J0D01*
G01*
X45275000Y-92550000D01*
G75*
G02*
X45500000Y-92775000I0J-225000D01*
G01*
X45500000Y-93275000D01*
G75*
G02*
X45275000Y-93500000I-225000J0D01*
G01*
X44825000Y-93500000D01*
G75*
G02*
X44600000Y-93275000I0J225000D01*
G01*
G37*
%TD*%
%TO.C,C1*%
G36*
G01*
X48750000Y-100900000D02*
X49700000Y-100900000D01*
G75*
G02*
X49950000Y-101150000I0J-250000D01*
G01*
X49950000Y-101650000D01*
G75*
G02*
X49700000Y-101900000I-250000J0D01*
G01*
X48750000Y-101900000D01*
G75*
G02*
X48500000Y-101650000I0J250000D01*
G01*
X48500000Y-101150000D01*
G75*
G02*
X48750000Y-100900000I250000J0D01*
G01*
G37*
G36*
G01*
X48750000Y-99000000D02*
X49700000Y-99000000D01*
G75*
G02*
X49950000Y-99250000I0J-250000D01*
G01*
X49950000Y-99750000D01*
G75*
G02*
X49700000Y-100000000I-250000J0D01*
G01*
X48750000Y-100000000D01*
G75*
G02*
X48500000Y-99750000I0J250000D01*
G01*
X48500000Y-99250000D01*
G75*
G02*
X48750000Y-99000000I250000J0D01*
G01*
G37*
%TD*%
D10*
%TO.C,D1*%
X44325000Y-101400000D03*
X44325000Y-96800000D03*
X44325000Y-99100000D03*
D11*
X38025000Y-99100000D03*
%TD*%
D12*
%TO.C,T1*%
X55525000Y-62230000D03*
X55525000Y-77720000D03*
D13*
X48395000Y-65890000D03*
X48395000Y-63350000D03*
X48395000Y-74060000D03*
X48395000Y-76600000D03*
X58825000Y-74420000D03*
X58825000Y-71880000D03*
X58825000Y-69340000D03*
X58825000Y-66800000D03*
X58825000Y-64260000D03*
X61365000Y-75690000D03*
X61365000Y-73150000D03*
X61365000Y-70610000D03*
X61365000Y-68070000D03*
X61365000Y-65530000D03*
%TD*%
%TO.C,C2*%
G36*
G01*
X46825000Y-96325000D02*
X46825000Y-97275000D01*
G75*
G02*
X46575000Y-97525000I-250000J0D01*
G01*
X46075000Y-97525000D01*
G75*
G02*
X45825000Y-97275000I0J250000D01*
G01*
X45825000Y-96325000D01*
G75*
G02*
X46075000Y-96075000I250000J0D01*
G01*
X46575000Y-96075000D01*
G75*
G02*
X46825000Y-96325000I0J-250000D01*
G01*
G37*
G36*
G01*
X48725000Y-96325000D02*
X48725000Y-97275000D01*
G75*
G02*
X48475000Y-97525000I-250000J0D01*
G01*
X47975000Y-97525000D01*
G75*
G02*
X47725000Y-97275000I0J250000D01*
G01*
X47725000Y-96325000D01*
G75*
G02*
X47975000Y-96075000I250000J0D01*
G01*
X48475000Y-96075000D01*
G75*
G02*
X48725000Y-96325000I0J-250000D01*
G01*
G37*
%TD*%
%TO.C,R24*%
G36*
G01*
X22150000Y-91475000D02*
X22700000Y-91475000D01*
G75*
G02*
X22900000Y-91675000I0J-200000D01*
G01*
X22900000Y-92075000D01*
G75*
G02*
X22700000Y-92275000I-200000J0D01*
G01*
X22150000Y-92275000D01*
G75*
G02*
X21950000Y-92075000I0J200000D01*
G01*
X21950000Y-91675000D01*
G75*
G02*
X22150000Y-91475000I200000J0D01*
G01*
G37*
G36*
G01*
X22150000Y-89825000D02*
X22700000Y-89825000D01*
G75*
G02*
X22900000Y-90025000I0J-200000D01*
G01*
X22900000Y-90425000D01*
G75*
G02*
X22700000Y-90625000I-200000J0D01*
G01*
X22150000Y-90625000D01*
G75*
G02*
X21950000Y-90425000I0J200000D01*
G01*
X21950000Y-90025000D01*
G75*
G02*
X22150000Y-89825000I200000J0D01*
G01*
G37*
%TD*%
D14*
%TO.C,D11*%
X27295000Y-90875000D03*
X29835000Y-90875000D03*
X31105000Y-90875000D03*
X31105000Y-96275000D03*
X29835000Y-96275000D03*
X28565000Y-96275000D03*
X27295000Y-96275000D03*
%TD*%
%TO.C,C5*%
G36*
G01*
X46893860Y-80974600D02*
X46893860Y-80634600D01*
G75*
G02*
X47033860Y-80494600I140000J0D01*
G01*
X47313860Y-80494600D01*
G75*
G02*
X47453860Y-80634600I0J-140000D01*
G01*
X47453860Y-80974600D01*
G75*
G02*
X47313860Y-81114600I-140000J0D01*
G01*
X47033860Y-81114600D01*
G75*
G02*
X46893860Y-80974600I0J140000D01*
G01*
G37*
G36*
G01*
X45933860Y-80974600D02*
X45933860Y-80634600D01*
G75*
G02*
X46073860Y-80494600I140000J0D01*
G01*
X46353860Y-80494600D01*
G75*
G02*
X46493860Y-80634600I0J-140000D01*
G01*
X46493860Y-80974600D01*
G75*
G02*
X46353860Y-81114600I-140000J0D01*
G01*
X46073860Y-81114600D01*
G75*
G02*
X45933860Y-80974600I0J140000D01*
G01*
G37*
%TD*%
%TO.C,C33*%
G36*
G01*
X25463300Y-99482400D02*
X25963300Y-99482400D01*
G75*
G02*
X26188300Y-99707400I0J-225000D01*
G01*
X26188300Y-100157400D01*
G75*
G02*
X25963300Y-100382400I-225000J0D01*
G01*
X25463300Y-100382400D01*
G75*
G02*
X25238300Y-100157400I0J225000D01*
G01*
X25238300Y-99707400D01*
G75*
G02*
X25463300Y-99482400I225000J0D01*
G01*
G37*
G36*
G01*
X25463300Y-97932400D02*
X25963300Y-97932400D01*
G75*
G02*
X26188300Y-98157400I0J-225000D01*
G01*
X26188300Y-98607400D01*
G75*
G02*
X25963300Y-98832400I-225000J0D01*
G01*
X25463300Y-98832400D01*
G75*
G02*
X25238300Y-98607400I0J225000D01*
G01*
X25238300Y-98157400D01*
G75*
G02*
X25463300Y-97932400I225000J0D01*
G01*
G37*
%TD*%
D13*
%TO.C,J9*%
X56100000Y-92525000D03*
%TD*%
%TO.C,J8*%
X54225000Y-93375000D03*
%TD*%
D15*
%TO.C,Y1*%
X47950000Y-93600000D03*
X49150000Y-93600000D03*
X50350000Y-93600000D03*
%TD*%
D16*
%TO.C,U1*%
X42375000Y-89400000D03*
X42375000Y-88600000D03*
X42375000Y-87800000D03*
X42375000Y-87000000D03*
X42375000Y-86200000D03*
X42375000Y-85400000D03*
X42375000Y-84600000D03*
X42375000Y-83800000D03*
D17*
X43825000Y-82350000D03*
X44625000Y-82350000D03*
X45425000Y-82350000D03*
X46225000Y-82350000D03*
X47025000Y-82350000D03*
X47825000Y-82350000D03*
X48625000Y-82350000D03*
X49425000Y-82350000D03*
D16*
X50875000Y-83800000D03*
X50875000Y-84600000D03*
X50875000Y-85400000D03*
X50875000Y-86200000D03*
X50875000Y-87000000D03*
X50875000Y-87800000D03*
X50875000Y-88600000D03*
X50875000Y-89400000D03*
D17*
X49425000Y-90850000D03*
X48625000Y-90850000D03*
X47825000Y-90850000D03*
X47025000Y-90850000D03*
X46225000Y-90850000D03*
X45425000Y-90850000D03*
X44625000Y-90850000D03*
X43825000Y-90850000D03*
%TD*%
%TO.C,R18*%
G36*
G01*
X55300000Y-71850000D02*
X55300000Y-72400000D01*
G75*
G02*
X55100000Y-72600000I-200000J0D01*
G01*
X54700000Y-72600000D01*
G75*
G02*
X54500000Y-72400000I0J200000D01*
G01*
X54500000Y-71850000D01*
G75*
G02*
X54700000Y-71650000I200000J0D01*
G01*
X55100000Y-71650000D01*
G75*
G02*
X55300000Y-71850000I0J-200000D01*
G01*
G37*
G36*
G01*
X56950000Y-71850000D02*
X56950000Y-72400000D01*
G75*
G02*
X56750000Y-72600000I-200000J0D01*
G01*
X56350000Y-72600000D01*
G75*
G02*
X56150000Y-72400000I0J200000D01*
G01*
X56150000Y-71850000D01*
G75*
G02*
X56350000Y-71650000I200000J0D01*
G01*
X56750000Y-71650000D01*
G75*
G02*
X56950000Y-71850000I0J-200000D01*
G01*
G37*
%TD*%
%TO.C,R10*%
G36*
G01*
X55275000Y-70375000D02*
X55275000Y-70925000D01*
G75*
G02*
X55075000Y-71125000I-200000J0D01*
G01*
X54675000Y-71125000D01*
G75*
G02*
X54475000Y-70925000I0J200000D01*
G01*
X54475000Y-70375000D01*
G75*
G02*
X54675000Y-70175000I200000J0D01*
G01*
X55075000Y-70175000D01*
G75*
G02*
X55275000Y-70375000I0J-200000D01*
G01*
G37*
G36*
G01*
X56925000Y-70375000D02*
X56925000Y-70925000D01*
G75*
G02*
X56725000Y-71125000I-200000J0D01*
G01*
X56325000Y-71125000D01*
G75*
G02*
X56125000Y-70925000I0J200000D01*
G01*
X56125000Y-70375000D01*
G75*
G02*
X56325000Y-70175000I200000J0D01*
G01*
X56725000Y-70175000D01*
G75*
G02*
X56925000Y-70375000I0J-200000D01*
G01*
G37*
%TD*%
%TO.C,R9*%
G36*
G01*
X55300000Y-68975000D02*
X55300000Y-69525000D01*
G75*
G02*
X55100000Y-69725000I-200000J0D01*
G01*
X54700000Y-69725000D01*
G75*
G02*
X54500000Y-69525000I0J200000D01*
G01*
X54500000Y-68975000D01*
G75*
G02*
X54700000Y-68775000I200000J0D01*
G01*
X55100000Y-68775000D01*
G75*
G02*
X55300000Y-68975000I0J-200000D01*
G01*
G37*
G36*
G01*
X56950000Y-68975000D02*
X56950000Y-69525000D01*
G75*
G02*
X56750000Y-69725000I-200000J0D01*
G01*
X56350000Y-69725000D01*
G75*
G02*
X56150000Y-69525000I0J200000D01*
G01*
X56150000Y-68975000D01*
G75*
G02*
X56350000Y-68775000I200000J0D01*
G01*
X56750000Y-68775000D01*
G75*
G02*
X56950000Y-68975000I0J-200000D01*
G01*
G37*
%TD*%
%TO.C,C20*%
G36*
G01*
X55400000Y-73275000D02*
X55400000Y-73775000D01*
G75*
G02*
X55175000Y-74000000I-225000J0D01*
G01*
X54725000Y-74000000D01*
G75*
G02*
X54500000Y-73775000I0J225000D01*
G01*
X54500000Y-73275000D01*
G75*
G02*
X54725000Y-73050000I225000J0D01*
G01*
X55175000Y-73050000D01*
G75*
G02*
X55400000Y-73275000I0J-225000D01*
G01*
G37*
G36*
G01*
X56950000Y-73275000D02*
X56950000Y-73775000D01*
G75*
G02*
X56725000Y-74000000I-225000J0D01*
G01*
X56275000Y-74000000D01*
G75*
G02*
X56050000Y-73775000I0J225000D01*
G01*
X56050000Y-73275000D01*
G75*
G02*
X56275000Y-73050000I225000J0D01*
G01*
X56725000Y-73050000D01*
G75*
G02*
X56950000Y-73275000I0J-225000D01*
G01*
G37*
%TD*%
%TO.C,C16*%
G36*
G01*
X56050000Y-75250000D02*
X56050000Y-74750000D01*
G75*
G02*
X56275000Y-74525000I225000J0D01*
G01*
X56725000Y-74525000D01*
G75*
G02*
X56950000Y-74750000I0J-225000D01*
G01*
X56950000Y-75250000D01*
G75*
G02*
X56725000Y-75475000I-225000J0D01*
G01*
X56275000Y-75475000D01*
G75*
G02*
X56050000Y-75250000I0J225000D01*
G01*
G37*
G36*
G01*
X54500000Y-75250000D02*
X54500000Y-74750000D01*
G75*
G02*
X54725000Y-74525000I225000J0D01*
G01*
X55175000Y-74525000D01*
G75*
G02*
X55400000Y-74750000I0J-225000D01*
G01*
X55400000Y-75250000D01*
G75*
G02*
X55175000Y-75475000I-225000J0D01*
G01*
X54725000Y-75475000D01*
G75*
G02*
X54500000Y-75250000I0J225000D01*
G01*
G37*
%TD*%
D13*
%TO.C,J14*%
X41300000Y-93925000D03*
%TD*%
%TO.C,C43*%
G36*
G01*
X57400000Y-87155000D02*
X57400000Y-87495000D01*
G75*
G02*
X57260000Y-87635000I-140000J0D01*
G01*
X56980000Y-87635000D01*
G75*
G02*
X56840000Y-87495000I0J140000D01*
G01*
X56840000Y-87155000D01*
G75*
G02*
X56980000Y-87015000I140000J0D01*
G01*
X57260000Y-87015000D01*
G75*
G02*
X57400000Y-87155000I0J-140000D01*
G01*
G37*
G36*
G01*
X58360000Y-87155000D02*
X58360000Y-87495000D01*
G75*
G02*
X58220000Y-87635000I-140000J0D01*
G01*
X57940000Y-87635000D01*
G75*
G02*
X57800000Y-87495000I0J140000D01*
G01*
X57800000Y-87155000D01*
G75*
G02*
X57940000Y-87015000I140000J0D01*
G01*
X58220000Y-87015000D01*
G75*
G02*
X58360000Y-87155000I0J-140000D01*
G01*
G37*
%TD*%
%TO.C,C15*%
G36*
G01*
X55600000Y-89175000D02*
X56100000Y-89175000D01*
G75*
G02*
X56325000Y-89400000I0J-225000D01*
G01*
X56325000Y-89850000D01*
G75*
G02*
X56100000Y-90075000I-225000J0D01*
G01*
X55600000Y-90075000D01*
G75*
G02*
X55375000Y-89850000I0J225000D01*
G01*
X55375000Y-89400000D01*
G75*
G02*
X55600000Y-89175000I225000J0D01*
G01*
G37*
G36*
G01*
X55600000Y-87625000D02*
X56100000Y-87625000D01*
G75*
G02*
X56325000Y-87850000I0J-225000D01*
G01*
X56325000Y-88300000D01*
G75*
G02*
X56100000Y-88525000I-225000J0D01*
G01*
X55600000Y-88525000D01*
G75*
G02*
X55375000Y-88300000I0J225000D01*
G01*
X55375000Y-87850000D01*
G75*
G02*
X55600000Y-87625000I225000J0D01*
G01*
G37*
%TD*%
%TO.C,C38*%
G36*
G01*
X55955000Y-86850000D02*
X56295000Y-86850000D01*
G75*
G02*
X56435000Y-86990000I0J-140000D01*
G01*
X56435000Y-87270000D01*
G75*
G02*
X56295000Y-87410000I-140000J0D01*
G01*
X55955000Y-87410000D01*
G75*
G02*
X55815000Y-87270000I0J140000D01*
G01*
X55815000Y-86990000D01*
G75*
G02*
X55955000Y-86850000I140000J0D01*
G01*
G37*
G36*
G01*
X55955000Y-85890000D02*
X56295000Y-85890000D01*
G75*
G02*
X56435000Y-86030000I0J-140000D01*
G01*
X56435000Y-86310000D01*
G75*
G02*
X56295000Y-86450000I-140000J0D01*
G01*
X55955000Y-86450000D01*
G75*
G02*
X55815000Y-86310000I0J140000D01*
G01*
X55815000Y-86030000D01*
G75*
G02*
X55955000Y-85890000I140000J0D01*
G01*
G37*
%TD*%
%TO.C,C35*%
G36*
G01*
X57400000Y-88205000D02*
X57400000Y-88545000D01*
G75*
G02*
X57260000Y-88685000I-140000J0D01*
G01*
X56980000Y-88685000D01*
G75*
G02*
X56840000Y-88545000I0J140000D01*
G01*
X56840000Y-88205000D01*
G75*
G02*
X56980000Y-88065000I140000J0D01*
G01*
X57260000Y-88065000D01*
G75*
G02*
X57400000Y-88205000I0J-140000D01*
G01*
G37*
G36*
G01*
X58360000Y-88205000D02*
X58360000Y-88545000D01*
G75*
G02*
X58220000Y-88685000I-140000J0D01*
G01*
X57940000Y-88685000D01*
G75*
G02*
X57800000Y-88545000I0J140000D01*
G01*
X57800000Y-88205000D01*
G75*
G02*
X57940000Y-88065000I140000J0D01*
G01*
X58220000Y-88065000D01*
G75*
G02*
X58360000Y-88205000I0J-140000D01*
G01*
G37*
%TD*%
%TO.C,C31*%
G36*
G01*
X57400000Y-89255000D02*
X57400000Y-89595000D01*
G75*
G02*
X57260000Y-89735000I-140000J0D01*
G01*
X56980000Y-89735000D01*
G75*
G02*
X56840000Y-89595000I0J140000D01*
G01*
X56840000Y-89255000D01*
G75*
G02*
X56980000Y-89115000I140000J0D01*
G01*
X57260000Y-89115000D01*
G75*
G02*
X57400000Y-89255000I0J-140000D01*
G01*
G37*
G36*
G01*
X58360000Y-89255000D02*
X58360000Y-89595000D01*
G75*
G02*
X58220000Y-89735000I-140000J0D01*
G01*
X57940000Y-89735000D01*
G75*
G02*
X57800000Y-89595000I0J140000D01*
G01*
X57800000Y-89255000D01*
G75*
G02*
X57940000Y-89115000I140000J0D01*
G01*
X58220000Y-89115000D01*
G75*
G02*
X58360000Y-89255000I0J-140000D01*
G01*
G37*
%TD*%
%TO.C,C28*%
G36*
G01*
X57400000Y-86130000D02*
X57400000Y-86470000D01*
G75*
G02*
X57260000Y-86610000I-140000J0D01*
G01*
X56980000Y-86610000D01*
G75*
G02*
X56840000Y-86470000I0J140000D01*
G01*
X56840000Y-86130000D01*
G75*
G02*
X56980000Y-85990000I140000J0D01*
G01*
X57260000Y-85990000D01*
G75*
G02*
X57400000Y-86130000I0J-140000D01*
G01*
G37*
G36*
G01*
X58360000Y-86130000D02*
X58360000Y-86470000D01*
G75*
G02*
X58220000Y-86610000I-140000J0D01*
G01*
X57940000Y-86610000D01*
G75*
G02*
X57800000Y-86470000I0J140000D01*
G01*
X57800000Y-86130000D01*
G75*
G02*
X57940000Y-85990000I140000J0D01*
G01*
X58220000Y-85990000D01*
G75*
G02*
X58360000Y-86130000I0J-140000D01*
G01*
G37*
%TD*%
%TO.C,C27*%
G36*
G01*
X55055000Y-86850000D02*
X55395000Y-86850000D01*
G75*
G02*
X55535000Y-86990000I0J-140000D01*
G01*
X55535000Y-87270000D01*
G75*
G02*
X55395000Y-87410000I-140000J0D01*
G01*
X55055000Y-87410000D01*
G75*
G02*
X54915000Y-87270000I0J140000D01*
G01*
X54915000Y-86990000D01*
G75*
G02*
X55055000Y-86850000I140000J0D01*
G01*
G37*
G36*
G01*
X55055000Y-85890000D02*
X55395000Y-85890000D01*
G75*
G02*
X55535000Y-86030000I0J-140000D01*
G01*
X55535000Y-86310000D01*
G75*
G02*
X55395000Y-86450000I-140000J0D01*
G01*
X55055000Y-86450000D01*
G75*
G02*
X54915000Y-86310000I0J140000D01*
G01*
X54915000Y-86030000D01*
G75*
G02*
X55055000Y-85890000I140000J0D01*
G01*
G37*
%TD*%
%TO.C,C39*%
G36*
G01*
X53570000Y-71400000D02*
X53230000Y-71400000D01*
G75*
G02*
X53090000Y-71260000I0J140000D01*
G01*
X53090000Y-70980000D01*
G75*
G02*
X53230000Y-70840000I140000J0D01*
G01*
X53570000Y-70840000D01*
G75*
G02*
X53710000Y-70980000I0J-140000D01*
G01*
X53710000Y-71260000D01*
G75*
G02*
X53570000Y-71400000I-140000J0D01*
G01*
G37*
G36*
G01*
X53570000Y-72360000D02*
X53230000Y-72360000D01*
G75*
G02*
X53090000Y-72220000I0J140000D01*
G01*
X53090000Y-71940000D01*
G75*
G02*
X53230000Y-71800000I140000J0D01*
G01*
X53570000Y-71800000D01*
G75*
G02*
X53710000Y-71940000I0J-140000D01*
G01*
X53710000Y-72220000D01*
G75*
G02*
X53570000Y-72360000I-140000J0D01*
G01*
G37*
%TD*%
%TO.C,D4*%
G36*
G01*
X42318750Y-82100000D02*
X42831250Y-82100000D01*
G75*
G02*
X43050000Y-82318750I0J-218750D01*
G01*
X43050000Y-82756250D01*
G75*
G02*
X42831250Y-82975000I-218750J0D01*
G01*
X42318750Y-82975000D01*
G75*
G02*
X42100000Y-82756250I0J218750D01*
G01*
X42100000Y-82318750D01*
G75*
G02*
X42318750Y-82100000I218750J0D01*
G01*
G37*
G36*
G01*
X42318750Y-80525000D02*
X42831250Y-80525000D01*
G75*
G02*
X43050000Y-80743750I0J-218750D01*
G01*
X43050000Y-81181250D01*
G75*
G02*
X42831250Y-81400000I-218750J0D01*
G01*
X42318750Y-81400000D01*
G75*
G02*
X42100000Y-81181250I0J218750D01*
G01*
X42100000Y-80743750D01*
G75*
G02*
X42318750Y-80525000I218750J0D01*
G01*
G37*
%TD*%
%TO.C,C56*%
G36*
G01*
X58475000Y-92075000D02*
X58475000Y-93025000D01*
G75*
G02*
X58225000Y-93275000I-250000J0D01*
G01*
X57725000Y-93275000D01*
G75*
G02*
X57475000Y-93025000I0J250000D01*
G01*
X57475000Y-92075000D01*
G75*
G02*
X57725000Y-91825000I250000J0D01*
G01*
X58225000Y-91825000D01*
G75*
G02*
X58475000Y-92075000I0J-250000D01*
G01*
G37*
G36*
G01*
X60375000Y-92075000D02*
X60375000Y-93025000D01*
G75*
G02*
X60125000Y-93275000I-250000J0D01*
G01*
X59625000Y-93275000D01*
G75*
G02*
X59375000Y-93025000I0J250000D01*
G01*
X59375000Y-92075000D01*
G75*
G02*
X59625000Y-91825000I250000J0D01*
G01*
X60125000Y-91825000D01*
G75*
G02*
X60375000Y-92075000I0J-250000D01*
G01*
G37*
%TD*%
D10*
%TO.C,U6*%
X54025000Y-96825000D03*
X54025000Y-101425000D03*
X54025000Y-99125000D03*
D11*
X60325000Y-99125000D03*
%TD*%
D13*
%TO.C,J7*%
X50700000Y-96900000D03*
%TD*%
%TO.C,R4*%
G36*
G01*
X40750000Y-82200000D02*
X41300000Y-82200000D01*
G75*
G02*
X41500000Y-82400000I0J-200000D01*
G01*
X41500000Y-82800000D01*
G75*
G02*
X41300000Y-83000000I-200000J0D01*
G01*
X40750000Y-83000000D01*
G75*
G02*
X40550000Y-82800000I0J200000D01*
G01*
X40550000Y-82400000D01*
G75*
G02*
X40750000Y-82200000I200000J0D01*
G01*
G37*
G36*
G01*
X40750000Y-80550000D02*
X41300000Y-80550000D01*
G75*
G02*
X41500000Y-80750000I0J-200000D01*
G01*
X41500000Y-81150000D01*
G75*
G02*
X41300000Y-81350000I-200000J0D01*
G01*
X40750000Y-81350000D01*
G75*
G02*
X40550000Y-81150000I0J200000D01*
G01*
X40550000Y-80750000D01*
G75*
G02*
X40750000Y-80550000I200000J0D01*
G01*
G37*
%TD*%
%TO.C,C3*%
G36*
G01*
X40200000Y-87150000D02*
X40200000Y-86650000D01*
G75*
G02*
X40425000Y-86425000I225000J0D01*
G01*
X40875000Y-86425000D01*
G75*
G02*
X41100000Y-86650000I0J-225000D01*
G01*
X41100000Y-87150000D01*
G75*
G02*
X40875000Y-87375000I-225000J0D01*
G01*
X40425000Y-87375000D01*
G75*
G02*
X40200000Y-87150000I0J225000D01*
G01*
G37*
G36*
G01*
X38650000Y-87150000D02*
X38650000Y-86650000D01*
G75*
G02*
X38875000Y-86425000I225000J0D01*
G01*
X39325000Y-86425000D01*
G75*
G02*
X39550000Y-86650000I0J-225000D01*
G01*
X39550000Y-87150000D01*
G75*
G02*
X39325000Y-87375000I-225000J0D01*
G01*
X38875000Y-87375000D01*
G75*
G02*
X38650000Y-87150000I0J225000D01*
G01*
G37*
%TD*%
%TO.C,J6*%
X43225000Y-93925000D03*
%TD*%
%TO.C,J4*%
X39275000Y-83025000D03*
%TD*%
%TO.C,J3*%
X39200000Y-84975000D03*
%TD*%
%TO.C,C50*%
G36*
G01*
X30750000Y-80175000D02*
X30750000Y-82225000D01*
G75*
G02*
X30500000Y-82475000I-250000J0D01*
G01*
X28925000Y-82475000D01*
G75*
G02*
X28675000Y-82225000I0J250000D01*
G01*
X28675000Y-80175000D01*
G75*
G02*
X28925000Y-79925000I250000J0D01*
G01*
X30500000Y-79925000D01*
G75*
G02*
X30750000Y-80175000I0J-250000D01*
G01*
G37*
G36*
G01*
X36975000Y-80175000D02*
X36975000Y-82225000D01*
G75*
G02*
X36725000Y-82475000I-250000J0D01*
G01*
X35150000Y-82475000D01*
G75*
G02*
X34900000Y-82225000I0J250000D01*
G01*
X34900000Y-80175000D01*
G75*
G02*
X35150000Y-79925000I250000J0D01*
G01*
X36725000Y-79925000D01*
G75*
G02*
X36975000Y-80175000I0J-250000D01*
G01*
G37*
%TD*%
%TO.C,R21*%
G36*
G01*
X27324168Y-98779100D02*
X26774168Y-98779100D01*
G75*
G02*
X26574168Y-98579100I0J200000D01*
G01*
X26574168Y-98179100D01*
G75*
G02*
X26774168Y-97979100I200000J0D01*
G01*
X27324168Y-97979100D01*
G75*
G02*
X27524168Y-98179100I0J-200000D01*
G01*
X27524168Y-98579100D01*
G75*
G02*
X27324168Y-98779100I-200000J0D01*
G01*
G37*
G36*
G01*
X27324168Y-100429100D02*
X26774168Y-100429100D01*
G75*
G02*
X26574168Y-100229100I0J200000D01*
G01*
X26574168Y-99829100D01*
G75*
G02*
X26774168Y-99629100I200000J0D01*
G01*
X27324168Y-99629100D01*
G75*
G02*
X27524168Y-99829100I0J-200000D01*
G01*
X27524168Y-100229100D01*
G75*
G02*
X27324168Y-100429100I-200000J0D01*
G01*
G37*
%TD*%
%TO.C,R28*%
G36*
G01*
X30790994Y-99629100D02*
X31340994Y-99629100D01*
G75*
G02*
X31540994Y-99829100I0J-200000D01*
G01*
X31540994Y-100229100D01*
G75*
G02*
X31340994Y-100429100I-200000J0D01*
G01*
X30790994Y-100429100D01*
G75*
G02*
X30590994Y-100229100I0J200000D01*
G01*
X30590994Y-99829100D01*
G75*
G02*
X30790994Y-99629100I200000J0D01*
G01*
G37*
G36*
G01*
X30790994Y-97979100D02*
X31340994Y-97979100D01*
G75*
G02*
X31540994Y-98179100I0J-200000D01*
G01*
X31540994Y-98579100D01*
G75*
G02*
X31340994Y-98779100I-200000J0D01*
G01*
X30790994Y-98779100D01*
G75*
G02*
X30590994Y-98579100I0J200000D01*
G01*
X30590994Y-98179100D01*
G75*
G02*
X30790994Y-97979100I200000J0D01*
G01*
G37*
%TD*%
%TO.C,R22*%
G36*
G01*
X28113110Y-99629100D02*
X28663110Y-99629100D01*
G75*
G02*
X28863110Y-99829100I0J-200000D01*
G01*
X28863110Y-100229100D01*
G75*
G02*
X28663110Y-100429100I-200000J0D01*
G01*
X28113110Y-100429100D01*
G75*
G02*
X27913110Y-100229100I0J200000D01*
G01*
X27913110Y-99829100D01*
G75*
G02*
X28113110Y-99629100I200000J0D01*
G01*
G37*
G36*
G01*
X28113110Y-97979100D02*
X28663110Y-97979100D01*
G75*
G02*
X28863110Y-98179100I0J-200000D01*
G01*
X28863110Y-98579100D01*
G75*
G02*
X28663110Y-98779100I-200000J0D01*
G01*
X28113110Y-98779100D01*
G75*
G02*
X27913110Y-98579100I0J200000D01*
G01*
X27913110Y-98179100D01*
G75*
G02*
X28113110Y-97979100I200000J0D01*
G01*
G37*
%TD*%
%TO.C,R30*%
G36*
G01*
X21968400Y-98779100D02*
X21418400Y-98779100D01*
G75*
G02*
X21218400Y-98579100I0J200000D01*
G01*
X21218400Y-98179100D01*
G75*
G02*
X21418400Y-97979100I200000J0D01*
G01*
X21968400Y-97979100D01*
G75*
G02*
X22168400Y-98179100I0J-200000D01*
G01*
X22168400Y-98579100D01*
G75*
G02*
X21968400Y-98779100I-200000J0D01*
G01*
G37*
G36*
G01*
X21968400Y-100429100D02*
X21418400Y-100429100D01*
G75*
G02*
X21218400Y-100229100I0J200000D01*
G01*
X21218400Y-99829100D01*
G75*
G02*
X21418400Y-99629100I200000J0D01*
G01*
X21968400Y-99629100D01*
G75*
G02*
X22168400Y-99829100I0J-200000D01*
G01*
X22168400Y-100229100D01*
G75*
G02*
X21968400Y-100429100I-200000J0D01*
G01*
G37*
%TD*%
%TO.C,R23*%
G36*
G01*
X25000000Y-88900000D02*
X25000000Y-88350000D01*
G75*
G02*
X25200000Y-88150000I200000J0D01*
G01*
X25600000Y-88150000D01*
G75*
G02*
X25800000Y-88350000I0J-200000D01*
G01*
X25800000Y-88900000D01*
G75*
G02*
X25600000Y-89100000I-200000J0D01*
G01*
X25200000Y-89100000D01*
G75*
G02*
X25000000Y-88900000I0J200000D01*
G01*
G37*
G36*
G01*
X23350000Y-88900000D02*
X23350000Y-88350000D01*
G75*
G02*
X23550000Y-88150000I200000J0D01*
G01*
X23950000Y-88150000D01*
G75*
G02*
X24150000Y-88350000I0J-200000D01*
G01*
X24150000Y-88900000D01*
G75*
G02*
X23950000Y-89100000I-200000J0D01*
G01*
X23550000Y-89100000D01*
G75*
G02*
X23350000Y-88900000I0J200000D01*
G01*
G37*
%TD*%
D18*
%TO.C,Q1*%
X25900000Y-91050000D03*
X23900000Y-92000000D03*
X23900000Y-90100000D03*
%TD*%
D19*
%TO.C,D9*%
X22075000Y-96850000D03*
X22075000Y-93550000D03*
%TD*%
%TO.C,D6*%
X27125000Y-88850000D03*
X27125000Y-85550000D03*
%TD*%
%TO.C,C29*%
G36*
G01*
X29477052Y-99529100D02*
X29977052Y-99529100D01*
G75*
G02*
X30202052Y-99754100I0J-225000D01*
G01*
X30202052Y-100204100D01*
G75*
G02*
X29977052Y-100429100I-225000J0D01*
G01*
X29477052Y-100429100D01*
G75*
G02*
X29252052Y-100204100I0J225000D01*
G01*
X29252052Y-99754100D01*
G75*
G02*
X29477052Y-99529100I225000J0D01*
G01*
G37*
G36*
G01*
X29477052Y-97979100D02*
X29977052Y-97979100D01*
G75*
G02*
X30202052Y-98204100I0J-225000D01*
G01*
X30202052Y-98654100D01*
G75*
G02*
X29977052Y-98879100I-225000J0D01*
G01*
X29477052Y-98879100D01*
G75*
G02*
X29252052Y-98654100I0J225000D01*
G01*
X29252052Y-98204100D01*
G75*
G02*
X29477052Y-97979100I225000J0D01*
G01*
G37*
%TD*%
D13*
%TO.C,J13*%
X51150000Y-91425000D03*
%TD*%
%TO.C,J12*%
X52200000Y-93325000D03*
%TD*%
%TO.C,R34*%
G36*
G01*
X32925000Y-85850000D02*
X32375000Y-85850000D01*
G75*
G02*
X32175000Y-85650000I0J200000D01*
G01*
X32175000Y-85250000D01*
G75*
G02*
X32375000Y-85050000I200000J0D01*
G01*
X32925000Y-85050000D01*
G75*
G02*
X33125000Y-85250000I0J-200000D01*
G01*
X33125000Y-85650000D01*
G75*
G02*
X32925000Y-85850000I-200000J0D01*
G01*
G37*
G36*
G01*
X32925000Y-87500000D02*
X32375000Y-87500000D01*
G75*
G02*
X32175000Y-87300000I0J200000D01*
G01*
X32175000Y-86900000D01*
G75*
G02*
X32375000Y-86700000I200000J0D01*
G01*
X32925000Y-86700000D01*
G75*
G02*
X33125000Y-86900000I0J-200000D01*
G01*
X33125000Y-87300000D01*
G75*
G02*
X32925000Y-87500000I-200000J0D01*
G01*
G37*
%TD*%
%TO.C,R27*%
G36*
G01*
X26625000Y-101025000D02*
X26625000Y-101575000D01*
G75*
G02*
X26425000Y-101775000I-200000J0D01*
G01*
X26025000Y-101775000D01*
G75*
G02*
X25825000Y-101575000I0J200000D01*
G01*
X25825000Y-101025000D01*
G75*
G02*
X26025000Y-100825000I200000J0D01*
G01*
X26425000Y-100825000D01*
G75*
G02*
X26625000Y-101025000I0J-200000D01*
G01*
G37*
G36*
G01*
X28275000Y-101025000D02*
X28275000Y-101575000D01*
G75*
G02*
X28075000Y-101775000I-200000J0D01*
G01*
X27675000Y-101775000D01*
G75*
G02*
X27475000Y-101575000I0J200000D01*
G01*
X27475000Y-101025000D01*
G75*
G02*
X27675000Y-100825000I200000J0D01*
G01*
X28075000Y-100825000D01*
G75*
G02*
X28275000Y-101025000I0J-200000D01*
G01*
G37*
%TD*%
%TO.C,R26*%
G36*
G01*
X24646284Y-98779100D02*
X24096284Y-98779100D01*
G75*
G02*
X23896284Y-98579100I0J200000D01*
G01*
X23896284Y-98179100D01*
G75*
G02*
X24096284Y-97979100I200000J0D01*
G01*
X24646284Y-97979100D01*
G75*
G02*
X24846284Y-98179100I0J-200000D01*
G01*
X24846284Y-98579100D01*
G75*
G02*
X24646284Y-98779100I-200000J0D01*
G01*
G37*
G36*
G01*
X24646284Y-100429100D02*
X24096284Y-100429100D01*
G75*
G02*
X23896284Y-100229100I0J200000D01*
G01*
X23896284Y-99829100D01*
G75*
G02*
X24096284Y-99629100I200000J0D01*
G01*
X24646284Y-99629100D01*
G75*
G02*
X24846284Y-99829100I0J-200000D01*
G01*
X24846284Y-100229100D01*
G75*
G02*
X24646284Y-100429100I-200000J0D01*
G01*
G37*
%TD*%
%TO.C,R19*%
G36*
G01*
X23307342Y-98779100D02*
X22757342Y-98779100D01*
G75*
G02*
X22557342Y-98579100I0J200000D01*
G01*
X22557342Y-98179100D01*
G75*
G02*
X22757342Y-97979100I200000J0D01*
G01*
X23307342Y-97979100D01*
G75*
G02*
X23507342Y-98179100I0J-200000D01*
G01*
X23507342Y-98579100D01*
G75*
G02*
X23307342Y-98779100I-200000J0D01*
G01*
G37*
G36*
G01*
X23307342Y-100429100D02*
X22757342Y-100429100D01*
G75*
G02*
X22557342Y-100229100I0J200000D01*
G01*
X22557342Y-99829100D01*
G75*
G02*
X22757342Y-99629100I200000J0D01*
G01*
X23307342Y-99629100D01*
G75*
G02*
X23507342Y-99829100I0J-200000D01*
G01*
X23507342Y-100229100D01*
G75*
G02*
X23307342Y-100429100I-200000J0D01*
G01*
G37*
%TD*%
%TO.C,C44*%
G36*
G01*
X31517000Y-85962800D02*
X31017000Y-85962800D01*
G75*
G02*
X30792000Y-85737800I0J225000D01*
G01*
X30792000Y-85287800D01*
G75*
G02*
X31017000Y-85062800I225000J0D01*
G01*
X31517000Y-85062800D01*
G75*
G02*
X31742000Y-85287800I0J-225000D01*
G01*
X31742000Y-85737800D01*
G75*
G02*
X31517000Y-85962800I-225000J0D01*
G01*
G37*
G36*
G01*
X31517000Y-87512800D02*
X31017000Y-87512800D01*
G75*
G02*
X30792000Y-87287800I0J225000D01*
G01*
X30792000Y-86837800D01*
G75*
G02*
X31017000Y-86612800I225000J0D01*
G01*
X31517000Y-86612800D01*
G75*
G02*
X31742000Y-86837800I0J-225000D01*
G01*
X31742000Y-87287800D01*
G75*
G02*
X31517000Y-87512800I-225000J0D01*
G01*
G37*
%TD*%
%TO.C,L1*%
G36*
G01*
X58675000Y-91106250D02*
X58675000Y-90343750D01*
G75*
G02*
X58893750Y-90125000I218750J0D01*
G01*
X59331250Y-90125000D01*
G75*
G02*
X59550000Y-90343750I0J-218750D01*
G01*
X59550000Y-91106250D01*
G75*
G02*
X59331250Y-91325000I-218750J0D01*
G01*
X58893750Y-91325000D01*
G75*
G02*
X58675000Y-91106250I0J218750D01*
G01*
G37*
G36*
G01*
X56550000Y-91106250D02*
X56550000Y-90343750D01*
G75*
G02*
X56768750Y-90125000I218750J0D01*
G01*
X57206250Y-90125000D01*
G75*
G02*
X57425000Y-90343750I0J-218750D01*
G01*
X57425000Y-91106250D01*
G75*
G02*
X57206250Y-91325000I-218750J0D01*
G01*
X56768750Y-91325000D01*
G75*
G02*
X56550000Y-91106250I0J218750D01*
G01*
G37*
%TD*%
D19*
%TO.C,D13*%
X29475000Y-88825000D03*
X29475000Y-85525000D03*
%TD*%
D20*
%TO.C,D8*%
X24937600Y-101450000D03*
X21637600Y-101450000D03*
%TD*%
%TO.C,C24*%
G36*
G01*
X25975000Y-94875000D02*
X25025000Y-94875000D01*
G75*
G02*
X24775000Y-94625000I0J250000D01*
G01*
X24775000Y-94125000D01*
G75*
G02*
X25025000Y-93875000I250000J0D01*
G01*
X25975000Y-93875000D01*
G75*
G02*
X26225000Y-94125000I0J-250000D01*
G01*
X26225000Y-94625000D01*
G75*
G02*
X25975000Y-94875000I-250000J0D01*
G01*
G37*
G36*
G01*
X25975000Y-96775000D02*
X25025000Y-96775000D01*
G75*
G02*
X24775000Y-96525000I0J250000D01*
G01*
X24775000Y-96025000D01*
G75*
G02*
X25025000Y-95775000I250000J0D01*
G01*
X25975000Y-95775000D01*
G75*
G02*
X26225000Y-96025000I0J-250000D01*
G01*
X26225000Y-96525000D01*
G75*
G02*
X25975000Y-96775000I-250000J0D01*
G01*
G37*
%TD*%
%TO.C,C11*%
G36*
G01*
X50025000Y-80725000D02*
X50025000Y-79775000D01*
G75*
G02*
X50275000Y-79525000I250000J0D01*
G01*
X50775000Y-79525000D01*
G75*
G02*
X51025000Y-79775000I0J-250000D01*
G01*
X51025000Y-80725000D01*
G75*
G02*
X50775000Y-80975000I-250000J0D01*
G01*
X50275000Y-80975000D01*
G75*
G02*
X50025000Y-80725000I0J250000D01*
G01*
G37*
G36*
G01*
X48125000Y-80725000D02*
X48125000Y-79775000D01*
G75*
G02*
X48375000Y-79525000I250000J0D01*
G01*
X48875000Y-79525000D01*
G75*
G02*
X49125000Y-79775000I0J-250000D01*
G01*
X49125000Y-80725000D01*
G75*
G02*
X48875000Y-80975000I-250000J0D01*
G01*
X48375000Y-80975000D01*
G75*
G02*
X48125000Y-80725000I0J250000D01*
G01*
G37*
%TD*%
D13*
%TO.C,J2*%
X39275000Y-90750000D03*
%TD*%
%TO.C,J1*%
X41350000Y-90900000D03*
%TD*%
%TO.C,J5*%
X39275000Y-88625000D03*
%TD*%
M02*
