M48
; DRILL file {KiCad 5.1.9+dfsg1-1+deb11u1} date Mon Dec  5 14:20:54 2022
; FORMAT={-:-/ absolute / metric / decimal}
; #@! TF.CreationDate,2022-12-05T14:20:54+03:00
; #@! TF.GenerationSoftware,Kicad,Pcbnew,5.1.9+dfsg1-1+deb11u1
FMAT,2
METRIC
T1C0.400
T2C0.762
T3C1.630
%
G90
G05
T1
X1.43Y4.33
X2.8Y0.99
X4.7Y19.49
X5.35Y1.815
X6.3Y13.34
X8.075Y0.99
X9.0Y11.665
X12.72Y24.11
X16.44Y18.34
X16.51Y10.76
X17.52Y6.86
X20.44Y20.43
X21.43Y14.0
X21.59Y15.78
X22.75Y22.28
X23.39Y15.45
X25.17Y14.15
X26.06Y19.75
X31.2Y34.165
X31.37Y22.33
X33.35Y9.715
X33.475Y6.54
X33.8Y13.715
X34.0Y16.87
X34.61Y15.58
X35.65Y14.84
X36.17Y13.64
X36.175Y19.015
X37.49Y17.4
X38.275Y13.74
X38.83Y2.08
X38.87Y3.44
X39.125Y17.565
X39.175Y15.09
X39.68Y5.59
X40.075Y8.565
X40.35Y21.765
X42.075Y11.815
X42.1Y13.44
X42.8Y9.315
T2
X28.445Y41.115
X28.445Y38.575
X28.445Y30.405
X28.445Y27.865
X38.875Y40.205
X38.875Y37.665
X38.875Y35.125
X38.875Y32.585
X38.875Y30.045
X41.415Y38.935
X41.415Y36.395
X41.415Y33.855
X41.415Y31.315
X41.415Y28.775
T3
X35.575Y42.235
X35.575Y26.745
T0
M30
