M48
; DRILL file {KiCad 5.1.9+dfsg1-1} date Fri Nov 11 12:06:54 2022
; FORMAT={3:3/ absolute / metric / keep zeros}
; #@! TF.CreationDate,2022-11-11T12:06:54+03:00
; #@! TF.GenerationSoftware,Kicad,Pcbnew,5.1.9+dfsg1-1
FMAT,2
METRIC
T1C0.400
T2C0.762
T3C1.630
%
G90
G05
T1
X000800Y004290
X002800Y000990
X004700Y019490
X005350Y001815
X006300Y013340
X008075Y000990
X009000Y011665
X012720Y024110
X016440Y018340
X016510Y010760
X017520Y006860
X020440Y020430
X021430Y014000
X021590Y015780
X022750Y022280
X023390Y015450
X025170Y014150
X026060Y019750
X031200Y034165
X031370Y022330
X033350Y009715
X033475Y006540
X033800Y013715
X034000Y016870
X034610Y015580
X035650Y014840
X036170Y013640
X036175Y019015
X037490Y017400
X038275Y013740
X038830Y002080
X038870Y003440
X039125Y017565
X039175Y015090
X039680Y005590
X040075Y008565
X040350Y021765
X042075Y011815
X042100Y013440
X042800Y009315
T2
X028445Y041115
X028445Y038575
X028445Y030405
X028445Y027865
X038875Y040205
X038875Y037665
X038875Y035125
X038875Y032585
X038875Y030045
X041415Y038935
X041415Y036395
X041415Y033855
X041415Y031315
X041415Y028775
T3
X035575Y042235
X035575Y026745
T0
M30
