M48
; DRILL file {KiCad 5.1.9+dfsg1-1} date Tue Sep 13 11:04:36 2022
; FORMAT={3:3/ absolute / metric / keep zeros}
; #@! TF.CreationDate,2022-09-13T11:04:36+03:00
; #@! TF.GenerationSoftware,Kicad,Pcbnew,5.1.9+dfsg1-1
FMAT,2
METRIC
T1C0.400
T2C0.762
T3C1.630
%
G90
G05
T1
X020400Y-100100
X022400Y-103400
X024300Y-084900
X024950Y-102575
X025900Y-091050
X027675Y-103400
X028600Y-092725
X032300Y-080450
X034450Y-089150
X037725Y-091975
X039325Y-091750
X039725Y-096475
X041450Y-077900
X045200Y-071550
X045600Y-076125
X045600Y-088550
X046725Y-102925
X047200Y-085875
X051250Y-071225
X052950Y-094675
X053075Y-097850
X053325Y-087300
X053400Y-090675
X053800Y-089475
X055125Y-089575
X055650Y-090725
X055775Y-085375
X056950Y-082400
X057075Y-087425
X057875Y-090650
X058725Y-086825
X058775Y-089300
X059675Y-095825
X059950Y-082625
X061525Y-103300
X061535Y-101575
X061675Y-092575
X061925Y-100150
X062150Y-091125
X062775Y-094250
T2
X048395Y-063350
X048395Y-065890
X048395Y-074060
X048395Y-076600
X058825Y-064260
X058825Y-066800
X058825Y-069340
X058825Y-071880
X058825Y-074420
X061365Y-065530
X061365Y-068070
X061365Y-070610
X061365Y-073150
X061365Y-075690
T3
X055525Y-062230
X055525Y-077720
T0
M30
